%TF.GenerationSoftware,KiCad,Pcbnew,8.0.3*%
%TF.CreationDate,2024-06-07T04:34:52+08:00*%
%TF.ProjectId,Mini-K1-64,4d696e69-2d4b-4312-9d36-342e6b696361,rev?*%
%TF.SameCoordinates,Original*%
%TF.FileFunction,Legend,Bot*%
%TF.FilePolarity,Positive*%
%FSLAX46Y46*%
G04 Gerber Fmt 4.6, Leading zero omitted, Abs format (unit mm)*
G04 Created by KiCad (PCBNEW 8.0.3) date 2024-06-07 04:34:52*
%MOMM*%
%LPD*%
G01*
G04 APERTURE LIST*
G04 Aperture macros list*
%AMRoundRect*
0 Rectangle with rounded corners*
0 $1 Rounding radius*
0 $2 $3 $4 $5 $6 $7 $8 $9 X,Y pos of 4 corners*
0 Add a 4 corners polygon primitive as box body*
4,1,4,$2,$3,$4,$5,$6,$7,$8,$9,$2,$3,0*
0 Add four circle primitives for the rounded corners*
1,1,$1+$1,$2,$3*
1,1,$1+$1,$4,$5*
1,1,$1+$1,$6,$7*
1,1,$1+$1,$8,$9*
0 Add four rect primitives between the rounded corners*
20,1,$1+$1,$2,$3,$4,$5,0*
20,1,$1+$1,$4,$5,$6,$7,0*
20,1,$1+$1,$6,$7,$8,$9,0*
20,1,$1+$1,$8,$9,$2,$3,0*%
G04 Aperture macros list end*
%ADD10C,0.150000*%
%ADD11C,0.120000*%
%ADD12R,1.700000X1.700000*%
%ADD13O,1.700000X1.700000*%
%ADD14C,3.500000*%
%ADD15C,0.650000*%
%ADD16O,1.000000X2.100000*%
%ADD17O,1.000000X1.800000*%
%ADD18C,2.000000*%
%ADD19C,1.500000*%
%ADD20RoundRect,0.218750X-0.381250X0.218750X-0.381250X-0.218750X0.381250X-0.218750X0.381250X0.218750X0*%
%ADD21RoundRect,0.250000X-0.450000X0.262500X-0.450000X-0.262500X0.450000X-0.262500X0.450000X0.262500X0*%
%ADD22RoundRect,0.250000X0.475000X-0.250000X0.475000X0.250000X-0.475000X0.250000X-0.475000X-0.250000X0*%
%ADD23RoundRect,0.250000X0.262500X0.450000X-0.262500X0.450000X-0.262500X-0.450000X0.262500X-0.450000X0*%
%ADD24RoundRect,0.250000X0.250000X0.475000X-0.250000X0.475000X-0.250000X-0.475000X0.250000X-0.475000X0*%
%ADD25RoundRect,0.250000X-0.262500X-0.450000X0.262500X-0.450000X0.262500X0.450000X-0.262500X0.450000X0*%
%ADD26RoundRect,0.250000X0.400000X0.600000X-0.400000X0.600000X-0.400000X-0.600000X0.400000X-0.600000X0*%
%ADD27RoundRect,0.250000X0.450000X-0.262500X0.450000X0.262500X-0.450000X0.262500X-0.450000X-0.262500X0*%
%ADD28RoundRect,0.250000X-0.475000X0.250000X-0.475000X-0.250000X0.475000X-0.250000X0.475000X0.250000X0*%
%ADD29RoundRect,0.375000X-0.375000X0.625000X-0.375000X-0.625000X0.375000X-0.625000X0.375000X0.625000X0*%
%ADD30RoundRect,0.500000X-1.400000X0.500000X-1.400000X-0.500000X1.400000X-0.500000X1.400000X0.500000X0*%
G04 APERTURE END LIST*
D10*
X131951666Y-105304819D02*
X132427856Y-105304819D01*
X132427856Y-105304819D02*
X132427856Y-104304819D01*
X131094523Y-105304819D02*
X131665951Y-105304819D01*
X131380237Y-105304819D02*
X131380237Y-104304819D01*
X131380237Y-104304819D02*
X131475475Y-104447676D01*
X131475475Y-104447676D02*
X131570713Y-104542914D01*
X131570713Y-104542914D02*
X131665951Y-104590533D01*
X145967866Y-88330119D02*
X146301199Y-87853928D01*
X146539294Y-88330119D02*
X146539294Y-87330119D01*
X146539294Y-87330119D02*
X146158342Y-87330119D01*
X146158342Y-87330119D02*
X146063104Y-87377738D01*
X146063104Y-87377738D02*
X146015485Y-87425357D01*
X146015485Y-87425357D02*
X145967866Y-87520595D01*
X145967866Y-87520595D02*
X145967866Y-87663452D01*
X145967866Y-87663452D02*
X146015485Y-87758690D01*
X146015485Y-87758690D02*
X146063104Y-87806309D01*
X146063104Y-87806309D02*
X146158342Y-87853928D01*
X146158342Y-87853928D02*
X146539294Y-87853928D01*
X145110723Y-87663452D02*
X145110723Y-88330119D01*
X145348818Y-87282500D02*
X145586913Y-87996785D01*
X145586913Y-87996785D02*
X144967866Y-87996785D01*
X162626666Y-108359580D02*
X162674285Y-108407200D01*
X162674285Y-108407200D02*
X162817142Y-108454819D01*
X162817142Y-108454819D02*
X162912380Y-108454819D01*
X162912380Y-108454819D02*
X163055237Y-108407200D01*
X163055237Y-108407200D02*
X163150475Y-108311961D01*
X163150475Y-108311961D02*
X163198094Y-108216723D01*
X163198094Y-108216723D02*
X163245713Y-108026247D01*
X163245713Y-108026247D02*
X163245713Y-107883390D01*
X163245713Y-107883390D02*
X163198094Y-107692914D01*
X163198094Y-107692914D02*
X163150475Y-107597676D01*
X163150475Y-107597676D02*
X163055237Y-107502438D01*
X163055237Y-107502438D02*
X162912380Y-107454819D01*
X162912380Y-107454819D02*
X162817142Y-107454819D01*
X162817142Y-107454819D02*
X162674285Y-107502438D01*
X162674285Y-107502438D02*
X162626666Y-107550057D01*
X162293332Y-107454819D02*
X161674285Y-107454819D01*
X161674285Y-107454819D02*
X162007618Y-107835771D01*
X162007618Y-107835771D02*
X161864761Y-107835771D01*
X161864761Y-107835771D02*
X161769523Y-107883390D01*
X161769523Y-107883390D02*
X161721904Y-107931009D01*
X161721904Y-107931009D02*
X161674285Y-108026247D01*
X161674285Y-108026247D02*
X161674285Y-108264342D01*
X161674285Y-108264342D02*
X161721904Y-108359580D01*
X161721904Y-108359580D02*
X161769523Y-108407200D01*
X161769523Y-108407200D02*
X161864761Y-108454819D01*
X161864761Y-108454819D02*
X162150475Y-108454819D01*
X162150475Y-108454819D02*
X162245713Y-108407200D01*
X162245713Y-108407200D02*
X162293332Y-108359580D01*
X124175457Y-95351619D02*
X124508790Y-94875428D01*
X124746885Y-95351619D02*
X124746885Y-94351619D01*
X124746885Y-94351619D02*
X124365933Y-94351619D01*
X124365933Y-94351619D02*
X124270695Y-94399238D01*
X124270695Y-94399238D02*
X124223076Y-94446857D01*
X124223076Y-94446857D02*
X124175457Y-94542095D01*
X124175457Y-94542095D02*
X124175457Y-94684952D01*
X124175457Y-94684952D02*
X124223076Y-94780190D01*
X124223076Y-94780190D02*
X124270695Y-94827809D01*
X124270695Y-94827809D02*
X124365933Y-94875428D01*
X124365933Y-94875428D02*
X124746885Y-94875428D01*
X123223076Y-95351619D02*
X123794504Y-95351619D01*
X123508790Y-95351619D02*
X123508790Y-94351619D01*
X123508790Y-94351619D02*
X123604028Y-94494476D01*
X123604028Y-94494476D02*
X123699266Y-94589714D01*
X123699266Y-94589714D02*
X123794504Y-94637333D01*
X122889742Y-94351619D02*
X122270695Y-94351619D01*
X122270695Y-94351619D02*
X122604028Y-94732571D01*
X122604028Y-94732571D02*
X122461171Y-94732571D01*
X122461171Y-94732571D02*
X122365933Y-94780190D01*
X122365933Y-94780190D02*
X122318314Y-94827809D01*
X122318314Y-94827809D02*
X122270695Y-94923047D01*
X122270695Y-94923047D02*
X122270695Y-95161142D01*
X122270695Y-95161142D02*
X122318314Y-95256380D01*
X122318314Y-95256380D02*
X122365933Y-95304000D01*
X122365933Y-95304000D02*
X122461171Y-95351619D01*
X122461171Y-95351619D02*
X122746885Y-95351619D01*
X122746885Y-95351619D02*
X122842123Y-95304000D01*
X122842123Y-95304000D02*
X122889742Y-95256380D01*
X121997466Y-109937580D02*
X122045085Y-109985200D01*
X122045085Y-109985200D02*
X122187942Y-110032819D01*
X122187942Y-110032819D02*
X122283180Y-110032819D01*
X122283180Y-110032819D02*
X122426037Y-109985200D01*
X122426037Y-109985200D02*
X122521275Y-109889961D01*
X122521275Y-109889961D02*
X122568894Y-109794723D01*
X122568894Y-109794723D02*
X122616513Y-109604247D01*
X122616513Y-109604247D02*
X122616513Y-109461390D01*
X122616513Y-109461390D02*
X122568894Y-109270914D01*
X122568894Y-109270914D02*
X122521275Y-109175676D01*
X122521275Y-109175676D02*
X122426037Y-109080438D01*
X122426037Y-109080438D02*
X122283180Y-109032819D01*
X122283180Y-109032819D02*
X122187942Y-109032819D01*
X122187942Y-109032819D02*
X122045085Y-109080438D01*
X122045085Y-109080438D02*
X121997466Y-109128057D01*
X121664132Y-109032819D02*
X120997466Y-109032819D01*
X120997466Y-109032819D02*
X121426037Y-110032819D01*
X160501736Y-108359580D02*
X160549355Y-108407200D01*
X160549355Y-108407200D02*
X160692212Y-108454819D01*
X160692212Y-108454819D02*
X160787450Y-108454819D01*
X160787450Y-108454819D02*
X160930307Y-108407200D01*
X160930307Y-108407200D02*
X161025545Y-108311961D01*
X161025545Y-108311961D02*
X161073164Y-108216723D01*
X161073164Y-108216723D02*
X161120783Y-108026247D01*
X161120783Y-108026247D02*
X161120783Y-107883390D01*
X161120783Y-107883390D02*
X161073164Y-107692914D01*
X161073164Y-107692914D02*
X161025545Y-107597676D01*
X161025545Y-107597676D02*
X160930307Y-107502438D01*
X160930307Y-107502438D02*
X160787450Y-107454819D01*
X160787450Y-107454819D02*
X160692212Y-107454819D01*
X160692212Y-107454819D02*
X160549355Y-107502438D01*
X160549355Y-107502438D02*
X160501736Y-107550057D01*
X159644593Y-107788152D02*
X159644593Y-108454819D01*
X159882688Y-107407200D02*
X160120783Y-108121485D01*
X160120783Y-108121485D02*
X159501736Y-108121485D01*
X148592866Y-88330119D02*
X148926199Y-87853928D01*
X149164294Y-88330119D02*
X149164294Y-87330119D01*
X149164294Y-87330119D02*
X148783342Y-87330119D01*
X148783342Y-87330119D02*
X148688104Y-87377738D01*
X148688104Y-87377738D02*
X148640485Y-87425357D01*
X148640485Y-87425357D02*
X148592866Y-87520595D01*
X148592866Y-87520595D02*
X148592866Y-87663452D01*
X148592866Y-87663452D02*
X148640485Y-87758690D01*
X148640485Y-87758690D02*
X148688104Y-87806309D01*
X148688104Y-87806309D02*
X148783342Y-87853928D01*
X148783342Y-87853928D02*
X149164294Y-87853928D01*
X147688104Y-87330119D02*
X148164294Y-87330119D01*
X148164294Y-87330119D02*
X148211913Y-87806309D01*
X148211913Y-87806309D02*
X148164294Y-87758690D01*
X148164294Y-87758690D02*
X148069056Y-87711071D01*
X148069056Y-87711071D02*
X147830961Y-87711071D01*
X147830961Y-87711071D02*
X147735723Y-87758690D01*
X147735723Y-87758690D02*
X147688104Y-87806309D01*
X147688104Y-87806309D02*
X147640485Y-87901547D01*
X147640485Y-87901547D02*
X147640485Y-88139642D01*
X147640485Y-88139642D02*
X147688104Y-88234880D01*
X147688104Y-88234880D02*
X147735723Y-88282500D01*
X147735723Y-88282500D02*
X147830961Y-88330119D01*
X147830961Y-88330119D02*
X148069056Y-88330119D01*
X148069056Y-88330119D02*
X148164294Y-88282500D01*
X148164294Y-88282500D02*
X148211913Y-88234880D01*
X130202857Y-109079819D02*
X130536190Y-108603628D01*
X130774285Y-109079819D02*
X130774285Y-108079819D01*
X130774285Y-108079819D02*
X130393333Y-108079819D01*
X130393333Y-108079819D02*
X130298095Y-108127438D01*
X130298095Y-108127438D02*
X130250476Y-108175057D01*
X130250476Y-108175057D02*
X130202857Y-108270295D01*
X130202857Y-108270295D02*
X130202857Y-108413152D01*
X130202857Y-108413152D02*
X130250476Y-108508390D01*
X130250476Y-108508390D02*
X130298095Y-108556009D01*
X130298095Y-108556009D02*
X130393333Y-108603628D01*
X130393333Y-108603628D02*
X130774285Y-108603628D01*
X129250476Y-109079819D02*
X129821904Y-109079819D01*
X129536190Y-109079819D02*
X129536190Y-108079819D01*
X129536190Y-108079819D02*
X129631428Y-108222676D01*
X129631428Y-108222676D02*
X129726666Y-108317914D01*
X129726666Y-108317914D02*
X129821904Y-108365533D01*
X128393333Y-108413152D02*
X128393333Y-109079819D01*
X128631428Y-108032200D02*
X128869523Y-108746485D01*
X128869523Y-108746485D02*
X128250476Y-108746485D01*
X151067866Y-88330119D02*
X151401199Y-87853928D01*
X151639294Y-88330119D02*
X151639294Y-87330119D01*
X151639294Y-87330119D02*
X151258342Y-87330119D01*
X151258342Y-87330119D02*
X151163104Y-87377738D01*
X151163104Y-87377738D02*
X151115485Y-87425357D01*
X151115485Y-87425357D02*
X151067866Y-87520595D01*
X151067866Y-87520595D02*
X151067866Y-87663452D01*
X151067866Y-87663452D02*
X151115485Y-87758690D01*
X151115485Y-87758690D02*
X151163104Y-87806309D01*
X151163104Y-87806309D02*
X151258342Y-87853928D01*
X151258342Y-87853928D02*
X151639294Y-87853928D01*
X150210723Y-87330119D02*
X150401199Y-87330119D01*
X150401199Y-87330119D02*
X150496437Y-87377738D01*
X150496437Y-87377738D02*
X150544056Y-87425357D01*
X150544056Y-87425357D02*
X150639294Y-87568214D01*
X150639294Y-87568214D02*
X150686913Y-87758690D01*
X150686913Y-87758690D02*
X150686913Y-88139642D01*
X150686913Y-88139642D02*
X150639294Y-88234880D01*
X150639294Y-88234880D02*
X150591675Y-88282500D01*
X150591675Y-88282500D02*
X150496437Y-88330119D01*
X150496437Y-88330119D02*
X150305961Y-88330119D01*
X150305961Y-88330119D02*
X150210723Y-88282500D01*
X150210723Y-88282500D02*
X150163104Y-88234880D01*
X150163104Y-88234880D02*
X150115485Y-88139642D01*
X150115485Y-88139642D02*
X150115485Y-87901547D01*
X150115485Y-87901547D02*
X150163104Y-87806309D01*
X150163104Y-87806309D02*
X150210723Y-87758690D01*
X150210723Y-87758690D02*
X150305961Y-87711071D01*
X150305961Y-87711071D02*
X150496437Y-87711071D01*
X150496437Y-87711071D02*
X150591675Y-87758690D01*
X150591675Y-87758690D02*
X150639294Y-87806309D01*
X150639294Y-87806309D02*
X150686913Y-87901547D01*
X123661094Y-91236819D02*
X123661094Y-90236819D01*
X123661094Y-90236819D02*
X123422999Y-90236819D01*
X123422999Y-90236819D02*
X123280142Y-90284438D01*
X123280142Y-90284438D02*
X123184904Y-90379676D01*
X123184904Y-90379676D02*
X123137285Y-90474914D01*
X123137285Y-90474914D02*
X123089666Y-90665390D01*
X123089666Y-90665390D02*
X123089666Y-90808247D01*
X123089666Y-90808247D02*
X123137285Y-90998723D01*
X123137285Y-90998723D02*
X123184904Y-91093961D01*
X123184904Y-91093961D02*
X123280142Y-91189200D01*
X123280142Y-91189200D02*
X123422999Y-91236819D01*
X123422999Y-91236819D02*
X123661094Y-91236819D01*
X122137285Y-91236819D02*
X122708713Y-91236819D01*
X122422999Y-91236819D02*
X122422999Y-90236819D01*
X122422999Y-90236819D02*
X122518237Y-90379676D01*
X122518237Y-90379676D02*
X122613475Y-90474914D01*
X122613475Y-90474914D02*
X122708713Y-90522533D01*
X153667866Y-88330119D02*
X154001199Y-87853928D01*
X154239294Y-88330119D02*
X154239294Y-87330119D01*
X154239294Y-87330119D02*
X153858342Y-87330119D01*
X153858342Y-87330119D02*
X153763104Y-87377738D01*
X153763104Y-87377738D02*
X153715485Y-87425357D01*
X153715485Y-87425357D02*
X153667866Y-87520595D01*
X153667866Y-87520595D02*
X153667866Y-87663452D01*
X153667866Y-87663452D02*
X153715485Y-87758690D01*
X153715485Y-87758690D02*
X153763104Y-87806309D01*
X153763104Y-87806309D02*
X153858342Y-87853928D01*
X153858342Y-87853928D02*
X154239294Y-87853928D01*
X153334532Y-87330119D02*
X152667866Y-87330119D01*
X152667866Y-87330119D02*
X153096437Y-88330119D01*
X126639819Y-116782142D02*
X126163628Y-116448809D01*
X126639819Y-116210714D02*
X125639819Y-116210714D01*
X125639819Y-116210714D02*
X125639819Y-116591666D01*
X125639819Y-116591666D02*
X125687438Y-116686904D01*
X125687438Y-116686904D02*
X125735057Y-116734523D01*
X125735057Y-116734523D02*
X125830295Y-116782142D01*
X125830295Y-116782142D02*
X125973152Y-116782142D01*
X125973152Y-116782142D02*
X126068390Y-116734523D01*
X126068390Y-116734523D02*
X126116009Y-116686904D01*
X126116009Y-116686904D02*
X126163628Y-116591666D01*
X126163628Y-116591666D02*
X126163628Y-116210714D01*
X126639819Y-117734523D02*
X126639819Y-117163095D01*
X126639819Y-117448809D02*
X125639819Y-117448809D01*
X125639819Y-117448809D02*
X125782676Y-117353571D01*
X125782676Y-117353571D02*
X125877914Y-117258333D01*
X125877914Y-117258333D02*
X125925533Y-117163095D01*
X125639819Y-118639285D02*
X125639819Y-118163095D01*
X125639819Y-118163095D02*
X126116009Y-118115476D01*
X126116009Y-118115476D02*
X126068390Y-118163095D01*
X126068390Y-118163095D02*
X126020771Y-118258333D01*
X126020771Y-118258333D02*
X126020771Y-118496428D01*
X126020771Y-118496428D02*
X126068390Y-118591666D01*
X126068390Y-118591666D02*
X126116009Y-118639285D01*
X126116009Y-118639285D02*
X126211247Y-118686904D01*
X126211247Y-118686904D02*
X126449342Y-118686904D01*
X126449342Y-118686904D02*
X126544580Y-118639285D01*
X126544580Y-118639285D02*
X126592200Y-118591666D01*
X126592200Y-118591666D02*
X126639819Y-118496428D01*
X126639819Y-118496428D02*
X126639819Y-118258333D01*
X126639819Y-118258333D02*
X126592200Y-118163095D01*
X126592200Y-118163095D02*
X126544580Y-118115476D01*
X143492866Y-88330119D02*
X143826199Y-87853928D01*
X144064294Y-88330119D02*
X144064294Y-87330119D01*
X144064294Y-87330119D02*
X143683342Y-87330119D01*
X143683342Y-87330119D02*
X143588104Y-87377738D01*
X143588104Y-87377738D02*
X143540485Y-87425357D01*
X143540485Y-87425357D02*
X143492866Y-87520595D01*
X143492866Y-87520595D02*
X143492866Y-87663452D01*
X143492866Y-87663452D02*
X143540485Y-87758690D01*
X143540485Y-87758690D02*
X143588104Y-87806309D01*
X143588104Y-87806309D02*
X143683342Y-87853928D01*
X143683342Y-87853928D02*
X144064294Y-87853928D01*
X142921437Y-87758690D02*
X143016675Y-87711071D01*
X143016675Y-87711071D02*
X143064294Y-87663452D01*
X143064294Y-87663452D02*
X143111913Y-87568214D01*
X143111913Y-87568214D02*
X143111913Y-87520595D01*
X143111913Y-87520595D02*
X143064294Y-87425357D01*
X143064294Y-87425357D02*
X143016675Y-87377738D01*
X143016675Y-87377738D02*
X142921437Y-87330119D01*
X142921437Y-87330119D02*
X142730961Y-87330119D01*
X142730961Y-87330119D02*
X142635723Y-87377738D01*
X142635723Y-87377738D02*
X142588104Y-87425357D01*
X142588104Y-87425357D02*
X142540485Y-87520595D01*
X142540485Y-87520595D02*
X142540485Y-87568214D01*
X142540485Y-87568214D02*
X142588104Y-87663452D01*
X142588104Y-87663452D02*
X142635723Y-87711071D01*
X142635723Y-87711071D02*
X142730961Y-87758690D01*
X142730961Y-87758690D02*
X142921437Y-87758690D01*
X142921437Y-87758690D02*
X143016675Y-87806309D01*
X143016675Y-87806309D02*
X143064294Y-87853928D01*
X143064294Y-87853928D02*
X143111913Y-87949166D01*
X143111913Y-87949166D02*
X143111913Y-88139642D01*
X143111913Y-88139642D02*
X143064294Y-88234880D01*
X143064294Y-88234880D02*
X143016675Y-88282500D01*
X143016675Y-88282500D02*
X142921437Y-88330119D01*
X142921437Y-88330119D02*
X142730961Y-88330119D01*
X142730961Y-88330119D02*
X142635723Y-88282500D01*
X142635723Y-88282500D02*
X142588104Y-88234880D01*
X142588104Y-88234880D02*
X142540485Y-88139642D01*
X142540485Y-88139642D02*
X142540485Y-87949166D01*
X142540485Y-87949166D02*
X142588104Y-87853928D01*
X142588104Y-87853928D02*
X142635723Y-87806309D01*
X142635723Y-87806309D02*
X142730961Y-87758690D01*
X156317866Y-88330119D02*
X156651199Y-87853928D01*
X156889294Y-88330119D02*
X156889294Y-87330119D01*
X156889294Y-87330119D02*
X156508342Y-87330119D01*
X156508342Y-87330119D02*
X156413104Y-87377738D01*
X156413104Y-87377738D02*
X156365485Y-87425357D01*
X156365485Y-87425357D02*
X156317866Y-87520595D01*
X156317866Y-87520595D02*
X156317866Y-87663452D01*
X156317866Y-87663452D02*
X156365485Y-87758690D01*
X156365485Y-87758690D02*
X156413104Y-87806309D01*
X156413104Y-87806309D02*
X156508342Y-87853928D01*
X156508342Y-87853928D02*
X156889294Y-87853928D01*
X155841675Y-88330119D02*
X155651199Y-88330119D01*
X155651199Y-88330119D02*
X155555961Y-88282500D01*
X155555961Y-88282500D02*
X155508342Y-88234880D01*
X155508342Y-88234880D02*
X155413104Y-88092023D01*
X155413104Y-88092023D02*
X155365485Y-87901547D01*
X155365485Y-87901547D02*
X155365485Y-87520595D01*
X155365485Y-87520595D02*
X155413104Y-87425357D01*
X155413104Y-87425357D02*
X155460723Y-87377738D01*
X155460723Y-87377738D02*
X155555961Y-87330119D01*
X155555961Y-87330119D02*
X155746437Y-87330119D01*
X155746437Y-87330119D02*
X155841675Y-87377738D01*
X155841675Y-87377738D02*
X155889294Y-87425357D01*
X155889294Y-87425357D02*
X155936913Y-87520595D01*
X155936913Y-87520595D02*
X155936913Y-87758690D01*
X155936913Y-87758690D02*
X155889294Y-87853928D01*
X155889294Y-87853928D02*
X155841675Y-87901547D01*
X155841675Y-87901547D02*
X155746437Y-87949166D01*
X155746437Y-87949166D02*
X155555961Y-87949166D01*
X155555961Y-87949166D02*
X155460723Y-87901547D01*
X155460723Y-87901547D02*
X155413104Y-87853928D01*
X155413104Y-87853928D02*
X155365485Y-87758690D01*
X121483057Y-82956419D02*
X121816390Y-82480228D01*
X122054485Y-82956419D02*
X122054485Y-81956419D01*
X122054485Y-81956419D02*
X121673533Y-81956419D01*
X121673533Y-81956419D02*
X121578295Y-82004038D01*
X121578295Y-82004038D02*
X121530676Y-82051657D01*
X121530676Y-82051657D02*
X121483057Y-82146895D01*
X121483057Y-82146895D02*
X121483057Y-82289752D01*
X121483057Y-82289752D02*
X121530676Y-82384990D01*
X121530676Y-82384990D02*
X121578295Y-82432609D01*
X121578295Y-82432609D02*
X121673533Y-82480228D01*
X121673533Y-82480228D02*
X122054485Y-82480228D01*
X120530676Y-82956419D02*
X121102104Y-82956419D01*
X120816390Y-82956419D02*
X120816390Y-81956419D01*
X120816390Y-81956419D02*
X120911628Y-82099276D01*
X120911628Y-82099276D02*
X121006866Y-82194514D01*
X121006866Y-82194514D02*
X121102104Y-82242133D01*
X119911628Y-81956419D02*
X119816390Y-81956419D01*
X119816390Y-81956419D02*
X119721152Y-82004038D01*
X119721152Y-82004038D02*
X119673533Y-82051657D01*
X119673533Y-82051657D02*
X119625914Y-82146895D01*
X119625914Y-82146895D02*
X119578295Y-82337371D01*
X119578295Y-82337371D02*
X119578295Y-82575466D01*
X119578295Y-82575466D02*
X119625914Y-82765942D01*
X119625914Y-82765942D02*
X119673533Y-82861180D01*
X119673533Y-82861180D02*
X119721152Y-82908800D01*
X119721152Y-82908800D02*
X119816390Y-82956419D01*
X119816390Y-82956419D02*
X119911628Y-82956419D01*
X119911628Y-82956419D02*
X120006866Y-82908800D01*
X120006866Y-82908800D02*
X120054485Y-82861180D01*
X120054485Y-82861180D02*
X120102104Y-82765942D01*
X120102104Y-82765942D02*
X120149723Y-82575466D01*
X120149723Y-82575466D02*
X120149723Y-82337371D01*
X120149723Y-82337371D02*
X120102104Y-82146895D01*
X120102104Y-82146895D02*
X120054485Y-82051657D01*
X120054485Y-82051657D02*
X120006866Y-82004038D01*
X120006866Y-82004038D02*
X119911628Y-81956419D01*
X163016666Y-83869580D02*
X163064285Y-83917200D01*
X163064285Y-83917200D02*
X163207142Y-83964819D01*
X163207142Y-83964819D02*
X163302380Y-83964819D01*
X163302380Y-83964819D02*
X163445237Y-83917200D01*
X163445237Y-83917200D02*
X163540475Y-83821961D01*
X163540475Y-83821961D02*
X163588094Y-83726723D01*
X163588094Y-83726723D02*
X163635713Y-83536247D01*
X163635713Y-83536247D02*
X163635713Y-83393390D01*
X163635713Y-83393390D02*
X163588094Y-83202914D01*
X163588094Y-83202914D02*
X163540475Y-83107676D01*
X163540475Y-83107676D02*
X163445237Y-83012438D01*
X163445237Y-83012438D02*
X163302380Y-82964819D01*
X163302380Y-82964819D02*
X163207142Y-82964819D01*
X163207142Y-82964819D02*
X163064285Y-83012438D01*
X163064285Y-83012438D02*
X163016666Y-83060057D01*
X162635713Y-83060057D02*
X162588094Y-83012438D01*
X162588094Y-83012438D02*
X162492856Y-82964819D01*
X162492856Y-82964819D02*
X162254761Y-82964819D01*
X162254761Y-82964819D02*
X162159523Y-83012438D01*
X162159523Y-83012438D02*
X162111904Y-83060057D01*
X162111904Y-83060057D02*
X162064285Y-83155295D01*
X162064285Y-83155295D02*
X162064285Y-83250533D01*
X162064285Y-83250533D02*
X162111904Y-83393390D01*
X162111904Y-83393390D02*
X162683332Y-83964819D01*
X162683332Y-83964819D02*
X162064285Y-83964819D01*
X134426666Y-107309580D02*
X134474285Y-107357200D01*
X134474285Y-107357200D02*
X134617142Y-107404819D01*
X134617142Y-107404819D02*
X134712380Y-107404819D01*
X134712380Y-107404819D02*
X134855237Y-107357200D01*
X134855237Y-107357200D02*
X134950475Y-107261961D01*
X134950475Y-107261961D02*
X134998094Y-107166723D01*
X134998094Y-107166723D02*
X135045713Y-106976247D01*
X135045713Y-106976247D02*
X135045713Y-106833390D01*
X135045713Y-106833390D02*
X134998094Y-106642914D01*
X134998094Y-106642914D02*
X134950475Y-106547676D01*
X134950475Y-106547676D02*
X134855237Y-106452438D01*
X134855237Y-106452438D02*
X134712380Y-106404819D01*
X134712380Y-106404819D02*
X134617142Y-106404819D01*
X134617142Y-106404819D02*
X134474285Y-106452438D01*
X134474285Y-106452438D02*
X134426666Y-106500057D01*
X133855237Y-106833390D02*
X133950475Y-106785771D01*
X133950475Y-106785771D02*
X133998094Y-106738152D01*
X133998094Y-106738152D02*
X134045713Y-106642914D01*
X134045713Y-106642914D02*
X134045713Y-106595295D01*
X134045713Y-106595295D02*
X133998094Y-106500057D01*
X133998094Y-106500057D02*
X133950475Y-106452438D01*
X133950475Y-106452438D02*
X133855237Y-106404819D01*
X133855237Y-106404819D02*
X133664761Y-106404819D01*
X133664761Y-106404819D02*
X133569523Y-106452438D01*
X133569523Y-106452438D02*
X133521904Y-106500057D01*
X133521904Y-106500057D02*
X133474285Y-106595295D01*
X133474285Y-106595295D02*
X133474285Y-106642914D01*
X133474285Y-106642914D02*
X133521904Y-106738152D01*
X133521904Y-106738152D02*
X133569523Y-106785771D01*
X133569523Y-106785771D02*
X133664761Y-106833390D01*
X133664761Y-106833390D02*
X133855237Y-106833390D01*
X133855237Y-106833390D02*
X133950475Y-106881009D01*
X133950475Y-106881009D02*
X133998094Y-106928628D01*
X133998094Y-106928628D02*
X134045713Y-107023866D01*
X134045713Y-107023866D02*
X134045713Y-107214342D01*
X134045713Y-107214342D02*
X133998094Y-107309580D01*
X133998094Y-107309580D02*
X133950475Y-107357200D01*
X133950475Y-107357200D02*
X133855237Y-107404819D01*
X133855237Y-107404819D02*
X133664761Y-107404819D01*
X133664761Y-107404819D02*
X133569523Y-107357200D01*
X133569523Y-107357200D02*
X133521904Y-107309580D01*
X133521904Y-107309580D02*
X133474285Y-107214342D01*
X133474285Y-107214342D02*
X133474285Y-107023866D01*
X133474285Y-107023866D02*
X133521904Y-106928628D01*
X133521904Y-106928628D02*
X133569523Y-106881009D01*
X133569523Y-106881009D02*
X133664761Y-106833390D01*
X167582857Y-91669819D02*
X167916190Y-91193628D01*
X168154285Y-91669819D02*
X168154285Y-90669819D01*
X168154285Y-90669819D02*
X167773333Y-90669819D01*
X167773333Y-90669819D02*
X167678095Y-90717438D01*
X167678095Y-90717438D02*
X167630476Y-90765057D01*
X167630476Y-90765057D02*
X167582857Y-90860295D01*
X167582857Y-90860295D02*
X167582857Y-91003152D01*
X167582857Y-91003152D02*
X167630476Y-91098390D01*
X167630476Y-91098390D02*
X167678095Y-91146009D01*
X167678095Y-91146009D02*
X167773333Y-91193628D01*
X167773333Y-91193628D02*
X168154285Y-91193628D01*
X166630476Y-91669819D02*
X167201904Y-91669819D01*
X166916190Y-91669819D02*
X166916190Y-90669819D01*
X166916190Y-90669819D02*
X167011428Y-90812676D01*
X167011428Y-90812676D02*
X167106666Y-90907914D01*
X167106666Y-90907914D02*
X167201904Y-90955533D01*
X166249523Y-90765057D02*
X166201904Y-90717438D01*
X166201904Y-90717438D02*
X166106666Y-90669819D01*
X166106666Y-90669819D02*
X165868571Y-90669819D01*
X165868571Y-90669819D02*
X165773333Y-90717438D01*
X165773333Y-90717438D02*
X165725714Y-90765057D01*
X165725714Y-90765057D02*
X165678095Y-90860295D01*
X165678095Y-90860295D02*
X165678095Y-90955533D01*
X165678095Y-90955533D02*
X165725714Y-91098390D01*
X165725714Y-91098390D02*
X166297142Y-91669819D01*
X166297142Y-91669819D02*
X165678095Y-91669819D01*
X134426666Y-102584580D02*
X134474285Y-102632200D01*
X134474285Y-102632200D02*
X134617142Y-102679819D01*
X134617142Y-102679819D02*
X134712380Y-102679819D01*
X134712380Y-102679819D02*
X134855237Y-102632200D01*
X134855237Y-102632200D02*
X134950475Y-102536961D01*
X134950475Y-102536961D02*
X134998094Y-102441723D01*
X134998094Y-102441723D02*
X135045713Y-102251247D01*
X135045713Y-102251247D02*
X135045713Y-102108390D01*
X135045713Y-102108390D02*
X134998094Y-101917914D01*
X134998094Y-101917914D02*
X134950475Y-101822676D01*
X134950475Y-101822676D02*
X134855237Y-101727438D01*
X134855237Y-101727438D02*
X134712380Y-101679819D01*
X134712380Y-101679819D02*
X134617142Y-101679819D01*
X134617142Y-101679819D02*
X134474285Y-101727438D01*
X134474285Y-101727438D02*
X134426666Y-101775057D01*
X133950475Y-102679819D02*
X133759999Y-102679819D01*
X133759999Y-102679819D02*
X133664761Y-102632200D01*
X133664761Y-102632200D02*
X133617142Y-102584580D01*
X133617142Y-102584580D02*
X133521904Y-102441723D01*
X133521904Y-102441723D02*
X133474285Y-102251247D01*
X133474285Y-102251247D02*
X133474285Y-101870295D01*
X133474285Y-101870295D02*
X133521904Y-101775057D01*
X133521904Y-101775057D02*
X133569523Y-101727438D01*
X133569523Y-101727438D02*
X133664761Y-101679819D01*
X133664761Y-101679819D02*
X133855237Y-101679819D01*
X133855237Y-101679819D02*
X133950475Y-101727438D01*
X133950475Y-101727438D02*
X133998094Y-101775057D01*
X133998094Y-101775057D02*
X134045713Y-101870295D01*
X134045713Y-101870295D02*
X134045713Y-102108390D01*
X134045713Y-102108390D02*
X133998094Y-102203628D01*
X133998094Y-102203628D02*
X133950475Y-102251247D01*
X133950475Y-102251247D02*
X133855237Y-102298866D01*
X133855237Y-102298866D02*
X133664761Y-102298866D01*
X133664761Y-102298866D02*
X133569523Y-102251247D01*
X133569523Y-102251247D02*
X133521904Y-102203628D01*
X133521904Y-102203628D02*
X133474285Y-102108390D01*
X124014819Y-116782142D02*
X123538628Y-116448809D01*
X124014819Y-116210714D02*
X123014819Y-116210714D01*
X123014819Y-116210714D02*
X123014819Y-116591666D01*
X123014819Y-116591666D02*
X123062438Y-116686904D01*
X123062438Y-116686904D02*
X123110057Y-116734523D01*
X123110057Y-116734523D02*
X123205295Y-116782142D01*
X123205295Y-116782142D02*
X123348152Y-116782142D01*
X123348152Y-116782142D02*
X123443390Y-116734523D01*
X123443390Y-116734523D02*
X123491009Y-116686904D01*
X123491009Y-116686904D02*
X123538628Y-116591666D01*
X123538628Y-116591666D02*
X123538628Y-116210714D01*
X124014819Y-117734523D02*
X124014819Y-117163095D01*
X124014819Y-117448809D02*
X123014819Y-117448809D01*
X123014819Y-117448809D02*
X123157676Y-117353571D01*
X123157676Y-117353571D02*
X123252914Y-117258333D01*
X123252914Y-117258333D02*
X123300533Y-117163095D01*
X123014819Y-118591666D02*
X123014819Y-118401190D01*
X123014819Y-118401190D02*
X123062438Y-118305952D01*
X123062438Y-118305952D02*
X123110057Y-118258333D01*
X123110057Y-118258333D02*
X123252914Y-118163095D01*
X123252914Y-118163095D02*
X123443390Y-118115476D01*
X123443390Y-118115476D02*
X123824342Y-118115476D01*
X123824342Y-118115476D02*
X123919580Y-118163095D01*
X123919580Y-118163095D02*
X123967200Y-118210714D01*
X123967200Y-118210714D02*
X124014819Y-118305952D01*
X124014819Y-118305952D02*
X124014819Y-118496428D01*
X124014819Y-118496428D02*
X123967200Y-118591666D01*
X123967200Y-118591666D02*
X123919580Y-118639285D01*
X123919580Y-118639285D02*
X123824342Y-118686904D01*
X123824342Y-118686904D02*
X123586247Y-118686904D01*
X123586247Y-118686904D02*
X123491009Y-118639285D01*
X123491009Y-118639285D02*
X123443390Y-118591666D01*
X123443390Y-118591666D02*
X123395771Y-118496428D01*
X123395771Y-118496428D02*
X123395771Y-118305952D01*
X123395771Y-118305952D02*
X123443390Y-118210714D01*
X123443390Y-118210714D02*
X123491009Y-118163095D01*
X123491009Y-118163095D02*
X123586247Y-118115476D01*
X125310504Y-103571819D02*
X125310504Y-104381342D01*
X125310504Y-104381342D02*
X125262885Y-104476580D01*
X125262885Y-104476580D02*
X125215266Y-104524200D01*
X125215266Y-104524200D02*
X125120028Y-104571819D01*
X125120028Y-104571819D02*
X124929552Y-104571819D01*
X124929552Y-104571819D02*
X124834314Y-104524200D01*
X124834314Y-104524200D02*
X124786695Y-104476580D01*
X124786695Y-104476580D02*
X124739076Y-104381342D01*
X124739076Y-104381342D02*
X124739076Y-103571819D01*
X124358123Y-103571819D02*
X123739076Y-103571819D01*
X123739076Y-103571819D02*
X124072409Y-103952771D01*
X124072409Y-103952771D02*
X123929552Y-103952771D01*
X123929552Y-103952771D02*
X123834314Y-104000390D01*
X123834314Y-104000390D02*
X123786695Y-104048009D01*
X123786695Y-104048009D02*
X123739076Y-104143247D01*
X123739076Y-104143247D02*
X123739076Y-104381342D01*
X123739076Y-104381342D02*
X123786695Y-104476580D01*
X123786695Y-104476580D02*
X123834314Y-104524200D01*
X123834314Y-104524200D02*
X123929552Y-104571819D01*
X123929552Y-104571819D02*
X124215266Y-104571819D01*
X124215266Y-104571819D02*
X124310504Y-104524200D01*
X124310504Y-104524200D02*
X124358123Y-104476580D01*
X134794580Y-113607142D02*
X134842200Y-113559523D01*
X134842200Y-113559523D02*
X134889819Y-113416666D01*
X134889819Y-113416666D02*
X134889819Y-113321428D01*
X134889819Y-113321428D02*
X134842200Y-113178571D01*
X134842200Y-113178571D02*
X134746961Y-113083333D01*
X134746961Y-113083333D02*
X134651723Y-113035714D01*
X134651723Y-113035714D02*
X134461247Y-112988095D01*
X134461247Y-112988095D02*
X134318390Y-112988095D01*
X134318390Y-112988095D02*
X134127914Y-113035714D01*
X134127914Y-113035714D02*
X134032676Y-113083333D01*
X134032676Y-113083333D02*
X133937438Y-113178571D01*
X133937438Y-113178571D02*
X133889819Y-113321428D01*
X133889819Y-113321428D02*
X133889819Y-113416666D01*
X133889819Y-113416666D02*
X133937438Y-113559523D01*
X133937438Y-113559523D02*
X133985057Y-113607142D01*
X134889819Y-114559523D02*
X134889819Y-113988095D01*
X134889819Y-114273809D02*
X133889819Y-114273809D01*
X133889819Y-114273809D02*
X134032676Y-114178571D01*
X134032676Y-114178571D02*
X134127914Y-114083333D01*
X134127914Y-114083333D02*
X134175533Y-113988095D01*
X134889819Y-115511904D02*
X134889819Y-114940476D01*
X134889819Y-115226190D02*
X133889819Y-115226190D01*
X133889819Y-115226190D02*
X134032676Y-115130952D01*
X134032676Y-115130952D02*
X134127914Y-115035714D01*
X134127914Y-115035714D02*
X134175533Y-114940476D01*
X145326666Y-108809580D02*
X145374285Y-108857200D01*
X145374285Y-108857200D02*
X145517142Y-108904819D01*
X145517142Y-108904819D02*
X145612380Y-108904819D01*
X145612380Y-108904819D02*
X145755237Y-108857200D01*
X145755237Y-108857200D02*
X145850475Y-108761961D01*
X145850475Y-108761961D02*
X145898094Y-108666723D01*
X145898094Y-108666723D02*
X145945713Y-108476247D01*
X145945713Y-108476247D02*
X145945713Y-108333390D01*
X145945713Y-108333390D02*
X145898094Y-108142914D01*
X145898094Y-108142914D02*
X145850475Y-108047676D01*
X145850475Y-108047676D02*
X145755237Y-107952438D01*
X145755237Y-107952438D02*
X145612380Y-107904819D01*
X145612380Y-107904819D02*
X145517142Y-107904819D01*
X145517142Y-107904819D02*
X145374285Y-107952438D01*
X145374285Y-107952438D02*
X145326666Y-108000057D01*
X144421904Y-107904819D02*
X144898094Y-107904819D01*
X144898094Y-107904819D02*
X144945713Y-108381009D01*
X144945713Y-108381009D02*
X144898094Y-108333390D01*
X144898094Y-108333390D02*
X144802856Y-108285771D01*
X144802856Y-108285771D02*
X144564761Y-108285771D01*
X144564761Y-108285771D02*
X144469523Y-108333390D01*
X144469523Y-108333390D02*
X144421904Y-108381009D01*
X144421904Y-108381009D02*
X144374285Y-108476247D01*
X144374285Y-108476247D02*
X144374285Y-108714342D01*
X144374285Y-108714342D02*
X144421904Y-108809580D01*
X144421904Y-108809580D02*
X144469523Y-108857200D01*
X144469523Y-108857200D02*
X144564761Y-108904819D01*
X144564761Y-108904819D02*
X144802856Y-108904819D01*
X144802856Y-108904819D02*
X144898094Y-108857200D01*
X144898094Y-108857200D02*
X144945713Y-108809580D01*
X132644580Y-113607142D02*
X132692200Y-113559523D01*
X132692200Y-113559523D02*
X132739819Y-113416666D01*
X132739819Y-113416666D02*
X132739819Y-113321428D01*
X132739819Y-113321428D02*
X132692200Y-113178571D01*
X132692200Y-113178571D02*
X132596961Y-113083333D01*
X132596961Y-113083333D02*
X132501723Y-113035714D01*
X132501723Y-113035714D02*
X132311247Y-112988095D01*
X132311247Y-112988095D02*
X132168390Y-112988095D01*
X132168390Y-112988095D02*
X131977914Y-113035714D01*
X131977914Y-113035714D02*
X131882676Y-113083333D01*
X131882676Y-113083333D02*
X131787438Y-113178571D01*
X131787438Y-113178571D02*
X131739819Y-113321428D01*
X131739819Y-113321428D02*
X131739819Y-113416666D01*
X131739819Y-113416666D02*
X131787438Y-113559523D01*
X131787438Y-113559523D02*
X131835057Y-113607142D01*
X132739819Y-114559523D02*
X132739819Y-113988095D01*
X132739819Y-114273809D02*
X131739819Y-114273809D01*
X131739819Y-114273809D02*
X131882676Y-114178571D01*
X131882676Y-114178571D02*
X131977914Y-114083333D01*
X131977914Y-114083333D02*
X132025533Y-113988095D01*
X131835057Y-114940476D02*
X131787438Y-114988095D01*
X131787438Y-114988095D02*
X131739819Y-115083333D01*
X131739819Y-115083333D02*
X131739819Y-115321428D01*
X131739819Y-115321428D02*
X131787438Y-115416666D01*
X131787438Y-115416666D02*
X131835057Y-115464285D01*
X131835057Y-115464285D02*
X131930295Y-115511904D01*
X131930295Y-115511904D02*
X132025533Y-115511904D01*
X132025533Y-115511904D02*
X132168390Y-115464285D01*
X132168390Y-115464285D02*
X132739819Y-114892857D01*
X132739819Y-114892857D02*
X132739819Y-115511904D01*
X145226666Y-105034580D02*
X145274285Y-105082200D01*
X145274285Y-105082200D02*
X145417142Y-105129819D01*
X145417142Y-105129819D02*
X145512380Y-105129819D01*
X145512380Y-105129819D02*
X145655237Y-105082200D01*
X145655237Y-105082200D02*
X145750475Y-104986961D01*
X145750475Y-104986961D02*
X145798094Y-104891723D01*
X145798094Y-104891723D02*
X145845713Y-104701247D01*
X145845713Y-104701247D02*
X145845713Y-104558390D01*
X145845713Y-104558390D02*
X145798094Y-104367914D01*
X145798094Y-104367914D02*
X145750475Y-104272676D01*
X145750475Y-104272676D02*
X145655237Y-104177438D01*
X145655237Y-104177438D02*
X145512380Y-104129819D01*
X145512380Y-104129819D02*
X145417142Y-104129819D01*
X145417142Y-104129819D02*
X145274285Y-104177438D01*
X145274285Y-104177438D02*
X145226666Y-104225057D01*
X144369523Y-104129819D02*
X144559999Y-104129819D01*
X144559999Y-104129819D02*
X144655237Y-104177438D01*
X144655237Y-104177438D02*
X144702856Y-104225057D01*
X144702856Y-104225057D02*
X144798094Y-104367914D01*
X144798094Y-104367914D02*
X144845713Y-104558390D01*
X144845713Y-104558390D02*
X144845713Y-104939342D01*
X144845713Y-104939342D02*
X144798094Y-105034580D01*
X144798094Y-105034580D02*
X144750475Y-105082200D01*
X144750475Y-105082200D02*
X144655237Y-105129819D01*
X144655237Y-105129819D02*
X144464761Y-105129819D01*
X144464761Y-105129819D02*
X144369523Y-105082200D01*
X144369523Y-105082200D02*
X144321904Y-105034580D01*
X144321904Y-105034580D02*
X144274285Y-104939342D01*
X144274285Y-104939342D02*
X144274285Y-104701247D01*
X144274285Y-104701247D02*
X144321904Y-104606009D01*
X144321904Y-104606009D02*
X144369523Y-104558390D01*
X144369523Y-104558390D02*
X144464761Y-104510771D01*
X144464761Y-104510771D02*
X144655237Y-104510771D01*
X144655237Y-104510771D02*
X144750475Y-104558390D01*
X144750475Y-104558390D02*
X144798094Y-104606009D01*
X144798094Y-104606009D02*
X144845713Y-104701247D01*
X125191457Y-82956419D02*
X125524790Y-82480228D01*
X125762885Y-82956419D02*
X125762885Y-81956419D01*
X125762885Y-81956419D02*
X125381933Y-81956419D01*
X125381933Y-81956419D02*
X125286695Y-82004038D01*
X125286695Y-82004038D02*
X125239076Y-82051657D01*
X125239076Y-82051657D02*
X125191457Y-82146895D01*
X125191457Y-82146895D02*
X125191457Y-82289752D01*
X125191457Y-82289752D02*
X125239076Y-82384990D01*
X125239076Y-82384990D02*
X125286695Y-82432609D01*
X125286695Y-82432609D02*
X125381933Y-82480228D01*
X125381933Y-82480228D02*
X125762885Y-82480228D01*
X124239076Y-82956419D02*
X124810504Y-82956419D01*
X124524790Y-82956419D02*
X124524790Y-81956419D01*
X124524790Y-81956419D02*
X124620028Y-82099276D01*
X124620028Y-82099276D02*
X124715266Y-82194514D01*
X124715266Y-82194514D02*
X124810504Y-82242133D01*
X123286695Y-82956419D02*
X123858123Y-82956419D01*
X123572409Y-82956419D02*
X123572409Y-81956419D01*
X123572409Y-81956419D02*
X123667647Y-82099276D01*
X123667647Y-82099276D02*
X123762885Y-82194514D01*
X123762885Y-82194514D02*
X123858123Y-82242133D01*
X119882857Y-95256380D02*
X119930476Y-95304000D01*
X119930476Y-95304000D02*
X120073333Y-95351619D01*
X120073333Y-95351619D02*
X120168571Y-95351619D01*
X120168571Y-95351619D02*
X120311428Y-95304000D01*
X120311428Y-95304000D02*
X120406666Y-95208761D01*
X120406666Y-95208761D02*
X120454285Y-95113523D01*
X120454285Y-95113523D02*
X120501904Y-94923047D01*
X120501904Y-94923047D02*
X120501904Y-94780190D01*
X120501904Y-94780190D02*
X120454285Y-94589714D01*
X120454285Y-94589714D02*
X120406666Y-94494476D01*
X120406666Y-94494476D02*
X120311428Y-94399238D01*
X120311428Y-94399238D02*
X120168571Y-94351619D01*
X120168571Y-94351619D02*
X120073333Y-94351619D01*
X120073333Y-94351619D02*
X119930476Y-94399238D01*
X119930476Y-94399238D02*
X119882857Y-94446857D01*
X118930476Y-95351619D02*
X119501904Y-95351619D01*
X119216190Y-95351619D02*
X119216190Y-94351619D01*
X119216190Y-94351619D02*
X119311428Y-94494476D01*
X119311428Y-94494476D02*
X119406666Y-94589714D01*
X119406666Y-94589714D02*
X119501904Y-94637333D01*
X118311428Y-94351619D02*
X118216190Y-94351619D01*
X118216190Y-94351619D02*
X118120952Y-94399238D01*
X118120952Y-94399238D02*
X118073333Y-94446857D01*
X118073333Y-94446857D02*
X118025714Y-94542095D01*
X118025714Y-94542095D02*
X117978095Y-94732571D01*
X117978095Y-94732571D02*
X117978095Y-94970666D01*
X117978095Y-94970666D02*
X118025714Y-95161142D01*
X118025714Y-95161142D02*
X118073333Y-95256380D01*
X118073333Y-95256380D02*
X118120952Y-95304000D01*
X118120952Y-95304000D02*
X118216190Y-95351619D01*
X118216190Y-95351619D02*
X118311428Y-95351619D01*
X118311428Y-95351619D02*
X118406666Y-95304000D01*
X118406666Y-95304000D02*
X118454285Y-95256380D01*
X118454285Y-95256380D02*
X118501904Y-95161142D01*
X118501904Y-95161142D02*
X118549523Y-94970666D01*
X118549523Y-94970666D02*
X118549523Y-94732571D01*
X118549523Y-94732571D02*
X118501904Y-94542095D01*
X118501904Y-94542095D02*
X118454285Y-94446857D01*
X118454285Y-94446857D02*
X118406666Y-94399238D01*
X118406666Y-94399238D02*
X118311428Y-94351619D01*
D11*
%TO.C,L1*%
X131225000Y-107674622D02*
X131225000Y-106875378D01*
X132345000Y-107674622D02*
X132345000Y-106875378D01*
%TO.C,R4*%
X145091200Y-85689864D02*
X145091200Y-85235736D01*
X146561200Y-85689864D02*
X146561200Y-85235736D01*
%TO.C,C3*%
X161725000Y-105363748D02*
X161725000Y-105886252D01*
X163195000Y-105363748D02*
X163195000Y-105886252D01*
%TO.C,R13*%
X123305536Y-92282200D02*
X123759664Y-92282200D01*
X123305536Y-93752200D02*
X123759664Y-93752200D01*
%TO.C,C7*%
X118648748Y-108850000D02*
X119171252Y-108850000D01*
X118648748Y-110320000D02*
X119171252Y-110320000D01*
%TO.C,C4*%
X159600000Y-105363748D02*
X159600000Y-105886252D01*
X161070000Y-105363748D02*
X161070000Y-105886252D01*
%TO.C,R5*%
X147641200Y-85689864D02*
X147641200Y-85235736D01*
X149111200Y-85689864D02*
X149111200Y-85235736D01*
%TO.C,R14*%
X130312064Y-109490000D02*
X129857936Y-109490000D01*
X130312064Y-110960000D02*
X129857936Y-110960000D01*
%TO.C,R6*%
X150141200Y-85689864D02*
X150141200Y-85235736D01*
X151611200Y-85689864D02*
X151611200Y-85235736D01*
%TO.C,D1*%
X117261400Y-91815800D02*
X121671400Y-91815800D01*
X121671400Y-89595800D02*
X117261400Y-89595800D01*
X121671400Y-91815800D02*
X121671400Y-89595800D01*
%TO.C,R7*%
X152741200Y-85689864D02*
X152741200Y-85235736D01*
X154211200Y-85689864D02*
X154211200Y-85235736D01*
%TO.C,R15*%
X125450000Y-120827064D02*
X125450000Y-120372936D01*
X126920000Y-120827064D02*
X126920000Y-120372936D01*
%TO.C,R8*%
X142591200Y-85689864D02*
X142591200Y-85235736D01*
X144061200Y-85689864D02*
X144061200Y-85235736D01*
%TO.C,R9*%
X155316200Y-85235736D02*
X155316200Y-85689864D01*
X156786200Y-85235736D02*
X156786200Y-85689864D01*
%TO.C,R10*%
X120037036Y-83563000D02*
X120491164Y-83563000D01*
X120037036Y-85033000D02*
X120491164Y-85033000D01*
%TO.C,C2*%
X165313748Y-82775000D02*
X165836252Y-82775000D01*
X165313748Y-84245000D02*
X165836252Y-84245000D01*
%TO.C,C8*%
X133550000Y-109536252D02*
X133550000Y-109013748D01*
X135020000Y-109536252D02*
X135020000Y-109013748D01*
%TO.C,R12*%
X167187064Y-92100000D02*
X166732936Y-92100000D01*
X167187064Y-93570000D02*
X166732936Y-93570000D01*
%TO.C,C9*%
X133525000Y-104288748D02*
X133525000Y-104811252D01*
X134995000Y-104288748D02*
X134995000Y-104811252D01*
%TO.C,R16*%
X122825000Y-120827064D02*
X122825000Y-120372936D01*
X124295000Y-120827064D02*
X124295000Y-120372936D01*
%TO.C,U3*%
X116434100Y-106027000D02*
X116434100Y-102267000D01*
X117694100Y-106027000D02*
X116434100Y-106027000D01*
X121994100Y-106027000D02*
X123254100Y-106027000D01*
X123254100Y-106027000D02*
X123254100Y-102267000D01*
X116534100Y-100987000D02*
X116204100Y-101227000D01*
X116204100Y-100747000D01*
X116534100Y-100987000D01*
G36*
X116534100Y-100987000D02*
G01*
X116204100Y-101227000D01*
X116204100Y-100747000D01*
X116534100Y-100987000D01*
G37*
%TO.C,C11*%
X133650000Y-117113748D02*
X133650000Y-117636252D01*
X135120000Y-117113748D02*
X135120000Y-117636252D01*
%TO.C,C5*%
X142200000Y-108461252D02*
X142200000Y-107938748D01*
X143670000Y-108461252D02*
X143670000Y-107938748D01*
%TO.C,C12*%
X131575000Y-117113748D02*
X131575000Y-117636252D01*
X133045000Y-117113748D02*
X133045000Y-117636252D01*
%TO.C,C6*%
X142175000Y-104213748D02*
X142175000Y-104736252D01*
X143645000Y-104213748D02*
X143645000Y-104736252D01*
%TO.C,R11*%
X125306164Y-83488000D02*
X124852036Y-83488000D01*
X125306164Y-84958000D02*
X124852036Y-84958000D01*
%TO.C,C10*%
X119537548Y-92282200D02*
X120060052Y-92282200D01*
X119537548Y-93752200D02*
X120060052Y-93752200D01*
%TD*%
%LPC*%
D12*
%TO.C,J2*%
X143301200Y-81762800D03*
D13*
X145841200Y-81762800D03*
X148381200Y-81762800D03*
X150921200Y-81762800D03*
X153461200Y-81762800D03*
X156001200Y-81762800D03*
%TD*%
D12*
%TO.C,J3*%
X137245000Y-97935000D03*
D13*
X139785000Y-97935000D03*
X137245000Y-100475000D03*
X139785000Y-100475000D03*
X137245000Y-103015000D03*
X139785000Y-103015000D03*
X137245000Y-105555000D03*
X139785000Y-105555000D03*
X137245000Y-108095000D03*
X139785000Y-108095000D03*
X137245000Y-110635000D03*
X139785000Y-110635000D03*
X137245000Y-113175000D03*
X139785000Y-113175000D03*
X137245000Y-115715000D03*
X139785000Y-115715000D03*
%TD*%
D12*
%TO.C,JP2*%
X120510000Y-122000000D03*
D13*
X117970000Y-122000000D03*
%TD*%
D12*
%TO.C,J4*%
X161165000Y-91795000D03*
D13*
X161165000Y-94335000D03*
X158625000Y-91795000D03*
X158625000Y-94335000D03*
X156085000Y-91795000D03*
X156085000Y-94335000D03*
X153545000Y-91795000D03*
X153545000Y-94335000D03*
X151005000Y-91795000D03*
X151005000Y-94335000D03*
X148465000Y-91795000D03*
X148465000Y-94335000D03*
X145925000Y-91795000D03*
X145925000Y-94335000D03*
X143385000Y-91795000D03*
X143385000Y-94335000D03*
%TD*%
D14*
%TO.C,H1*%
X119210000Y-113300000D03*
%TD*%
D12*
%TO.C,JP1*%
X126270000Y-105795000D03*
D13*
X126270000Y-108335000D03*
X126270000Y-110875000D03*
%TD*%
D15*
%TO.C,J1*%
X125814100Y-85978000D03*
X120034100Y-85978000D03*
D16*
X127244100Y-86478000D03*
D17*
X127244100Y-82298000D03*
D16*
X118604100Y-86478000D03*
D17*
X118604100Y-82298000D03*
%TD*%
D12*
%TO.C,JP3*%
X120510000Y-117600000D03*
D13*
X117970000Y-117600000D03*
%TD*%
D12*
%TO.C,J5*%
X143385000Y-121855000D03*
D13*
X143385000Y-119315000D03*
X145925000Y-121855000D03*
X145925000Y-119315000D03*
X148465000Y-121855000D03*
X148465000Y-119315000D03*
X151005000Y-121855000D03*
X151005000Y-119315000D03*
X153545000Y-121855000D03*
X153545000Y-119315000D03*
X156085000Y-121855000D03*
X156085000Y-119315000D03*
X158625000Y-121855000D03*
X158625000Y-119315000D03*
X161165000Y-121855000D03*
X161165000Y-119315000D03*
%TD*%
D18*
%TO.C,SW1*%
X163150000Y-87685000D03*
X163150000Y-81185000D03*
X167650000Y-87685000D03*
X167650000Y-81185000D03*
%TD*%
D14*
%TO.C,H3*%
X165985000Y-120800000D03*
%TD*%
D19*
%TO.C,Y1*%
X135685000Y-120350000D03*
X130805000Y-120350000D03*
%TD*%
D14*
%TO.C,H2*%
X138535000Y-93025000D03*
%TD*%
D12*
%TO.C,J6*%
X167305000Y-115715000D03*
D13*
X164765000Y-115715000D03*
X167305000Y-113175000D03*
X164765000Y-113175000D03*
X167305000Y-110635000D03*
X164765000Y-110635000D03*
X167305000Y-108095000D03*
X164765000Y-108095000D03*
X167305000Y-105555000D03*
X164765000Y-105555000D03*
X167305000Y-103015000D03*
X164765000Y-103015000D03*
X167305000Y-100475000D03*
X164765000Y-100475000D03*
X167305000Y-97935000D03*
X164765000Y-97935000D03*
%TD*%
D20*
%TO.C,L1*%
X131785000Y-106212500D03*
X131785000Y-108337500D03*
%TD*%
D21*
%TO.C,R4*%
X145826200Y-84550300D03*
X145826200Y-86375300D03*
%TD*%
D22*
%TO.C,C3*%
X162460000Y-106575000D03*
X162460000Y-104675000D03*
%TD*%
D23*
%TO.C,R13*%
X124445100Y-93017200D03*
X122620100Y-93017200D03*
%TD*%
D24*
%TO.C,C7*%
X119860000Y-109585000D03*
X117960000Y-109585000D03*
%TD*%
D22*
%TO.C,C4*%
X160335000Y-106575000D03*
X160335000Y-104675000D03*
%TD*%
D21*
%TO.C,R5*%
X148376200Y-84550300D03*
X148376200Y-86375300D03*
%TD*%
D25*
%TO.C,R14*%
X129172500Y-110225000D03*
X130997500Y-110225000D03*
%TD*%
D21*
%TO.C,R6*%
X150876200Y-84550300D03*
X150876200Y-86375300D03*
%TD*%
D26*
%TO.C,D1*%
X120761400Y-90705800D03*
X117261400Y-90705800D03*
%TD*%
D21*
%TO.C,R7*%
X153476200Y-84550300D03*
X153476200Y-86375300D03*
%TD*%
%TO.C,R15*%
X126185000Y-119687500D03*
X126185000Y-121512500D03*
%TD*%
%TO.C,R8*%
X143326200Y-84550300D03*
X143326200Y-86375300D03*
%TD*%
D27*
%TO.C,R9*%
X156051200Y-86375300D03*
X156051200Y-84550300D03*
%TD*%
D23*
%TO.C,R10*%
X121176600Y-84298000D03*
X119351600Y-84298000D03*
%TD*%
D24*
%TO.C,C2*%
X166525000Y-83510000D03*
X164625000Y-83510000D03*
%TD*%
D28*
%TO.C,C8*%
X134285000Y-108325000D03*
X134285000Y-110225000D03*
%TD*%
D25*
%TO.C,R12*%
X166047500Y-92835000D03*
X167872500Y-92835000D03*
%TD*%
D22*
%TO.C,C9*%
X134260000Y-105500000D03*
X134260000Y-103600000D03*
%TD*%
D21*
%TO.C,R16*%
X123560000Y-119687500D03*
X123560000Y-121512500D03*
%TD*%
D29*
%TO.C,U3*%
X117544100Y-100967000D03*
X119844100Y-100967000D03*
D30*
X119844100Y-107267000D03*
D29*
X122144100Y-100967000D03*
%TD*%
D22*
%TO.C,C11*%
X134385000Y-118325000D03*
X134385000Y-116425000D03*
%TD*%
D28*
%TO.C,C5*%
X142935000Y-107250000D03*
X142935000Y-109150000D03*
%TD*%
D22*
%TO.C,C12*%
X132310000Y-118325000D03*
X132310000Y-116425000D03*
%TD*%
%TO.C,C6*%
X142910000Y-105425000D03*
X142910000Y-103525000D03*
%TD*%
D25*
%TO.C,R11*%
X124166600Y-84223000D03*
X125991600Y-84223000D03*
%TD*%
D24*
%TO.C,C10*%
X120748800Y-93017200D03*
X118848800Y-93017200D03*
%TD*%
%LPD*%
M02*
