M48
; DRILL file {KiCad 8.0.2} date 2024-05-28T15:21:16+0800
; FORMAT={-:-/ absolute / metric / decimal}
; #@! TF.CreationDate,2024-05-28T15:21:16+08:00
; #@! TF.GenerationSoftware,Kicad,Pcbnew,8.0.2
; #@! TF.FileFunction,Plated,1,2,PTH
FMAT,2
METRIC
; #@! TA.AperFunction,Plated,PTH,ViaDrill
T1C0.300
; #@! TA.AperFunction,Plated,PTH,ComponentDrill
T2C0.600
; #@! TA.AperFunction,Plated,PTH,ComponentDrill
T3C0.800
; #@! TA.AperFunction,Plated,PTH,ComponentDrill
T4C1.000
; #@! TA.AperFunction,Plated,PTH,ComponentDrill
T5C1.100
; #@! TA.AperFunction,Plated,PTH,ComponentDrill
T6C2.200
%
G90
G05
T1
X116.035Y-103.575
X116.035Y-106.875
X116.035Y-111.825
X116.035Y-116.175
X120.764Y-94.389
X120.842Y-88.51
X121.184Y-85.928
X122.153Y-87.929
X122.542Y-88.775
X123.236Y-88.336
X123.56Y-115.15
X123.939Y-88.115
X123.96Y-107.075
X124.179Y-85.948
X124.36Y-115.15
X124.447Y-92.001
X125.328Y-88.589
X125.36Y-113.2
X126.754Y-92.673
X128.86Y-105.275
X130.835Y-112.4
X131.16Y-82.675
X131.16Y-89.675
X131.16Y-96.675
X132.785Y-109.375
X134.26Y-100.275
X136.16Y-82.675
X141.16Y-82.675
X144.61Y-106.775
X149.735Y-103.525
X149.735Y-109.175
X150.876Y-88.886
X155.66Y-103.525
X155.66Y-109.175
X161.41Y-106.575
T3
X130.805Y-120.35
X135.685Y-120.35
T4
X117.97Y-117.6
X117.97Y-122.0
X120.51Y-117.6
X120.51Y-122.0
X126.27Y-105.795
X126.27Y-108.335
X126.27Y-110.875
X137.245Y-97.935
X137.245Y-100.475
X137.245Y-103.015
X137.245Y-105.555
X137.245Y-108.095
X137.245Y-110.635
X137.245Y-113.175
X137.245Y-115.715
X139.785Y-97.935
X139.785Y-100.475
X139.785Y-103.015
X139.785Y-105.555
X139.785Y-108.095
X139.785Y-110.635
X139.785Y-113.175
X139.785Y-115.715
X143.301Y-81.763
X143.385Y-91.795
X143.385Y-94.335
X143.385Y-119.315
X143.385Y-121.855
X145.841Y-81.763
X145.925Y-91.795
X145.925Y-94.335
X145.925Y-119.315
X145.925Y-121.855
X148.381Y-81.763
X148.465Y-91.795
X148.465Y-94.335
X148.465Y-119.315
X148.465Y-121.855
X150.921Y-81.763
X151.005Y-91.795
X151.005Y-94.335
X151.005Y-119.315
X151.005Y-121.855
X153.461Y-81.763
X153.545Y-91.795
X153.545Y-94.335
X153.545Y-119.315
X153.545Y-121.855
X156.001Y-81.763
X156.085Y-91.795
X156.085Y-94.335
X156.085Y-119.315
X156.085Y-121.855
X158.625Y-91.795
X158.625Y-94.335
X158.625Y-119.315
X158.625Y-121.855
X161.165Y-91.795
X161.165Y-94.335
X161.165Y-119.315
X161.165Y-121.855
X164.765Y-97.935
X164.765Y-100.475
X164.765Y-103.015
X164.765Y-105.555
X164.765Y-108.095
X164.765Y-110.635
X164.765Y-113.175
X164.765Y-115.715
X167.305Y-97.935
X167.305Y-100.475
X167.305Y-103.015
X167.305Y-105.555
X167.305Y-108.095
X167.305Y-110.635
X167.305Y-113.175
X167.305Y-115.715
T5
X163.15Y-81.185
X163.15Y-87.685
X167.65Y-81.185
X167.65Y-87.685
T6
X119.21Y-113.3
X138.535Y-93.025
X165.985Y-120.8
T2
G00X118.604Y-82.698
M15
G01X118.604Y-81.898
M16
G05
G00X118.604Y-87.028
M15
G01X118.604Y-85.928
M16
G05
G00X127.244Y-82.698
M15
G01X127.244Y-81.898
M16
G05
G00X127.244Y-87.028
M15
G01X127.244Y-85.928
M16
G05
M30
