%TF.GenerationSoftware,KiCad,Pcbnew,8.0.2*%
%TF.CreationDate,2024-05-13T13:25:11+08:00*%
%TF.ProjectId,Mini-K1-64,4d696e69-2d4b-4312-9d36-342e6b696361,rev?*%
%TF.SameCoordinates,Original*%
%TF.FileFunction,Copper,L1,Top*%
%TF.FilePolarity,Positive*%
%FSLAX46Y46*%
G04 Gerber Fmt 4.6, Leading zero omitted, Abs format (unit mm)*
G04 Created by KiCad (PCBNEW 8.0.2) date 2024-05-13 13:25:11*
%MOMM*%
%LPD*%
G01*
G04 APERTURE LIST*
G04 Aperture macros list*
%AMRoundRect*
0 Rectangle with rounded corners*
0 $1 Rounding radius*
0 $2 $3 $4 $5 $6 $7 $8 $9 X,Y pos of 4 corners*
0 Add a 4 corners polygon primitive as box body*
4,1,4,$2,$3,$4,$5,$6,$7,$8,$9,$2,$3,0*
0 Add four circle primitives for the rounded corners*
1,1,$1+$1,$2,$3*
1,1,$1+$1,$4,$5*
1,1,$1+$1,$6,$7*
1,1,$1+$1,$8,$9*
0 Add four rect primitives between the rounded corners*
20,1,$1+$1,$2,$3,$4,$5,0*
20,1,$1+$1,$4,$5,$6,$7,0*
20,1,$1+$1,$6,$7,$8,$9,0*
20,1,$1+$1,$8,$9,$2,$3,0*%
G04 Aperture macros list end*
%TA.AperFunction,ComponentPad*%
%ADD10R,1.700000X1.700000*%
%TD*%
%TA.AperFunction,ComponentPad*%
%ADD11O,1.700000X1.700000*%
%TD*%
%TA.AperFunction,SMDPad,CuDef*%
%ADD12RoundRect,0.250000X0.475000X-0.250000X0.475000X0.250000X-0.475000X0.250000X-0.475000X-0.250000X0*%
%TD*%
%TA.AperFunction,SMDPad,CuDef*%
%ADD13RoundRect,0.250000X-0.450000X0.262500X-0.450000X-0.262500X0.450000X-0.262500X0.450000X0.262500X0*%
%TD*%
%TA.AperFunction,ComponentPad*%
%ADD14C,3.500000*%
%TD*%
%TA.AperFunction,SMDPad,CuDef*%
%ADD15RoundRect,0.150000X0.150000X0.425000X-0.150000X0.425000X-0.150000X-0.425000X0.150000X-0.425000X0*%
%TD*%
%TA.AperFunction,SMDPad,CuDef*%
%ADD16RoundRect,0.075000X0.075000X0.500000X-0.075000X0.500000X-0.075000X-0.500000X0.075000X-0.500000X0*%
%TD*%
%TA.AperFunction,ComponentPad*%
%ADD17O,1.000000X2.100000*%
%TD*%
%TA.AperFunction,ComponentPad*%
%ADD18O,1.000000X1.800000*%
%TD*%
%TA.AperFunction,ComponentPad*%
%ADD19C,2.000000*%
%TD*%
%TA.AperFunction,SMDPad,CuDef*%
%ADD20RoundRect,0.250000X0.262500X0.450000X-0.262500X0.450000X-0.262500X-0.450000X0.262500X-0.450000X0*%
%TD*%
%TA.AperFunction,SMDPad,CuDef*%
%ADD21RoundRect,0.150000X-0.150000X0.675000X-0.150000X-0.675000X0.150000X-0.675000X0.150000X0.675000X0*%
%TD*%
%TA.AperFunction,ComponentPad*%
%ADD22C,1.500000*%
%TD*%
%TA.AperFunction,SMDPad,CuDef*%
%ADD23RoundRect,0.075000X-0.700000X-0.075000X0.700000X-0.075000X0.700000X0.075000X-0.700000X0.075000X0*%
%TD*%
%TA.AperFunction,SMDPad,CuDef*%
%ADD24RoundRect,0.075000X-0.075000X-0.700000X0.075000X-0.700000X0.075000X0.700000X-0.075000X0.700000X0*%
%TD*%
%TA.AperFunction,ViaPad*%
%ADD25C,0.600000*%
%TD*%
%TA.AperFunction,ViaPad*%
%ADD26C,0.500000*%
%TD*%
%TA.AperFunction,Conductor*%
%ADD27C,0.200000*%
%TD*%
%TA.AperFunction,Conductor*%
%ADD28C,0.300000*%
%TD*%
%TA.AperFunction,Conductor*%
%ADD29C,0.400000*%
%TD*%
G04 APERTURE END LIST*
D10*
%TO.P,J2,1,VTref*%
%TO.N,VDD*%
X143301200Y-81762800D03*
D11*
%TO.P,J2,2,SWDIO*%
%TO.N,/JTAG/SWDIO*%
X145841200Y-81762800D03*
%TO.P,J2,3,SWCLK*%
%TO.N,/JTAG/SWCLK*%
X148381200Y-81762800D03*
%TO.P,J2,4,SWO*%
%TO.N,/JTAG/SWO*%
X150921200Y-81762800D03*
%TO.P,J2,5,nRST*%
%TO.N,/MCU/RESET*%
X153461200Y-81762800D03*
%TO.P,J2,6,GND*%
%TO.N,GNDD*%
X156001200Y-81762800D03*
%TD*%
D12*
%TO.P,C1,1*%
%TO.N,Net-(U1-V3)*%
X126729100Y-95673000D03*
%TO.P,C1,2*%
%TO.N,/USBUART/OGND*%
X126729100Y-93773000D03*
%TD*%
D13*
%TO.P,R2,1*%
%TO.N,/MCU/PTB6*%
X134410000Y-113812500D03*
%TO.P,R2,2*%
%TO.N,Net-(C11-Pad1)*%
X134410000Y-115637500D03*
%TD*%
D10*
%TO.P,J3,1,Pin_1*%
%TO.N,/MCU/PTD1*%
X137245000Y-97935000D03*
D11*
%TO.P,J3,2,Pin_2*%
%TO.N,/MCU/PTD0*%
X139785000Y-97935000D03*
%TO.P,J3,3,Pin_3*%
%TO.N,/MCU/PTE11*%
X137245000Y-100475000D03*
%TO.P,J3,4,Pin_4*%
%TO.N,/MCU/PTE10*%
X139785000Y-100475000D03*
%TO.P,J3,5,Pin_5*%
%TO.N,/MCU/PTE5*%
X137245000Y-103015000D03*
%TO.P,J3,6,Pin_6*%
%TO.N,/MCU/PTE4*%
X139785000Y-103015000D03*
%TO.P,J3,7,Pin_7*%
%TO.N,VDD*%
X137245000Y-105555000D03*
%TO.P,J3,8,Pin_8*%
%TO.N,VDDA*%
X139785000Y-105555000D03*
%TO.P,J3,9,Pin_9*%
X137245000Y-108095000D03*
%TO.P,J3,10,Pin_10*%
%TO.N,GNDD*%
X139785000Y-108095000D03*
%TO.P,J3,11,Pin_11*%
%TO.N,/MCU/PTB7*%
X137245000Y-110635000D03*
%TO.P,J3,12,Pin_12*%
%TO.N,/MCU/PTB6*%
X139785000Y-110635000D03*
%TO.P,J3,13,Pin_13*%
%TO.N,/MCU/PTE3*%
X137245000Y-113175000D03*
%TO.P,J3,14,Pin_14*%
%TO.N,/MCU/PTD16*%
X139785000Y-113175000D03*
%TO.P,J3,15,Pin_15*%
%TO.N,/MCU/PTD15*%
X137245000Y-115715000D03*
%TO.P,J3,16,Pin_16*%
%TO.N,/MCU/PTE9*%
X139785000Y-115715000D03*
%TD*%
D13*
%TO.P,R3,1*%
%TO.N,/MCU/PTB7*%
X132285000Y-113812500D03*
%TO.P,R3,2*%
%TO.N,Net-(C12-Pad1)*%
X132285000Y-115637500D03*
%TD*%
D10*
%TO.P,JP2,1,A*%
%TO.N,GNDA*%
X120510000Y-122000000D03*
D11*
%TO.P,JP2,2,B*%
%TO.N,/USBUART/OGND*%
X117970000Y-122000000D03*
%TD*%
D10*
%TO.P,J4,1,Pin_1*%
%TO.N,/MCU/PTA1*%
X161165000Y-91795000D03*
D11*
%TO.P,J4,2,Pin_2*%
%TO.N,/MCU/PTA0*%
X161165000Y-94335000D03*
%TO.P,J4,3,Pin_3*%
%TO.N,/MCU/PTC7*%
X158625000Y-91795000D03*
%TO.P,J4,4,Pin_4*%
%TO.N,/MCU/PTC6*%
X158625000Y-94335000D03*
%TO.P,J4,5,Pin_5*%
%TO.N,/MCU/PTE6*%
X156085000Y-91795000D03*
%TO.P,J4,6,Pin_6*%
%TO.N,/MCU/PTE2*%
X156085000Y-94335000D03*
%TO.P,J4,7,Pin_7*%
%TO.N,/MCU/PTA13*%
X153545000Y-91795000D03*
%TO.P,J4,8,Pin_8*%
%TO.N,/MCU/PTA12*%
X153545000Y-94335000D03*
%TO.P,J4,9,Pin_9*%
%TO.N,/MCU/PTA11*%
X151005000Y-91795000D03*
%TO.P,J4,10,Pin_10*%
%TO.N,/MCU/PTA10*%
X151005000Y-94335000D03*
%TO.P,J4,11,Pin_11*%
%TO.N,/MCU/PTE1*%
X148465000Y-91795000D03*
%TO.P,J4,12,Pin_12*%
%TO.N,/MCU/PTE0*%
X148465000Y-94335000D03*
%TO.P,J4,13,Pin_13*%
%TO.N,/MCU/PTC5*%
X145925000Y-91795000D03*
%TO.P,J4,14,Pin_14*%
%TO.N,/MCU/PTC4*%
X145925000Y-94335000D03*
%TO.P,J4,15,Pin_15*%
%TO.N,/MCU/PTA5*%
X143385000Y-91795000D03*
%TO.P,J4,16,Pin_16*%
%TO.N,/MCU/PTA4*%
X143385000Y-94335000D03*
%TD*%
D14*
%TO.P,H1,1,Pin_1*%
%TO.N,GNDA*%
X119210000Y-113300000D03*
%TD*%
D10*
%TO.P,JP1,1,A*%
%TO.N,VBUS*%
X126270000Y-105795000D03*
D11*
%TO.P,JP1,2,C*%
%TO.N,VDDA*%
X126270000Y-108335000D03*
%TO.P,JP1,3,B*%
%TO.N,Net-(JP1-B)*%
X126270000Y-110875000D03*
%TD*%
D15*
%TO.P,J1,A1,GND*%
%TO.N,/USBUART/OGND*%
X126124100Y-87053000D03*
%TO.P,J1,A4,VBUS*%
%TO.N,VBUS*%
X125324100Y-87053000D03*
D16*
%TO.P,J1,A5,CC1*%
%TO.N,Net-(J1-CC1)*%
X124174100Y-87053000D03*
%TO.P,J1,A6,D+*%
%TO.N,/USBUART/UD+*%
X123174100Y-87053000D03*
%TO.P,J1,A7,D-*%
%TO.N,/USBUART/UD-*%
X122674100Y-87053000D03*
%TO.P,J1,A8*%
%TO.N,N/C*%
X121674100Y-87053000D03*
D15*
%TO.P,J1,A9,VBUS*%
%TO.N,VBUS*%
X120524100Y-87053000D03*
%TO.P,J1,A12,GND*%
%TO.N,/USBUART/OGND*%
X119724100Y-87053000D03*
%TO.P,J1,B1,GND*%
X119724100Y-87053000D03*
%TO.P,J1,B4,VBUS*%
%TO.N,VBUS*%
X120524100Y-87053000D03*
D16*
%TO.P,J1,B5,CC2*%
%TO.N,Net-(J1-CC2)*%
X121174100Y-87053000D03*
%TO.P,J1,B6,D+*%
%TO.N,/USBUART/UD+*%
X122174100Y-87053000D03*
%TO.P,J1,B7,D-*%
%TO.N,/USBUART/UD-*%
X123674100Y-87053000D03*
%TO.P,J1,B8*%
%TO.N,N/C*%
X124674100Y-87053000D03*
D15*
%TO.P,J1,B9,VBUS*%
%TO.N,VBUS*%
X125324100Y-87053000D03*
%TO.P,J1,B12,GND*%
%TO.N,/USBUART/OGND*%
X126124100Y-87053000D03*
D17*
%TO.P,J1,S1,SHIELD*%
X127244100Y-86478000D03*
D18*
X127244100Y-82298000D03*
D17*
X118604100Y-86478000D03*
D18*
X118604100Y-82298000D03*
%TD*%
D10*
%TO.P,JP3,1,A*%
%TO.N,GNDA*%
X120510000Y-117600000D03*
D11*
%TO.P,JP3,2,B*%
%TO.N,/USBUART/OGND*%
X117970000Y-117600000D03*
%TD*%
D10*
%TO.P,J5,1,Pin_1*%
%TO.N,/MCU/PTE8*%
X143385000Y-121855000D03*
D11*
%TO.P,J5,2,Pin_2*%
%TO.N,/MCU/PTB5*%
X143385000Y-119315000D03*
%TO.P,J5,3,Pin_3*%
%TO.N,/MCU/PTB4*%
X145925000Y-121855000D03*
%TO.P,J5,4,Pin_4*%
%TO.N,/MCU/PTC3*%
X145925000Y-119315000D03*
%TO.P,J5,5,Pin_5*%
%TO.N,/MCU/PTC2*%
X148465000Y-121855000D03*
%TO.P,J5,6,Pin_6*%
%TO.N,/MCU/PTD7*%
X148465000Y-119315000D03*
%TO.P,J5,7,Pin_7*%
%TO.N,/MCU/PTD6*%
X151005000Y-121855000D03*
%TO.P,J5,8,Pin_8*%
%TO.N,/MCU/PTD5*%
X151005000Y-119315000D03*
%TO.P,J5,9,Pin_9*%
%TO.N,/MCU/PTC1*%
X153545000Y-121855000D03*
%TO.P,J5,10,Pin_10*%
%TO.N,/MCU/PTC0*%
X153545000Y-119315000D03*
%TO.P,J5,11,Pin_11*%
%TO.N,/MCU/PTC17*%
X156085000Y-121855000D03*
%TO.P,J5,12,Pin_12*%
%TO.N,/MCU/PTC16*%
X156085000Y-119315000D03*
%TO.P,J5,13,Pin_13*%
%TO.N,/MCU/PTC15*%
X158625000Y-121855000D03*
%TO.P,J5,14,Pin_14*%
%TO.N,/MCU/PTC14*%
X158625000Y-119315000D03*
%TO.P,J5,15,Pin_15*%
%TO.N,/MCU/PTB3*%
X161165000Y-121855000D03*
%TO.P,J5,16,Pin_16*%
%TO.N,/MCU/PTB2*%
X161165000Y-119315000D03*
%TD*%
D19*
%TO.P,SW1,1,1*%
%TO.N,GNDD*%
X163150000Y-87685000D03*
X163150000Y-81185000D03*
%TO.P,SW1,2,2*%
%TO.N,/MCU/RESET*%
X167650000Y-87685000D03*
X167650000Y-81185000D03*
%TD*%
D14*
%TO.P,H3,1,Pin_1*%
%TO.N,GNDD*%
X165985000Y-120800000D03*
%TD*%
D20*
%TO.P,R1,1*%
%TO.N,/MCU/RESET*%
X167872500Y-92835000D03*
%TO.P,R1,2*%
%TO.N,/MCU/PTA5*%
X166047500Y-92835000D03*
%TD*%
D21*
%TO.P,U1,1,UD+*%
%TO.N,/USBUART/UD+*%
X123554100Y-91998000D03*
%TO.P,U1,2,UD-*%
%TO.N,/USBUART/UD-*%
X122284100Y-91998000D03*
%TO.P,U1,3,GND*%
%TO.N,/USBUART/OGND*%
X121014100Y-91998000D03*
%TO.P,U1,4,~{RTS}*%
%TO.N,unconnected-(U1-~{RTS}-Pad4)*%
X119744100Y-91998000D03*
%TO.P,U1,5,VCC*%
%TO.N,VBUS*%
X119744100Y-97248000D03*
%TO.P,U1,6,TXD*%
%TO.N,/MCU/UART_RX*%
X121014100Y-97248000D03*
%TO.P,U1,7,RXD*%
%TO.N,/MCU/UART_TX*%
X122284100Y-97248000D03*
%TO.P,U1,8,V3*%
%TO.N,Net-(U1-V3)*%
X123554100Y-97248000D03*
%TD*%
D22*
%TO.P,Y1,1,1*%
%TO.N,Net-(C11-Pad1)*%
X135685000Y-120350000D03*
%TO.P,Y1,2,2*%
%TO.N,Net-(C12-Pad1)*%
X130805000Y-120350000D03*
%TD*%
D14*
%TO.P,H2,1,Pin_1*%
%TO.N,GNDD*%
X138535000Y-93025000D03*
%TD*%
D23*
%TO.P,U2,1,PTD1*%
%TO.N,/MCU/PTD1*%
X146600000Y-103075000D03*
%TO.P,U2,2,PTD0*%
%TO.N,/MCU/PTD0*%
X146600000Y-103575000D03*
%TO.P,U2,3,PTE11*%
%TO.N,/MCU/PTE11*%
X146600000Y-104075000D03*
%TO.P,U2,4,PTE10*%
%TO.N,/MCU/PTE10*%
X146600000Y-104575000D03*
%TO.P,U2,5,PTE5*%
%TO.N,/MCU/PTE5*%
X146600000Y-105075000D03*
%TO.P,U2,6,PTE4*%
%TO.N,/MCU/PTE4*%
X146600000Y-105575000D03*
%TO.P,U2,7,VDD*%
%TO.N,VDD*%
X146600000Y-106075000D03*
%TO.P,U2,8,VDDA*%
%TO.N,VDDA*%
X146600000Y-106575000D03*
%TO.P,U2,9,VREFH*%
X146600000Y-107075000D03*
%TO.P,U2,10,VSS*%
%TO.N,GNDD*%
X146600000Y-107575000D03*
%TO.P,U2,11,EXTAL*%
%TO.N,/MCU/PTB7*%
X146600000Y-108075000D03*
%TO.P,U2,12,XTAL*%
%TO.N,/MCU/PTB6*%
X146600000Y-108575000D03*
%TO.P,U2,13,PTE3*%
%TO.N,/MCU/PTE3*%
X146600000Y-109075000D03*
%TO.P,U2,14,PTD16*%
%TO.N,/MCU/PTD16*%
X146600000Y-109575000D03*
%TO.P,U2,15,PTD15*%
%TO.N,/MCU/PTD15*%
X146600000Y-110075000D03*
%TO.P,U2,16,PTE9*%
%TO.N,/MCU/PTE9*%
X146600000Y-110575000D03*
D24*
%TO.P,U2,17,PTE8*%
%TO.N,/MCU/PTE8*%
X148525000Y-112500000D03*
%TO.P,U2,18,PTB5*%
%TO.N,/MCU/PTB5*%
X149025000Y-112500000D03*
%TO.P,U2,19,PTB4*%
%TO.N,/MCU/PTB4*%
X149525000Y-112500000D03*
%TO.P,U2,20,LPUART0_TX*%
%TO.N,/MCU/PTC3*%
X150025000Y-112500000D03*
%TO.P,U2,21,LPUART0_RX*%
%TO.N,/MCU/PTC2*%
X150525000Y-112500000D03*
%TO.P,U2,22,PTD7*%
%TO.N,/MCU/PTD7*%
X151025000Y-112500000D03*
%TO.P,U2,23,PTD6*%
%TO.N,/MCU/PTD6*%
X151525000Y-112500000D03*
%TO.P,U2,24,PTD5*%
%TO.N,/MCU/PTD5*%
X152025000Y-112500000D03*
%TO.P,U2,25,PTC1*%
%TO.N,/MCU/PTC1*%
X152525000Y-112500000D03*
%TO.P,U2,26,PTC0*%
%TO.N,/MCU/PTC0*%
X153025000Y-112500000D03*
%TO.P,U2,27,PTC17*%
%TO.N,/MCU/PTC17*%
X153525000Y-112500000D03*
%TO.P,U2,28,PTC16*%
%TO.N,/MCU/PTC16*%
X154025000Y-112500000D03*
%TO.P,U2,29,PTC15*%
%TO.N,/MCU/PTC15*%
X154525000Y-112500000D03*
%TO.P,U2,30,PTC14*%
%TO.N,/MCU/PTC14*%
X155025000Y-112500000D03*
%TO.P,U2,31,PTB3*%
%TO.N,/MCU/PTB3*%
X155525000Y-112500000D03*
%TO.P,U2,32,PTB2*%
%TO.N,/MCU/PTB2*%
X156025000Y-112500000D03*
D23*
%TO.P,U2,33,PTB1*%
%TO.N,/MCU/PTB1*%
X157950000Y-110575000D03*
%TO.P,U2,34,PTB0*%
%TO.N,/MCU/PTB0*%
X157950000Y-110075000D03*
%TO.P,U2,35,PTC9*%
%TO.N,/MCU/PTC9*%
X157950000Y-109575000D03*
%TO.P,U2,36,PTC8*%
%TO.N,/MCU/PTC8*%
X157950000Y-109075000D03*
%TO.P,U2,37,PTA7*%
%TO.N,/MCU/PTA7*%
X157950000Y-108575000D03*
%TO.P,U2,38,PTA6*%
%TO.N,/MCU/PTA6*%
X157950000Y-108075000D03*
%TO.P,U2,39,PTE7*%
%TO.N,/MCU/PTE7*%
X157950000Y-107575000D03*
%TO.P,U2,40,VSS*%
%TO.N,GNDD*%
X157950000Y-107075000D03*
%TO.P,U2,41,VDD*%
%TO.N,VDD*%
X157950000Y-106575000D03*
%TO.P,U2,42,PTB13*%
%TO.N,/MCU/PTB13*%
X157950000Y-106075000D03*
%TO.P,U2,43,PTB12*%
%TO.N,/MCU/PTB12*%
X157950000Y-105575000D03*
%TO.P,U2,44,PTD4*%
%TO.N,/MCU/PTD4*%
X157950000Y-105075000D03*
%TO.P,U2,45,PTD3*%
%TO.N,/MCU/PTD3*%
X157950000Y-104575000D03*
%TO.P,U2,46,PTD2*%
%TO.N,/MCU/PTD2*%
X157950000Y-104075000D03*
%TO.P,U2,47,PTA3*%
%TO.N,/MCU/PTA3*%
X157950000Y-103575000D03*
%TO.P,U2,48,PTA2*%
%TO.N,/MCU/PTA2*%
X157950000Y-103075000D03*
D24*
%TO.P,U2,49,PTA1*%
%TO.N,/MCU/PTA1*%
X156025000Y-101150000D03*
%TO.P,U2,50,PTA0*%
%TO.N,/MCU/PTA0*%
X155525000Y-101150000D03*
%TO.P,U2,51,PTC7*%
%TO.N,/MCU/PTC7*%
X155025000Y-101150000D03*
%TO.P,U2,52,PTC6*%
%TO.N,/MCU/PTC6*%
X154525000Y-101150000D03*
%TO.P,U2,53,PTE6*%
%TO.N,/MCU/PTE6*%
X154025000Y-101150000D03*
%TO.P,U2,54,PTE2*%
%TO.N,/MCU/PTE2*%
X153525000Y-101150000D03*
%TO.P,U2,55,PTA13*%
%TO.N,/MCU/PTA13*%
X153025000Y-101150000D03*
%TO.P,U2,56,PTA12*%
%TO.N,/MCU/PTA12*%
X152525000Y-101150000D03*
%TO.P,U2,57,PTA11*%
%TO.N,/MCU/PTA11*%
X152025000Y-101150000D03*
%TO.P,U2,58,TRACE_SWO*%
%TO.N,/MCU/PTA10*%
X151525000Y-101150000D03*
%TO.P,U2,59,PTE1*%
%TO.N,/MCU/PTE1*%
X151025000Y-101150000D03*
%TO.P,U2,60,PTE0*%
%TO.N,/MCU/PTE0*%
X150525000Y-101150000D03*
%TO.P,U2,61,PTC5*%
%TO.N,/MCU/PTC5*%
X150025000Y-101150000D03*
%TO.P,U2,62,SWD_CLK*%
%TO.N,/MCU/PTC4*%
X149525000Y-101150000D03*
%TO.P,U2,63,RESET_b*%
%TO.N,/MCU/PTA5*%
X149025000Y-101150000D03*
%TO.P,U2,64,SWD_DIO*%
%TO.N,/MCU/PTA4*%
X148525000Y-101150000D03*
%TD*%
D10*
%TO.P,J6,1,Pin_1*%
%TO.N,/MCU/PTB1*%
X167305000Y-115715000D03*
D11*
%TO.P,J6,2,Pin_2*%
%TO.N,/MCU/PTB0*%
X164765000Y-115715000D03*
%TO.P,J6,3,Pin_3*%
%TO.N,/MCU/PTC9*%
X167305000Y-113175000D03*
%TO.P,J6,4,Pin_4*%
%TO.N,/MCU/PTC8*%
X164765000Y-113175000D03*
%TO.P,J6,5,Pin_5*%
%TO.N,/MCU/PTA7*%
X167305000Y-110635000D03*
%TO.P,J6,6,Pin_6*%
%TO.N,/MCU/PTA6*%
X164765000Y-110635000D03*
%TO.P,J6,7,Pin_7*%
%TO.N,/MCU/PTE7*%
X167305000Y-108095000D03*
%TO.P,J6,8,Pin_8*%
%TO.N,GNDD*%
X164765000Y-108095000D03*
%TO.P,J6,9,Pin_9*%
%TO.N,VDD*%
X167305000Y-105555000D03*
%TO.P,J6,10,Pin_10*%
%TO.N,/MCU/PTB13*%
X164765000Y-105555000D03*
%TO.P,J6,11,Pin_11*%
%TO.N,/MCU/PTB12*%
X167305000Y-103015000D03*
%TO.P,J6,12,Pin_12*%
%TO.N,/MCU/PTD4*%
X164765000Y-103015000D03*
%TO.P,J6,13,Pin_13*%
%TO.N,/MCU/PTD3*%
X167305000Y-100475000D03*
%TO.P,J6,14,Pin_14*%
%TO.N,/MCU/PTD2*%
X164765000Y-100475000D03*
%TO.P,J6,15,Pin_15*%
%TO.N,/MCU/PTA3*%
X167305000Y-97935000D03*
%TO.P,J6,16,Pin_16*%
%TO.N,/MCU/PTA2*%
X164765000Y-97935000D03*
%TD*%
D25*
%TO.N,VDD*%
X161410000Y-106575000D03*
%TO.N,GNDD*%
X150876200Y-88885600D03*
X130835000Y-112400000D03*
X134260000Y-100275000D03*
X132785000Y-109375000D03*
X149735000Y-103525000D03*
X155660000Y-103525000D03*
X155660000Y-109175000D03*
X149735000Y-109175000D03*
%TO.N,VDDA*%
X144610000Y-106775000D03*
%TO.N,GNDA*%
X128860000Y-105275000D03*
X125360000Y-113200000D03*
X123960000Y-107075000D03*
%TO.N,VBUS*%
X120841600Y-88510500D03*
X120764000Y-94388800D03*
X125327900Y-88589150D03*
%TO.N,Net-(J1-CC1)*%
X124179100Y-85948000D03*
%TO.N,Net-(J1-CC2)*%
X121184100Y-85928000D03*
%TO.N,/MCU/UART_RX*%
X123560000Y-115150000D03*
%TO.N,/MCU/UART_TX*%
X124360003Y-115150000D03*
D26*
%TO.N,/USBUART/UD+*%
X123236441Y-88335839D03*
D25*
X124447000Y-92001200D03*
D26*
X122152659Y-87929441D03*
%TO.N,/USBUART/UD-*%
X123939000Y-88115000D03*
X122542000Y-88775400D03*
D25*
%TO.N,/USBUART/OGND*%
X116035000Y-106875000D03*
X126754100Y-92673000D03*
X116035000Y-111825000D03*
X116035000Y-103575000D03*
X116035000Y-116175000D03*
%TD*%
D27*
%TO.N,/MCU/PTA5*%
X166047500Y-90781500D02*
X165540000Y-90274000D01*
X166047500Y-92835000D02*
X166047500Y-90781500D01*
X165540000Y-90274000D02*
X164215200Y-90274000D01*
%TO.N,/MCU/RESET*%
X167872500Y-90496000D02*
X167650000Y-90273500D01*
X167872500Y-92835000D02*
X167872500Y-90496000D01*
D28*
%TO.N,VDD*%
X167305000Y-105555000D02*
X166035000Y-106825000D01*
X161660000Y-106825000D02*
X161410000Y-106575000D01*
D29*
X138525000Y-104275000D02*
X137245000Y-105555000D01*
X141485000Y-104275000D02*
X138525000Y-104275000D01*
X141685000Y-104275000D02*
X143435000Y-106025000D01*
X141485000Y-104275000D02*
X141685000Y-104275000D01*
D28*
X143485000Y-106075000D02*
X143435000Y-106025000D01*
X161410000Y-106575000D02*
X157950000Y-106575000D01*
X166035000Y-106825000D02*
X161660000Y-106825000D01*
X146600000Y-106075000D02*
X143485000Y-106075000D01*
D27*
%TO.N,GNDD*%
X133185000Y-105925000D02*
X133185000Y-106950000D01*
D28*
X148135000Y-107575000D02*
X149735000Y-109175000D01*
X138515000Y-106825000D02*
X139785000Y-108095000D01*
D27*
X130835000Y-112400000D02*
X130835000Y-111325000D01*
X141010000Y-94575000D02*
X141010000Y-93025000D01*
X132785000Y-109375000D02*
X133185000Y-108975000D01*
X134260000Y-100275000D02*
X134260000Y-96350000D01*
X162081471Y-108095000D02*
X164765000Y-108095000D01*
X163150000Y-87685000D02*
X163150000Y-81185000D01*
X141010000Y-90076800D02*
X142201200Y-88885600D01*
X132785000Y-109425000D02*
X132785000Y-109375000D01*
X157950000Y-107075000D02*
X161061471Y-107075000D01*
D28*
X146600000Y-107575000D02*
X141755000Y-107575000D01*
D27*
X161061471Y-107075000D02*
X162081471Y-108095000D01*
X133260000Y-106875000D02*
X133185000Y-106950000D01*
X141010000Y-90807400D02*
X141010000Y-93025000D01*
D28*
X149735000Y-109175000D02*
X155660000Y-109175000D01*
X141235000Y-108095000D02*
X139785000Y-108095000D01*
D27*
X133185000Y-108975000D02*
X133185000Y-105925000D01*
X161949400Y-88885600D02*
X163150000Y-87685000D01*
D28*
X133260000Y-106825000D02*
X138515000Y-106825000D01*
D27*
X141010000Y-90807400D02*
X141010000Y-90076800D01*
X133185000Y-101350000D02*
X133185000Y-105925000D01*
D28*
X146600000Y-107575000D02*
X148135000Y-107575000D01*
D27*
X139922500Y-95662500D02*
X141010000Y-94575000D01*
D28*
X141755000Y-107575000D02*
X141235000Y-108095000D01*
D27*
X150876200Y-88885600D02*
X142201200Y-88885600D01*
X155660000Y-108557590D02*
X155660000Y-109175000D01*
X134260000Y-96350000D02*
X134947500Y-95662500D01*
X150876200Y-88885600D02*
X161949400Y-88885600D01*
X134947500Y-95662500D02*
X139922500Y-95662500D01*
X157950000Y-107075000D02*
X157142590Y-107075000D01*
X138535000Y-93025000D02*
X141010000Y-93025000D01*
X130835000Y-111325000D02*
X132785000Y-109375000D01*
X157142590Y-107075000D02*
X155660000Y-108557590D01*
X134260000Y-100275000D02*
X133185000Y-101350000D01*
D28*
%TO.N,VDDA*%
X144910000Y-107075000D02*
X144610000Y-106775000D01*
D27*
X144810000Y-106575000D02*
X144610000Y-106775000D01*
D28*
X146600000Y-107075000D02*
X144910000Y-107075000D01*
X146600000Y-107075000D02*
X146600000Y-106575000D01*
X146600000Y-106575000D02*
X144810000Y-106575000D01*
D29*
%TO.N,VBUS*%
X120841600Y-88510500D02*
X120527900Y-88196800D01*
D27*
X120764000Y-94888100D02*
X119744100Y-95908000D01*
D29*
X125327900Y-88589150D02*
X125327900Y-87028000D01*
D27*
X119744100Y-95908000D02*
X119744100Y-97248000D01*
X120764000Y-94388800D02*
X120764000Y-94888100D01*
D29*
X120527900Y-88196800D02*
X120527900Y-87028000D01*
D27*
%TO.N,Net-(C11-Pad1)*%
X134410000Y-115637500D02*
X134410000Y-119075000D01*
X134410000Y-119075000D02*
X135685000Y-120350000D01*
%TO.N,/MCU/RESET*%
X167650000Y-87685000D02*
X167650000Y-90273500D01*
%TO.N,/MCU/PTB6*%
X139219314Y-110635000D02*
X139785000Y-110635000D01*
X135185000Y-111900000D02*
X137954314Y-111900000D01*
X146600000Y-108575000D02*
X143320000Y-108575000D01*
X135185000Y-111900000D02*
X134410000Y-112675000D01*
X139785000Y-110635000D02*
X141260000Y-110635000D01*
X143320000Y-108575000D02*
X141260000Y-110635000D01*
X134410000Y-112675000D02*
X134410000Y-113812500D01*
X137954314Y-111900000D02*
X139219314Y-110635000D01*
%TO.N,/MCU/PTE3*%
X143810000Y-109075000D02*
X140960000Y-111925000D01*
X138495000Y-111925000D02*
X140960000Y-111925000D01*
X137245000Y-113175000D02*
X138495000Y-111925000D01*
X146600000Y-109075000D02*
X143810000Y-109075000D01*
%TO.N,/MCU/PTE11*%
X141160000Y-99225000D02*
X142160000Y-100225000D01*
X142160000Y-100968628D02*
X145266372Y-104075000D01*
X137245000Y-100475000D02*
X138495000Y-99225000D01*
X138495000Y-99225000D02*
X141160000Y-99225000D01*
X142160000Y-100225000D02*
X142160000Y-100968628D01*
X145266372Y-104075000D02*
X146600000Y-104075000D01*
%TO.N,/MCU/PTE5*%
X138535000Y-101725000D02*
X141185000Y-101725000D01*
X141185000Y-101725000D02*
X144535000Y-105075000D01*
X144535000Y-105075000D02*
X146600000Y-105075000D01*
X137245000Y-103015000D02*
X138535000Y-101725000D01*
%TO.N,/MCU/PTE4*%
X146550000Y-105575000D02*
X146550000Y-105590000D01*
X146550000Y-105590000D02*
X146560000Y-105600000D01*
X144185000Y-105575000D02*
X146600000Y-105575000D01*
X141625000Y-103015000D02*
X144185000Y-105575000D01*
X139785000Y-103015000D02*
X141625000Y-103015000D01*
%TO.N,/MCU/PTE10*%
X141100686Y-100475000D02*
X145200686Y-104575000D01*
X139785000Y-100475000D02*
X141100686Y-100475000D01*
X145200686Y-104575000D02*
X146600000Y-104575000D01*
%TO.N,/MCU/PTD1*%
X138755000Y-96425000D02*
X140760000Y-96425000D01*
X143360000Y-99025000D02*
X143360000Y-100875000D01*
X140760000Y-96425000D02*
X143360000Y-99025000D01*
X145560000Y-103075000D02*
X146600000Y-103075000D01*
X143360000Y-100875000D02*
X145560000Y-103075000D01*
X137245000Y-97935000D02*
X138755000Y-96425000D01*
%TO.N,/MCU/PTE9*%
X146600000Y-110575000D02*
X145485000Y-110575000D01*
X145485000Y-110575000D02*
X144885000Y-111175000D01*
X141135000Y-115715000D02*
X144885000Y-111965000D01*
X141135000Y-115715000D02*
X139785000Y-115715000D01*
X144885000Y-111965000D02*
X144885000Y-111175000D01*
%TO.N,/MCU/PTD0*%
X139785000Y-97935000D02*
X141170000Y-97935000D01*
X142710000Y-100860000D02*
X145425000Y-103575000D01*
X145425000Y-103575000D02*
X146600000Y-103575000D01*
X142710000Y-99475000D02*
X142710000Y-100860000D01*
X141170000Y-97935000D02*
X142710000Y-99475000D01*
%TO.N,/MCU/PTB7*%
X146600000Y-108075000D02*
X142285000Y-108075000D01*
X141010000Y-109350000D02*
X138530000Y-109350000D01*
X138530000Y-109350000D02*
X137245000Y-110635000D01*
X133450000Y-110635000D02*
X132285000Y-111800000D01*
X132285000Y-111800000D02*
X132285000Y-113812500D01*
X142285000Y-108075000D02*
X141010000Y-109350000D01*
X137245000Y-110635000D02*
X133450000Y-110635000D01*
%TO.N,/MCU/PTD16*%
X146600000Y-109575000D02*
X144810000Y-109575000D01*
X144810000Y-109575000D02*
X141210000Y-113175000D01*
X139785000Y-113175000D02*
X141210000Y-113175000D01*
%TO.N,/MCU/PTD15*%
X145419314Y-110075000D02*
X141044314Y-114450000D01*
X146600000Y-110075000D02*
X145419314Y-110075000D01*
X138510000Y-114450000D02*
X137245000Y-115715000D01*
X141044314Y-114450000D02*
X138510000Y-114450000D01*
%TO.N,/MCU/PTC14*%
X155025000Y-114675000D02*
X155025000Y-112500000D01*
X158625000Y-118275000D02*
X155025000Y-114675000D01*
X158625000Y-119315000D02*
X158625000Y-118275000D01*
%TO.N,/MCU/PTB3*%
X155525000Y-113655686D02*
X155525000Y-112500000D01*
X159910000Y-118040686D02*
X155525000Y-113655686D01*
X161165000Y-121855000D02*
X159910000Y-120600000D01*
X159910000Y-120600000D02*
X159910000Y-118040686D01*
%TO.N,/MCU/PTB2*%
X156025000Y-113590000D02*
X156025000Y-112500000D01*
X161165000Y-119315000D02*
X161165000Y-117600000D01*
X160540000Y-116975000D02*
X159410000Y-116975000D01*
X159410000Y-116975000D02*
X156025000Y-113590000D01*
X161165000Y-117600000D02*
X160540000Y-116975000D01*
%TO.N,/MCU/PTB5*%
X144685000Y-116800000D02*
X146210000Y-116800000D01*
X143385000Y-119315000D02*
X143385000Y-118100000D01*
X143385000Y-118100000D02*
X144685000Y-116800000D01*
X149025000Y-113985000D02*
X149025000Y-112500000D01*
X146210000Y-116800000D02*
X149025000Y-113985000D01*
%TO.N,/MCU/PTC2*%
X147210000Y-119550000D02*
X147210000Y-119825000D01*
X150525000Y-114660000D02*
X150525000Y-112500000D01*
X147210000Y-119550000D02*
X147210000Y-120600000D01*
X147210000Y-117975000D02*
X150525000Y-114660000D01*
X147210000Y-120600000D02*
X148465000Y-121855000D01*
X147210000Y-119825000D02*
X147210000Y-117975000D01*
%TO.N,/MCU/PTD7*%
X151025000Y-112500000D02*
X151025000Y-115265000D01*
X148465000Y-119315000D02*
X148465000Y-117825000D01*
X151025000Y-115265000D02*
X148465000Y-117825000D01*
%TO.N,/MCU/PTC16*%
X156085000Y-119315000D02*
X156085000Y-118125000D01*
X154025000Y-116065000D02*
X154025000Y-112500000D01*
X156085000Y-118125000D02*
X154025000Y-116065000D01*
%TO.N,/MCU/PTB4*%
X144660000Y-118150000D02*
X144660000Y-120590000D01*
X149525000Y-114050686D02*
X149525000Y-112500000D01*
X145385000Y-117425000D02*
X146150686Y-117425000D01*
X144660000Y-118150000D02*
X145385000Y-117425000D01*
X146150686Y-117425000D02*
X149525000Y-114050686D01*
X144660000Y-120590000D02*
X145925000Y-121855000D01*
%TO.N,/MCU/PTC3*%
X150025000Y-114116372D02*
X145925000Y-118216372D01*
X150025000Y-112500000D02*
X150025000Y-114116372D01*
X145925000Y-118216372D02*
X145925000Y-119315000D01*
%TO.N,/MCU/PTC1*%
X152525000Y-117810000D02*
X152525000Y-112500000D01*
X152285000Y-120595000D02*
X153545000Y-121855000D01*
X152285000Y-118050000D02*
X152525000Y-117810000D01*
X152285000Y-118050000D02*
X152285000Y-120595000D01*
%TO.N,/MCU/PTC15*%
X157360000Y-119750000D02*
X157360000Y-120590000D01*
X157360000Y-119475000D02*
X157360000Y-118125000D01*
X157360000Y-119375000D02*
X157360000Y-119475000D01*
X157360000Y-119375000D02*
X157360000Y-119575000D01*
X157360000Y-119575000D02*
X157360000Y-119750000D01*
X157360000Y-119575000D02*
X157360000Y-120590000D01*
X157360000Y-119475000D02*
X157360000Y-119750000D01*
X154525000Y-115290000D02*
X154525000Y-112500000D01*
X157360000Y-120590000D02*
X158625000Y-121855000D01*
X157360000Y-118125000D02*
X154525000Y-115290000D01*
%TO.N,/MCU/PTD5*%
X151005000Y-119315000D02*
X151005000Y-117875000D01*
X152025000Y-116855000D02*
X151005000Y-117875000D01*
X152025000Y-112500000D02*
X152025000Y-116855000D01*
%TO.N,/MCU/PTE8*%
X142110000Y-118117157D02*
X143927157Y-116300000D01*
X148525000Y-112500000D02*
X148525000Y-113919314D01*
X146144314Y-116300000D02*
X148525000Y-113919314D01*
X142110000Y-120580000D02*
X143385000Y-121855000D01*
X143927157Y-116300000D02*
X146144314Y-116300000D01*
X142110000Y-120580000D02*
X142110000Y-118117157D01*
%TO.N,/MCU/PTD6*%
X151525000Y-116260000D02*
X151525000Y-112500000D01*
X149735000Y-118050000D02*
X151525000Y-116260000D01*
X149735000Y-120585000D02*
X149735000Y-118050000D01*
X151005000Y-121855000D02*
X149735000Y-120585000D01*
%TO.N,/MCU/PTC0*%
X153545000Y-119315000D02*
X153545000Y-117670000D01*
X153025000Y-112500000D02*
X153025000Y-117150000D01*
X153545000Y-117670000D02*
X153025000Y-117150000D01*
%TO.N,/MCU/PTC17*%
X153525000Y-116715000D02*
X153525000Y-112500000D01*
X154860000Y-118050000D02*
X153525000Y-116715000D01*
X154860000Y-120630000D02*
X154860000Y-118050000D01*
X156085000Y-121855000D02*
X154860000Y-120630000D01*
%TO.N,/MCU/PTB12*%
X161635000Y-104275000D02*
X160335000Y-105575000D01*
X160335000Y-105575000D02*
X157950000Y-105575000D01*
X167305000Y-103015000D02*
X166045000Y-104275000D01*
X166045000Y-104275000D02*
X161635000Y-104275000D01*
%TO.N,/MCU/PTD3*%
X166030000Y-101750000D02*
X162235000Y-101750000D01*
X157950000Y-104575000D02*
X159410000Y-104575000D01*
X167305000Y-100475000D02*
X166030000Y-101750000D01*
X162235000Y-101750000D02*
X159410000Y-104575000D01*
%TO.N,/MCU/PTA3*%
X163332410Y-99200000D02*
X158957410Y-103575000D01*
X158957410Y-103575000D02*
X157950000Y-103575000D01*
X166040000Y-99200000D02*
X163332410Y-99200000D01*
X166040000Y-99200000D02*
X167305000Y-97935000D01*
%TO.N,/MCU/PTC8*%
X164765000Y-113175000D02*
X163700684Y-113175000D01*
X159600685Y-109075001D02*
X159600685Y-109075000D01*
X163700684Y-113175000D02*
X159600685Y-109075001D01*
X159600685Y-109075000D02*
X157950000Y-109075000D01*
%TO.N,/MCU/PTD4*%
X164765000Y-103015000D02*
X162095000Y-103015000D01*
X160035000Y-105075000D02*
X157950000Y-105075000D01*
X162095000Y-103015000D02*
X160035000Y-105075000D01*
%TO.N,/MCU/PTD2*%
X157950000Y-104075000D02*
X159185000Y-104075000D01*
X162785000Y-100475000D02*
X159185000Y-104075000D01*
X164765000Y-100475000D02*
X162785000Y-100475000D01*
%TO.N,/MCU/PTC9*%
X159491372Y-109575000D02*
X162360000Y-112443628D01*
X162360000Y-113700000D02*
X162360000Y-112443628D01*
X157950000Y-109575000D02*
X159491372Y-109575000D01*
X167305000Y-113175000D02*
X166030000Y-114450000D01*
X163110000Y-114450000D02*
X162360000Y-113700000D01*
X166030000Y-114450000D02*
X163110000Y-114450000D01*
%TO.N,/MCU/PTE7*%
X166000000Y-109400000D02*
X167305000Y-108095000D01*
X160995785Y-107575000D02*
X162820785Y-109400000D01*
X157950000Y-107575000D02*
X160995785Y-107575000D01*
X162820785Y-109400000D02*
X166000000Y-109400000D01*
%TO.N,/MCU/PTB0*%
X161835000Y-112484314D02*
X159425686Y-110075000D01*
X161835000Y-114800000D02*
X161835000Y-112484314D01*
X162750000Y-115715000D02*
X161835000Y-114800000D01*
X164765000Y-115715000D02*
X162750000Y-115715000D01*
X159425686Y-110075000D02*
X157950000Y-110075000D01*
%TO.N,/MCU/PTA6*%
X163490099Y-110635000D02*
X164765000Y-110635000D01*
X157950000Y-108075000D02*
X160930099Y-108075000D01*
X160930099Y-108075000D02*
X163490099Y-110635000D01*
%TO.N,/MCU/PTB1*%
X166910000Y-117050000D02*
X167305000Y-116655000D01*
X159360000Y-110575000D02*
X161435000Y-112650000D01*
X163385000Y-117050000D02*
X166910000Y-117050000D01*
X161435000Y-112650000D02*
X161435000Y-115100000D01*
X157950000Y-110575000D02*
X159360000Y-110575000D01*
X161435000Y-115100000D02*
X163385000Y-117050000D01*
X167305000Y-116655000D02*
X167305000Y-115715000D01*
%TO.N,/MCU/PTB13*%
X164765000Y-105555000D02*
X161180000Y-105555000D01*
X157950000Y-106075000D02*
X160660000Y-106075000D01*
X161180000Y-105555000D02*
X160660000Y-106075000D01*
%TO.N,/MCU/PTA7*%
X167305000Y-110635000D02*
X166015000Y-111925000D01*
X157950000Y-108575000D02*
X160285000Y-108575000D01*
X160285000Y-108575000D02*
X163635000Y-111925000D01*
X166015000Y-111925000D02*
X163635000Y-111925000D01*
%TO.N,/MCU/PTA2*%
X159372500Y-102537500D02*
X158835000Y-103075000D01*
X164765000Y-97935000D02*
X163450000Y-97935000D01*
X159372500Y-102012500D02*
X159372500Y-102537500D01*
X158835000Y-103075000D02*
X157950000Y-103075000D01*
X163450000Y-97935000D02*
X159372500Y-102012500D01*
%TO.N,/MCU/PTA1*%
X162485000Y-95675000D02*
X159810000Y-98350000D01*
X159810000Y-98350000D02*
X157635000Y-98350000D01*
X162485000Y-93115000D02*
X162485000Y-95675000D01*
X157635000Y-98350000D02*
X156025000Y-99960000D01*
X161165000Y-91795000D02*
X162485000Y-93115000D01*
X156025000Y-99960000D02*
X156025000Y-101150000D01*
%TO.N,/MCU/PTA0*%
X161165000Y-96045000D02*
X161165000Y-94335000D01*
X159260000Y-97950000D02*
X157469314Y-97950000D01*
X155525000Y-101150000D02*
X155525000Y-99894314D01*
X155525000Y-99894314D02*
X157469314Y-97950000D01*
X159260000Y-97950000D02*
X161165000Y-96045000D01*
%TO.N,/MCU/PTA10*%
X151005000Y-96175000D02*
X151005000Y-94335000D01*
X151525000Y-96695000D02*
X151005000Y-96175000D01*
X151525000Y-101150000D02*
X151525000Y-96695000D01*
%TO.N,/MCU/PTA5*%
X164215200Y-90274000D02*
X163766200Y-89825000D01*
X149025000Y-99749314D02*
X149025000Y-101150000D01*
X144660000Y-93070000D02*
X144660000Y-95384314D01*
X143385000Y-91795000D02*
X144660000Y-93070000D01*
X163766200Y-89825000D02*
X143860000Y-89825000D01*
X144660000Y-95384314D02*
X149025000Y-99749314D01*
X143385000Y-91795000D02*
X143385000Y-90300000D01*
X143860000Y-89825000D02*
X143385000Y-90300000D01*
%TO.N,/MCU/PTE6*%
X157360000Y-93070000D02*
X156085000Y-91795000D01*
X157360000Y-95400000D02*
X157360000Y-93070000D01*
X154025000Y-101150000D02*
X154025000Y-98735000D01*
X154025000Y-98735000D02*
X157360000Y-95400000D01*
%TO.N,/MCU/PTC5*%
X147185000Y-95675000D02*
X150025000Y-98515000D01*
X150025000Y-101150000D02*
X150025000Y-98515000D01*
X147185000Y-95675000D02*
X147185000Y-93055000D01*
X147185000Y-93055000D02*
X145925000Y-91795000D01*
%TO.N,/MCU/PTE1*%
X151025000Y-101150000D02*
X151025000Y-96940000D01*
X151025000Y-96940000D02*
X149735000Y-95650000D01*
X149735000Y-93065000D02*
X148465000Y-91795000D01*
X149735000Y-95650000D02*
X149735000Y-93065000D01*
%TO.N,/MCU/PTE0*%
X150525000Y-101150000D02*
X150525000Y-97685000D01*
X150525000Y-97685000D02*
X148465000Y-95625000D01*
X148465000Y-95625000D02*
X148465000Y-94335000D01*
%TO.N,/MCU/PTA4*%
X148525000Y-99815000D02*
X144910000Y-96200000D01*
X148525000Y-101150000D02*
X148525000Y-99815000D01*
X143385000Y-95750000D02*
X143835000Y-96200000D01*
X143835000Y-96200000D02*
X144910000Y-96200000D01*
X143385000Y-94335000D02*
X143385000Y-95750000D01*
%TO.N,/MCU/PTC7*%
X159910000Y-95625000D02*
X157985000Y-97550000D01*
X159910000Y-95625000D02*
X159910000Y-93080000D01*
X155025000Y-99828628D02*
X157303628Y-97550000D01*
X159910000Y-93080000D02*
X158625000Y-91795000D01*
X157985000Y-97550000D02*
X157303628Y-97550000D01*
X155025000Y-101150000D02*
X155025000Y-99828628D01*
%TO.N,/MCU/PTC6*%
X154525000Y-99762942D02*
X158625000Y-95662942D01*
X158625000Y-95662942D02*
X158625000Y-94335000D01*
X154525000Y-101150000D02*
X154525000Y-99762942D01*
%TO.N,/MCU/PTA13*%
X153025000Y-101150000D02*
X153025000Y-97405000D01*
X154810000Y-95620000D02*
X154810000Y-93060000D01*
X153025000Y-97405000D02*
X154810000Y-95620000D01*
X154810000Y-93060000D02*
X153545000Y-91795000D01*
%TO.N,/MCU/PTA12*%
X153545000Y-96140000D02*
X153545000Y-94335000D01*
X152525000Y-97160000D02*
X153545000Y-96140000D01*
X152525000Y-101150000D02*
X152525000Y-97160000D01*
%TO.N,/MCU/PTC4*%
X145925000Y-95315000D02*
X145925000Y-94335000D01*
X149525000Y-98915000D02*
X145925000Y-95315000D01*
X149525000Y-101150000D02*
X149525000Y-98915000D01*
%TO.N,/MCU/PTE2*%
X156085000Y-95800000D02*
X156085000Y-94335000D01*
X153525000Y-98360000D02*
X156085000Y-95800000D01*
X153525000Y-101150000D02*
X153525000Y-98360000D01*
%TO.N,/MCU/PTA11*%
X152285000Y-93075000D02*
X152285000Y-96115000D01*
X152285000Y-96115000D02*
X152025000Y-96375000D01*
X152025000Y-101150000D02*
X152025000Y-96375000D01*
X151005000Y-91795000D02*
X152285000Y-93075000D01*
%TO.N,Net-(J1-CC1)*%
X124179100Y-85948000D02*
X124179100Y-87026800D01*
X124179100Y-87026800D02*
X124177900Y-87028000D01*
%TO.N,Net-(J1-CC2)*%
X121174100Y-87053000D02*
X121174100Y-85938000D01*
X121174100Y-85938000D02*
X121184100Y-85928000D01*
%TO.N,/MCU/UART_RX*%
X121014100Y-98329100D02*
X121435000Y-98750000D01*
X121435000Y-110980000D02*
X123560000Y-113105000D01*
X121014100Y-97248000D02*
X121014100Y-98329100D01*
X123560000Y-113105000D02*
X123560000Y-115150000D01*
X121435000Y-98750000D02*
X121435000Y-110980000D01*
%TO.N,/MCU/UART_TX*%
X121835000Y-110750000D02*
X121835000Y-98800000D01*
X122284100Y-98350900D02*
X122284100Y-97248000D01*
X121835000Y-110750000D02*
X124360003Y-113275003D01*
X121835000Y-98800000D02*
X122284100Y-98350900D01*
X124360003Y-115150000D02*
X124360003Y-113275003D01*
%TO.N,Net-(C12-Pad1)*%
X132285000Y-118870000D02*
X130805000Y-120350000D01*
X132285000Y-115637500D02*
X132285000Y-118870000D01*
%TO.N,Net-(U1-V3)*%
X123554100Y-97248000D02*
X126104100Y-97248000D01*
X126729100Y-96623000D02*
X126729100Y-95673000D01*
X126104100Y-97248000D02*
X126729100Y-96623000D01*
%TO.N,/USBUART/UD+*%
X123236441Y-88335839D02*
X123174100Y-88273498D01*
X124443800Y-91998000D02*
X123554100Y-91998000D01*
X123554100Y-90760499D02*
X123554100Y-91998000D01*
X122174100Y-87908000D02*
X122152659Y-87929441D01*
X124447000Y-92001200D02*
X124443800Y-91998000D01*
X123144100Y-88428180D02*
X123144100Y-90350499D01*
X123174100Y-88273498D02*
X123174100Y-87053000D01*
X123144100Y-90350499D02*
X123554100Y-90760499D01*
X123236441Y-88335839D02*
X123144100Y-88428180D01*
X122174100Y-87053000D02*
X122174100Y-87908000D01*
%TO.N,/USBUART/UD-*%
X122542000Y-88317918D02*
X122724100Y-88135818D01*
X122694100Y-90350499D02*
X122284100Y-90760499D01*
X122694100Y-88927500D02*
X122694100Y-90350499D01*
X122542000Y-88775400D02*
X122542000Y-88317918D01*
X122542000Y-88775400D02*
X122694100Y-88927500D01*
X123674100Y-87053000D02*
X123674100Y-87850100D01*
X123674100Y-87850100D02*
X123939000Y-88115000D01*
X122284100Y-90760499D02*
X122284100Y-91998000D01*
X122724100Y-88135818D02*
X122724100Y-87103000D01*
X122724100Y-87103000D02*
X122674100Y-87053000D01*
%TO.N,/USBUART/OGND*%
X126672900Y-87028000D02*
X126127900Y-87028000D01*
X127247900Y-86453000D02*
X126672900Y-87028000D01*
X119182900Y-87028000D02*
X119727900Y-87028000D01*
X118607900Y-86453000D02*
X119182900Y-87028000D01*
X126729100Y-92698000D02*
X126754100Y-92673000D01*
X121014100Y-91998000D02*
X121014100Y-90929100D01*
X121014100Y-90929100D02*
X118604100Y-88519100D01*
X118604100Y-88519100D02*
X118604100Y-86478000D01*
X126729100Y-93773000D02*
X126729100Y-92698000D01*
%TD*%
%TA.AperFunction,Conductor*%
%TO.N,/USBUART/OGND*%
G36*
X129397539Y-80195185D02*
G01*
X129443294Y-80247989D01*
X129454500Y-80299500D01*
X129454500Y-103045500D01*
X129434815Y-103112539D01*
X129382011Y-103158294D01*
X129330500Y-103169500D01*
X122559500Y-103169500D01*
X122492461Y-103149815D01*
X122446706Y-103097011D01*
X122435500Y-103045500D01*
X122435500Y-99100096D01*
X122455185Y-99033057D01*
X122471815Y-99012419D01*
X122642606Y-98841627D01*
X122642611Y-98841624D01*
X122652814Y-98831420D01*
X122652816Y-98831420D01*
X122764620Y-98719616D01*
X122842469Y-98584777D01*
X122843677Y-98582685D01*
X122855836Y-98537305D01*
X122892199Y-98477645D01*
X122955046Y-98447114D01*
X123024422Y-98455408D01*
X123038729Y-98462663D01*
X123143702Y-98524744D01*
X123176659Y-98534319D01*
X123301526Y-98570597D01*
X123301529Y-98570597D01*
X123301531Y-98570598D01*
X123338406Y-98573500D01*
X123338414Y-98573500D01*
X123769786Y-98573500D01*
X123769794Y-98573500D01*
X123806669Y-98570598D01*
X123806671Y-98570597D01*
X123806673Y-98570597D01*
X123901134Y-98543153D01*
X123964498Y-98524744D01*
X124105965Y-98441081D01*
X124222181Y-98324865D01*
X124305844Y-98183398D01*
X124351698Y-98025569D01*
X124354600Y-97988694D01*
X124354600Y-97972500D01*
X124374285Y-97905461D01*
X124427089Y-97859706D01*
X124478600Y-97848500D01*
X126017431Y-97848500D01*
X126017447Y-97848501D01*
X126025043Y-97848501D01*
X126183154Y-97848501D01*
X126183157Y-97848501D01*
X126335885Y-97807577D01*
X126401796Y-97769523D01*
X126472816Y-97728520D01*
X126584620Y-97616716D01*
X126584620Y-97616714D01*
X126594824Y-97606511D01*
X126594828Y-97606506D01*
X127087606Y-97113728D01*
X127087611Y-97113724D01*
X127097814Y-97103520D01*
X127097816Y-97103520D01*
X127209620Y-96991716D01*
X127288677Y-96854784D01*
X127321121Y-96733699D01*
X127357485Y-96674041D01*
X127401889Y-96648090D01*
X127523434Y-96607814D01*
X127672756Y-96515712D01*
X127796812Y-96391656D01*
X127888914Y-96242334D01*
X127944099Y-96075797D01*
X127954600Y-95973009D01*
X127954599Y-95372992D01*
X127954152Y-95368621D01*
X127944099Y-95270203D01*
X127944098Y-95270200D01*
X127894288Y-95119884D01*
X127888914Y-95103666D01*
X127796812Y-94954344D01*
X127672756Y-94830288D01*
X127669442Y-94828243D01*
X127667646Y-94826248D01*
X127667089Y-94825807D01*
X127667164Y-94825711D01*
X127622718Y-94776297D01*
X127611497Y-94707334D01*
X127639340Y-94643252D01*
X127669448Y-94617165D01*
X127672442Y-94615318D01*
X127796415Y-94491345D01*
X127888456Y-94342124D01*
X127888458Y-94342119D01*
X127943605Y-94175697D01*
X127943606Y-94175690D01*
X127954099Y-94072986D01*
X127954100Y-94072973D01*
X127954100Y-94023000D01*
X125504101Y-94023000D01*
X125504101Y-94072986D01*
X125514594Y-94175697D01*
X125569741Y-94342119D01*
X125569743Y-94342124D01*
X125661784Y-94491345D01*
X125785755Y-94615316D01*
X125785759Y-94615319D01*
X125788756Y-94617168D01*
X125790379Y-94618972D01*
X125791423Y-94619798D01*
X125791281Y-94619976D01*
X125835481Y-94669116D01*
X125846702Y-94738079D01*
X125818859Y-94802161D01*
X125788761Y-94828241D01*
X125785449Y-94830283D01*
X125785443Y-94830288D01*
X125661389Y-94954342D01*
X125569287Y-95103663D01*
X125569285Y-95103668D01*
X125544505Y-95178451D01*
X125514101Y-95270203D01*
X125514101Y-95270204D01*
X125514100Y-95270204D01*
X125503600Y-95372983D01*
X125503600Y-95973001D01*
X125503601Y-95973019D01*
X125514100Y-96075796D01*
X125514101Y-96075799D01*
X125569285Y-96242331D01*
X125569286Y-96242334D01*
X125635065Y-96348980D01*
X125661389Y-96391657D01*
X125705551Y-96435819D01*
X125739036Y-96497142D01*
X125734052Y-96566834D01*
X125692180Y-96622767D01*
X125626716Y-96647184D01*
X125617870Y-96647500D01*
X124478600Y-96647500D01*
X124411561Y-96627815D01*
X124365806Y-96575011D01*
X124354600Y-96523500D01*
X124354600Y-96507313D01*
X124354599Y-96507298D01*
X124351698Y-96470432D01*
X124351697Y-96470426D01*
X124315130Y-96344563D01*
X124305844Y-96312602D01*
X124222181Y-96171135D01*
X124222179Y-96171133D01*
X124222176Y-96171129D01*
X124105970Y-96054923D01*
X124105962Y-96054917D01*
X123967460Y-95973008D01*
X123964498Y-95971256D01*
X123964497Y-95971255D01*
X123964496Y-95971255D01*
X123964493Y-95971254D01*
X123806673Y-95925402D01*
X123806667Y-95925401D01*
X123769801Y-95922500D01*
X123769794Y-95922500D01*
X123338406Y-95922500D01*
X123338398Y-95922500D01*
X123301532Y-95925401D01*
X123301526Y-95925402D01*
X123143706Y-95971254D01*
X123143703Y-95971255D01*
X123002237Y-96054917D01*
X122996069Y-96059702D01*
X122994172Y-96057256D01*
X122945458Y-96083857D01*
X122875766Y-96078873D01*
X122843396Y-96058069D01*
X122842131Y-96059702D01*
X122835962Y-96054917D01*
X122697460Y-95973008D01*
X122694498Y-95971256D01*
X122694497Y-95971255D01*
X122694496Y-95971255D01*
X122694493Y-95971254D01*
X122536673Y-95925402D01*
X122536667Y-95925401D01*
X122499801Y-95922500D01*
X122499794Y-95922500D01*
X122068406Y-95922500D01*
X122068398Y-95922500D01*
X122031532Y-95925401D01*
X122031526Y-95925402D01*
X121873706Y-95971254D01*
X121873703Y-95971255D01*
X121732237Y-96054917D01*
X121726069Y-96059702D01*
X121724172Y-96057256D01*
X121675458Y-96083857D01*
X121605766Y-96078873D01*
X121573396Y-96058069D01*
X121572131Y-96059702D01*
X121565962Y-96054917D01*
X121427460Y-95973008D01*
X121424498Y-95971256D01*
X121424497Y-95971255D01*
X121424496Y-95971255D01*
X121424493Y-95971254D01*
X121266673Y-95925402D01*
X121266667Y-95925401D01*
X121229801Y-95922500D01*
X121229794Y-95922500D01*
X120878196Y-95922500D01*
X120811157Y-95902815D01*
X120765402Y-95850011D01*
X120755458Y-95780853D01*
X120784483Y-95717297D01*
X120790515Y-95710819D01*
X120907392Y-95593942D01*
X121122506Y-95378828D01*
X121122511Y-95378824D01*
X121132714Y-95368620D01*
X121132716Y-95368620D01*
X121244520Y-95256816D01*
X121323577Y-95119884D01*
X121364500Y-94967157D01*
X121364500Y-94967148D01*
X121365561Y-94959097D01*
X121367964Y-94959413D01*
X121384185Y-94904173D01*
X121391555Y-94893897D01*
X121393810Y-94891067D01*
X121393816Y-94891062D01*
X121489789Y-94738322D01*
X121549368Y-94568055D01*
X121558011Y-94491345D01*
X121569565Y-94388803D01*
X121569565Y-94388796D01*
X121549369Y-94209550D01*
X121549368Y-94209545D01*
X121501579Y-94072973D01*
X121489789Y-94039278D01*
X121393816Y-93886538D01*
X121266262Y-93758984D01*
X121113523Y-93663011D01*
X120943254Y-93603431D01*
X120943249Y-93603430D01*
X120764004Y-93583235D01*
X120763996Y-93583235D01*
X120584750Y-93603430D01*
X120584745Y-93603431D01*
X120414476Y-93663011D01*
X120261737Y-93758984D01*
X120134184Y-93886537D01*
X120038211Y-94039276D01*
X119978631Y-94209545D01*
X119978630Y-94209550D01*
X119958435Y-94388796D01*
X119958435Y-94388803D01*
X119978630Y-94568049D01*
X119978633Y-94568062D01*
X120019302Y-94684285D01*
X120022864Y-94754064D01*
X119989942Y-94812921D01*
X119375386Y-95427478D01*
X119263581Y-95539282D01*
X119263579Y-95539284D01*
X119241398Y-95577703D01*
X119232023Y-95593943D01*
X119184523Y-95676215D01*
X119143599Y-95828943D01*
X119143599Y-95828945D01*
X119143599Y-95997046D01*
X119143600Y-95997059D01*
X119143600Y-96052191D01*
X119123915Y-96119230D01*
X119107281Y-96139872D01*
X119076023Y-96171129D01*
X119076017Y-96171137D01*
X118992355Y-96312603D01*
X118992354Y-96312606D01*
X118946502Y-96470426D01*
X118946501Y-96470432D01*
X118943600Y-96507298D01*
X118943600Y-97988701D01*
X118946501Y-98025567D01*
X118946502Y-98025573D01*
X118992354Y-98183393D01*
X118992355Y-98183396D01*
X119076017Y-98324862D01*
X119076023Y-98324870D01*
X119192229Y-98441076D01*
X119192233Y-98441079D01*
X119192235Y-98441081D01*
X119333702Y-98524744D01*
X119366659Y-98534319D01*
X119491526Y-98570597D01*
X119491529Y-98570597D01*
X119491531Y-98570598D01*
X119528406Y-98573500D01*
X119528414Y-98573500D01*
X119959786Y-98573500D01*
X119959794Y-98573500D01*
X119996669Y-98570598D01*
X119996671Y-98570597D01*
X119996673Y-98570597D01*
X120091134Y-98543153D01*
X120154498Y-98524744D01*
X120264511Y-98459682D01*
X120332232Y-98442500D01*
X120398495Y-98464660D01*
X120442259Y-98519126D01*
X120447404Y-98534319D01*
X120454522Y-98560885D01*
X120454525Y-98560890D01*
X120474286Y-98595116D01*
X120474287Y-98595118D01*
X120533575Y-98697809D01*
X120533581Y-98697817D01*
X120652449Y-98816685D01*
X120652455Y-98816690D01*
X120798181Y-98962416D01*
X120831666Y-99023739D01*
X120834500Y-99050097D01*
X120834500Y-103045500D01*
X120814815Y-103112539D01*
X120762011Y-103158294D01*
X120710500Y-103169500D01*
X119284768Y-103169500D01*
X119175794Y-103181385D01*
X119123595Y-103192910D01*
X119123593Y-103192910D01*
X119123587Y-103192912D01*
X119021745Y-103227333D01*
X119019725Y-103228016D01*
X119019723Y-103228017D01*
X118899177Y-103306546D01*
X118846658Y-103352626D01*
X118846647Y-103352637D01*
X118753110Y-103461943D01*
X118753109Y-103461944D01*
X118753108Y-103461946D01*
X118694148Y-103593191D01*
X118694146Y-103593196D01*
X118675600Y-103657831D01*
X118675054Y-103659591D01*
X118674879Y-103660341D01*
X118674878Y-103660351D01*
X118674877Y-103660354D01*
X118673279Y-103671981D01*
X118663613Y-103742295D01*
X118655282Y-103802894D01*
X118657458Y-104154589D01*
X118662070Y-104900250D01*
X118699382Y-110932597D01*
X118699383Y-110932604D01*
X118705243Y-110993856D01*
X118692033Y-111062466D01*
X118643826Y-111113041D01*
X118621666Y-111123084D01*
X118346919Y-111216349D01*
X118082334Y-111346828D01*
X117837041Y-111510728D01*
X117615241Y-111705241D01*
X117420728Y-111927041D01*
X117256828Y-112172334D01*
X117126349Y-112436919D01*
X117031521Y-112716269D01*
X117031518Y-112716283D01*
X116973968Y-113005609D01*
X116973964Y-113005636D01*
X116954671Y-113299992D01*
X116954671Y-113300007D01*
X116973964Y-113594363D01*
X116973965Y-113594373D01*
X116973966Y-113594380D01*
X116998999Y-113720233D01*
X117031518Y-113883716D01*
X117031521Y-113883730D01*
X117126349Y-114163080D01*
X117256825Y-114427660D01*
X117256829Y-114427667D01*
X117420725Y-114672955D01*
X117615241Y-114894758D01*
X117837044Y-115089274D01*
X117958043Y-115170123D01*
X118082335Y-115253172D01*
X118346923Y-115383652D01*
X118626278Y-115478481D01*
X118637480Y-115480709D01*
X118699390Y-115513090D01*
X118733967Y-115573804D01*
X118736137Y-115619211D01*
X118728706Y-115673267D01*
X118728706Y-115673274D01*
X118729385Y-115782946D01*
X118729385Y-115782947D01*
X118729498Y-115801236D01*
X118729500Y-115802002D01*
X118729500Y-116197532D01*
X118735110Y-116260232D01*
X118735252Y-116261822D01*
X118721619Y-116330349D01*
X118673102Y-116380627D01*
X118605105Y-116396693D01*
X118559341Y-116385253D01*
X118433497Y-116326571D01*
X118433486Y-116326567D01*
X118220000Y-116269364D01*
X118220000Y-117166988D01*
X118162993Y-117134075D01*
X118035826Y-117100000D01*
X117904174Y-117100000D01*
X117777007Y-117134075D01*
X117720000Y-117166988D01*
X117720000Y-116269364D01*
X117719999Y-116269364D01*
X117506513Y-116326567D01*
X117506507Y-116326570D01*
X117292422Y-116426399D01*
X117292420Y-116426400D01*
X117098926Y-116561886D01*
X117098920Y-116561891D01*
X116931891Y-116728920D01*
X116931886Y-116728926D01*
X116796400Y-116922420D01*
X116796399Y-116922422D01*
X116696570Y-117136507D01*
X116696567Y-117136513D01*
X116639364Y-117349999D01*
X116639364Y-117350000D01*
X117536988Y-117350000D01*
X117504075Y-117407007D01*
X117470000Y-117534174D01*
X117470000Y-117665826D01*
X117504075Y-117792993D01*
X117536988Y-117850000D01*
X116639364Y-117850000D01*
X116696567Y-118063486D01*
X116696570Y-118063492D01*
X116796399Y-118277578D01*
X116931894Y-118471082D01*
X117098917Y-118638105D01*
X117292421Y-118773600D01*
X117506507Y-118873429D01*
X117506516Y-118873433D01*
X117720000Y-118930634D01*
X117720000Y-118033012D01*
X117777007Y-118065925D01*
X117904174Y-118100000D01*
X118035826Y-118100000D01*
X118162993Y-118065925D01*
X118220000Y-118033012D01*
X118220000Y-118930633D01*
X118433483Y-118873433D01*
X118433487Y-118873431D01*
X118562888Y-118813090D01*
X118631966Y-118802598D01*
X118695750Y-118831117D01*
X118733990Y-118889593D01*
X118738032Y-118943117D01*
X118729500Y-119002463D01*
X118729500Y-119002467D01*
X118729500Y-120597532D01*
X118735172Y-120660928D01*
X118735252Y-120661822D01*
X118721619Y-120730349D01*
X118673102Y-120780627D01*
X118605105Y-120796693D01*
X118559341Y-120785253D01*
X118433497Y-120726571D01*
X118433486Y-120726567D01*
X118220000Y-120669364D01*
X118220000Y-121566988D01*
X118162993Y-121534075D01*
X118035826Y-121500000D01*
X117904174Y-121500000D01*
X117777007Y-121534075D01*
X117720000Y-121566988D01*
X117720000Y-120669364D01*
X117719999Y-120669364D01*
X117506513Y-120726567D01*
X117506507Y-120726570D01*
X117292422Y-120826399D01*
X117292420Y-120826400D01*
X117098926Y-120961886D01*
X117098920Y-120961891D01*
X116931891Y-121128920D01*
X116931886Y-121128926D01*
X116796400Y-121322420D01*
X116796399Y-121322422D01*
X116696570Y-121536507D01*
X116696567Y-121536513D01*
X116639364Y-121749999D01*
X116639364Y-121750000D01*
X117536988Y-121750000D01*
X117504075Y-121807007D01*
X117470000Y-121934174D01*
X117470000Y-122065826D01*
X117504075Y-122192993D01*
X117536988Y-122250000D01*
X116639364Y-122250000D01*
X116696567Y-122463486D01*
X116696570Y-122463492D01*
X116796399Y-122677578D01*
X116931894Y-122871082D01*
X117023631Y-122962819D01*
X117057116Y-123024142D01*
X117052132Y-123093834D01*
X117010260Y-123149767D01*
X116944796Y-123174184D01*
X116935950Y-123174500D01*
X114784500Y-123174500D01*
X114717461Y-123154815D01*
X114671706Y-123102011D01*
X114660500Y-123050500D01*
X114660500Y-93473013D01*
X125504100Y-93473013D01*
X125504100Y-93523000D01*
X126479100Y-93523000D01*
X126979100Y-93523000D01*
X127954099Y-93523000D01*
X127954099Y-93473028D01*
X127954098Y-93473013D01*
X127943605Y-93370302D01*
X127888458Y-93203880D01*
X127888456Y-93203875D01*
X127796415Y-93054654D01*
X127672445Y-92930684D01*
X127523224Y-92838643D01*
X127523219Y-92838641D01*
X127356797Y-92783494D01*
X127356790Y-92783493D01*
X127254086Y-92773000D01*
X126979100Y-92773000D01*
X126979100Y-93523000D01*
X126479100Y-93523000D01*
X126479100Y-92773000D01*
X126204129Y-92773000D01*
X126204112Y-92773001D01*
X126101402Y-92783494D01*
X125934980Y-92838641D01*
X125934975Y-92838643D01*
X125785754Y-92930684D01*
X125661784Y-93054654D01*
X125569743Y-93203875D01*
X125569741Y-93203880D01*
X125514594Y-93370302D01*
X125514593Y-93370309D01*
X125504100Y-93473013D01*
X114660500Y-93473013D01*
X114660500Y-91257298D01*
X118943600Y-91257298D01*
X118943600Y-92738701D01*
X118946501Y-92775567D01*
X118946502Y-92775573D01*
X118992354Y-92933393D01*
X118992355Y-92933396D01*
X118992356Y-92933398D01*
X119024400Y-92987581D01*
X119076017Y-93074862D01*
X119076023Y-93074870D01*
X119192229Y-93191076D01*
X119192233Y-93191079D01*
X119192235Y-93191081D01*
X119333702Y-93274744D01*
X119375324Y-93286836D01*
X119491526Y-93320597D01*
X119491529Y-93320597D01*
X119491531Y-93320598D01*
X119528406Y-93323500D01*
X119528414Y-93323500D01*
X119959786Y-93323500D01*
X119959794Y-93323500D01*
X119996669Y-93320598D01*
X119996671Y-93320597D01*
X119996673Y-93320597D01*
X120051042Y-93304801D01*
X120154498Y-93274744D01*
X120295965Y-93191081D01*
X120295970Y-93191076D01*
X120302126Y-93186301D01*
X120303939Y-93188638D01*
X120353049Y-93161798D01*
X120422743Y-93166756D01*
X120455096Y-93187551D01*
X120456378Y-93185900D01*
X120462547Y-93190685D01*
X120603901Y-93274281D01*
X120761614Y-93320100D01*
X120761611Y-93320100D01*
X120764098Y-93320295D01*
X120764100Y-93320295D01*
X120764100Y-90675703D01*
X120761603Y-90675900D01*
X120603906Y-90721716D01*
X120603903Y-90721717D01*
X120462549Y-90805313D01*
X120456383Y-90810097D01*
X120454489Y-90807655D01*
X120405680Y-90834239D01*
X120335994Y-90829179D01*
X120303327Y-90808159D01*
X120302131Y-90809702D01*
X120295962Y-90804917D01*
X120205900Y-90751655D01*
X120154498Y-90721256D01*
X120154497Y-90721255D01*
X120154496Y-90721255D01*
X120154493Y-90721254D01*
X119996673Y-90675402D01*
X119996667Y-90675401D01*
X119959801Y-90672500D01*
X119959794Y-90672500D01*
X119528406Y-90672500D01*
X119528398Y-90672500D01*
X119491532Y-90675401D01*
X119491526Y-90675402D01*
X119333706Y-90721254D01*
X119333703Y-90721255D01*
X119192237Y-90804917D01*
X119192229Y-90804923D01*
X119076023Y-90921129D01*
X119076017Y-90921137D01*
X118992355Y-91062603D01*
X118992354Y-91062606D01*
X118946502Y-91220426D01*
X118946501Y-91220432D01*
X118943600Y-91257298D01*
X114660500Y-91257298D01*
X114660500Y-85829504D01*
X117604100Y-85829504D01*
X117604100Y-86228000D01*
X118304100Y-86228000D01*
X118304100Y-86728000D01*
X117604100Y-86728000D01*
X117604100Y-87126495D01*
X117642527Y-87319681D01*
X117642530Y-87319693D01*
X117717907Y-87501671D01*
X117717914Y-87501684D01*
X117827348Y-87665462D01*
X117827351Y-87665466D01*
X117966633Y-87804748D01*
X117966637Y-87804751D01*
X118130415Y-87914185D01*
X118130428Y-87914192D01*
X118312408Y-87989569D01*
X118354100Y-87997862D01*
X118354100Y-87194988D01*
X118364040Y-87212205D01*
X118419895Y-87268060D01*
X118488304Y-87307556D01*
X118564604Y-87328000D01*
X118643596Y-87328000D01*
X118719896Y-87307556D01*
X118788305Y-87268060D01*
X118844160Y-87212205D01*
X118854100Y-87194988D01*
X118854100Y-87997862D01*
X118895789Y-87989570D01*
X119010614Y-87942008D01*
X119080083Y-87934539D01*
X119142563Y-87965814D01*
X119145748Y-87968888D01*
X119172538Y-87995678D01*
X119172547Y-87995685D01*
X119313901Y-88079281D01*
X119471614Y-88125100D01*
X119471611Y-88125100D01*
X119474098Y-88125295D01*
X119474100Y-88125295D01*
X119474100Y-87303000D01*
X119005100Y-87303000D01*
X118938061Y-87283315D01*
X118892306Y-87230511D01*
X118881100Y-87179000D01*
X118881100Y-87148223D01*
X118883656Y-87143796D01*
X118904100Y-87067496D01*
X118904100Y-86857088D01*
X118953589Y-86814206D01*
X119005100Y-86803000D01*
X119474100Y-86803000D01*
X119474100Y-86531242D01*
X119493785Y-86464203D01*
X119546589Y-86418448D01*
X119615747Y-86408504D01*
X119673322Y-86434797D01*
X119674274Y-86433557D01*
X119676919Y-86435586D01*
X119677855Y-86436867D01*
X119679303Y-86437529D01*
X119685781Y-86443561D01*
X119686482Y-86444262D01*
X119684617Y-86446126D01*
X119718129Y-86492008D01*
X119725064Y-86543699D01*
X119723600Y-86562295D01*
X119723600Y-87543701D01*
X119726501Y-87580567D01*
X119726502Y-87580573D01*
X119772354Y-87738393D01*
X119772355Y-87738396D01*
X119810132Y-87802273D01*
X119827400Y-87865394D01*
X119827400Y-88127806D01*
X119827400Y-88265794D01*
X119827400Y-88265796D01*
X119827399Y-88265796D01*
X119854318Y-88401122D01*
X119854321Y-88401132D01*
X119907122Y-88528607D01*
X119947577Y-88589153D01*
X119983786Y-88643343D01*
X120050232Y-88709789D01*
X120079592Y-88756514D01*
X120115811Y-88860023D01*
X120181210Y-88964104D01*
X120211784Y-89012762D01*
X120339338Y-89140316D01*
X120343691Y-89143051D01*
X120464508Y-89218966D01*
X120492078Y-89236289D01*
X120627708Y-89283748D01*
X120662345Y-89295868D01*
X120662350Y-89295869D01*
X120841596Y-89316065D01*
X120841600Y-89316065D01*
X120841604Y-89316065D01*
X121020849Y-89295869D01*
X121020852Y-89295868D01*
X121020855Y-89295868D01*
X121191122Y-89236289D01*
X121343862Y-89140316D01*
X121471416Y-89012762D01*
X121564965Y-88863880D01*
X121571094Y-88854126D01*
X121572827Y-88855215D01*
X121612950Y-88810770D01*
X121680376Y-88792452D01*
X121747002Y-88813495D01*
X121791674Y-88867217D01*
X121801076Y-88902542D01*
X121805685Y-88943456D01*
X121861545Y-89103094D01*
X121861547Y-89103097D01*
X121951518Y-89246284D01*
X121951523Y-89246290D01*
X122057281Y-89352048D01*
X122090766Y-89413371D01*
X122093600Y-89439729D01*
X122093600Y-90050400D01*
X122073915Y-90117439D01*
X122057281Y-90138081D01*
X121908314Y-90287047D01*
X121908315Y-90287048D01*
X121803579Y-90391784D01*
X121796060Y-90404808D01*
X121769447Y-90450904D01*
X121724523Y-90528714D01*
X121683599Y-90681442D01*
X121683599Y-90681443D01*
X121681496Y-90689293D01*
X121678488Y-90688487D01*
X121656141Y-90738933D01*
X121597797Y-90777374D01*
X121527932Y-90778170D01*
X121498388Y-90765535D01*
X121424296Y-90721717D01*
X121424293Y-90721716D01*
X121266594Y-90675900D01*
X121266597Y-90675900D01*
X121264100Y-90675703D01*
X121264100Y-93320295D01*
X121264101Y-93320295D01*
X121266586Y-93320100D01*
X121424298Y-93274281D01*
X121565650Y-93190686D01*
X121571817Y-93185903D01*
X121573730Y-93188369D01*
X121622322Y-93161802D01*
X121692017Y-93166749D01*
X121724862Y-93187853D01*
X121726069Y-93186298D01*
X121732232Y-93191078D01*
X121732235Y-93191081D01*
X121873702Y-93274744D01*
X121915324Y-93286836D01*
X122031526Y-93320597D01*
X122031529Y-93320597D01*
X122031531Y-93320598D01*
X122068406Y-93323500D01*
X122068414Y-93323500D01*
X122499786Y-93323500D01*
X122499794Y-93323500D01*
X122536669Y-93320598D01*
X122536671Y-93320597D01*
X122536673Y-93320597D01*
X122591042Y-93304801D01*
X122694498Y-93274744D01*
X122835965Y-93191081D01*
X122835970Y-93191075D01*
X122842131Y-93186298D01*
X122844033Y-93188750D01*
X122892679Y-93162155D01*
X122962374Y-93167104D01*
X122994795Y-93187940D01*
X122996069Y-93186298D01*
X123002232Y-93191078D01*
X123002235Y-93191081D01*
X123143702Y-93274744D01*
X123185324Y-93286836D01*
X123301526Y-93320597D01*
X123301529Y-93320597D01*
X123301531Y-93320598D01*
X123338406Y-93323500D01*
X123338414Y-93323500D01*
X123769786Y-93323500D01*
X123769794Y-93323500D01*
X123806669Y-93320598D01*
X123806671Y-93320597D01*
X123806673Y-93320597D01*
X123861042Y-93304801D01*
X123964498Y-93274744D01*
X124105965Y-93191081D01*
X124222181Y-93074865D01*
X124305844Y-92933398D01*
X124316796Y-92895700D01*
X124354401Y-92836815D01*
X124417873Y-92807608D01*
X124440036Y-92807239D01*
X124440036Y-92806765D01*
X124447003Y-92806765D01*
X124626249Y-92786569D01*
X124626252Y-92786568D01*
X124626255Y-92786568D01*
X124796522Y-92726989D01*
X124949262Y-92631016D01*
X125076816Y-92503462D01*
X125172789Y-92350722D01*
X125232368Y-92180455D01*
X125232369Y-92180449D01*
X125252565Y-92001203D01*
X125252565Y-92001196D01*
X125232369Y-91821950D01*
X125232368Y-91821945D01*
X125176677Y-91662790D01*
X125172789Y-91651678D01*
X125167016Y-91642491D01*
X125080558Y-91504894D01*
X125076816Y-91498938D01*
X124949262Y-91371384D01*
X124936944Y-91363644D01*
X124796523Y-91275411D01*
X124626254Y-91215831D01*
X124626249Y-91215830D01*
X124447004Y-91195635D01*
X124440037Y-91195635D01*
X124440037Y-91193106D01*
X124382718Y-91183058D01*
X124331346Y-91135702D01*
X124318597Y-91106496D01*
X124308972Y-91073371D01*
X124305844Y-91062602D01*
X124222181Y-90921135D01*
X124222179Y-90921133D01*
X124222176Y-90921129D01*
X124190920Y-90889873D01*
X124157435Y-90828550D01*
X124154601Y-90802192D01*
X124154601Y-90681443D01*
X124153063Y-90675703D01*
X124113677Y-90528715D01*
X124102929Y-90510098D01*
X124034624Y-90391789D01*
X124034621Y-90391785D01*
X124034620Y-90391783D01*
X123780918Y-90138081D01*
X123747434Y-90076759D01*
X123744600Y-90050401D01*
X123744600Y-88987100D01*
X123764285Y-88920061D01*
X123817089Y-88874306D01*
X123882482Y-88863880D01*
X123939000Y-88870249D01*
X123939000Y-88870248D01*
X123939001Y-88870249D01*
X123939003Y-88870249D01*
X124107056Y-88851314D01*
X124107059Y-88851313D01*
X124266690Y-88795456D01*
X124368914Y-88731223D01*
X124436151Y-88712223D01*
X124502986Y-88732590D01*
X124548201Y-88785858D01*
X124551928Y-88795262D01*
X124602109Y-88938669D01*
X124639158Y-88997632D01*
X124698084Y-89091412D01*
X124825638Y-89218966D01*
X124869124Y-89246290D01*
X124948026Y-89295868D01*
X124978378Y-89314939D01*
X125148645Y-89374518D01*
X125148650Y-89374519D01*
X125327896Y-89394715D01*
X125327900Y-89394715D01*
X125327904Y-89394715D01*
X125507149Y-89374519D01*
X125507152Y-89374518D01*
X125507155Y-89374518D01*
X125677422Y-89314939D01*
X125830162Y-89218966D01*
X125957716Y-89091412D01*
X126053689Y-88938672D01*
X126113268Y-88768405D01*
X126114955Y-88753436D01*
X126133465Y-88589153D01*
X126133465Y-88589146D01*
X126113269Y-88409900D01*
X126113266Y-88409887D01*
X126053690Y-88239629D01*
X126047406Y-88229628D01*
X126028400Y-88163657D01*
X126028400Y-87852543D01*
X126045668Y-87789422D01*
X126075844Y-87738398D01*
X126121698Y-87580569D01*
X126124600Y-87543694D01*
X126124600Y-86562306D01*
X126123136Y-86543704D01*
X126137497Y-86475327D01*
X126162902Y-86445446D01*
X126161718Y-86444262D01*
X126162419Y-86443561D01*
X126166313Y-86441434D01*
X126171298Y-86435572D01*
X126173944Y-86433543D01*
X126175957Y-86436168D01*
X126223742Y-86410076D01*
X126293434Y-86415060D01*
X126349367Y-86456932D01*
X126373784Y-86522396D01*
X126374100Y-86531242D01*
X126374100Y-88125295D01*
X126374101Y-88125295D01*
X126376586Y-88125100D01*
X126534298Y-88079281D01*
X126675650Y-87995686D01*
X126675653Y-87995683D01*
X126702448Y-87968889D01*
X126763771Y-87935403D01*
X126833463Y-87940387D01*
X126837583Y-87942008D01*
X126952408Y-87989569D01*
X126994100Y-87997862D01*
X126994100Y-87194988D01*
X127004040Y-87212205D01*
X127059895Y-87268060D01*
X127128304Y-87307556D01*
X127204604Y-87328000D01*
X127283596Y-87328000D01*
X127359896Y-87307556D01*
X127428305Y-87268060D01*
X127484160Y-87212205D01*
X127494100Y-87194988D01*
X127494100Y-87997862D01*
X127535790Y-87989569D01*
X127535792Y-87989569D01*
X127717771Y-87914192D01*
X127717784Y-87914185D01*
X127881562Y-87804751D01*
X127881566Y-87804748D01*
X128020848Y-87665466D01*
X128020851Y-87665462D01*
X128130285Y-87501684D01*
X128130292Y-87501671D01*
X128205669Y-87319693D01*
X128205672Y-87319681D01*
X128244099Y-87126495D01*
X128244100Y-87126492D01*
X128244100Y-86728000D01*
X127544100Y-86728000D01*
X127544100Y-86228000D01*
X128244100Y-86228000D01*
X128244100Y-85829508D01*
X128244099Y-85829504D01*
X128205672Y-85636318D01*
X128205669Y-85636306D01*
X128130292Y-85454328D01*
X128130285Y-85454315D01*
X128020851Y-85290537D01*
X128020848Y-85290533D01*
X127881566Y-85151251D01*
X127881562Y-85151248D01*
X127717784Y-85041814D01*
X127717771Y-85041807D01*
X127535791Y-84966429D01*
X127535783Y-84966427D01*
X127494100Y-84958135D01*
X127494100Y-85761011D01*
X127484160Y-85743795D01*
X127428305Y-85687940D01*
X127359896Y-85648444D01*
X127283596Y-85628000D01*
X127204604Y-85628000D01*
X127128304Y-85648444D01*
X127059895Y-85687940D01*
X127004040Y-85743795D01*
X126994100Y-85761011D01*
X126994100Y-84958136D01*
X126994099Y-84958135D01*
X126952416Y-84966427D01*
X126952408Y-84966429D01*
X126770428Y-85041807D01*
X126770415Y-85041814D01*
X126606637Y-85151248D01*
X126606633Y-85151251D01*
X126467351Y-85290533D01*
X126467348Y-85290537D01*
X126357914Y-85454315D01*
X126357909Y-85454324D01*
X126353966Y-85463845D01*
X126310123Y-85518247D01*
X126243828Y-85540310D01*
X126176130Y-85523029D01*
X126170697Y-85519351D01*
X126036236Y-85441719D01*
X125963050Y-85422109D01*
X125889866Y-85402500D01*
X125738334Y-85402500D01*
X125591963Y-85441719D01*
X125460735Y-85517485D01*
X125460732Y-85517487D01*
X125353587Y-85624632D01*
X125353585Y-85624635D01*
X125277819Y-85755863D01*
X125243059Y-85885593D01*
X125206694Y-85945254D01*
X125143847Y-85975783D01*
X125123284Y-85977500D01*
X125108406Y-85977500D01*
X125108398Y-85977500D01*
X125105968Y-85977596D01*
X125105942Y-85976948D01*
X125040146Y-85963095D01*
X124990411Y-85914022D01*
X124975623Y-85867750D01*
X124964469Y-85768750D01*
X124964468Y-85768745D01*
X124918130Y-85636318D01*
X124904889Y-85598478D01*
X124808916Y-85445738D01*
X124681362Y-85318184D01*
X124637356Y-85290533D01*
X124528623Y-85222211D01*
X124358354Y-85162631D01*
X124358349Y-85162630D01*
X124179104Y-85142435D01*
X124179096Y-85142435D01*
X123999850Y-85162630D01*
X123999845Y-85162631D01*
X123829576Y-85222211D01*
X123676837Y-85318184D01*
X123549284Y-85445737D01*
X123453311Y-85598476D01*
X123393731Y-85768745D01*
X123393730Y-85768750D01*
X123382618Y-85867383D01*
X123355552Y-85931797D01*
X123297957Y-85971352D01*
X123259398Y-85977500D01*
X123061372Y-85977500D01*
X122974493Y-85988938D01*
X122948864Y-85992313D01*
X122948862Y-85992313D01*
X122940808Y-85993374D01*
X122940416Y-85990399D01*
X122907784Y-85990399D01*
X122907392Y-85993374D01*
X122899337Y-85992313D01*
X122899336Y-85992313D01*
X122865269Y-85987828D01*
X122786827Y-85977500D01*
X122786820Y-85977500D01*
X122561380Y-85977500D01*
X122561372Y-85977500D01*
X122474493Y-85988938D01*
X122448864Y-85992313D01*
X122448862Y-85992313D01*
X122440808Y-85993374D01*
X122440416Y-85990399D01*
X122407784Y-85990399D01*
X122407392Y-85993374D01*
X122399337Y-85992313D01*
X122399336Y-85992313D01*
X122365269Y-85987828D01*
X122286827Y-85977500D01*
X122286820Y-85977500D01*
X122106056Y-85977500D01*
X122039017Y-85957815D01*
X121993262Y-85905011D01*
X121982836Y-85867384D01*
X121969469Y-85748749D01*
X121969468Y-85748745D01*
X121916887Y-85598478D01*
X121909889Y-85578478D01*
X121885906Y-85540310D01*
X121826482Y-85445737D01*
X121813916Y-85425738D01*
X121686362Y-85298184D01*
X121674186Y-85290533D01*
X121533623Y-85202211D01*
X121363354Y-85142631D01*
X121363349Y-85142630D01*
X121184104Y-85122435D01*
X121184096Y-85122435D01*
X121004850Y-85142630D01*
X121004845Y-85142631D01*
X120834576Y-85202211D01*
X120681837Y-85298184D01*
X120554284Y-85425737D01*
X120554280Y-85425742D01*
X120531121Y-85462599D01*
X120478786Y-85508889D01*
X120409732Y-85519536D01*
X120364130Y-85504012D01*
X120292400Y-85462599D01*
X120256236Y-85441719D01*
X120183050Y-85422109D01*
X120109866Y-85402500D01*
X119958334Y-85402500D01*
X119811963Y-85441719D01*
X119720528Y-85494510D01*
X119680735Y-85517485D01*
X119680733Y-85517486D01*
X119673697Y-85521549D01*
X119672427Y-85519349D01*
X119619095Y-85539960D01*
X119550652Y-85525914D01*
X119500668Y-85477094D01*
X119494231Y-85463838D01*
X119490292Y-85454328D01*
X119490285Y-85454315D01*
X119380851Y-85290537D01*
X119380848Y-85290533D01*
X119241566Y-85151251D01*
X119241562Y-85151248D01*
X119077784Y-85041814D01*
X119077771Y-85041807D01*
X118895791Y-84966429D01*
X118895783Y-84966427D01*
X118854100Y-84958135D01*
X118854100Y-85761011D01*
X118844160Y-85743795D01*
X118788305Y-85687940D01*
X118719896Y-85648444D01*
X118643596Y-85628000D01*
X118564604Y-85628000D01*
X118488304Y-85648444D01*
X118419895Y-85687940D01*
X118364040Y-85743795D01*
X118354100Y-85761011D01*
X118354100Y-84958136D01*
X118354099Y-84958135D01*
X118312416Y-84966427D01*
X118312408Y-84966429D01*
X118130428Y-85041807D01*
X118130415Y-85041814D01*
X117966637Y-85151248D01*
X117966633Y-85151251D01*
X117827351Y-85290533D01*
X117827348Y-85290537D01*
X117717914Y-85454315D01*
X117717907Y-85454328D01*
X117642530Y-85636306D01*
X117642527Y-85636318D01*
X117604100Y-85829504D01*
X114660500Y-85829504D01*
X114660500Y-81799504D01*
X117604100Y-81799504D01*
X117604100Y-82048000D01*
X118304100Y-82048000D01*
X118304100Y-82548000D01*
X117604100Y-82548000D01*
X117604100Y-82796495D01*
X117642527Y-82989681D01*
X117642530Y-82989693D01*
X117717907Y-83171671D01*
X117717914Y-83171684D01*
X117827348Y-83335462D01*
X117827351Y-83335466D01*
X117966633Y-83474748D01*
X117966637Y-83474751D01*
X118130415Y-83584185D01*
X118130428Y-83584192D01*
X118312408Y-83659569D01*
X118354100Y-83667862D01*
X118354100Y-82864988D01*
X118364040Y-82882205D01*
X118419895Y-82938060D01*
X118488304Y-82977556D01*
X118564604Y-82998000D01*
X118643596Y-82998000D01*
X118719896Y-82977556D01*
X118788305Y-82938060D01*
X118844160Y-82882205D01*
X118854100Y-82864988D01*
X118854100Y-83667862D01*
X118895790Y-83659569D01*
X118895792Y-83659569D01*
X119077771Y-83584192D01*
X119077784Y-83584185D01*
X119241562Y-83474751D01*
X119241566Y-83474748D01*
X119380848Y-83335466D01*
X119380851Y-83335462D01*
X119490285Y-83171684D01*
X119490292Y-83171671D01*
X119565669Y-82989693D01*
X119565672Y-82989681D01*
X119604099Y-82796495D01*
X119604100Y-82796492D01*
X119604100Y-82548000D01*
X118904100Y-82548000D01*
X118904100Y-82048000D01*
X119604100Y-82048000D01*
X119604100Y-81799508D01*
X119604099Y-81799504D01*
X126244100Y-81799504D01*
X126244100Y-82048000D01*
X126944100Y-82048000D01*
X126944100Y-82548000D01*
X126244100Y-82548000D01*
X126244100Y-82796495D01*
X126282527Y-82989681D01*
X126282530Y-82989693D01*
X126357907Y-83171671D01*
X126357914Y-83171684D01*
X126467348Y-83335462D01*
X126467351Y-83335466D01*
X126606633Y-83474748D01*
X126606637Y-83474751D01*
X126770415Y-83584185D01*
X126770428Y-83584192D01*
X126952408Y-83659569D01*
X126994100Y-83667862D01*
X126994100Y-82864988D01*
X127004040Y-82882205D01*
X127059895Y-82938060D01*
X127128304Y-82977556D01*
X127204604Y-82998000D01*
X127283596Y-82998000D01*
X127359896Y-82977556D01*
X127428305Y-82938060D01*
X127484160Y-82882205D01*
X127494100Y-82864988D01*
X127494100Y-83667862D01*
X127535790Y-83659569D01*
X127535792Y-83659569D01*
X127717771Y-83584192D01*
X127717784Y-83584185D01*
X127881562Y-83474751D01*
X127881566Y-83474748D01*
X128020848Y-83335466D01*
X128020851Y-83335462D01*
X128130285Y-83171684D01*
X128130292Y-83171671D01*
X128205669Y-82989693D01*
X128205672Y-82989681D01*
X128244099Y-82796495D01*
X128244100Y-82796492D01*
X128244100Y-82548000D01*
X127544100Y-82548000D01*
X127544100Y-82048000D01*
X128244100Y-82048000D01*
X128244100Y-81799508D01*
X128244099Y-81799504D01*
X128205672Y-81606318D01*
X128205669Y-81606306D01*
X128130292Y-81424328D01*
X128130285Y-81424315D01*
X128020851Y-81260537D01*
X128020848Y-81260533D01*
X127881566Y-81121251D01*
X127881562Y-81121248D01*
X127717784Y-81011814D01*
X127717771Y-81011807D01*
X127535791Y-80936429D01*
X127535783Y-80936427D01*
X127494100Y-80928135D01*
X127494100Y-81731011D01*
X127484160Y-81713795D01*
X127428305Y-81657940D01*
X127359896Y-81618444D01*
X127283596Y-81598000D01*
X127204604Y-81598000D01*
X127128304Y-81618444D01*
X127059895Y-81657940D01*
X127004040Y-81713795D01*
X126994100Y-81731011D01*
X126994100Y-80928136D01*
X126994099Y-80928135D01*
X126952416Y-80936427D01*
X126952408Y-80936429D01*
X126770428Y-81011807D01*
X126770415Y-81011814D01*
X126606637Y-81121248D01*
X126606633Y-81121251D01*
X126467351Y-81260533D01*
X126467348Y-81260537D01*
X126357914Y-81424315D01*
X126357907Y-81424328D01*
X126282530Y-81606306D01*
X126282527Y-81606318D01*
X126244100Y-81799504D01*
X119604099Y-81799504D01*
X119565672Y-81606318D01*
X119565669Y-81606306D01*
X119490292Y-81424328D01*
X119490285Y-81424315D01*
X119380851Y-81260537D01*
X119380848Y-81260533D01*
X119241566Y-81121251D01*
X119241562Y-81121248D01*
X119077784Y-81011814D01*
X119077771Y-81011807D01*
X118895791Y-80936429D01*
X118895783Y-80936427D01*
X118854100Y-80928135D01*
X118854100Y-81731011D01*
X118844160Y-81713795D01*
X118788305Y-81657940D01*
X118719896Y-81618444D01*
X118643596Y-81598000D01*
X118564604Y-81598000D01*
X118488304Y-81618444D01*
X118419895Y-81657940D01*
X118364040Y-81713795D01*
X118354100Y-81731011D01*
X118354100Y-80928136D01*
X118354099Y-80928135D01*
X118312416Y-80936427D01*
X118312408Y-80936429D01*
X118130428Y-81011807D01*
X118130415Y-81011814D01*
X117966637Y-81121248D01*
X117966633Y-81121251D01*
X117827351Y-81260533D01*
X117827348Y-81260537D01*
X117717914Y-81424315D01*
X117717907Y-81424328D01*
X117642530Y-81606306D01*
X117642527Y-81606318D01*
X117604100Y-81799504D01*
X114660500Y-81799504D01*
X114660500Y-80299500D01*
X114680185Y-80232461D01*
X114732989Y-80186706D01*
X114784500Y-80175500D01*
X129330500Y-80175500D01*
X129397539Y-80195185D01*
G37*
%TD.AperFunction*%
%TD*%
%TA.AperFunction,Conductor*%
%TO.N,GNDA*%
G36*
X120777539Y-103694685D02*
G01*
X120823294Y-103747489D01*
X120834500Y-103799000D01*
X120834500Y-110893330D01*
X120834499Y-110893348D01*
X120834499Y-111059054D01*
X120834498Y-111059054D01*
X120875423Y-111211786D01*
X120886238Y-111230516D01*
X120886239Y-111230521D01*
X120886240Y-111230521D01*
X120954475Y-111348709D01*
X120954481Y-111348717D01*
X121073349Y-111467585D01*
X121073355Y-111467590D01*
X122923181Y-113317416D01*
X122956666Y-113378739D01*
X122959500Y-113405097D01*
X122959500Y-114567587D01*
X122939815Y-114634626D01*
X122932450Y-114644896D01*
X122930186Y-114647734D01*
X122834211Y-114800476D01*
X122774631Y-114970745D01*
X122774630Y-114970750D01*
X122754435Y-115149996D01*
X122754435Y-115150003D01*
X122774630Y-115329249D01*
X122774631Y-115329254D01*
X122834211Y-115499523D01*
X122899223Y-115602988D01*
X122930184Y-115652262D01*
X123057738Y-115779816D01*
X123105777Y-115810001D01*
X123206817Y-115873489D01*
X123210478Y-115875789D01*
X123290632Y-115903836D01*
X123380745Y-115935368D01*
X123380750Y-115935369D01*
X123559996Y-115955565D01*
X123560000Y-115955565D01*
X123560004Y-115955565D01*
X123739249Y-115935369D01*
X123739251Y-115935368D01*
X123739255Y-115935368D01*
X123739258Y-115935366D01*
X123739262Y-115935366D01*
X123916095Y-115873489D01*
X123916846Y-115875637D01*
X123975128Y-115866035D01*
X124003592Y-115874391D01*
X124003908Y-115873489D01*
X124180748Y-115935368D01*
X124180753Y-115935369D01*
X124359999Y-115955565D01*
X124360003Y-115955565D01*
X124360007Y-115955565D01*
X124539252Y-115935369D01*
X124539255Y-115935368D01*
X124539258Y-115935368D01*
X124709525Y-115875789D01*
X124862265Y-115779816D01*
X124989819Y-115652262D01*
X125085792Y-115499522D01*
X125145371Y-115329255D01*
X125145372Y-115329249D01*
X125165568Y-115150003D01*
X125165568Y-115149996D01*
X125145372Y-114970750D01*
X125145371Y-114970745D01*
X125124776Y-114911887D01*
X125085792Y-114800478D01*
X124989819Y-114647738D01*
X124989817Y-114647736D01*
X124989816Y-114647734D01*
X124987553Y-114644896D01*
X124986662Y-114642715D01*
X124986114Y-114641842D01*
X124986267Y-114641745D01*
X124961147Y-114580209D01*
X124960503Y-114567587D01*
X124960503Y-113195945D01*
X124957317Y-113184057D01*
X124957316Y-113184053D01*
X124949537Y-113155022D01*
X124927280Y-113071958D01*
X124919580Y-113043219D01*
X124897904Y-113005675D01*
X124840527Y-112906293D01*
X124840524Y-112906289D01*
X124840523Y-112906287D01*
X124728719Y-112794483D01*
X124728718Y-112794482D01*
X124724388Y-112790152D01*
X124724377Y-112790142D01*
X122471819Y-110537584D01*
X122438334Y-110476261D01*
X122435500Y-110449903D01*
X122435500Y-108334999D01*
X124914341Y-108334999D01*
X124914341Y-108335000D01*
X124934936Y-108570403D01*
X124934938Y-108570413D01*
X124996094Y-108798655D01*
X124996096Y-108798659D01*
X124996097Y-108798663D01*
X125065642Y-108947803D01*
X125095965Y-109012830D01*
X125095967Y-109012834D01*
X125231501Y-109206395D01*
X125231506Y-109206402D01*
X125398597Y-109373493D01*
X125398603Y-109373498D01*
X125584158Y-109503425D01*
X125627783Y-109558002D01*
X125634977Y-109627500D01*
X125603454Y-109689855D01*
X125584158Y-109706575D01*
X125398597Y-109836505D01*
X125231505Y-110003597D01*
X125095965Y-110197169D01*
X125095964Y-110197171D01*
X124996098Y-110411335D01*
X124996094Y-110411344D01*
X124934938Y-110639586D01*
X124934936Y-110639596D01*
X124914341Y-110874999D01*
X124914341Y-110875000D01*
X124934936Y-111110403D01*
X124934938Y-111110413D01*
X124996094Y-111338655D01*
X124996096Y-111338659D01*
X124996097Y-111338663D01*
X125059717Y-111475096D01*
X125095965Y-111552830D01*
X125095967Y-111552834D01*
X125164491Y-111650695D01*
X125231505Y-111746401D01*
X125398599Y-111913495D01*
X125461703Y-111957681D01*
X125592165Y-112049032D01*
X125592167Y-112049033D01*
X125592170Y-112049035D01*
X125806337Y-112148903D01*
X126034592Y-112210063D01*
X126222918Y-112226539D01*
X126269999Y-112230659D01*
X126270000Y-112230659D01*
X126270001Y-112230659D01*
X126310839Y-112227086D01*
X126505408Y-112210063D01*
X126733663Y-112148903D01*
X126947830Y-112049035D01*
X127141401Y-111913495D01*
X127308495Y-111746401D01*
X127444035Y-111552830D01*
X127543903Y-111338663D01*
X127605063Y-111110408D01*
X127625659Y-110875000D01*
X127605063Y-110639592D01*
X127552847Y-110444716D01*
X127543905Y-110411344D01*
X127543904Y-110411343D01*
X127543903Y-110411337D01*
X127444035Y-110197171D01*
X127419380Y-110161959D01*
X127308494Y-110003597D01*
X127141402Y-109836506D01*
X127141396Y-109836501D01*
X126955842Y-109706575D01*
X126912217Y-109651998D01*
X126905023Y-109582500D01*
X126936546Y-109520145D01*
X126955842Y-109503425D01*
X127012081Y-109464046D01*
X127141401Y-109373495D01*
X127308495Y-109206401D01*
X127444035Y-109012830D01*
X127543903Y-108798663D01*
X127605063Y-108570408D01*
X127625659Y-108335000D01*
X127605063Y-108099592D01*
X127552847Y-107904716D01*
X127543905Y-107871344D01*
X127543904Y-107871343D01*
X127543903Y-107871337D01*
X127444035Y-107657171D01*
X127428516Y-107635008D01*
X127308496Y-107463600D01*
X127251330Y-107406434D01*
X127186567Y-107341671D01*
X127153084Y-107280351D01*
X127158068Y-107210659D01*
X127199939Y-107154725D01*
X127230915Y-107137810D01*
X127362331Y-107088796D01*
X127477546Y-107002546D01*
X127563796Y-106887331D01*
X127614091Y-106752483D01*
X127620500Y-106692873D01*
X127620499Y-104897128D01*
X127614091Y-104837517D01*
X127613431Y-104835748D01*
X127563797Y-104702671D01*
X127563793Y-104702664D01*
X127477547Y-104587455D01*
X127477544Y-104587452D01*
X127362335Y-104501206D01*
X127362328Y-104501202D01*
X127227482Y-104450908D01*
X127227483Y-104450908D01*
X127167883Y-104444501D01*
X127167881Y-104444500D01*
X127167873Y-104444500D01*
X127167864Y-104444500D01*
X125372129Y-104444500D01*
X125372123Y-104444501D01*
X125312516Y-104450908D01*
X125177671Y-104501202D01*
X125177664Y-104501206D01*
X125062455Y-104587452D01*
X125062452Y-104587455D01*
X124976206Y-104702664D01*
X124976202Y-104702671D01*
X124925908Y-104837517D01*
X124919501Y-104897116D01*
X124919501Y-104897123D01*
X124919500Y-104897135D01*
X124919500Y-106692870D01*
X124919501Y-106692876D01*
X124925908Y-106752483D01*
X124976202Y-106887328D01*
X124976206Y-106887335D01*
X125062452Y-107002544D01*
X125062455Y-107002547D01*
X125177664Y-107088793D01*
X125177671Y-107088797D01*
X125309081Y-107137810D01*
X125365015Y-107179681D01*
X125389432Y-107245145D01*
X125374580Y-107313418D01*
X125353430Y-107341673D01*
X125231503Y-107463600D01*
X125095965Y-107657169D01*
X125095964Y-107657171D01*
X124996098Y-107871335D01*
X124996094Y-107871344D01*
X124934938Y-108099586D01*
X124934936Y-108099596D01*
X124914341Y-108334999D01*
X122435500Y-108334999D01*
X122435500Y-103799000D01*
X122455185Y-103731961D01*
X122507989Y-103686206D01*
X122559500Y-103675000D01*
X129330500Y-103675000D01*
X129397539Y-103694685D01*
X129443294Y-103747489D01*
X129454500Y-103799000D01*
X129454500Y-116925500D01*
X129434815Y-116992539D01*
X129382011Y-117038294D01*
X129330500Y-117049500D01*
X127313798Y-117049500D01*
X127296908Y-117051308D01*
X127206754Y-117060963D01*
X127155416Y-117072087D01*
X127155410Y-117072089D01*
X127053234Y-117105958D01*
X126932071Y-117183543D01*
X126932058Y-117183553D01*
X126879192Y-117229209D01*
X126879189Y-117229213D01*
X126784786Y-117337800D01*
X126784782Y-117337806D01*
X126724804Y-117468574D01*
X126705006Y-117535595D01*
X126705005Y-117535597D01*
X126684299Y-117677973D01*
X126684298Y-117677979D01*
X126679942Y-120349198D01*
X126679941Y-120349950D01*
X126679941Y-120349997D01*
X126675535Y-123050702D01*
X126655741Y-123117710D01*
X126602862Y-123163378D01*
X126551535Y-123174500D01*
X121951209Y-123174500D01*
X121884170Y-123154815D01*
X121838415Y-123102011D01*
X121828471Y-123032853D01*
X121835027Y-123007166D01*
X121853597Y-122957376D01*
X121853598Y-122957372D01*
X121859999Y-122897844D01*
X121860000Y-122897827D01*
X121860000Y-122250000D01*
X120943012Y-122250000D01*
X120975925Y-122192993D01*
X121010000Y-122065826D01*
X121010000Y-121934174D01*
X120975925Y-121807007D01*
X120943012Y-121750000D01*
X121860000Y-121750000D01*
X121860000Y-121102172D01*
X121859999Y-121102155D01*
X121853598Y-121042627D01*
X121853596Y-121042620D01*
X121803354Y-120907913D01*
X121803350Y-120907906D01*
X121717190Y-120792812D01*
X121717187Y-120792809D01*
X121602093Y-120706649D01*
X121602086Y-120706645D01*
X121467379Y-120656403D01*
X121467372Y-120656401D01*
X121407844Y-120650000D01*
X120760000Y-120650000D01*
X120760000Y-121566988D01*
X120702993Y-121534075D01*
X120575826Y-121500000D01*
X120444174Y-121500000D01*
X120317007Y-121534075D01*
X120260000Y-121566988D01*
X120260000Y-120650000D01*
X119612155Y-120650000D01*
X119552627Y-120656401D01*
X119552620Y-120656403D01*
X119409601Y-120709746D01*
X119409097Y-120708395D01*
X119350146Y-120721215D01*
X119284683Y-120696794D01*
X119242815Y-120640858D01*
X119235000Y-120597532D01*
X119235000Y-119002467D01*
X119254685Y-118935428D01*
X119307489Y-118889673D01*
X119376647Y-118879729D01*
X119409453Y-118890648D01*
X119409601Y-118890254D01*
X119552620Y-118943596D01*
X119552627Y-118943598D01*
X119612155Y-118949999D01*
X119612172Y-118950000D01*
X120260000Y-118950000D01*
X120260000Y-118033012D01*
X120317007Y-118065925D01*
X120444174Y-118100000D01*
X120575826Y-118100000D01*
X120702993Y-118065925D01*
X120760000Y-118033012D01*
X120760000Y-118950000D01*
X121407828Y-118950000D01*
X121407844Y-118949999D01*
X121467372Y-118943598D01*
X121467379Y-118943596D01*
X121602086Y-118893354D01*
X121602093Y-118893350D01*
X121717187Y-118807190D01*
X121717190Y-118807187D01*
X121803350Y-118692093D01*
X121803354Y-118692086D01*
X121853596Y-118557379D01*
X121853598Y-118557372D01*
X121859999Y-118497844D01*
X121860000Y-118497827D01*
X121860000Y-117850000D01*
X120943012Y-117850000D01*
X120975925Y-117792993D01*
X121010000Y-117665826D01*
X121010000Y-117534174D01*
X120975925Y-117407007D01*
X120943012Y-117350000D01*
X121860000Y-117350000D01*
X121860000Y-116702172D01*
X121859999Y-116702155D01*
X121853598Y-116642627D01*
X121853596Y-116642620D01*
X121803354Y-116507913D01*
X121803350Y-116507906D01*
X121717190Y-116392812D01*
X121717187Y-116392809D01*
X121602093Y-116306649D01*
X121602086Y-116306645D01*
X121467379Y-116256403D01*
X121467372Y-116256401D01*
X121407844Y-116250000D01*
X120760000Y-116250000D01*
X120760000Y-117166988D01*
X120702993Y-117134075D01*
X120575826Y-117100000D01*
X120444174Y-117100000D01*
X120317007Y-117134075D01*
X120260000Y-117166988D01*
X120260000Y-116250000D01*
X119612155Y-116250000D01*
X119552627Y-116256401D01*
X119552620Y-116256403D01*
X119409601Y-116309746D01*
X119409097Y-116308395D01*
X119350146Y-116321215D01*
X119284683Y-116296794D01*
X119242815Y-116240858D01*
X119235000Y-116197532D01*
X119235000Y-115800059D01*
X119234875Y-115779815D01*
X119234196Y-115670145D01*
X119253466Y-115602988D01*
X119305985Y-115556908D01*
X119350084Y-115545646D01*
X119504316Y-115535537D01*
X119504321Y-115535536D01*
X119793584Y-115477998D01*
X119793599Y-115477994D01*
X120072888Y-115383187D01*
X120337406Y-115252741D01*
X120337419Y-115252734D01*
X120582648Y-115088877D01*
X120616039Y-115059593D01*
X119792736Y-114236290D01*
X119926602Y-114139033D01*
X120049033Y-114016602D01*
X120146290Y-113882737D01*
X120969593Y-114706039D01*
X120998877Y-114672648D01*
X121162734Y-114427419D01*
X121162741Y-114427406D01*
X121293187Y-114162888D01*
X121387994Y-113883599D01*
X121387998Y-113883584D01*
X121445535Y-113594324D01*
X121445537Y-113594312D01*
X121464827Y-113300000D01*
X121445537Y-113005687D01*
X121445535Y-113005675D01*
X121387998Y-112716415D01*
X121387994Y-112716400D01*
X121293187Y-112437111D01*
X121162741Y-112172593D01*
X121162734Y-112172580D01*
X120998876Y-111927350D01*
X120969593Y-111893958D01*
X120146289Y-112717261D01*
X120049033Y-112583398D01*
X119926602Y-112460967D01*
X119792736Y-112363708D01*
X120616039Y-111540406D01*
X120616039Y-111540405D01*
X120582649Y-111511122D01*
X120337419Y-111347265D01*
X120337406Y-111347258D01*
X120072888Y-111216812D01*
X119793599Y-111122005D01*
X119793584Y-111122001D01*
X119504324Y-111064464D01*
X119504296Y-111064460D01*
X119320760Y-111052430D01*
X119255151Y-111028403D01*
X119212948Y-110972720D01*
X119204873Y-110929468D01*
X119167560Y-104897123D01*
X119160772Y-103799767D01*
X119180042Y-103732607D01*
X119232562Y-103686526D01*
X119284770Y-103675000D01*
X120710500Y-103675000D01*
X120777539Y-103694685D01*
G37*
%TD.AperFunction*%
%TD*%
%TA.AperFunction,Conductor*%
%TO.N,GNDD*%
G36*
X141410520Y-104995185D02*
G01*
X141431162Y-105011819D01*
X142988453Y-106569111D01*
X142988454Y-106569112D01*
X143103192Y-106645777D01*
X143216894Y-106692873D01*
X143230672Y-106698580D01*
X143230676Y-106698580D01*
X143230677Y-106698581D01*
X143366003Y-106725500D01*
X143366006Y-106725500D01*
X143420931Y-106725500D01*
X143688044Y-106725500D01*
X143755083Y-106745185D01*
X143800838Y-106797989D01*
X143811264Y-106835616D01*
X143824630Y-106954250D01*
X143824631Y-106954254D01*
X143884211Y-107124523D01*
X143983889Y-107283158D01*
X143981590Y-107284602D01*
X144003341Y-107337849D01*
X143990599Y-107406547D01*
X143942739Y-107457450D01*
X143879988Y-107474500D01*
X142364057Y-107474500D01*
X142205942Y-107474500D01*
X142053215Y-107515423D01*
X142053214Y-107515423D01*
X142053212Y-107515424D01*
X142053209Y-107515425D01*
X142003096Y-107544359D01*
X142003095Y-107544360D01*
X141959689Y-107569420D01*
X141916285Y-107594479D01*
X141916282Y-107594481D01*
X141202083Y-108308681D01*
X141140760Y-108342166D01*
X141114402Y-108345000D01*
X140218012Y-108345000D01*
X140250925Y-108287993D01*
X140285000Y-108160826D01*
X140285000Y-108029174D01*
X140250925Y-107902007D01*
X140218012Y-107845000D01*
X141115636Y-107845000D01*
X141115635Y-107844999D01*
X141058432Y-107631513D01*
X141058429Y-107631507D01*
X140958600Y-107417422D01*
X140958599Y-107417420D01*
X140823113Y-107223926D01*
X140823108Y-107223920D01*
X140656078Y-107056890D01*
X140470405Y-106926879D01*
X140426780Y-106872302D01*
X140419588Y-106802804D01*
X140451110Y-106740449D01*
X140470406Y-106723730D01*
X140470842Y-106723425D01*
X140656401Y-106593495D01*
X140823495Y-106426401D01*
X140959035Y-106232830D01*
X141058903Y-106018663D01*
X141120063Y-105790408D01*
X141140659Y-105555000D01*
X141120063Y-105319592D01*
X141084731Y-105187729D01*
X141069690Y-105131593D01*
X141071353Y-105061743D01*
X141110516Y-105003881D01*
X141174745Y-104976377D01*
X141189465Y-104975500D01*
X141343481Y-104975500D01*
X141410520Y-104995185D01*
G37*
%TD.AperFunction*%
%TA.AperFunction,Conductor*%
G36*
X138599855Y-106221546D02*
G01*
X138616575Y-106240842D01*
X138746501Y-106426396D01*
X138746506Y-106426402D01*
X138913597Y-106593493D01*
X138913603Y-106593498D01*
X138988265Y-106645777D01*
X139055525Y-106692873D01*
X139099594Y-106723730D01*
X139143219Y-106778307D01*
X139150413Y-106847805D01*
X139118890Y-106910160D01*
X139099595Y-106926880D01*
X138913922Y-107056890D01*
X138913920Y-107056891D01*
X138746891Y-107223920D01*
X138746890Y-107223922D01*
X138616880Y-107409595D01*
X138562303Y-107453219D01*
X138492804Y-107460412D01*
X138430450Y-107428890D01*
X138413730Y-107409594D01*
X138283494Y-107223597D01*
X138116402Y-107056506D01*
X138116396Y-107056501D01*
X137930842Y-106926575D01*
X137887217Y-106871998D01*
X137880023Y-106802500D01*
X137911546Y-106740145D01*
X137930842Y-106723425D01*
X137981844Y-106687713D01*
X138116401Y-106593495D01*
X138283495Y-106426401D01*
X138413425Y-106240842D01*
X138468002Y-106197217D01*
X138537500Y-106190023D01*
X138599855Y-106221546D01*
G37*
%TD.AperFunction*%
%TA.AperFunction,Conductor*%
G36*
X142376028Y-80195185D02*
G01*
X142421783Y-80247989D01*
X142431727Y-80317147D01*
X142402702Y-80380703D01*
X142350365Y-80414337D01*
X142350985Y-80415998D01*
X142208871Y-80469002D01*
X142208864Y-80469006D01*
X142093655Y-80555252D01*
X142093652Y-80555255D01*
X142007406Y-80670464D01*
X142007402Y-80670471D01*
X141957108Y-80805317D01*
X141950701Y-80864916D01*
X141950700Y-80864935D01*
X141950700Y-82660670D01*
X141950701Y-82660676D01*
X141957108Y-82720283D01*
X142007402Y-82855128D01*
X142007406Y-82855135D01*
X142093652Y-82970344D01*
X142093655Y-82970347D01*
X142208864Y-83056593D01*
X142208871Y-83056597D01*
X142343717Y-83106891D01*
X142343716Y-83106891D01*
X142350644Y-83107635D01*
X142403327Y-83113300D01*
X144199072Y-83113299D01*
X144258683Y-83106891D01*
X144393531Y-83056596D01*
X144508746Y-82970346D01*
X144594996Y-82855131D01*
X144644010Y-82723716D01*
X144685881Y-82667784D01*
X144751345Y-82643366D01*
X144819618Y-82658217D01*
X144847873Y-82679369D01*
X144969799Y-82801295D01*
X145066584Y-82869065D01*
X145163365Y-82936832D01*
X145163367Y-82936833D01*
X145163370Y-82936835D01*
X145377537Y-83036703D01*
X145605792Y-83097863D01*
X145782234Y-83113300D01*
X145841199Y-83118459D01*
X145841200Y-83118459D01*
X145841201Y-83118459D01*
X145900166Y-83113300D01*
X146076608Y-83097863D01*
X146304863Y-83036703D01*
X146519030Y-82936835D01*
X146712601Y-82801295D01*
X146879695Y-82634201D01*
X147009625Y-82448642D01*
X147064202Y-82405017D01*
X147133700Y-82397823D01*
X147196055Y-82429346D01*
X147212775Y-82448642D01*
X147342481Y-82633882D01*
X147342705Y-82634201D01*
X147509799Y-82801295D01*
X147606584Y-82869065D01*
X147703365Y-82936832D01*
X147703367Y-82936833D01*
X147703370Y-82936835D01*
X147917537Y-83036703D01*
X148145792Y-83097863D01*
X148322234Y-83113300D01*
X148381199Y-83118459D01*
X148381200Y-83118459D01*
X148381201Y-83118459D01*
X148440166Y-83113300D01*
X148616608Y-83097863D01*
X148844863Y-83036703D01*
X149059030Y-82936835D01*
X149252601Y-82801295D01*
X149419695Y-82634201D01*
X149549625Y-82448642D01*
X149604202Y-82405017D01*
X149673700Y-82397823D01*
X149736055Y-82429346D01*
X149752775Y-82448642D01*
X149882481Y-82633882D01*
X149882705Y-82634201D01*
X150049799Y-82801295D01*
X150146584Y-82869065D01*
X150243365Y-82936832D01*
X150243367Y-82936833D01*
X150243370Y-82936835D01*
X150457537Y-83036703D01*
X150685792Y-83097863D01*
X150862234Y-83113300D01*
X150921199Y-83118459D01*
X150921200Y-83118459D01*
X150921201Y-83118459D01*
X150980166Y-83113300D01*
X151156608Y-83097863D01*
X151384863Y-83036703D01*
X151599030Y-82936835D01*
X151792601Y-82801295D01*
X151959695Y-82634201D01*
X152089625Y-82448642D01*
X152144202Y-82405017D01*
X152213700Y-82397823D01*
X152276055Y-82429346D01*
X152292775Y-82448642D01*
X152422481Y-82633882D01*
X152422705Y-82634201D01*
X152589799Y-82801295D01*
X152686584Y-82869065D01*
X152783365Y-82936832D01*
X152783367Y-82936833D01*
X152783370Y-82936835D01*
X152997537Y-83036703D01*
X153225792Y-83097863D01*
X153402234Y-83113300D01*
X153461199Y-83118459D01*
X153461200Y-83118459D01*
X153461201Y-83118459D01*
X153520166Y-83113300D01*
X153696608Y-83097863D01*
X153924863Y-83036703D01*
X154139030Y-82936835D01*
X154332601Y-82801295D01*
X154499695Y-82634201D01*
X154629930Y-82448205D01*
X154684507Y-82404581D01*
X154754005Y-82397387D01*
X154816360Y-82428910D01*
X154833079Y-82448205D01*
X154963090Y-82633878D01*
X155130117Y-82800905D01*
X155323621Y-82936400D01*
X155537707Y-83036229D01*
X155537716Y-83036233D01*
X155751200Y-83093434D01*
X155751200Y-82195812D01*
X155808207Y-82228725D01*
X155935374Y-82262800D01*
X156067026Y-82262800D01*
X156194193Y-82228725D01*
X156251200Y-82195812D01*
X156251200Y-83093433D01*
X156464683Y-83036233D01*
X156464692Y-83036229D01*
X156678778Y-82936400D01*
X156872282Y-82800905D01*
X157039305Y-82633882D01*
X157174800Y-82440378D01*
X157274629Y-82226292D01*
X157274632Y-82226286D01*
X157331836Y-82012800D01*
X156434212Y-82012800D01*
X156467125Y-81955793D01*
X156501200Y-81828626D01*
X156501200Y-81696974D01*
X156467125Y-81569807D01*
X156434212Y-81512800D01*
X157331836Y-81512800D01*
X157331835Y-81512799D01*
X157274632Y-81299313D01*
X157274629Y-81299307D01*
X157174800Y-81085222D01*
X157174799Y-81085220D01*
X157039313Y-80891726D01*
X157039308Y-80891720D01*
X156872282Y-80724694D01*
X156678778Y-80589199D01*
X156464692Y-80489370D01*
X156464683Y-80489366D01*
X156236526Y-80428232D01*
X156236515Y-80428230D01*
X156177050Y-80423028D01*
X156111981Y-80397576D01*
X156071002Y-80340985D01*
X156067124Y-80271223D01*
X156101578Y-80210439D01*
X156163425Y-80177931D01*
X156187857Y-80175500D01*
X161788648Y-80175500D01*
X161855687Y-80195185D01*
X161901442Y-80247989D01*
X161911386Y-80317147D01*
X161892457Y-80367321D01*
X161826267Y-80468632D01*
X161726412Y-80696282D01*
X161665387Y-80937261D01*
X161665385Y-80937270D01*
X161644859Y-81184994D01*
X161644859Y-81185005D01*
X161665385Y-81432729D01*
X161665387Y-81432738D01*
X161726412Y-81673717D01*
X161826266Y-81901364D01*
X161926564Y-82054882D01*
X162626212Y-81355233D01*
X162637482Y-81397292D01*
X162709890Y-81522708D01*
X162812292Y-81625110D01*
X162937708Y-81697518D01*
X162979765Y-81708787D01*
X162279942Y-82408609D01*
X162326768Y-82445055D01*
X162326770Y-82445056D01*
X162545385Y-82563364D01*
X162545396Y-82563369D01*
X162780506Y-82644083D01*
X163025707Y-82685000D01*
X163274293Y-82685000D01*
X163519493Y-82644083D01*
X163754603Y-82563369D01*
X163754614Y-82563364D01*
X163973228Y-82445057D01*
X163973231Y-82445055D01*
X164020056Y-82408609D01*
X163320234Y-81708787D01*
X163362292Y-81697518D01*
X163487708Y-81625110D01*
X163590110Y-81522708D01*
X163662518Y-81397292D01*
X163673787Y-81355235D01*
X164373434Y-82054882D01*
X164473731Y-81901369D01*
X164573587Y-81673717D01*
X164634612Y-81432738D01*
X164634614Y-81432729D01*
X164655141Y-81185005D01*
X164655141Y-81184994D01*
X164634614Y-80937270D01*
X164634612Y-80937261D01*
X164573587Y-80696282D01*
X164473732Y-80468632D01*
X164407543Y-80367321D01*
X164387355Y-80300432D01*
X164406536Y-80233246D01*
X164458995Y-80187096D01*
X164511352Y-80175500D01*
X166288051Y-80175500D01*
X166355090Y-80195185D01*
X166400845Y-80247989D01*
X166410789Y-80317147D01*
X166391860Y-80367321D01*
X166325826Y-80468393D01*
X166225936Y-80696118D01*
X166164892Y-80937175D01*
X166164890Y-80937187D01*
X166144357Y-81184994D01*
X166144357Y-81185005D01*
X166164890Y-81432812D01*
X166164892Y-81432824D01*
X166225936Y-81673881D01*
X166325826Y-81901606D01*
X166461833Y-82109782D01*
X166461836Y-82109785D01*
X166630256Y-82292738D01*
X166826491Y-82445474D01*
X166831539Y-82448206D01*
X167044332Y-82563364D01*
X167045190Y-82563828D01*
X167249238Y-82633878D01*
X167278964Y-82644083D01*
X167280386Y-82644571D01*
X167525665Y-82685500D01*
X167774335Y-82685500D01*
X168019614Y-82644571D01*
X168254810Y-82563828D01*
X168473509Y-82445474D01*
X168473513Y-82445470D01*
X168476482Y-82443864D01*
X168544810Y-82429269D01*
X168610183Y-82453932D01*
X168651844Y-82510022D01*
X168659500Y-82552919D01*
X168659500Y-86317080D01*
X168639815Y-86384119D01*
X168587011Y-86429874D01*
X168517853Y-86439818D01*
X168476483Y-86426135D01*
X168254816Y-86306175D01*
X168254813Y-86306174D01*
X168254810Y-86306172D01*
X168254804Y-86306170D01*
X168254802Y-86306169D01*
X168019616Y-86225429D01*
X167774335Y-86184500D01*
X167525665Y-86184500D01*
X167280383Y-86225429D01*
X167045197Y-86306169D01*
X167045188Y-86306172D01*
X166826493Y-86424524D01*
X166630257Y-86577261D01*
X166461833Y-86760217D01*
X166325826Y-86968393D01*
X166225936Y-87196118D01*
X166164892Y-87437175D01*
X166164890Y-87437187D01*
X166144357Y-87684994D01*
X166144357Y-87685005D01*
X166164890Y-87932812D01*
X166164892Y-87932824D01*
X166225936Y-88173881D01*
X166325826Y-88401606D01*
X166461833Y-88609782D01*
X166461836Y-88609785D01*
X166630256Y-88792738D01*
X166826491Y-88945474D01*
X166826494Y-88945476D01*
X166826496Y-88945477D01*
X166842120Y-88953932D01*
X166984517Y-89030993D01*
X167034108Y-89080212D01*
X167049500Y-89140048D01*
X167049500Y-90186830D01*
X167049499Y-90186848D01*
X167049499Y-90352554D01*
X167049498Y-90352554D01*
X167090423Y-90505285D01*
X167105723Y-90531785D01*
X167105722Y-90531785D01*
X167105723Y-90531786D01*
X167169475Y-90642209D01*
X167169481Y-90642217D01*
X167235681Y-90708417D01*
X167269166Y-90769740D01*
X167272000Y-90796098D01*
X167272000Y-91642491D01*
X167252315Y-91709530D01*
X167213098Y-91748029D01*
X167141344Y-91792287D01*
X167141343Y-91792288D01*
X167047681Y-91885951D01*
X166986358Y-91919436D01*
X166916666Y-91914452D01*
X166872319Y-91885951D01*
X166778655Y-91792287D01*
X166706902Y-91748029D01*
X166660178Y-91696081D01*
X166648000Y-91642491D01*
X166648000Y-90702445D01*
X166648000Y-90702443D01*
X166607077Y-90549716D01*
X166555244Y-90459937D01*
X166528024Y-90412790D01*
X166528021Y-90412786D01*
X166528020Y-90412784D01*
X166416216Y-90300980D01*
X166416215Y-90300979D01*
X166411885Y-90296649D01*
X166411874Y-90296639D01*
X166027590Y-89912355D01*
X166027588Y-89912352D01*
X165908717Y-89793481D01*
X165908709Y-89793475D01*
X165816819Y-89740423D01*
X165816817Y-89740422D01*
X165771790Y-89714425D01*
X165771789Y-89714424D01*
X165759263Y-89711067D01*
X165619057Y-89673499D01*
X165460943Y-89673499D01*
X165453347Y-89673499D01*
X165453331Y-89673500D01*
X164515297Y-89673500D01*
X164448258Y-89653815D01*
X164427616Y-89637181D01*
X164253790Y-89463355D01*
X164253788Y-89463352D01*
X164134917Y-89344481D01*
X164134916Y-89344480D01*
X164048104Y-89294360D01*
X164048104Y-89294359D01*
X164048100Y-89294358D01*
X163997985Y-89265423D01*
X163886301Y-89235496D01*
X163826643Y-89199133D01*
X163796114Y-89136286D01*
X163804409Y-89066910D01*
X163848894Y-89013032D01*
X163859380Y-89006668D01*
X163973228Y-88945057D01*
X163973231Y-88945055D01*
X164020056Y-88908609D01*
X163320234Y-88208787D01*
X163362292Y-88197518D01*
X163487708Y-88125110D01*
X163590110Y-88022708D01*
X163662518Y-87897292D01*
X163673787Y-87855234D01*
X164373434Y-88554882D01*
X164473731Y-88401369D01*
X164573587Y-88173717D01*
X164634612Y-87932738D01*
X164634614Y-87932729D01*
X164655141Y-87685005D01*
X164655141Y-87684994D01*
X164634614Y-87437270D01*
X164634612Y-87437261D01*
X164573587Y-87196282D01*
X164473731Y-86968630D01*
X164373434Y-86815116D01*
X163673787Y-87514764D01*
X163662518Y-87472708D01*
X163590110Y-87347292D01*
X163487708Y-87244890D01*
X163362292Y-87172482D01*
X163320235Y-87161212D01*
X164020057Y-86461390D01*
X164020056Y-86461389D01*
X163973229Y-86424943D01*
X163754614Y-86306635D01*
X163754603Y-86306630D01*
X163519493Y-86225916D01*
X163274293Y-86185000D01*
X163025707Y-86185000D01*
X162780506Y-86225916D01*
X162545396Y-86306630D01*
X162545390Y-86306632D01*
X162326761Y-86424949D01*
X162279942Y-86461388D01*
X162279942Y-86461390D01*
X162979765Y-87161212D01*
X162937708Y-87172482D01*
X162812292Y-87244890D01*
X162709890Y-87347292D01*
X162637482Y-87472708D01*
X162626212Y-87514764D01*
X161926564Y-86815116D01*
X161826267Y-86968632D01*
X161726412Y-87196282D01*
X161665387Y-87437261D01*
X161665385Y-87437270D01*
X161644859Y-87684994D01*
X161644859Y-87685005D01*
X161665385Y-87932729D01*
X161665387Y-87932738D01*
X161726412Y-88173717D01*
X161826266Y-88401364D01*
X161926564Y-88554882D01*
X162626212Y-87855234D01*
X162637482Y-87897292D01*
X162709890Y-88022708D01*
X162812292Y-88125110D01*
X162937708Y-88197518D01*
X162979765Y-88208787D01*
X162279942Y-88908609D01*
X162326768Y-88945055D01*
X162326770Y-88945056D01*
X162412489Y-88991445D01*
X162462080Y-89040664D01*
X162477188Y-89108881D01*
X162453018Y-89174437D01*
X162397242Y-89216518D01*
X162353472Y-89224500D01*
X143780940Y-89224500D01*
X143740019Y-89235464D01*
X143740019Y-89235465D01*
X143702751Y-89245451D01*
X143628214Y-89265423D01*
X143628209Y-89265426D01*
X143491290Y-89344475D01*
X143491282Y-89344481D01*
X142904481Y-89931282D01*
X142904477Y-89931287D01*
X142855870Y-90015479D01*
X142855870Y-90015480D01*
X142825423Y-90068214D01*
X142825423Y-90068215D01*
X142784499Y-90220943D01*
X142784499Y-90220945D01*
X142784499Y-90389046D01*
X142784500Y-90389059D01*
X142784500Y-90505908D01*
X142764815Y-90572947D01*
X142712914Y-90618286D01*
X142707173Y-90620963D01*
X142707169Y-90620965D01*
X142513597Y-90756505D01*
X142346505Y-90923597D01*
X142210965Y-91117169D01*
X142210964Y-91117171D01*
X142111098Y-91331335D01*
X142111094Y-91331344D01*
X142049938Y-91559586D01*
X142049936Y-91559596D01*
X142029341Y-91794999D01*
X142029341Y-91795000D01*
X142049936Y-92030403D01*
X142049938Y-92030413D01*
X142111094Y-92258655D01*
X142111096Y-92258659D01*
X142111097Y-92258663D01*
X142196309Y-92441400D01*
X142210965Y-92472830D01*
X142210967Y-92472834D01*
X142346501Y-92666395D01*
X142346506Y-92666402D01*
X142513597Y-92833493D01*
X142513603Y-92833498D01*
X142699158Y-92963425D01*
X142742783Y-93018002D01*
X142749977Y-93087500D01*
X142718454Y-93149855D01*
X142699158Y-93166575D01*
X142513597Y-93296505D01*
X142346505Y-93463597D01*
X142210965Y-93657169D01*
X142210964Y-93657171D01*
X142111098Y-93871335D01*
X142111094Y-93871344D01*
X142049938Y-94099586D01*
X142049936Y-94099596D01*
X142029341Y-94334999D01*
X142029341Y-94335000D01*
X142049936Y-94570403D01*
X142049938Y-94570413D01*
X142111094Y-94798655D01*
X142111096Y-94798659D01*
X142111097Y-94798663D01*
X142194603Y-94977741D01*
X142210965Y-95012830D01*
X142210967Y-95012834D01*
X142319281Y-95167521D01*
X142346505Y-95206401D01*
X142513599Y-95373495D01*
X142610384Y-95441265D01*
X142707165Y-95509032D01*
X142707167Y-95509033D01*
X142707170Y-95509035D01*
X142712898Y-95511706D01*
X142765339Y-95557872D01*
X142784500Y-95624090D01*
X142784500Y-95663330D01*
X142784499Y-95663348D01*
X142784499Y-95829054D01*
X142784498Y-95829054D01*
X142784499Y-95829057D01*
X142825423Y-95981785D01*
X142854290Y-96031784D01*
X142854290Y-96031785D01*
X142904475Y-96118709D01*
X142904481Y-96118717D01*
X143023349Y-96237585D01*
X143023355Y-96237590D01*
X143350139Y-96564374D01*
X143350149Y-96564385D01*
X143354479Y-96568715D01*
X143354480Y-96568716D01*
X143466284Y-96680520D01*
X143466286Y-96680521D01*
X143466290Y-96680524D01*
X143526869Y-96715499D01*
X143526874Y-96715501D01*
X143603209Y-96759574D01*
X143603210Y-96759574D01*
X143603215Y-96759577D01*
X143755943Y-96800500D01*
X144609903Y-96800500D01*
X144676942Y-96820185D01*
X144697584Y-96836819D01*
X147888181Y-100027416D01*
X147921666Y-100088739D01*
X147924500Y-100115097D01*
X147924500Y-100190149D01*
X147915061Y-100237601D01*
X147889314Y-100299760D01*
X147889313Y-100299764D01*
X147874500Y-100412272D01*
X147874500Y-101887727D01*
X147889313Y-102000235D01*
X147889313Y-102000236D01*
X147931282Y-102101559D01*
X147947302Y-102140233D01*
X148039549Y-102260451D01*
X148159767Y-102352698D01*
X148299764Y-102410687D01*
X148404684Y-102424500D01*
X148412264Y-102425498D01*
X148412280Y-102425500D01*
X148412287Y-102425500D01*
X148637713Y-102425500D01*
X148637720Y-102425500D01*
X148750236Y-102410687D01*
X148750236Y-102410686D01*
X148758295Y-102409626D01*
X148758698Y-102412689D01*
X148791302Y-102412689D01*
X148791705Y-102409626D01*
X148799763Y-102410686D01*
X148799764Y-102410687D01*
X148912280Y-102425500D01*
X148912287Y-102425500D01*
X149137713Y-102425500D01*
X149137720Y-102425500D01*
X149250236Y-102410687D01*
X149250236Y-102410686D01*
X149258295Y-102409626D01*
X149258698Y-102412689D01*
X149291302Y-102412689D01*
X149291705Y-102409626D01*
X149299763Y-102410686D01*
X149299764Y-102410687D01*
X149412280Y-102425500D01*
X149412287Y-102425500D01*
X149637713Y-102425500D01*
X149637720Y-102425500D01*
X149750236Y-102410687D01*
X149750236Y-102410686D01*
X149758295Y-102409626D01*
X149758698Y-102412689D01*
X149791302Y-102412689D01*
X149791705Y-102409626D01*
X149799763Y-102410686D01*
X149799764Y-102410687D01*
X149912280Y-102425500D01*
X149912287Y-102425500D01*
X150137713Y-102425500D01*
X150137720Y-102425500D01*
X150250236Y-102410687D01*
X150250236Y-102410686D01*
X150258295Y-102409626D01*
X150258698Y-102412689D01*
X150291302Y-102412689D01*
X150291705Y-102409626D01*
X150299763Y-102410686D01*
X150299764Y-102410687D01*
X150412280Y-102425500D01*
X150412287Y-102425500D01*
X150637713Y-102425500D01*
X150637720Y-102425500D01*
X150750236Y-102410687D01*
X150750236Y-102410686D01*
X150758295Y-102409626D01*
X150758698Y-102412689D01*
X150791302Y-102412689D01*
X150791705Y-102409626D01*
X150799763Y-102410686D01*
X150799764Y-102410687D01*
X150912280Y-102425500D01*
X150912287Y-102425500D01*
X151137713Y-102425500D01*
X151137720Y-102425500D01*
X151250236Y-102410687D01*
X151250236Y-102410686D01*
X151258295Y-102409626D01*
X151258698Y-102412689D01*
X151291302Y-102412689D01*
X151291705Y-102409626D01*
X151299763Y-102410686D01*
X151299764Y-102410687D01*
X151412280Y-102425500D01*
X151412287Y-102425500D01*
X151637713Y-102425500D01*
X151637720Y-102425500D01*
X151750236Y-102410687D01*
X151750236Y-102410686D01*
X151758295Y-102409626D01*
X151758698Y-102412689D01*
X151791302Y-102412689D01*
X151791705Y-102409626D01*
X151799763Y-102410686D01*
X151799764Y-102410687D01*
X151912280Y-102425500D01*
X151912287Y-102425500D01*
X152137713Y-102425500D01*
X152137720Y-102425500D01*
X152250236Y-102410687D01*
X152250236Y-102410686D01*
X152258295Y-102409626D01*
X152258698Y-102412689D01*
X152291302Y-102412689D01*
X152291705Y-102409626D01*
X152299763Y-102410686D01*
X152299764Y-102410687D01*
X152412280Y-102425500D01*
X152412287Y-102425500D01*
X152637713Y-102425500D01*
X152637720Y-102425500D01*
X152750236Y-102410687D01*
X152750236Y-102410686D01*
X152758295Y-102409626D01*
X152758698Y-102412689D01*
X152791302Y-102412689D01*
X152791705Y-102409626D01*
X152799763Y-102410686D01*
X152799764Y-102410687D01*
X152912280Y-102425500D01*
X152912287Y-102425500D01*
X153137713Y-102425500D01*
X153137720Y-102425500D01*
X153250236Y-102410687D01*
X153250236Y-102410686D01*
X153258295Y-102409626D01*
X153258698Y-102412689D01*
X153291302Y-102412689D01*
X153291705Y-102409626D01*
X153299763Y-102410686D01*
X153299764Y-102410687D01*
X153412280Y-102425500D01*
X153412287Y-102425500D01*
X153637713Y-102425500D01*
X153637720Y-102425500D01*
X153750236Y-102410687D01*
X153750236Y-102410686D01*
X153758295Y-102409626D01*
X153758698Y-102412689D01*
X153791302Y-102412689D01*
X153791705Y-102409626D01*
X153799763Y-102410686D01*
X153799764Y-102410687D01*
X153912280Y-102425500D01*
X153912287Y-102425500D01*
X154137713Y-102425500D01*
X154137720Y-102425500D01*
X154250236Y-102410687D01*
X154250236Y-102410686D01*
X154258295Y-102409626D01*
X154258698Y-102412689D01*
X154291302Y-102412689D01*
X154291705Y-102409626D01*
X154299763Y-102410686D01*
X154299764Y-102410687D01*
X154412280Y-102425500D01*
X154412287Y-102425500D01*
X154637713Y-102425500D01*
X154637720Y-102425500D01*
X154750236Y-102410687D01*
X154750236Y-102410686D01*
X154758295Y-102409626D01*
X154758698Y-102412689D01*
X154791302Y-102412689D01*
X154791705Y-102409626D01*
X154799763Y-102410686D01*
X154799764Y-102410687D01*
X154912280Y-102425500D01*
X154912287Y-102425500D01*
X155137713Y-102425500D01*
X155137720Y-102425500D01*
X155250236Y-102410687D01*
X155250236Y-102410686D01*
X155258295Y-102409626D01*
X155258698Y-102412689D01*
X155291302Y-102412689D01*
X155291705Y-102409626D01*
X155299763Y-102410686D01*
X155299764Y-102410687D01*
X155412280Y-102425500D01*
X155412287Y-102425500D01*
X155637713Y-102425500D01*
X155637720Y-102425500D01*
X155750236Y-102410687D01*
X155750236Y-102410686D01*
X155758295Y-102409626D01*
X155758698Y-102412689D01*
X155791302Y-102412689D01*
X155791705Y-102409626D01*
X155799763Y-102410686D01*
X155799764Y-102410687D01*
X155912280Y-102425500D01*
X155912287Y-102425500D01*
X156137713Y-102425500D01*
X156137720Y-102425500D01*
X156250236Y-102410687D01*
X156390233Y-102352698D01*
X156510451Y-102260451D01*
X156602698Y-102140233D01*
X156660687Y-102000236D01*
X156675500Y-101887720D01*
X156675500Y-100412280D01*
X156660687Y-100299764D01*
X156655425Y-100287061D01*
X156647956Y-100217597D01*
X156679228Y-100155117D01*
X156682277Y-100151957D01*
X157847416Y-98986819D01*
X157908739Y-98953334D01*
X157935097Y-98950500D01*
X159723331Y-98950500D01*
X159723347Y-98950501D01*
X159730943Y-98950501D01*
X159889054Y-98950501D01*
X159889057Y-98950501D01*
X160041785Y-98909577D01*
X160091904Y-98880639D01*
X160178716Y-98830520D01*
X160290520Y-98718716D01*
X160290520Y-98718714D01*
X160300728Y-98708507D01*
X160300730Y-98708504D01*
X162843506Y-96165728D01*
X162843511Y-96165724D01*
X162853714Y-96155520D01*
X162853716Y-96155520D01*
X162965520Y-96043716D01*
X162972409Y-96031784D01*
X163022813Y-95944482D01*
X163022814Y-95944480D01*
X163044574Y-95906790D01*
X163044573Y-95906790D01*
X163044577Y-95906785D01*
X163085500Y-95754058D01*
X163085500Y-95595943D01*
X163085500Y-93204059D01*
X163085501Y-93204046D01*
X163085501Y-93035945D01*
X163085501Y-93035943D01*
X163044577Y-92883215D01*
X163009936Y-92823215D01*
X163009936Y-92823214D01*
X162965524Y-92746290D01*
X162965521Y-92746286D01*
X162965520Y-92746284D01*
X162853716Y-92634480D01*
X162853715Y-92634479D01*
X162849385Y-92630149D01*
X162849374Y-92630139D01*
X162551818Y-92332583D01*
X162518333Y-92271260D01*
X162515499Y-92244902D01*
X162515499Y-90897129D01*
X162515498Y-90897123D01*
X162515182Y-90894185D01*
X162509091Y-90837517D01*
X162507810Y-90834083D01*
X162458797Y-90702671D01*
X162458795Y-90702668D01*
X162458627Y-90702443D01*
X162399762Y-90623810D01*
X162375345Y-90558348D01*
X162390196Y-90490074D01*
X162439601Y-90440669D01*
X162499029Y-90425500D01*
X163466103Y-90425500D01*
X163533142Y-90445185D01*
X163553784Y-90461819D01*
X163730339Y-90638374D01*
X163730349Y-90638385D01*
X163734679Y-90642715D01*
X163734680Y-90642716D01*
X163846484Y-90754520D01*
X163915732Y-90794500D01*
X163983415Y-90833577D01*
X164136143Y-90874501D01*
X164136146Y-90874501D01*
X164301853Y-90874501D01*
X164301869Y-90874500D01*
X165239903Y-90874500D01*
X165306942Y-90894185D01*
X165327584Y-90910819D01*
X165410681Y-90993916D01*
X165444166Y-91055239D01*
X165447000Y-91081597D01*
X165447000Y-91642491D01*
X165427315Y-91709530D01*
X165388098Y-91748029D01*
X165316344Y-91792287D01*
X165192289Y-91916342D01*
X165100187Y-92065663D01*
X165100185Y-92065668D01*
X165072349Y-92149670D01*
X165045001Y-92232203D01*
X165045001Y-92232204D01*
X165045000Y-92232204D01*
X165034500Y-92334983D01*
X165034500Y-93335001D01*
X165034501Y-93335019D01*
X165045000Y-93437796D01*
X165045001Y-93437799D01*
X165100185Y-93604331D01*
X165100187Y-93604336D01*
X165132775Y-93657169D01*
X165192288Y-93753656D01*
X165316344Y-93877712D01*
X165465666Y-93969814D01*
X165632203Y-94024999D01*
X165734991Y-94035500D01*
X166360008Y-94035499D01*
X166360016Y-94035498D01*
X166360019Y-94035498D01*
X166416302Y-94029748D01*
X166462797Y-94024999D01*
X166629334Y-93969814D01*
X166778656Y-93877712D01*
X166872319Y-93784049D01*
X166933642Y-93750564D01*
X167003334Y-93755548D01*
X167047681Y-93784049D01*
X167141344Y-93877712D01*
X167290666Y-93969814D01*
X167457203Y-94024999D01*
X167559991Y-94035500D01*
X168185008Y-94035499D01*
X168185016Y-94035498D01*
X168185019Y-94035498D01*
X168241302Y-94029748D01*
X168287797Y-94024999D01*
X168454334Y-93969814D01*
X168470404Y-93959901D01*
X168537795Y-93941462D01*
X168604459Y-93962384D01*
X168649229Y-94016026D01*
X168659500Y-94065441D01*
X168659500Y-97121623D01*
X168639815Y-97188662D01*
X168587011Y-97234417D01*
X168517853Y-97244361D01*
X168454297Y-97215336D01*
X168433925Y-97192746D01*
X168343494Y-97063597D01*
X168176402Y-96896506D01*
X168176395Y-96896501D01*
X167982834Y-96760967D01*
X167982830Y-96760965D01*
X167979847Y-96759574D01*
X167768663Y-96661097D01*
X167768659Y-96661096D01*
X167768655Y-96661094D01*
X167540413Y-96599938D01*
X167540403Y-96599936D01*
X167305001Y-96579341D01*
X167304999Y-96579341D01*
X167069596Y-96599936D01*
X167069586Y-96599938D01*
X166841344Y-96661094D01*
X166841335Y-96661098D01*
X166627171Y-96760964D01*
X166627169Y-96760965D01*
X166433597Y-96896505D01*
X166266505Y-97063597D01*
X166136575Y-97249158D01*
X166081998Y-97292783D01*
X166012500Y-97299977D01*
X165950145Y-97268454D01*
X165933425Y-97249158D01*
X165803494Y-97063597D01*
X165636402Y-96896506D01*
X165636395Y-96896501D01*
X165442834Y-96760967D01*
X165442830Y-96760965D01*
X165439847Y-96759574D01*
X165228663Y-96661097D01*
X165228659Y-96661096D01*
X165228655Y-96661094D01*
X165000413Y-96599938D01*
X165000403Y-96599936D01*
X164765001Y-96579341D01*
X164764999Y-96579341D01*
X164529596Y-96599936D01*
X164529586Y-96599938D01*
X164301344Y-96661094D01*
X164301335Y-96661098D01*
X164087171Y-96760964D01*
X164087169Y-96760965D01*
X163893597Y-96896505D01*
X163726506Y-97063596D01*
X163590965Y-97257170D01*
X163590962Y-97257176D01*
X163588292Y-97262903D01*
X163542120Y-97315343D01*
X163475910Y-97334499D01*
X163370943Y-97334499D01*
X163218215Y-97375423D01*
X163218213Y-97375423D01*
X163218213Y-97375424D01*
X163081281Y-97454482D01*
X158891981Y-101643782D01*
X158891977Y-101643787D01*
X158853995Y-101709576D01*
X158853995Y-101709577D01*
X158812923Y-101780714D01*
X158799756Y-101829855D01*
X158771999Y-101933443D01*
X158771999Y-101933445D01*
X158771999Y-102101546D01*
X158772000Y-102101559D01*
X158772000Y-102237401D01*
X158752315Y-102304440D01*
X158735682Y-102325082D01*
X158672584Y-102388181D01*
X158611261Y-102421666D01*
X158584902Y-102424500D01*
X157212272Y-102424500D01*
X157099764Y-102439313D01*
X157099763Y-102439313D01*
X156959770Y-102497300D01*
X156959767Y-102497301D01*
X156959767Y-102497302D01*
X156839549Y-102589549D01*
X156747300Y-102709770D01*
X156689313Y-102849763D01*
X156689313Y-102849764D01*
X156674500Y-102962272D01*
X156674500Y-103187727D01*
X156690374Y-103308292D01*
X156687399Y-103308683D01*
X156687399Y-103341316D01*
X156690374Y-103341708D01*
X156674500Y-103462272D01*
X156674500Y-103687727D01*
X156681114Y-103737958D01*
X156689043Y-103798188D01*
X156690374Y-103808292D01*
X156687399Y-103808683D01*
X156687399Y-103841316D01*
X156690374Y-103841708D01*
X156674500Y-103962272D01*
X156674500Y-104187727D01*
X156690374Y-104308292D01*
X156687399Y-104308683D01*
X156687399Y-104341316D01*
X156690374Y-104341708D01*
X156674500Y-104462272D01*
X156674500Y-104687727D01*
X156690374Y-104808292D01*
X156687399Y-104808683D01*
X156687399Y-104841316D01*
X156690374Y-104841708D01*
X156689313Y-104849762D01*
X156689313Y-104849764D01*
X156687391Y-104864361D01*
X156674500Y-104962272D01*
X156674500Y-105187727D01*
X156690374Y-105308292D01*
X156687399Y-105308683D01*
X156687399Y-105341316D01*
X156690374Y-105341708D01*
X156674500Y-105462272D01*
X156674500Y-105687727D01*
X156685499Y-105771271D01*
X156688018Y-105790403D01*
X156690374Y-105808292D01*
X156687399Y-105808683D01*
X156687399Y-105841316D01*
X156690374Y-105841708D01*
X156674500Y-105962272D01*
X156674500Y-106187727D01*
X156682230Y-106246435D01*
X156688920Y-106297254D01*
X156690374Y-106308292D01*
X156687399Y-106308683D01*
X156687399Y-106341316D01*
X156690374Y-106341708D01*
X156674500Y-106462272D01*
X156674500Y-106687727D01*
X156690374Y-106808293D01*
X156688593Y-106808527D01*
X156690804Y-106842270D01*
X156679911Y-106924999D01*
X156681801Y-106927154D01*
X156741503Y-106944685D01*
X156772838Y-106973512D01*
X156792791Y-106999515D01*
X156817984Y-107064684D01*
X156803945Y-107133129D01*
X156792791Y-107150484D01*
X156772839Y-107176486D01*
X156716413Y-107217689D01*
X156680894Y-107223879D01*
X156679911Y-107225000D01*
X156690804Y-107307729D01*
X156688595Y-107341472D01*
X156690374Y-107341707D01*
X156689313Y-107349763D01*
X156689313Y-107349764D01*
X156687071Y-107366792D01*
X156674500Y-107462272D01*
X156674500Y-107687727D01*
X156690374Y-107808292D01*
X156687399Y-107808683D01*
X156687399Y-107841316D01*
X156690374Y-107841708D01*
X156674500Y-107962272D01*
X156674500Y-108187727D01*
X156690374Y-108308292D01*
X156687399Y-108308683D01*
X156687399Y-108341316D01*
X156690374Y-108341708D01*
X156674500Y-108462272D01*
X156674500Y-108687727D01*
X156690374Y-108808292D01*
X156687399Y-108808683D01*
X156687399Y-108841316D01*
X156690374Y-108841708D01*
X156674500Y-108962272D01*
X156674500Y-109187727D01*
X156690374Y-109308292D01*
X156687399Y-109308683D01*
X156687399Y-109341316D01*
X156690374Y-109341708D01*
X156674500Y-109462272D01*
X156674500Y-109687727D01*
X156690374Y-109808292D01*
X156687399Y-109808683D01*
X156687399Y-109841316D01*
X156690374Y-109841708D01*
X156674500Y-109962272D01*
X156674500Y-110187727D01*
X156690374Y-110308292D01*
X156687399Y-110308683D01*
X156687399Y-110341316D01*
X156690374Y-110341708D01*
X156674500Y-110462272D01*
X156674500Y-110687727D01*
X156687461Y-110786171D01*
X156689313Y-110800236D01*
X156747302Y-110940233D01*
X156839549Y-111060451D01*
X156959767Y-111152698D01*
X157099764Y-111210687D01*
X157212280Y-111225500D01*
X157212287Y-111225500D01*
X158687713Y-111225500D01*
X158687720Y-111225500D01*
X158800236Y-111210687D01*
X158862396Y-111184938D01*
X158909849Y-111175500D01*
X159059903Y-111175500D01*
X159126942Y-111195185D01*
X159147584Y-111211819D01*
X160798181Y-112862416D01*
X160831666Y-112923739D01*
X160834500Y-112950097D01*
X160834500Y-115013330D01*
X160834499Y-115013348D01*
X160834499Y-115179054D01*
X160834498Y-115179054D01*
X160834499Y-115179057D01*
X160875423Y-115331785D01*
X160875424Y-115331786D01*
X160891468Y-115359577D01*
X160891469Y-115359578D01*
X160954475Y-115468709D01*
X160954481Y-115468717D01*
X161073349Y-115587585D01*
X161073355Y-115587590D01*
X162900139Y-117414374D01*
X162900149Y-117414385D01*
X162904479Y-117418715D01*
X162904480Y-117418716D01*
X163016284Y-117530520D01*
X163016286Y-117530521D01*
X163016290Y-117530524D01*
X163094192Y-117575500D01*
X163153216Y-117609577D01*
X163265019Y-117639534D01*
X163305942Y-117650500D01*
X163305943Y-117650500D01*
X166823331Y-117650500D01*
X166823347Y-117650501D01*
X166830943Y-117650501D01*
X166989054Y-117650501D01*
X166989057Y-117650501D01*
X167141785Y-117609577D01*
X167200806Y-117575501D01*
X167278716Y-117530520D01*
X167390520Y-117418716D01*
X167390520Y-117418714D01*
X167400724Y-117408511D01*
X167400728Y-117408506D01*
X167663504Y-117145729D01*
X167663514Y-117145722D01*
X167707417Y-117101819D01*
X167768740Y-117068333D01*
X167795099Y-117065499D01*
X168202871Y-117065499D01*
X168202872Y-117065499D01*
X168262483Y-117059091D01*
X168397331Y-117008796D01*
X168461189Y-116960991D01*
X168526652Y-116936574D01*
X168594925Y-116951425D01*
X168644331Y-117000830D01*
X168659500Y-117060258D01*
X168659500Y-123050500D01*
X168639815Y-123117539D01*
X168587011Y-123163294D01*
X168535500Y-123174500D01*
X166740768Y-123174500D01*
X166673729Y-123154815D01*
X166627974Y-123102011D01*
X166618030Y-123032853D01*
X166647055Y-122969297D01*
X166700909Y-122933081D01*
X166847888Y-122883187D01*
X167112406Y-122752741D01*
X167112419Y-122752734D01*
X167357648Y-122588877D01*
X167391039Y-122559593D01*
X166567737Y-121736290D01*
X166701602Y-121639033D01*
X166824033Y-121516602D01*
X166921290Y-121382737D01*
X167744593Y-122206039D01*
X167773877Y-122172648D01*
X167937734Y-121927419D01*
X167937741Y-121927406D01*
X168068187Y-121662888D01*
X168162994Y-121383599D01*
X168162998Y-121383584D01*
X168220535Y-121094324D01*
X168220537Y-121094312D01*
X168239827Y-120800000D01*
X168220537Y-120505687D01*
X168220535Y-120505675D01*
X168162998Y-120216415D01*
X168162994Y-120216400D01*
X168068187Y-119937111D01*
X167937741Y-119672593D01*
X167937734Y-119672580D01*
X167773876Y-119427350D01*
X167744593Y-119393958D01*
X166921289Y-120217261D01*
X166824033Y-120083398D01*
X166701602Y-119960967D01*
X166567736Y-119863709D01*
X167391040Y-119040405D01*
X167357649Y-119011123D01*
X167112419Y-118847265D01*
X167112406Y-118847258D01*
X166847888Y-118716812D01*
X166568599Y-118622005D01*
X166568584Y-118622001D01*
X166279324Y-118564464D01*
X166279312Y-118564462D01*
X165985000Y-118545172D01*
X165690687Y-118564462D01*
X165690675Y-118564464D01*
X165401415Y-118622001D01*
X165401400Y-118622005D01*
X165122111Y-118716812D01*
X164857593Y-118847258D01*
X164857580Y-118847265D01*
X164612346Y-119011126D01*
X164612339Y-119011131D01*
X164578959Y-119040403D01*
X164578959Y-119040405D01*
X165402263Y-119863709D01*
X165268398Y-119960967D01*
X165145967Y-120083398D01*
X165048709Y-120217263D01*
X164225405Y-119393959D01*
X164225403Y-119393959D01*
X164196131Y-119427339D01*
X164196126Y-119427346D01*
X164032265Y-119672580D01*
X164032258Y-119672593D01*
X163901812Y-119937111D01*
X163807005Y-120216400D01*
X163807001Y-120216415D01*
X163749464Y-120505675D01*
X163749462Y-120505687D01*
X163730172Y-120800000D01*
X163749462Y-121094312D01*
X163749464Y-121094324D01*
X163807001Y-121383584D01*
X163807005Y-121383599D01*
X163901812Y-121662888D01*
X164032258Y-121927406D01*
X164032265Y-121927419D01*
X164196123Y-122172649D01*
X164225405Y-122206040D01*
X165048708Y-121382736D01*
X165145967Y-121516602D01*
X165268398Y-121639033D01*
X165402262Y-121736290D01*
X164578958Y-122559593D01*
X164612350Y-122588876D01*
X164857580Y-122752734D01*
X164857593Y-122752741D01*
X165122111Y-122883187D01*
X165269091Y-122933081D01*
X165326245Y-122973270D01*
X165352598Y-123037979D01*
X165339784Y-123106664D01*
X165291870Y-123157517D01*
X165229232Y-123174500D01*
X162028362Y-123174500D01*
X161961323Y-123154815D01*
X161915568Y-123102011D01*
X161905624Y-123032853D01*
X161934649Y-122969297D01*
X161957239Y-122948925D01*
X161979866Y-122933081D01*
X162036401Y-122893495D01*
X162203495Y-122726401D01*
X162339035Y-122532830D01*
X162438903Y-122318663D01*
X162500063Y-122090408D01*
X162520659Y-121855000D01*
X162500063Y-121619592D01*
X162438903Y-121391337D01*
X162339035Y-121177171D01*
X162281026Y-121094324D01*
X162203494Y-120983597D01*
X162036402Y-120816506D01*
X162036396Y-120816501D01*
X161850842Y-120686575D01*
X161807217Y-120631998D01*
X161800023Y-120562500D01*
X161831546Y-120500145D01*
X161850842Y-120483425D01*
X161873026Y-120467891D01*
X162036401Y-120353495D01*
X162203495Y-120186401D01*
X162339035Y-119992830D01*
X162438903Y-119778663D01*
X162500063Y-119550408D01*
X162520659Y-119315000D01*
X162500063Y-119079592D01*
X162438903Y-118851337D01*
X162339035Y-118637171D01*
X162288126Y-118564464D01*
X162203494Y-118443597D01*
X162036402Y-118276506D01*
X162036395Y-118276501D01*
X161842831Y-118140965D01*
X161842826Y-118140962D01*
X161837091Y-118138288D01*
X161784653Y-118092113D01*
X161765500Y-118025908D01*
X161765500Y-117520945D01*
X161765500Y-117520943D01*
X161764903Y-117518716D01*
X161747970Y-117455519D01*
X161724577Y-117368216D01*
X161724573Y-117368209D01*
X161645524Y-117231290D01*
X161645521Y-117231286D01*
X161645520Y-117231284D01*
X161533716Y-117119480D01*
X161533715Y-117119479D01*
X161529385Y-117115149D01*
X161529374Y-117115139D01*
X161027590Y-116613355D01*
X161027588Y-116613352D01*
X160908717Y-116494481D01*
X160908709Y-116494475D01*
X160803470Y-116433716D01*
X160803469Y-116433715D01*
X160803469Y-116433716D01*
X160771785Y-116415423D01*
X160619057Y-116374499D01*
X160460943Y-116374499D01*
X160453347Y-116374499D01*
X160453331Y-116374500D01*
X159710097Y-116374500D01*
X159643058Y-116354815D01*
X159622416Y-116338181D01*
X156700876Y-113416641D01*
X156667391Y-113355318D01*
X156665618Y-113312779D01*
X156675500Y-113237720D01*
X156675500Y-111762280D01*
X156660687Y-111649764D01*
X156602698Y-111509767D01*
X156510451Y-111389549D01*
X156390233Y-111297302D01*
X156390229Y-111297300D01*
X156274998Y-111249570D01*
X156250236Y-111239313D01*
X156235698Y-111237399D01*
X156137727Y-111224500D01*
X156137720Y-111224500D01*
X155912280Y-111224500D01*
X155912272Y-111224500D01*
X155825393Y-111235938D01*
X155799764Y-111239313D01*
X155799762Y-111239313D01*
X155791708Y-111240374D01*
X155791316Y-111237399D01*
X155758684Y-111237399D01*
X155758292Y-111240374D01*
X155750237Y-111239313D01*
X155750236Y-111239313D01*
X155721271Y-111235499D01*
X155637727Y-111224500D01*
X155637720Y-111224500D01*
X155412280Y-111224500D01*
X155412272Y-111224500D01*
X155325393Y-111235938D01*
X155299764Y-111239313D01*
X155299762Y-111239313D01*
X155291708Y-111240374D01*
X155291316Y-111237399D01*
X155258684Y-111237399D01*
X155258292Y-111240374D01*
X155250237Y-111239313D01*
X155250236Y-111239313D01*
X155221271Y-111235499D01*
X155137727Y-111224500D01*
X155137720Y-111224500D01*
X154912280Y-111224500D01*
X154912272Y-111224500D01*
X154825393Y-111235938D01*
X154799764Y-111239313D01*
X154799762Y-111239313D01*
X154791708Y-111240374D01*
X154791316Y-111237399D01*
X154758684Y-111237399D01*
X154758292Y-111240374D01*
X154750237Y-111239313D01*
X154750236Y-111239313D01*
X154721271Y-111235499D01*
X154637727Y-111224500D01*
X154637720Y-111224500D01*
X154412280Y-111224500D01*
X154412272Y-111224500D01*
X154325393Y-111235938D01*
X154299764Y-111239313D01*
X154299762Y-111239313D01*
X154291708Y-111240374D01*
X154291316Y-111237399D01*
X154258684Y-111237399D01*
X154258292Y-111240374D01*
X154250237Y-111239313D01*
X154250236Y-111239313D01*
X154221271Y-111235499D01*
X154137727Y-111224500D01*
X154137720Y-111224500D01*
X153912280Y-111224500D01*
X153912272Y-111224500D01*
X153825393Y-111235938D01*
X153799764Y-111239313D01*
X153799762Y-111239313D01*
X153791708Y-111240374D01*
X153791316Y-111237399D01*
X153758684Y-111237399D01*
X153758292Y-111240374D01*
X153750237Y-111239313D01*
X153750236Y-111239313D01*
X153721271Y-111235499D01*
X153637727Y-111224500D01*
X153637720Y-111224500D01*
X153412280Y-111224500D01*
X153412272Y-111224500D01*
X153325393Y-111235938D01*
X153299764Y-111239313D01*
X153299762Y-111239313D01*
X153291708Y-111240374D01*
X153291316Y-111237399D01*
X153258684Y-111237399D01*
X153258292Y-111240374D01*
X153250237Y-111239313D01*
X153250236Y-111239313D01*
X153221271Y-111235499D01*
X153137727Y-111224500D01*
X153137720Y-111224500D01*
X152912280Y-111224500D01*
X152912272Y-111224500D01*
X152825393Y-111235938D01*
X152799764Y-111239313D01*
X152799762Y-111239313D01*
X152791708Y-111240374D01*
X152791316Y-111237399D01*
X152758684Y-111237399D01*
X152758292Y-111240374D01*
X152750237Y-111239313D01*
X152750236Y-111239313D01*
X152721271Y-111235499D01*
X152637727Y-111224500D01*
X152637720Y-111224500D01*
X152412280Y-111224500D01*
X152412272Y-111224500D01*
X152325393Y-111235938D01*
X152299764Y-111239313D01*
X152299762Y-111239313D01*
X152291708Y-111240374D01*
X152291316Y-111237399D01*
X152258684Y-111237399D01*
X152258292Y-111240374D01*
X152250237Y-111239313D01*
X152250236Y-111239313D01*
X152221271Y-111235499D01*
X152137727Y-111224500D01*
X152137720Y-111224500D01*
X151912280Y-111224500D01*
X151912272Y-111224500D01*
X151825393Y-111235938D01*
X151799764Y-111239313D01*
X151799762Y-111239313D01*
X151791708Y-111240374D01*
X151791316Y-111237399D01*
X151758684Y-111237399D01*
X151758292Y-111240374D01*
X151750237Y-111239313D01*
X151750236Y-111239313D01*
X151721271Y-111235499D01*
X151637727Y-111224500D01*
X151637720Y-111224500D01*
X151412280Y-111224500D01*
X151412272Y-111224500D01*
X151325393Y-111235938D01*
X151299764Y-111239313D01*
X151299762Y-111239313D01*
X151291708Y-111240374D01*
X151291316Y-111237399D01*
X151258684Y-111237399D01*
X151258292Y-111240374D01*
X151250237Y-111239313D01*
X151250236Y-111239313D01*
X151221271Y-111235499D01*
X151137727Y-111224500D01*
X151137720Y-111224500D01*
X150912280Y-111224500D01*
X150912272Y-111224500D01*
X150825393Y-111235938D01*
X150799764Y-111239313D01*
X150799762Y-111239313D01*
X150791708Y-111240374D01*
X150791316Y-111237399D01*
X150758684Y-111237399D01*
X150758292Y-111240374D01*
X150750237Y-111239313D01*
X150750236Y-111239313D01*
X150721271Y-111235499D01*
X150637727Y-111224500D01*
X150637720Y-111224500D01*
X150412280Y-111224500D01*
X150412272Y-111224500D01*
X150325393Y-111235938D01*
X150299764Y-111239313D01*
X150299762Y-111239313D01*
X150291708Y-111240374D01*
X150291316Y-111237399D01*
X150258684Y-111237399D01*
X150258292Y-111240374D01*
X150250237Y-111239313D01*
X150250236Y-111239313D01*
X150221271Y-111235499D01*
X150137727Y-111224500D01*
X150137720Y-111224500D01*
X149912280Y-111224500D01*
X149912272Y-111224500D01*
X149825393Y-111235938D01*
X149799764Y-111239313D01*
X149799762Y-111239313D01*
X149791708Y-111240374D01*
X149791316Y-111237399D01*
X149758684Y-111237399D01*
X149758292Y-111240374D01*
X149750237Y-111239313D01*
X149750236Y-111239313D01*
X149721271Y-111235499D01*
X149637727Y-111224500D01*
X149637720Y-111224500D01*
X149412280Y-111224500D01*
X149412272Y-111224500D01*
X149325393Y-111235938D01*
X149299764Y-111239313D01*
X149299762Y-111239313D01*
X149291708Y-111240374D01*
X149291316Y-111237399D01*
X149258684Y-111237399D01*
X149258292Y-111240374D01*
X149250237Y-111239313D01*
X149250236Y-111239313D01*
X149221271Y-111235499D01*
X149137727Y-111224500D01*
X149137720Y-111224500D01*
X148912280Y-111224500D01*
X148912272Y-111224500D01*
X148825393Y-111235938D01*
X148799764Y-111239313D01*
X148799762Y-111239313D01*
X148791708Y-111240374D01*
X148791316Y-111237399D01*
X148758684Y-111237399D01*
X148758292Y-111240374D01*
X148750237Y-111239313D01*
X148750236Y-111239313D01*
X148721271Y-111235499D01*
X148637727Y-111224500D01*
X148637720Y-111224500D01*
X148412280Y-111224500D01*
X148412272Y-111224500D01*
X148299764Y-111239313D01*
X148299763Y-111239313D01*
X148159770Y-111297300D01*
X148159767Y-111297301D01*
X148159767Y-111297302D01*
X148039549Y-111389549D01*
X147966706Y-111484480D01*
X147947300Y-111509770D01*
X147889313Y-111649763D01*
X147889313Y-111649764D01*
X147874500Y-111762272D01*
X147874500Y-113237727D01*
X147884381Y-113312773D01*
X147889313Y-113350236D01*
X147914239Y-113410413D01*
X147915061Y-113412396D01*
X147924500Y-113459849D01*
X147924500Y-113619217D01*
X147904815Y-113686256D01*
X147888181Y-113706898D01*
X145931898Y-115663181D01*
X145870575Y-115696666D01*
X145844217Y-115699500D01*
X144006214Y-115699500D01*
X143848100Y-115699500D01*
X143695372Y-115740423D01*
X143695371Y-115740423D01*
X143695369Y-115740424D01*
X143695366Y-115740425D01*
X143645253Y-115769359D01*
X143645252Y-115769360D01*
X143601846Y-115794420D01*
X143558442Y-115819479D01*
X143558439Y-115819481D01*
X141629481Y-117748439D01*
X141629477Y-117748444D01*
X141589196Y-117818215D01*
X141589196Y-117818216D01*
X141550423Y-117885371D01*
X141550423Y-117885372D01*
X141509499Y-118038100D01*
X141509499Y-118038102D01*
X141509499Y-118206203D01*
X141509500Y-118206216D01*
X141509500Y-120493330D01*
X141509499Y-120493348D01*
X141509499Y-120659054D01*
X141509498Y-120659054D01*
X141550423Y-120811785D01*
X141561970Y-120831784D01*
X141561972Y-120831787D01*
X141629479Y-120948714D01*
X141629481Y-120948717D01*
X141748349Y-121067585D01*
X141748355Y-121067590D01*
X141998181Y-121317416D01*
X142031666Y-121378739D01*
X142034500Y-121405097D01*
X142034500Y-122752870D01*
X142034501Y-122752876D01*
X142040908Y-122812483D01*
X142091202Y-122947328D01*
X142091204Y-122947331D01*
X142112807Y-122976189D01*
X142137224Y-123041654D01*
X142122372Y-123109927D01*
X142072967Y-123159332D01*
X142013540Y-123174500D01*
X127305036Y-123174500D01*
X127237997Y-123154815D01*
X127192242Y-123102011D01*
X127181036Y-123050298D01*
X127185441Y-120349997D01*
X129549723Y-120349997D01*
X129549723Y-120350002D01*
X129550029Y-120353495D01*
X129567302Y-120550939D01*
X129568793Y-120567975D01*
X129568793Y-120567979D01*
X129625422Y-120779322D01*
X129625424Y-120779326D01*
X129625425Y-120779330D01*
X129649885Y-120831784D01*
X129717897Y-120977638D01*
X129717898Y-120977639D01*
X129843402Y-121156877D01*
X129998123Y-121311598D01*
X130177361Y-121437102D01*
X130375670Y-121529575D01*
X130587023Y-121586207D01*
X130769926Y-121602208D01*
X130804998Y-121605277D01*
X130805000Y-121605277D01*
X130805002Y-121605277D01*
X130833254Y-121602805D01*
X131022977Y-121586207D01*
X131234330Y-121529575D01*
X131432639Y-121437102D01*
X131611877Y-121311598D01*
X131766598Y-121156877D01*
X131892102Y-120977639D01*
X131984575Y-120779330D01*
X132041207Y-120567977D01*
X132059971Y-120353495D01*
X132060277Y-120350002D01*
X132060277Y-120349997D01*
X132056569Y-120307618D01*
X132041207Y-120132023D01*
X132024023Y-120067891D01*
X132025685Y-119998043D01*
X132056114Y-119948119D01*
X132643506Y-119360728D01*
X132643511Y-119360724D01*
X132653714Y-119350520D01*
X132653716Y-119350520D01*
X132765520Y-119238716D01*
X132817028Y-119149500D01*
X132844577Y-119101785D01*
X132885500Y-118949057D01*
X132885500Y-118790943D01*
X132885500Y-116730300D01*
X132905185Y-116663261D01*
X132957989Y-116617506D01*
X132970482Y-116612599D01*
X133054334Y-116584814D01*
X133203656Y-116492712D01*
X133259819Y-116436549D01*
X133321142Y-116403064D01*
X133390834Y-116408048D01*
X133435181Y-116436549D01*
X133491344Y-116492712D01*
X133640666Y-116584814D01*
X133724505Y-116612595D01*
X133781948Y-116652366D01*
X133808772Y-116716882D01*
X133809500Y-116730300D01*
X133809500Y-118988330D01*
X133809499Y-118988348D01*
X133809499Y-119154054D01*
X133809498Y-119154054D01*
X133850423Y-119306785D01*
X133855166Y-119315000D01*
X133929477Y-119443712D01*
X133929481Y-119443717D01*
X134048349Y-119562585D01*
X134048355Y-119562590D01*
X134433882Y-119948117D01*
X134467367Y-120009440D01*
X134465976Y-120067889D01*
X134448795Y-120132011D01*
X134448792Y-120132029D01*
X134429723Y-120349997D01*
X134429723Y-120350002D01*
X134430029Y-120353495D01*
X134447302Y-120550939D01*
X134448793Y-120567975D01*
X134448793Y-120567979D01*
X134505422Y-120779322D01*
X134505424Y-120779326D01*
X134505425Y-120779330D01*
X134529885Y-120831784D01*
X134597897Y-120977638D01*
X134597898Y-120977639D01*
X134723402Y-121156877D01*
X134878123Y-121311598D01*
X135057361Y-121437102D01*
X135255670Y-121529575D01*
X135467023Y-121586207D01*
X135649926Y-121602208D01*
X135684998Y-121605277D01*
X135685000Y-121605277D01*
X135685002Y-121605277D01*
X135713254Y-121602805D01*
X135902977Y-121586207D01*
X136114330Y-121529575D01*
X136312639Y-121437102D01*
X136491877Y-121311598D01*
X136646598Y-121156877D01*
X136772102Y-120977639D01*
X136864575Y-120779330D01*
X136921207Y-120567977D01*
X136939971Y-120353495D01*
X136940277Y-120350002D01*
X136940277Y-120349997D01*
X136936569Y-120307618D01*
X136921207Y-120132023D01*
X136875373Y-119960967D01*
X136864577Y-119920677D01*
X136864576Y-119920676D01*
X136864575Y-119920670D01*
X136772102Y-119722362D01*
X136772100Y-119722359D01*
X136772099Y-119722357D01*
X136646599Y-119543124D01*
X136646596Y-119543121D01*
X136491877Y-119388402D01*
X136312639Y-119262898D01*
X136312640Y-119262898D01*
X136312638Y-119262897D01*
X136213484Y-119216661D01*
X136114330Y-119170425D01*
X136114326Y-119170424D01*
X136114322Y-119170422D01*
X135902977Y-119113793D01*
X135685002Y-119094723D01*
X135684998Y-119094723D01*
X135467029Y-119113792D01*
X135467011Y-119113795D01*
X135402889Y-119130976D01*
X135333039Y-119129312D01*
X135283117Y-119098882D01*
X135046819Y-118862584D01*
X135013334Y-118801261D01*
X135010500Y-118774903D01*
X135010500Y-116730300D01*
X135030185Y-116663261D01*
X135082989Y-116617506D01*
X135095482Y-116612599D01*
X135179334Y-116584814D01*
X135328656Y-116492712D01*
X135452712Y-116368656D01*
X135544814Y-116219334D01*
X135599999Y-116052797D01*
X135610500Y-115950009D01*
X135610499Y-115324992D01*
X135599999Y-115222203D01*
X135544814Y-115055666D01*
X135452712Y-114906344D01*
X135359049Y-114812681D01*
X135325564Y-114751358D01*
X135330548Y-114681666D01*
X135359049Y-114637319D01*
X135373699Y-114622669D01*
X135452712Y-114543656D01*
X135544814Y-114394334D01*
X135599999Y-114227797D01*
X135610500Y-114125009D01*
X135610499Y-113499992D01*
X135605521Y-113451265D01*
X135599999Y-113397203D01*
X135599998Y-113397200D01*
X135590578Y-113368773D01*
X135544814Y-113230666D01*
X135452712Y-113081344D01*
X135328656Y-112957288D01*
X135244597Y-112905440D01*
X135197874Y-112853493D01*
X135186651Y-112784530D01*
X135214495Y-112720448D01*
X135222006Y-112712228D01*
X135397418Y-112536818D01*
X135458742Y-112503334D01*
X135485099Y-112500500D01*
X135874771Y-112500500D01*
X135941810Y-112520185D01*
X135987565Y-112572989D01*
X135997509Y-112642147D01*
X135987153Y-112676904D01*
X135971099Y-112711330D01*
X135971094Y-112711344D01*
X135909938Y-112939586D01*
X135909936Y-112939596D01*
X135889341Y-113174999D01*
X135889341Y-113175000D01*
X135909936Y-113410403D01*
X135909938Y-113410413D01*
X135971094Y-113638655D01*
X135971096Y-113638659D01*
X135971097Y-113638663D01*
X135975000Y-113647032D01*
X136070965Y-113852830D01*
X136070967Y-113852834D01*
X136165876Y-113988377D01*
X136206501Y-114046396D01*
X136206506Y-114046402D01*
X136373597Y-114213493D01*
X136373603Y-114213498D01*
X136559158Y-114343425D01*
X136602783Y-114398002D01*
X136609977Y-114467500D01*
X136578454Y-114529855D01*
X136559158Y-114546575D01*
X136373597Y-114676505D01*
X136206505Y-114843597D01*
X136070965Y-115037169D01*
X136070964Y-115037171D01*
X135971098Y-115251335D01*
X135971094Y-115251344D01*
X135909938Y-115479586D01*
X135909936Y-115479596D01*
X135889341Y-115714999D01*
X135889341Y-115715000D01*
X135909936Y-115950403D01*
X135909938Y-115950413D01*
X135971094Y-116178655D01*
X135971096Y-116178659D01*
X135971097Y-116178663D01*
X136059693Y-116368657D01*
X136070965Y-116392830D01*
X136070967Y-116392834D01*
X136142141Y-116494480D01*
X136206505Y-116586401D01*
X136373599Y-116753495D01*
X136450485Y-116807331D01*
X136567165Y-116889032D01*
X136567167Y-116889033D01*
X136567170Y-116889035D01*
X136781337Y-116988903D01*
X137009592Y-117050063D01*
X137197918Y-117066539D01*
X137244999Y-117070659D01*
X137245000Y-117070659D01*
X137245001Y-117070659D01*
X137284234Y-117067226D01*
X137480408Y-117050063D01*
X137708663Y-116988903D01*
X137922830Y-116889035D01*
X138116401Y-116753495D01*
X138283495Y-116586401D01*
X138413425Y-116400842D01*
X138468002Y-116357217D01*
X138537500Y-116350023D01*
X138599855Y-116381546D01*
X138616575Y-116400842D01*
X138746500Y-116586395D01*
X138746505Y-116586401D01*
X138913599Y-116753495D01*
X138990485Y-116807331D01*
X139107165Y-116889032D01*
X139107167Y-116889033D01*
X139107170Y-116889035D01*
X139321337Y-116988903D01*
X139549592Y-117050063D01*
X139737918Y-117066539D01*
X139784999Y-117070659D01*
X139785000Y-117070659D01*
X139785001Y-117070659D01*
X139824234Y-117067226D01*
X140020408Y-117050063D01*
X140248663Y-116988903D01*
X140462830Y-116889035D01*
X140656401Y-116753495D01*
X140823495Y-116586401D01*
X140959035Y-116392830D01*
X140961709Y-116387096D01*
X141007881Y-116334657D01*
X141074091Y-116315501D01*
X141214054Y-116315501D01*
X141214057Y-116315501D01*
X141366785Y-116274577D01*
X141436233Y-116234481D01*
X141503716Y-116195520D01*
X141615520Y-116083716D01*
X141615520Y-116083714D01*
X141625724Y-116073511D01*
X141625728Y-116073506D01*
X145253713Y-112445521D01*
X145253716Y-112445520D01*
X145365520Y-112333716D01*
X145415639Y-112246904D01*
X145444577Y-112196785D01*
X145485501Y-112044057D01*
X145485501Y-111885943D01*
X145485501Y-111878348D01*
X145485500Y-111878330D01*
X145485500Y-111475096D01*
X145505185Y-111408057D01*
X145521815Y-111387419D01*
X145661266Y-111247967D01*
X145722589Y-111214483D01*
X145765130Y-111212710D01*
X145862280Y-111225500D01*
X145862287Y-111225500D01*
X147337713Y-111225500D01*
X147337720Y-111225500D01*
X147450236Y-111210687D01*
X147590233Y-111152698D01*
X147710451Y-111060451D01*
X147802698Y-110940233D01*
X147860687Y-110800236D01*
X147875500Y-110687720D01*
X147875500Y-110462280D01*
X147860687Y-110349764D01*
X147860686Y-110349763D01*
X147859626Y-110341705D01*
X147862689Y-110341301D01*
X147862689Y-110308698D01*
X147859626Y-110308295D01*
X147860687Y-110300236D01*
X147875500Y-110187720D01*
X147875500Y-109962280D01*
X147860687Y-109849764D01*
X147860686Y-109849763D01*
X147859626Y-109841705D01*
X147862689Y-109841301D01*
X147862689Y-109808698D01*
X147859626Y-109808295D01*
X147865510Y-109763599D01*
X147875500Y-109687720D01*
X147875500Y-109462280D01*
X147860687Y-109349764D01*
X147860686Y-109349763D01*
X147859626Y-109341705D01*
X147862689Y-109341301D01*
X147862689Y-109308698D01*
X147859626Y-109308295D01*
X147863332Y-109280145D01*
X147875500Y-109187720D01*
X147875500Y-108962280D01*
X147860687Y-108849764D01*
X147860686Y-108849763D01*
X147859626Y-108841705D01*
X147862689Y-108841301D01*
X147862689Y-108808698D01*
X147859626Y-108808295D01*
X147863375Y-108779815D01*
X147875500Y-108687720D01*
X147875500Y-108462280D01*
X147860687Y-108349764D01*
X147860686Y-108349763D01*
X147859626Y-108341705D01*
X147862689Y-108341301D01*
X147862689Y-108308698D01*
X147859626Y-108308295D01*
X147864337Y-108272511D01*
X147875500Y-108187720D01*
X147875500Y-107962280D01*
X147860687Y-107849764D01*
X147860686Y-107849763D01*
X147859626Y-107841705D01*
X147861406Y-107841470D01*
X147859196Y-107807729D01*
X147870088Y-107725000D01*
X147868198Y-107722845D01*
X147808498Y-107705315D01*
X147777162Y-107676488D01*
X147757211Y-107650488D01*
X147732016Y-107585319D01*
X147746054Y-107516874D01*
X147757211Y-107499512D01*
X147760532Y-107495185D01*
X147777162Y-107473512D01*
X147833590Y-107432310D01*
X147869105Y-107426120D01*
X147870088Y-107424999D01*
X147859196Y-107342270D01*
X147861409Y-107308529D01*
X147859626Y-107308295D01*
X147863137Y-107281623D01*
X147875500Y-107187720D01*
X147875500Y-106962280D01*
X147860687Y-106849764D01*
X147860686Y-106849763D01*
X147859626Y-106841705D01*
X147862689Y-106841301D01*
X147862689Y-106808698D01*
X147859626Y-106808295D01*
X147864009Y-106775000D01*
X147875500Y-106687720D01*
X147875500Y-106462280D01*
X147860687Y-106349764D01*
X147860686Y-106349763D01*
X147859626Y-106341705D01*
X147862689Y-106341301D01*
X147862689Y-106308698D01*
X147859626Y-106308295D01*
X147868506Y-106240842D01*
X147875500Y-106187720D01*
X147875500Y-105962280D01*
X147860687Y-105849764D01*
X147860686Y-105849763D01*
X147859626Y-105841705D01*
X147862689Y-105841301D01*
X147862689Y-105808698D01*
X147859626Y-105808295D01*
X147861981Y-105790408D01*
X147875500Y-105687720D01*
X147875500Y-105462280D01*
X147860687Y-105349764D01*
X147860686Y-105349763D01*
X147859626Y-105341705D01*
X147862689Y-105341301D01*
X147862689Y-105308698D01*
X147859626Y-105308295D01*
X147864009Y-105275000D01*
X147875500Y-105187720D01*
X147875500Y-104962280D01*
X147860687Y-104849764D01*
X147860686Y-104849763D01*
X147859626Y-104841705D01*
X147862689Y-104841301D01*
X147862689Y-104808698D01*
X147859626Y-104808295D01*
X147864307Y-104772738D01*
X147875500Y-104687720D01*
X147875500Y-104462280D01*
X147860687Y-104349764D01*
X147860686Y-104349763D01*
X147859626Y-104341705D01*
X147862689Y-104341301D01*
X147862689Y-104308698D01*
X147859626Y-104308295D01*
X147868880Y-104238002D01*
X147875500Y-104187720D01*
X147875500Y-103962280D01*
X147860687Y-103849764D01*
X147860686Y-103849763D01*
X147859626Y-103841705D01*
X147862689Y-103841301D01*
X147862689Y-103808698D01*
X147859626Y-103808295D01*
X147860957Y-103798188D01*
X147875500Y-103687720D01*
X147875500Y-103462280D01*
X147860687Y-103349764D01*
X147860686Y-103349763D01*
X147859626Y-103341705D01*
X147862689Y-103341301D01*
X147862689Y-103308698D01*
X147859626Y-103308295D01*
X147867247Y-103250408D01*
X147875500Y-103187720D01*
X147875500Y-102962280D01*
X147860687Y-102849764D01*
X147802698Y-102709767D01*
X147710451Y-102589549D01*
X147590233Y-102497302D01*
X147590229Y-102497300D01*
X147526801Y-102471027D01*
X147450236Y-102439313D01*
X147429219Y-102436546D01*
X147337727Y-102424500D01*
X147337720Y-102424500D01*
X145862280Y-102424500D01*
X145862275Y-102424500D01*
X145862267Y-102424501D01*
X145831406Y-102428564D01*
X145762371Y-102417798D01*
X145727541Y-102393306D01*
X143996819Y-100662584D01*
X143963334Y-100601261D01*
X143960500Y-100574903D01*
X143960500Y-98945944D01*
X143960499Y-98945938D01*
X143956550Y-98931202D01*
X143953436Y-98919577D01*
X143919577Y-98793215D01*
X143876565Y-98718716D01*
X143840520Y-98656284D01*
X143728716Y-98544480D01*
X143728715Y-98544479D01*
X143724385Y-98540149D01*
X143724374Y-98540139D01*
X141247590Y-96063355D01*
X141247588Y-96063352D01*
X141128716Y-95944480D01*
X141128714Y-95944479D01*
X141063429Y-95906787D01*
X141022601Y-95883215D01*
X141022600Y-95883214D01*
X141000041Y-95870190D01*
X140991785Y-95865423D01*
X140991784Y-95865422D01*
X140991783Y-95865422D01*
X140935881Y-95850443D01*
X140839057Y-95824499D01*
X140680943Y-95824499D01*
X140673347Y-95824499D01*
X140673331Y-95824500D01*
X138675940Y-95824500D01*
X138635019Y-95835464D01*
X138635019Y-95835465D01*
X138597751Y-95845451D01*
X138523214Y-95865423D01*
X138523209Y-95865426D01*
X138386290Y-95944475D01*
X138386284Y-95944480D01*
X138274478Y-96056286D01*
X137782582Y-96548181D01*
X137721259Y-96581666D01*
X137694901Y-96584500D01*
X136347129Y-96584500D01*
X136347123Y-96584501D01*
X136287516Y-96590908D01*
X136152671Y-96641202D01*
X136152664Y-96641206D01*
X136037455Y-96727452D01*
X136037452Y-96727455D01*
X135951206Y-96842664D01*
X135951202Y-96842671D01*
X135900908Y-96977517D01*
X135894501Y-97037116D01*
X135894500Y-97037135D01*
X135894500Y-98832870D01*
X135894501Y-98832876D01*
X135900908Y-98892483D01*
X135951202Y-99027328D01*
X135951206Y-99027335D01*
X136037452Y-99142544D01*
X136037455Y-99142547D01*
X136152664Y-99228793D01*
X136152671Y-99228797D01*
X136284081Y-99277810D01*
X136340015Y-99319681D01*
X136364432Y-99385145D01*
X136349580Y-99453418D01*
X136328430Y-99481673D01*
X136206503Y-99603600D01*
X136070965Y-99797169D01*
X136070964Y-99797171D01*
X135971098Y-100011335D01*
X135971094Y-100011344D01*
X135909938Y-100239586D01*
X135909936Y-100239596D01*
X135889341Y-100474999D01*
X135889341Y-100475000D01*
X135909936Y-100710403D01*
X135909938Y-100710413D01*
X135971094Y-100938655D01*
X135971096Y-100938659D01*
X135971097Y-100938663D01*
X136061138Y-101131756D01*
X136070965Y-101152830D01*
X136070967Y-101152834D01*
X136165876Y-101288377D01*
X136206501Y-101346396D01*
X136206506Y-101346402D01*
X136373597Y-101513493D01*
X136373603Y-101513498D01*
X136559158Y-101643425D01*
X136602783Y-101698002D01*
X136609977Y-101767500D01*
X136578454Y-101829855D01*
X136559158Y-101846575D01*
X136373597Y-101976505D01*
X136206505Y-102143597D01*
X136070965Y-102337169D01*
X136070964Y-102337171D01*
X135971098Y-102551335D01*
X135971094Y-102551344D01*
X135909938Y-102779586D01*
X135909936Y-102779596D01*
X135889341Y-103014999D01*
X135889341Y-103015000D01*
X135909936Y-103250403D01*
X135909938Y-103250413D01*
X135971094Y-103478655D01*
X135971096Y-103478659D01*
X135971097Y-103478663D01*
X136062418Y-103674500D01*
X136070965Y-103692830D01*
X136070967Y-103692834D01*
X136165876Y-103828377D01*
X136206501Y-103886396D01*
X136206506Y-103886402D01*
X136373597Y-104053493D01*
X136373603Y-104053498D01*
X136559158Y-104183425D01*
X136602783Y-104238002D01*
X136609977Y-104307500D01*
X136578454Y-104369855D01*
X136559158Y-104386575D01*
X136373597Y-104516505D01*
X136206505Y-104683597D01*
X136070965Y-104877169D01*
X136070964Y-104877171D01*
X135971098Y-105091335D01*
X135971094Y-105091344D01*
X135909938Y-105319586D01*
X135909936Y-105319596D01*
X135889341Y-105554999D01*
X135889341Y-105555000D01*
X135909936Y-105790403D01*
X135909938Y-105790413D01*
X135971094Y-106018655D01*
X135971096Y-106018659D01*
X135971097Y-106018663D01*
X136043765Y-106174500D01*
X136070965Y-106232830D01*
X136070967Y-106232834D01*
X136146917Y-106341301D01*
X136206501Y-106426396D01*
X136206506Y-106426402D01*
X136373597Y-106593493D01*
X136373603Y-106593498D01*
X136559158Y-106723425D01*
X136602783Y-106778002D01*
X136609977Y-106847500D01*
X136578454Y-106909855D01*
X136559158Y-106926575D01*
X136373597Y-107056505D01*
X136206505Y-107223597D01*
X136070965Y-107417169D01*
X136070964Y-107417171D01*
X135971098Y-107631335D01*
X135971094Y-107631344D01*
X135909938Y-107859586D01*
X135909936Y-107859596D01*
X135889341Y-108094999D01*
X135889341Y-108095000D01*
X135909936Y-108330403D01*
X135909938Y-108330413D01*
X135971094Y-108558655D01*
X135971096Y-108558659D01*
X135971097Y-108558663D01*
X136060086Y-108749500D01*
X136070965Y-108772830D01*
X136070967Y-108772834D01*
X136165876Y-108908377D01*
X136206501Y-108966396D01*
X136206506Y-108966402D01*
X136373597Y-109133493D01*
X136373603Y-109133498D01*
X136559158Y-109263425D01*
X136602783Y-109318002D01*
X136609977Y-109387500D01*
X136578454Y-109449855D01*
X136559158Y-109466575D01*
X136373597Y-109596505D01*
X136206506Y-109763596D01*
X136070965Y-109957170D01*
X136070962Y-109957175D01*
X136068289Y-109962909D01*
X136022115Y-110015346D01*
X135955909Y-110034500D01*
X133536670Y-110034500D01*
X133536654Y-110034499D01*
X133529058Y-110034499D01*
X133370943Y-110034499D01*
X133218215Y-110075423D01*
X133218213Y-110075423D01*
X133218213Y-110075424D01*
X133081281Y-110154482D01*
X131804479Y-111431284D01*
X131794611Y-111448377D01*
X131773767Y-111484481D01*
X131725423Y-111568215D01*
X131684499Y-111720943D01*
X131684499Y-111720945D01*
X131684499Y-111889046D01*
X131684500Y-111889059D01*
X131684500Y-112719699D01*
X131664815Y-112786738D01*
X131612011Y-112832493D01*
X131599507Y-112837403D01*
X131566962Y-112848188D01*
X131515668Y-112865185D01*
X131515663Y-112865187D01*
X131366342Y-112957289D01*
X131242289Y-113081342D01*
X131150187Y-113230663D01*
X131150185Y-113230668D01*
X131147847Y-113237725D01*
X131095001Y-113397203D01*
X131095001Y-113397204D01*
X131095000Y-113397204D01*
X131084500Y-113499983D01*
X131084500Y-114125001D01*
X131084501Y-114125019D01*
X131095000Y-114227796D01*
X131095001Y-114227799D01*
X131107280Y-114264853D01*
X131150186Y-114394334D01*
X131240628Y-114540965D01*
X131242289Y-114543657D01*
X131335951Y-114637319D01*
X131369436Y-114698642D01*
X131364452Y-114768334D01*
X131335951Y-114812681D01*
X131242289Y-114906342D01*
X131150187Y-115055663D01*
X131150186Y-115055666D01*
X131095001Y-115222203D01*
X131095001Y-115222204D01*
X131095000Y-115222204D01*
X131084500Y-115324983D01*
X131084500Y-115950001D01*
X131084501Y-115950019D01*
X131095000Y-116052796D01*
X131095001Y-116052799D01*
X131136706Y-116178655D01*
X131150186Y-116219334D01*
X131242288Y-116368656D01*
X131366344Y-116492712D01*
X131515666Y-116584814D01*
X131599505Y-116612595D01*
X131656948Y-116652366D01*
X131683772Y-116716882D01*
X131684500Y-116730300D01*
X131684500Y-118569902D01*
X131664815Y-118636941D01*
X131648181Y-118657583D01*
X131206881Y-119098882D01*
X131145558Y-119132367D01*
X131087108Y-119130976D01*
X131022984Y-119113795D01*
X131022986Y-119113795D01*
X131022977Y-119113793D01*
X131022973Y-119113792D01*
X131022970Y-119113792D01*
X130805002Y-119094723D01*
X130804998Y-119094723D01*
X130659682Y-119107436D01*
X130587023Y-119113793D01*
X130587020Y-119113793D01*
X130375677Y-119170422D01*
X130375668Y-119170426D01*
X130177361Y-119262898D01*
X130177357Y-119262900D01*
X129998121Y-119388402D01*
X129843402Y-119543121D01*
X129717900Y-119722357D01*
X129717898Y-119722361D01*
X129625426Y-119920668D01*
X129625422Y-119920677D01*
X129568793Y-120132020D01*
X129568793Y-120132023D01*
X129564036Y-120186395D01*
X129549723Y-120349997D01*
X127185441Y-120349997D01*
X127189798Y-117678798D01*
X127209592Y-117611790D01*
X127262471Y-117566122D01*
X127313798Y-117555000D01*
X129960000Y-117555000D01*
X129960000Y-93025000D01*
X136280172Y-93025000D01*
X136299462Y-93319312D01*
X136299464Y-93319324D01*
X136357001Y-93608584D01*
X136357005Y-93608599D01*
X136451812Y-93887888D01*
X136582258Y-94152406D01*
X136582265Y-94152419D01*
X136746123Y-94397649D01*
X136775405Y-94431040D01*
X137598708Y-93607736D01*
X137695967Y-93741602D01*
X137818398Y-93864033D01*
X137952262Y-93961290D01*
X137128958Y-94784593D01*
X137162350Y-94813876D01*
X137407580Y-94977734D01*
X137407593Y-94977741D01*
X137672111Y-95108187D01*
X137951400Y-95202994D01*
X137951415Y-95202998D01*
X138240675Y-95260535D01*
X138240687Y-95260537D01*
X138535000Y-95279827D01*
X138829312Y-95260537D01*
X138829324Y-95260535D01*
X139118584Y-95202998D01*
X139118599Y-95202994D01*
X139397888Y-95108187D01*
X139662406Y-94977741D01*
X139662419Y-94977734D01*
X139907648Y-94813877D01*
X139941039Y-94784593D01*
X139117737Y-93961290D01*
X139251602Y-93864033D01*
X139374033Y-93741602D01*
X139471290Y-93607737D01*
X140294593Y-94431039D01*
X140323877Y-94397648D01*
X140487734Y-94152419D01*
X140487741Y-94152406D01*
X140618187Y-93887888D01*
X140712994Y-93608599D01*
X140712998Y-93608584D01*
X140770535Y-93319324D01*
X140770537Y-93319312D01*
X140789827Y-93025000D01*
X140770537Y-92730687D01*
X140770535Y-92730675D01*
X140712998Y-92441415D01*
X140712994Y-92441400D01*
X140618187Y-92162111D01*
X140487741Y-91897593D01*
X140487734Y-91897580D01*
X140323876Y-91652350D01*
X140294593Y-91618958D01*
X139471289Y-92442261D01*
X139374033Y-92308398D01*
X139251602Y-92185967D01*
X139117736Y-92088709D01*
X139941040Y-91265405D01*
X139907649Y-91236123D01*
X139662419Y-91072265D01*
X139662406Y-91072258D01*
X139397888Y-90941812D01*
X139118599Y-90847005D01*
X139118584Y-90847001D01*
X138829324Y-90789464D01*
X138829312Y-90789462D01*
X138535000Y-90770172D01*
X138240687Y-90789462D01*
X138240675Y-90789464D01*
X137951415Y-90847001D01*
X137951400Y-90847005D01*
X137672111Y-90941812D01*
X137407593Y-91072258D01*
X137407580Y-91072265D01*
X137162346Y-91236126D01*
X137162339Y-91236131D01*
X137128959Y-91265403D01*
X137128959Y-91265405D01*
X137952263Y-92088709D01*
X137818398Y-92185967D01*
X137695967Y-92308398D01*
X137598709Y-92442263D01*
X136775405Y-91618959D01*
X136775403Y-91618959D01*
X136746131Y-91652339D01*
X136746126Y-91652346D01*
X136582265Y-91897580D01*
X136582258Y-91897593D01*
X136451812Y-92162111D01*
X136357005Y-92441400D01*
X136357001Y-92441415D01*
X136299464Y-92730675D01*
X136299462Y-92730687D01*
X136280172Y-93025000D01*
X129960000Y-93025000D01*
X129960000Y-80299500D01*
X129979685Y-80232461D01*
X130032489Y-80186706D01*
X130084000Y-80175500D01*
X142308989Y-80175500D01*
X142376028Y-80195185D01*
G37*
%TD.AperFunction*%
%TA.AperFunction,Conductor*%
G36*
X163438811Y-107495185D02*
G01*
X163484566Y-107547989D01*
X163494510Y-107617147D01*
X163491547Y-107631594D01*
X163434364Y-107844999D01*
X163434364Y-107845000D01*
X164331988Y-107845000D01*
X164299075Y-107902007D01*
X164265000Y-108029174D01*
X164265000Y-108160826D01*
X164299075Y-108287993D01*
X164331988Y-108345000D01*
X163434364Y-108345000D01*
X163491567Y-108558486D01*
X163491569Y-108558492D01*
X163521695Y-108623095D01*
X163532187Y-108692172D01*
X163503668Y-108755956D01*
X163445191Y-108794196D01*
X163409313Y-108799500D01*
X163120883Y-108799500D01*
X163053844Y-108779815D01*
X163033202Y-108763181D01*
X162542532Y-108272511D01*
X161957200Y-107687180D01*
X161923716Y-107625858D01*
X161928700Y-107556166D01*
X161970572Y-107500233D01*
X162036036Y-107475816D01*
X162044882Y-107475500D01*
X163371772Y-107475500D01*
X163438811Y-107495185D01*
G37*
%TD.AperFunction*%
%TD*%
M02*
