M48
; DRILL file {KiCad 8.0.3} date 2024-06-07T04:34:56+0800
; FORMAT={-:-/ absolute / inch / decimal}
; #@! TF.CreationDate,2024-06-07T04:34:56+08:00
; #@! TF.GenerationSoftware,Kicad,Pcbnew,8.0.3
; #@! TF.FileFunction,Plated,1,2,PTH
FMAT,2
INCH
; #@! TA.AperFunction,Plated,PTH,ViaDrill
T1C0.0118
; #@! TA.AperFunction,Plated,PTH,ComponentDrill
T2C0.0236
; #@! TA.AperFunction,Plated,PTH,ComponentDrill
T3C0.0315
; #@! TA.AperFunction,Plated,PTH,ComponentDrill
T4C0.0394
; #@! TA.AperFunction,Plated,PTH,ComponentDrill
T5C0.0433
; #@! TA.AperFunction,Plated,PTH,ComponentDrill
T6C0.0866
%
G90
G05
T1
X4.5683Y-4.0778
X4.5683Y-4.2077
X4.5683Y-4.4026
X4.5683Y-4.5738
X4.7545Y-3.7161
X4.7575Y-3.4847
X4.771Y-3.383
X4.8092Y-3.4618
X4.8245Y-3.4951
X4.8518Y-3.4778
X4.8646Y-4.5335
X4.8795Y-3.4691
X4.8803Y-4.2156
X4.8889Y-3.3838
X4.8961Y-4.5335
X4.8995Y-3.6221
X4.9342Y-3.4878
X4.9354Y-4.4567
X4.9903Y-3.6485
X5.0732Y-4.1447
X5.151Y-4.4252
X5.1638Y-3.2549
X5.1638Y-3.5305
X5.1638Y-3.8061
X5.2278Y-4.3061
X5.2858Y-3.9478
X5.3606Y-3.2549
X5.5575Y-3.2549
X5.6933Y-4.2037
X5.8951Y-4.0758
X5.8951Y-4.2982
X5.94Y-3.4994
X6.1283Y-4.0758
X6.1283Y-4.2982
X6.3547Y-4.1959
T3
X5.1498Y-4.7382
X5.3419Y-4.7382
T4
X4.6445Y-4.6299
X4.6445Y-4.8031
X4.7445Y-4.6299
X4.7445Y-4.8031
X4.9713Y-4.1652
X4.9713Y-4.2652
X4.9713Y-4.3652
X5.4033Y-3.8557
X5.4033Y-3.9557
X5.4033Y-4.0557
X5.4033Y-4.1557
X5.4033Y-4.2557
X5.4033Y-4.3557
X5.4033Y-4.4557
X5.4033Y-4.5557
X5.5033Y-3.8557
X5.5033Y-3.9557
X5.5033Y-4.0557
X5.5033Y-4.1557
X5.5033Y-4.2557
X5.5033Y-4.3557
X5.5033Y-4.4557
X5.5033Y-4.5557
X5.6418Y-3.219
X5.6451Y-3.614
X5.6451Y-3.714
X5.6451Y-4.6974
X5.6451Y-4.7974
X5.7418Y-3.219
X5.7451Y-3.614
X5.7451Y-3.714
X5.7451Y-4.6974
X5.7451Y-4.7974
X5.8418Y-3.219
X5.8451Y-3.614
X5.8451Y-3.714
X5.8451Y-4.6974
X5.8451Y-4.7974
X5.9418Y-3.219
X5.9451Y-3.614
X5.9451Y-3.714
X5.9451Y-4.6974
X5.9451Y-4.7974
X6.0418Y-3.219
X6.0451Y-3.614
X6.0451Y-3.714
X6.0451Y-4.6974
X6.0451Y-4.7974
X6.1418Y-3.219
X6.1451Y-3.614
X6.1451Y-3.714
X6.1451Y-4.6974
X6.1451Y-4.7974
X6.2451Y-3.614
X6.2451Y-3.714
X6.2451Y-4.6974
X6.2451Y-4.7974
X6.3451Y-3.614
X6.3451Y-3.714
X6.3451Y-4.6974
X6.3451Y-4.7974
X6.4868Y-3.8557
X6.4868Y-3.9557
X6.4868Y-4.0557
X6.4868Y-4.1557
X6.4868Y-4.2557
X6.4868Y-4.3557
X6.4868Y-4.4557
X6.4868Y-4.5557
X6.5868Y-3.8557
X6.5868Y-3.9557
X6.5868Y-4.0557
X6.5868Y-4.1557
X6.5868Y-4.2557
X6.5868Y-4.3557
X6.5868Y-4.4557
X6.5868Y-4.5557
T5
X6.4232Y-3.1963
X6.4232Y-3.4522
X6.6004Y-3.1963
X6.6004Y-3.4522
T6
X4.6933Y-4.4606
X5.4541Y-3.6624
X6.5348Y-4.7559
T2
G00X4.6695Y-3.2558
M15
G01X4.6695Y-3.2243
M16
G05
G00X4.6695Y-3.4263
M15
G01X4.6695Y-3.383
M16
G05
G00X5.0096Y-3.2558
M15
G01X5.0096Y-3.2243
M16
G05
G00X5.0096Y-3.4263
M15
G01X5.0096Y-3.383
M16
G05
M30
