M48
; DRILL file {KiCad 9.0.0} date 2025-03-02T16:29:20+0800
; FORMAT={-:-/ absolute / metric / decimal}
; #@! TF.CreationDate,2025-03-02T16:29:20+08:00
; #@! TF.GenerationSoftware,Kicad,Pcbnew,9.0.0
; #@! TF.FileFunction,Plated,1,2,PTH
FMAT,2
METRIC
; #@! TA.AperFunction,Plated,PTH,ViaDrill
T1C0.300
; #@! TA.AperFunction,Plated,PTH,ComponentDrill
T2C0.600
; #@! TA.AperFunction,Plated,PTH,ComponentDrill
T3C0.650
; #@! TA.AperFunction,Plated,PTH,ComponentDrill
T4C0.800
; #@! TA.AperFunction,Plated,PTH,ComponentDrill
T5C1.000
; #@! TA.AperFunction,Plated,PTH,ComponentDrill
T6C1.100
; #@! TA.AperFunction,Plated,PTH,ComponentDrill
T7C2.200
%
G90
G05
T1
X116.035Y-103.575
X116.035Y-106.875
X116.035Y-111.825
X116.035Y-116.175
X120.764Y-94.389
X120.842Y-88.51
X121.184Y-85.928
X122.153Y-87.929
X122.542Y-88.775
X122.9Y-120.115
X122.9Y-122.225
X123.236Y-88.336
X123.939Y-88.115
X124.015Y-108.156
X124.179Y-85.948
X124.447Y-92.001
X125.328Y-88.589
X125.36Y-113.2
X126.754Y-92.673
X128.86Y-105.275
X130.835Y-112.4
X131.16Y-89.675
X131.16Y-96.675
X132.785Y-109.375
X134.26Y-100.275
X134.26Y-102.825
X141.16Y-83.675
X142.125Y-107.648
X144.81Y-106.575
X145.99Y-87.135
X148.46Y-105.425
X149.158Y-89.902
X149.735Y-103.525
X149.735Y-109.175
X149.78Y-87.185
X152.49Y-88.425
X153.13Y-96.405
X153.44Y-86.215
X154.18Y-115.835
X154.83Y-84.775
X155.66Y-103.525
X155.66Y-109.175
X157.77Y-85.605
X158.86Y-87.085
X158.86Y-89.165
X161.36Y-106.575
T3
X147.23Y-83.785
X147.23Y-85.055
X148.5Y-83.785
X148.5Y-85.055
X149.77Y-83.785
X149.77Y-85.055
X151.04Y-83.785
X151.04Y-85.055
X152.31Y-83.785
X152.31Y-85.055
T4
X130.805Y-120.35
X135.685Y-120.35
T5
X117.97Y-117.6
X117.97Y-122.0
X120.51Y-117.6
X120.51Y-122.0
X126.27Y-104.436
X126.27Y-106.976
X126.27Y-109.516
X137.245Y-96.455
X137.245Y-98.995
X137.245Y-101.535
X137.245Y-104.075
X137.245Y-106.615
X137.245Y-109.155
X137.245Y-111.695
X137.245Y-114.235
X139.785Y-96.455
X139.785Y-98.995
X139.785Y-101.535
X139.785Y-104.075
X139.785Y-106.615
X139.785Y-109.155
X139.785Y-111.695
X139.785Y-114.235
X142.325Y-119.315
X142.325Y-121.855
X144.865Y-91.375
X144.865Y-93.915
X144.865Y-119.315
X144.865Y-121.855
X147.405Y-91.375
X147.405Y-93.915
X147.405Y-119.315
X147.405Y-121.855
X149.945Y-91.375
X149.945Y-93.915
X149.945Y-119.315
X149.945Y-121.855
X152.485Y-91.375
X152.485Y-93.915
X152.485Y-119.315
X152.485Y-121.855
X155.025Y-91.375
X155.025Y-93.915
X155.025Y-119.315
X155.025Y-121.855
X157.565Y-91.375
X157.565Y-93.915
X157.565Y-119.315
X157.565Y-121.855
X160.105Y-91.375
X160.105Y-93.915
X160.105Y-119.315
X160.105Y-121.855
X162.645Y-91.375
X162.645Y-93.915
X165.185Y-98.995
X165.185Y-101.535
X165.185Y-104.075
X165.185Y-106.615
X165.185Y-109.155
X165.185Y-111.695
X165.185Y-114.235
X165.185Y-116.775
X167.725Y-98.995
X167.725Y-101.535
X167.725Y-104.075
X167.725Y-106.615
X167.725Y-109.155
X167.725Y-111.695
X167.725Y-114.235
X167.725Y-116.775
T6
X163.15Y-81.185
X163.15Y-87.685
X167.65Y-81.185
X167.65Y-87.685
T7
X119.21Y-113.3
X139.988Y-91.299
X164.728Y-121.068
T2
G00X118.604Y-82.698
M15
G01X118.604Y-81.898
M16
G05
G00X118.604Y-87.028
M15
G01X118.604Y-85.928
M16
G05
G00X127.244Y-82.698
M15
G01X127.244Y-81.898
M16
G05
G00X127.244Y-87.028
M15
G01X127.244Y-85.928
M16
G05
M30
