%TF.GenerationSoftware,KiCad,Pcbnew,8.0.3*%
%TF.CreationDate,2024-06-07T04:34:52+08:00*%
%TF.ProjectId,Mini-K1-64,4d696e69-2d4b-4312-9d36-342e6b696361,rev?*%
%TF.SameCoordinates,Original*%
%TF.FileFunction,Soldermask,Top*%
%TF.FilePolarity,Negative*%
%FSLAX46Y46*%
G04 Gerber Fmt 4.6, Leading zero omitted, Abs format (unit mm)*
G04 Created by KiCad (PCBNEW 8.0.3) date 2024-06-07 04:34:52*
%MOMM*%
%LPD*%
G01*
G04 APERTURE LIST*
G04 Aperture macros list*
%AMRoundRect*
0 Rectangle with rounded corners*
0 $1 Rounding radius*
0 $2 $3 $4 $5 $6 $7 $8 $9 X,Y pos of 4 corners*
0 Add a 4 corners polygon primitive as box body*
4,1,4,$2,$3,$4,$5,$6,$7,$8,$9,$2,$3,0*
0 Add four circle primitives for the rounded corners*
1,1,$1+$1,$2,$3*
1,1,$1+$1,$4,$5*
1,1,$1+$1,$6,$7*
1,1,$1+$1,$8,$9*
0 Add four rect primitives between the rounded corners*
20,1,$1+$1,$2,$3,$4,$5,0*
20,1,$1+$1,$4,$5,$6,$7,0*
20,1,$1+$1,$6,$7,$8,$9,0*
20,1,$1+$1,$8,$9,$2,$3,0*%
G04 Aperture macros list end*
%ADD10R,1.700000X1.700000*%
%ADD11O,1.700000X1.700000*%
%ADD12RoundRect,0.250000X0.475000X-0.250000X0.475000X0.250000X-0.475000X0.250000X-0.475000X-0.250000X0*%
%ADD13RoundRect,0.250000X-0.450000X0.262500X-0.450000X-0.262500X0.450000X-0.262500X0.450000X0.262500X0*%
%ADD14C,3.500000*%
%ADD15C,0.650000*%
%ADD16RoundRect,0.150000X0.150000X0.425000X-0.150000X0.425000X-0.150000X-0.425000X0.150000X-0.425000X0*%
%ADD17RoundRect,0.075000X0.075000X0.500000X-0.075000X0.500000X-0.075000X-0.500000X0.075000X-0.500000X0*%
%ADD18O,1.000000X2.100000*%
%ADD19O,1.000000X1.800000*%
%ADD20C,2.000000*%
%ADD21RoundRect,0.250000X0.262500X0.450000X-0.262500X0.450000X-0.262500X-0.450000X0.262500X-0.450000X0*%
%ADD22RoundRect,0.150000X-0.150000X0.675000X-0.150000X-0.675000X0.150000X-0.675000X0.150000X0.675000X0*%
%ADD23C,1.500000*%
%ADD24RoundRect,0.075000X-0.700000X-0.075000X0.700000X-0.075000X0.700000X0.075000X-0.700000X0.075000X0*%
%ADD25RoundRect,0.075000X-0.075000X-0.700000X0.075000X-0.700000X0.075000X0.700000X-0.075000X0.700000X0*%
G04 APERTURE END LIST*
D10*
%TO.C,J2*%
X143301200Y-81762800D03*
D11*
X145841200Y-81762800D03*
X148381200Y-81762800D03*
X150921200Y-81762800D03*
X153461200Y-81762800D03*
X156001200Y-81762800D03*
%TD*%
D12*
%TO.C,C1*%
X126729100Y-95673000D03*
X126729100Y-93773000D03*
%TD*%
D13*
%TO.C,R2*%
X134410000Y-113812500D03*
X134410000Y-115637500D03*
%TD*%
D10*
%TO.C,J3*%
X137245000Y-97935000D03*
D11*
X139785000Y-97935000D03*
X137245000Y-100475000D03*
X139785000Y-100475000D03*
X137245000Y-103015000D03*
X139785000Y-103015000D03*
X137245000Y-105555000D03*
X139785000Y-105555000D03*
X137245000Y-108095000D03*
X139785000Y-108095000D03*
X137245000Y-110635000D03*
X139785000Y-110635000D03*
X137245000Y-113175000D03*
X139785000Y-113175000D03*
X137245000Y-115715000D03*
X139785000Y-115715000D03*
%TD*%
D13*
%TO.C,R3*%
X132285000Y-113812500D03*
X132285000Y-115637500D03*
%TD*%
D10*
%TO.C,JP2*%
X120510000Y-122000000D03*
D11*
X117970000Y-122000000D03*
%TD*%
D10*
%TO.C,J4*%
X161165000Y-91795000D03*
D11*
X161165000Y-94335000D03*
X158625000Y-91795000D03*
X158625000Y-94335000D03*
X156085000Y-91795000D03*
X156085000Y-94335000D03*
X153545000Y-91795000D03*
X153545000Y-94335000D03*
X151005000Y-91795000D03*
X151005000Y-94335000D03*
X148465000Y-91795000D03*
X148465000Y-94335000D03*
X145925000Y-91795000D03*
X145925000Y-94335000D03*
X143385000Y-91795000D03*
X143385000Y-94335000D03*
%TD*%
D14*
%TO.C,H1*%
X119210000Y-113300000D03*
%TD*%
D10*
%TO.C,JP1*%
X126270000Y-105795000D03*
D11*
X126270000Y-108335000D03*
X126270000Y-110875000D03*
%TD*%
D15*
%TO.C,J1*%
X125814100Y-85978000D03*
X120034100Y-85978000D03*
D16*
X126124100Y-87053000D03*
X125324100Y-87053000D03*
D17*
X124174100Y-87053000D03*
X123174100Y-87053000D03*
X122674100Y-87053000D03*
X121674100Y-87053000D03*
D16*
X120524100Y-87053000D03*
X119724100Y-87053000D03*
X119724100Y-87053000D03*
X120524100Y-87053000D03*
D17*
X121174100Y-87053000D03*
X122174100Y-87053000D03*
X123674100Y-87053000D03*
X124674100Y-87053000D03*
D16*
X125324100Y-87053000D03*
X126124100Y-87053000D03*
D18*
X127244100Y-86478000D03*
D19*
X127244100Y-82298000D03*
D18*
X118604100Y-86478000D03*
D19*
X118604100Y-82298000D03*
%TD*%
D10*
%TO.C,JP3*%
X120510000Y-117600000D03*
D11*
X117970000Y-117600000D03*
%TD*%
D10*
%TO.C,J5*%
X143385000Y-121855000D03*
D11*
X143385000Y-119315000D03*
X145925000Y-121855000D03*
X145925000Y-119315000D03*
X148465000Y-121855000D03*
X148465000Y-119315000D03*
X151005000Y-121855000D03*
X151005000Y-119315000D03*
X153545000Y-121855000D03*
X153545000Y-119315000D03*
X156085000Y-121855000D03*
X156085000Y-119315000D03*
X158625000Y-121855000D03*
X158625000Y-119315000D03*
X161165000Y-121855000D03*
X161165000Y-119315000D03*
%TD*%
D20*
%TO.C,SW1*%
X163150000Y-87685000D03*
X163150000Y-81185000D03*
X167650000Y-87685000D03*
X167650000Y-81185000D03*
%TD*%
D14*
%TO.C,H3*%
X165985000Y-120800000D03*
%TD*%
D21*
%TO.C,R1*%
X167872500Y-92835000D03*
X166047500Y-92835000D03*
%TD*%
D22*
%TO.C,U1*%
X123554100Y-91998000D03*
X122284100Y-91998000D03*
X121014100Y-91998000D03*
X119744100Y-91998000D03*
X119744100Y-97248000D03*
X121014100Y-97248000D03*
X122284100Y-97248000D03*
X123554100Y-97248000D03*
%TD*%
D23*
%TO.C,Y1*%
X135685000Y-120350000D03*
X130805000Y-120350000D03*
%TD*%
D14*
%TO.C,H2*%
X138535000Y-93025000D03*
%TD*%
D24*
%TO.C,U2*%
X146600000Y-103075000D03*
X146600000Y-103575000D03*
X146600000Y-104075000D03*
X146600000Y-104575000D03*
X146600000Y-105075000D03*
X146600000Y-105575000D03*
X146600000Y-106075000D03*
X146600000Y-106575000D03*
X146600000Y-107075000D03*
X146600000Y-107575000D03*
X146600000Y-108075000D03*
X146600000Y-108575000D03*
X146600000Y-109075000D03*
X146600000Y-109575000D03*
X146600000Y-110075000D03*
X146600000Y-110575000D03*
D25*
X148525000Y-112500000D03*
X149025000Y-112500000D03*
X149525000Y-112500000D03*
X150025000Y-112500000D03*
X150525000Y-112500000D03*
X151025000Y-112500000D03*
X151525000Y-112500000D03*
X152025000Y-112500000D03*
X152525000Y-112500000D03*
X153025000Y-112500000D03*
X153525000Y-112500000D03*
X154025000Y-112500000D03*
X154525000Y-112500000D03*
X155025000Y-112500000D03*
X155525000Y-112500000D03*
X156025000Y-112500000D03*
D24*
X157950000Y-110575000D03*
X157950000Y-110075000D03*
X157950000Y-109575000D03*
X157950000Y-109075000D03*
X157950000Y-108575000D03*
X157950000Y-108075000D03*
X157950000Y-107575000D03*
X157950000Y-107075000D03*
X157950000Y-106575000D03*
X157950000Y-106075000D03*
X157950000Y-105575000D03*
X157950000Y-105075000D03*
X157950000Y-104575000D03*
X157950000Y-104075000D03*
X157950000Y-103575000D03*
X157950000Y-103075000D03*
D25*
X156025000Y-101150000D03*
X155525000Y-101150000D03*
X155025000Y-101150000D03*
X154525000Y-101150000D03*
X154025000Y-101150000D03*
X153525000Y-101150000D03*
X153025000Y-101150000D03*
X152525000Y-101150000D03*
X152025000Y-101150000D03*
X151525000Y-101150000D03*
X151025000Y-101150000D03*
X150525000Y-101150000D03*
X150025000Y-101150000D03*
X149525000Y-101150000D03*
X149025000Y-101150000D03*
X148525000Y-101150000D03*
%TD*%
D10*
%TO.C,J6*%
X167305000Y-115715000D03*
D11*
X164765000Y-115715000D03*
X167305000Y-113175000D03*
X164765000Y-113175000D03*
X167305000Y-110635000D03*
X164765000Y-110635000D03*
X167305000Y-108095000D03*
X164765000Y-108095000D03*
X167305000Y-105555000D03*
X164765000Y-105555000D03*
X167305000Y-103015000D03*
X164765000Y-103015000D03*
X167305000Y-100475000D03*
X164765000Y-100475000D03*
X167305000Y-97935000D03*
X164765000Y-97935000D03*
%TD*%
M02*
