%TF.GenerationSoftware,KiCad,Pcbnew,9.0.0*%
%TF.CreationDate,2025-03-02T16:29:17+08:00*%
%TF.ProjectId,Mini-K1-64,4d696e69-2d4b-4312-9d36-342e6b696361,rev?*%
%TF.SameCoordinates,Original*%
%TF.FileFunction,Soldermask,Bot*%
%TF.FilePolarity,Negative*%
%FSLAX46Y46*%
G04 Gerber Fmt 4.6, Leading zero omitted, Abs format (unit mm)*
G04 Created by KiCad (PCBNEW 9.0.0) date 2025-03-02 16:29:17*
%MOMM*%
%LPD*%
G01*
G04 APERTURE LIST*
G04 Aperture macros list*
%AMRoundRect*
0 Rectangle with rounded corners*
0 $1 Rounding radius*
0 $2 $3 $4 $5 $6 $7 $8 $9 X,Y pos of 4 corners*
0 Add a 4 corners polygon primitive as box body*
4,1,4,$2,$3,$4,$5,$6,$7,$8,$9,$2,$3,0*
0 Add four circle primitives for the rounded corners*
1,1,$1+$1,$2,$3*
1,1,$1+$1,$4,$5*
1,1,$1+$1,$6,$7*
1,1,$1+$1,$8,$9*
0 Add four rect primitives between the rounded corners*
20,1,$1+$1,$2,$3,$4,$5,0*
20,1,$1+$1,$4,$5,$6,$7,0*
20,1,$1+$1,$6,$7,$8,$9,0*
20,1,$1+$1,$8,$9,$2,$3,0*%
G04 Aperture macros list end*
%ADD10R,1.000000X1.000000*%
%ADD11O,1.000000X1.000000*%
%ADD12R,1.700000X1.700000*%
%ADD13O,1.700000X1.700000*%
%ADD14C,3.500000*%
%ADD15C,0.650000*%
%ADD16O,1.000000X2.100000*%
%ADD17O,1.000000X1.800000*%
%ADD18C,2.000000*%
%ADD19C,1.500000*%
%ADD20RoundRect,0.218750X-0.381250X0.218750X-0.381250X-0.218750X0.381250X-0.218750X0.381250X0.218750X0*%
%ADD21RoundRect,0.250000X0.475000X-0.250000X0.475000X0.250000X-0.475000X0.250000X-0.475000X-0.250000X0*%
%ADD22RoundRect,0.250000X0.262500X0.450000X-0.262500X0.450000X-0.262500X-0.450000X0.262500X-0.450000X0*%
%ADD23RoundRect,0.250000X0.250000X0.475000X-0.250000X0.475000X-0.250000X-0.475000X0.250000X-0.475000X0*%
%ADD24RoundRect,0.250000X-0.262500X-0.450000X0.262500X-0.450000X0.262500X0.450000X-0.262500X0.450000X0*%
%ADD25RoundRect,0.250000X0.400000X0.600000X-0.400000X0.600000X-0.400000X-0.600000X0.400000X-0.600000X0*%
%ADD26RoundRect,0.250000X-0.475000X0.250000X-0.475000X-0.250000X0.475000X-0.250000X0.475000X0.250000X0*%
%ADD27RoundRect,0.375000X-0.375000X0.625000X-0.375000X-0.625000X0.375000X-0.625000X0.375000X0.625000X0*%
%ADD28RoundRect,0.500000X-1.400000X0.500000X-1.400000X-0.500000X1.400000X-0.500000X1.400000X0.500000X0*%
%ADD29RoundRect,0.250000X-0.250000X-0.475000X0.250000X-0.475000X0.250000X0.475000X-0.250000X0.475000X0*%
G04 APERTURE END LIST*
D10*
%TO.C,J2*%
X152310000Y-83785000D03*
D11*
X152310000Y-85055000D03*
X151040000Y-83785000D03*
X151040000Y-85055000D03*
X149770000Y-83785000D03*
X149770000Y-85055000D03*
X148500000Y-83785000D03*
X148500000Y-85055000D03*
X147230000Y-83785000D03*
X147230000Y-85055000D03*
%TD*%
D12*
%TO.C,J3*%
X137245000Y-96455000D03*
D13*
X139785000Y-96455000D03*
X137245000Y-98995000D03*
X139785000Y-98995000D03*
X137245000Y-101535000D03*
X139785000Y-101535000D03*
X137245000Y-104075000D03*
X139785000Y-104075000D03*
X137245000Y-106615000D03*
X139785000Y-106615000D03*
X137245000Y-109155000D03*
X139785000Y-109155000D03*
X137245000Y-111695000D03*
X139785000Y-111695000D03*
X137245000Y-114235000D03*
X139785000Y-114235000D03*
%TD*%
D12*
%TO.C,JP2*%
X120510000Y-122000000D03*
D13*
X117970000Y-122000000D03*
%TD*%
D12*
%TO.C,J4*%
X162645000Y-91375000D03*
D13*
X162645000Y-93915000D03*
X160105000Y-91375000D03*
X160105000Y-93915000D03*
X157565000Y-91375000D03*
X157565000Y-93915000D03*
X155025000Y-91375000D03*
X155025000Y-93915000D03*
X152485000Y-91375000D03*
X152485000Y-93915000D03*
X149945000Y-91375000D03*
X149945000Y-93915000D03*
X147405000Y-91375000D03*
X147405000Y-93915000D03*
X144865000Y-91375000D03*
X144865000Y-93915000D03*
%TD*%
D14*
%TO.C,H1*%
X119210000Y-113300000D03*
%TD*%
D12*
%TO.C,JP1*%
X126270000Y-104436000D03*
D13*
X126270000Y-106976000D03*
X126270000Y-109516000D03*
%TD*%
D15*
%TO.C,J1*%
X125814100Y-85978000D03*
X120034100Y-85978000D03*
D16*
X127244100Y-86478000D03*
D17*
X127244100Y-82298000D03*
D16*
X118604100Y-86478000D03*
D17*
X118604100Y-82298000D03*
%TD*%
D12*
%TO.C,JP3*%
X120510000Y-117600000D03*
D13*
X117970000Y-117600000D03*
%TD*%
D12*
%TO.C,J5*%
X142325000Y-121855000D03*
D13*
X142325000Y-119315000D03*
X144865000Y-121855000D03*
X144865000Y-119315000D03*
X147405000Y-121855000D03*
X147405000Y-119315000D03*
X149945000Y-121855000D03*
X149945000Y-119315000D03*
X152485000Y-121855000D03*
X152485000Y-119315000D03*
X155025000Y-121855000D03*
X155025000Y-119315000D03*
X157565000Y-121855000D03*
X157565000Y-119315000D03*
X160105000Y-121855000D03*
X160105000Y-119315000D03*
%TD*%
D18*
%TO.C,SW1*%
X163150000Y-87685000D03*
X163150000Y-81185000D03*
X167650000Y-87685000D03*
X167650000Y-81185000D03*
%TD*%
D14*
%TO.C,H3*%
X164727800Y-121067600D03*
%TD*%
D19*
%TO.C,Y1*%
X135685000Y-120350000D03*
X130805000Y-120350000D03*
%TD*%
D14*
%TO.C,H2*%
X139988200Y-91298800D03*
%TD*%
D12*
%TO.C,J6*%
X167725000Y-116775000D03*
D13*
X165185000Y-116775000D03*
X167725000Y-114235000D03*
X165185000Y-114235000D03*
X167725000Y-111695000D03*
X165185000Y-111695000D03*
X167725000Y-109155000D03*
X165185000Y-109155000D03*
X167725000Y-106615000D03*
X165185000Y-106615000D03*
X167725000Y-104075000D03*
X165185000Y-104075000D03*
X167725000Y-101535000D03*
X165185000Y-101535000D03*
X167725000Y-98995000D03*
X165185000Y-98995000D03*
%TD*%
D20*
%TO.C,L1*%
X131785000Y-106212500D03*
X131785000Y-108337500D03*
%TD*%
D21*
%TO.C,C3*%
X162460000Y-106575000D03*
X162460000Y-104675000D03*
%TD*%
D22*
%TO.C,R11*%
X124445100Y-93017200D03*
X122620100Y-93017200D03*
%TD*%
D23*
%TO.C,C7*%
X119860000Y-109585000D03*
X117960000Y-109585000D03*
%TD*%
D24*
%TO.C,R5*%
X143377500Y-88425000D03*
X145202500Y-88425000D03*
%TD*%
D21*
%TO.C,C4*%
X160335000Y-106575000D03*
X160335000Y-104675000D03*
%TD*%
D24*
%TO.C,R12*%
X129172500Y-110225000D03*
X130997500Y-110225000D03*
%TD*%
D25*
%TO.C,D1*%
X120761400Y-90705800D03*
X117261400Y-90705800D03*
%TD*%
D24*
%TO.C,R13*%
X124040000Y-122215000D03*
X125865000Y-122215000D03*
%TD*%
D22*
%TO.C,R6*%
X155405000Y-88445000D03*
X153580000Y-88445000D03*
%TD*%
%TO.C,R7*%
X151602500Y-88425000D03*
X149777500Y-88425000D03*
%TD*%
%TO.C,R8*%
X121176600Y-84298000D03*
X119351600Y-84298000D03*
%TD*%
D21*
%TO.C,C2*%
X165340000Y-85645000D03*
X165340000Y-83745000D03*
%TD*%
D26*
%TO.C,C8*%
X134285000Y-108325000D03*
X134285000Y-110225000D03*
%TD*%
D24*
%TO.C,R10*%
X165827500Y-92835000D03*
X167652500Y-92835000D03*
%TD*%
D21*
%TO.C,C9*%
X134260000Y-105500000D03*
X134260000Y-103600000D03*
%TD*%
D24*
%TO.C,R14*%
X124027500Y-120115000D03*
X125852500Y-120115000D03*
%TD*%
D27*
%TO.C,U3*%
X117544100Y-100967000D03*
X119844100Y-100967000D03*
D28*
X119844100Y-107267000D03*
D27*
X122144100Y-100967000D03*
%TD*%
D21*
%TO.C,C11*%
X134385000Y-118325000D03*
X134385000Y-116425000D03*
%TD*%
D26*
%TO.C,C5*%
X142960000Y-104025000D03*
X142960000Y-105925000D03*
%TD*%
D21*
%TO.C,C12*%
X132310000Y-118325000D03*
X132310000Y-116425000D03*
%TD*%
D29*
%TO.C,C6*%
X146710000Y-102835000D03*
X148610000Y-102835000D03*
%TD*%
D24*
%TO.C,R9*%
X124166600Y-84223000D03*
X125991600Y-84223000D03*
%TD*%
D23*
%TO.C,C10*%
X120748800Y-93017200D03*
X118848800Y-93017200D03*
%TD*%
M02*
