%TF.GenerationSoftware,KiCad,Pcbnew,8.0.2*%
%TF.CreationDate,2024-05-28T15:20:42+08:00*%
%TF.ProjectId,Mini-K1-64,4d696e69-2d4b-4312-9d36-342e6b696361,rev?*%
%TF.SameCoordinates,Original*%
%TF.FileFunction,Legend,Top*%
%TF.FilePolarity,Positive*%
%FSLAX46Y46*%
G04 Gerber Fmt 4.6, Leading zero omitted, Abs format (unit mm)*
G04 Created by KiCad (PCBNEW 8.0.2) date 2024-05-28 15:20:42*
%MOMM*%
%LPD*%
G01*
G04 APERTURE LIST*
G04 Aperture macros list*
%AMRoundRect*
0 Rectangle with rounded corners*
0 $1 Rounding radius*
0 $2 $3 $4 $5 $6 $7 $8 $9 X,Y pos of 4 corners*
0 Add a 4 corners polygon primitive as box body*
4,1,4,$2,$3,$4,$5,$6,$7,$8,$9,$2,$3,0*
0 Add four circle primitives for the rounded corners*
1,1,$1+$1,$2,$3*
1,1,$1+$1,$4,$5*
1,1,$1+$1,$6,$7*
1,1,$1+$1,$8,$9*
0 Add four rect primitives between the rounded corners*
20,1,$1+$1,$2,$3,$4,$5,0*
20,1,$1+$1,$4,$5,$6,$7,0*
20,1,$1+$1,$6,$7,$8,$9,0*
20,1,$1+$1,$8,$9,$2,$3,0*%
G04 Aperture macros list end*
%ADD10C,0.100000*%
%ADD11C,0.200000*%
%ADD12C,0.150000*%
%ADD13C,0.120000*%
%ADD14C,0.000000*%
%ADD15R,1.700000X1.700000*%
%ADD16O,1.700000X1.700000*%
%ADD17RoundRect,0.250000X0.475000X-0.250000X0.475000X0.250000X-0.475000X0.250000X-0.475000X-0.250000X0*%
%ADD18RoundRect,0.250000X-0.450000X0.262500X-0.450000X-0.262500X0.450000X-0.262500X0.450000X0.262500X0*%
%ADD19C,3.500000*%
%ADD20C,0.650000*%
%ADD21RoundRect,0.150000X0.150000X0.425000X-0.150000X0.425000X-0.150000X-0.425000X0.150000X-0.425000X0*%
%ADD22RoundRect,0.075000X0.075000X0.500000X-0.075000X0.500000X-0.075000X-0.500000X0.075000X-0.500000X0*%
%ADD23O,1.000000X2.100000*%
%ADD24O,1.000000X1.800000*%
%ADD25C,2.000000*%
%ADD26RoundRect,0.250000X0.262500X0.450000X-0.262500X0.450000X-0.262500X-0.450000X0.262500X-0.450000X0*%
%ADD27RoundRect,0.150000X-0.150000X0.675000X-0.150000X-0.675000X0.150000X-0.675000X0.150000X0.675000X0*%
%ADD28C,1.500000*%
%ADD29RoundRect,0.075000X-0.700000X-0.075000X0.700000X-0.075000X0.700000X0.075000X-0.700000X0.075000X0*%
%ADD30RoundRect,0.075000X-0.075000X-0.700000X0.075000X-0.700000X0.075000X0.700000X-0.075000X0.700000X0*%
G04 APERTURE END LIST*
D10*
X140312693Y-122472419D02*
X139741265Y-122472419D01*
X140026979Y-122472419D02*
X140026979Y-121472419D01*
X140026979Y-121472419D02*
X139931741Y-121615276D01*
X139931741Y-121615276D02*
X139836503Y-121710514D01*
X139836503Y-121710514D02*
X139741265Y-121758133D01*
X140646027Y-121472419D02*
X141312693Y-121472419D01*
X141312693Y-121472419D02*
X140884122Y-122472419D01*
X142878619Y-86551772D02*
X143878619Y-86218439D01*
X143878619Y-86218439D02*
X142878619Y-85885106D01*
X143878619Y-85551772D02*
X142878619Y-85551772D01*
X142878619Y-85551772D02*
X142878619Y-85313677D01*
X142878619Y-85313677D02*
X142926238Y-85170820D01*
X142926238Y-85170820D02*
X143021476Y-85075582D01*
X143021476Y-85075582D02*
X143116714Y-85027963D01*
X143116714Y-85027963D02*
X143307190Y-84980344D01*
X143307190Y-84980344D02*
X143450047Y-84980344D01*
X143450047Y-84980344D02*
X143640523Y-85027963D01*
X143640523Y-85027963D02*
X143735761Y-85075582D01*
X143735761Y-85075582D02*
X143831000Y-85170820D01*
X143831000Y-85170820D02*
X143878619Y-85313677D01*
X143878619Y-85313677D02*
X143878619Y-85551772D01*
X143878619Y-84551772D02*
X142878619Y-84551772D01*
X142878619Y-84551772D02*
X142878619Y-84313677D01*
X142878619Y-84313677D02*
X142926238Y-84170820D01*
X142926238Y-84170820D02*
X143021476Y-84075582D01*
X143021476Y-84075582D02*
X143116714Y-84027963D01*
X143116714Y-84027963D02*
X143307190Y-83980344D01*
X143307190Y-83980344D02*
X143450047Y-83980344D01*
X143450047Y-83980344D02*
X143640523Y-84027963D01*
X143640523Y-84027963D02*
X143735761Y-84075582D01*
X143735761Y-84075582D02*
X143831000Y-84170820D01*
X143831000Y-84170820D02*
X143878619Y-84313677D01*
X143878619Y-84313677D02*
X143878619Y-84551772D01*
X148708380Y-85837487D02*
X148756000Y-85885106D01*
X148756000Y-85885106D02*
X148803619Y-86027963D01*
X148803619Y-86027963D02*
X148803619Y-86123201D01*
X148803619Y-86123201D02*
X148756000Y-86266058D01*
X148756000Y-86266058D02*
X148660761Y-86361296D01*
X148660761Y-86361296D02*
X148565523Y-86408915D01*
X148565523Y-86408915D02*
X148375047Y-86456534D01*
X148375047Y-86456534D02*
X148232190Y-86456534D01*
X148232190Y-86456534D02*
X148041714Y-86408915D01*
X148041714Y-86408915D02*
X147946476Y-86361296D01*
X147946476Y-86361296D02*
X147851238Y-86266058D01*
X147851238Y-86266058D02*
X147803619Y-86123201D01*
X147803619Y-86123201D02*
X147803619Y-86027963D01*
X147803619Y-86027963D02*
X147851238Y-85885106D01*
X147851238Y-85885106D02*
X147898857Y-85837487D01*
X148803619Y-84932725D02*
X148803619Y-85408915D01*
X148803619Y-85408915D02*
X147803619Y-85408915D01*
X148803619Y-84599391D02*
X147803619Y-84599391D01*
X148803619Y-84027963D02*
X148232190Y-84456534D01*
X147803619Y-84027963D02*
X148375047Y-84599391D01*
X163443646Y-117747419D02*
X164062693Y-117747419D01*
X164062693Y-117747419D02*
X163729360Y-118128371D01*
X163729360Y-118128371D02*
X163872217Y-118128371D01*
X163872217Y-118128371D02*
X163967455Y-118175990D01*
X163967455Y-118175990D02*
X164015074Y-118223609D01*
X164015074Y-118223609D02*
X164062693Y-118318847D01*
X164062693Y-118318847D02*
X164062693Y-118556942D01*
X164062693Y-118556942D02*
X164015074Y-118652180D01*
X164015074Y-118652180D02*
X163967455Y-118699800D01*
X163967455Y-118699800D02*
X163872217Y-118747419D01*
X163872217Y-118747419D02*
X163586503Y-118747419D01*
X163586503Y-118747419D02*
X163491265Y-118699800D01*
X163491265Y-118699800D02*
X163443646Y-118652180D01*
X164919836Y-118080752D02*
X164919836Y-118747419D01*
X164681741Y-117699800D02*
X164443646Y-118414085D01*
X164443646Y-118414085D02*
X165062693Y-118414085D01*
X123158972Y-105217419D02*
X122682782Y-105217419D01*
X122682782Y-105217419D02*
X122635163Y-105693609D01*
X122635163Y-105693609D02*
X122682782Y-105645990D01*
X122682782Y-105645990D02*
X122778020Y-105598371D01*
X122778020Y-105598371D02*
X123016115Y-105598371D01*
X123016115Y-105598371D02*
X123111353Y-105645990D01*
X123111353Y-105645990D02*
X123158972Y-105693609D01*
X123158972Y-105693609D02*
X123206591Y-105788847D01*
X123206591Y-105788847D02*
X123206591Y-106026942D01*
X123206591Y-106026942D02*
X123158972Y-106122180D01*
X123158972Y-106122180D02*
X123111353Y-106169800D01*
X123111353Y-106169800D02*
X123016115Y-106217419D01*
X123016115Y-106217419D02*
X122778020Y-106217419D01*
X122778020Y-106217419D02*
X122682782Y-106169800D01*
X122682782Y-106169800D02*
X122635163Y-106122180D01*
X123492306Y-105217419D02*
X123825639Y-106217419D01*
X123825639Y-106217419D02*
X124158972Y-105217419D01*
X163882455Y-91640752D02*
X163882455Y-92307419D01*
X163644360Y-91259800D02*
X163406265Y-91974085D01*
X163406265Y-91974085D02*
X164025312Y-91974085D01*
X164453884Y-92307419D02*
X164644360Y-92307419D01*
X164644360Y-92307419D02*
X164739598Y-92259800D01*
X164739598Y-92259800D02*
X164787217Y-92212180D01*
X164787217Y-92212180D02*
X164882455Y-92069323D01*
X164882455Y-92069323D02*
X164930074Y-91878847D01*
X164930074Y-91878847D02*
X164930074Y-91497895D01*
X164930074Y-91497895D02*
X164882455Y-91402657D01*
X164882455Y-91402657D02*
X164834836Y-91355038D01*
X164834836Y-91355038D02*
X164739598Y-91307419D01*
X164739598Y-91307419D02*
X164549122Y-91307419D01*
X164549122Y-91307419D02*
X164453884Y-91355038D01*
X164453884Y-91355038D02*
X164406265Y-91402657D01*
X164406265Y-91402657D02*
X164358646Y-91497895D01*
X164358646Y-91497895D02*
X164358646Y-91735990D01*
X164358646Y-91735990D02*
X164406265Y-91831228D01*
X164406265Y-91831228D02*
X164453884Y-91878847D01*
X164453884Y-91878847D02*
X164549122Y-91926466D01*
X164549122Y-91926466D02*
X164739598Y-91926466D01*
X164739598Y-91926466D02*
X164834836Y-91878847D01*
X164834836Y-91878847D02*
X164882455Y-91831228D01*
X164882455Y-91831228D02*
X164930074Y-91735990D01*
X136612693Y-95872419D02*
X136041265Y-95872419D01*
X136326979Y-95872419D02*
X136326979Y-94872419D01*
X136326979Y-94872419D02*
X136231741Y-95015276D01*
X136231741Y-95015276D02*
X136136503Y-95110514D01*
X136136503Y-95110514D02*
X136041265Y-95158133D01*
X167293646Y-117747419D02*
X167912693Y-117747419D01*
X167912693Y-117747419D02*
X167579360Y-118128371D01*
X167579360Y-118128371D02*
X167722217Y-118128371D01*
X167722217Y-118128371D02*
X167817455Y-118175990D01*
X167817455Y-118175990D02*
X167865074Y-118223609D01*
X167865074Y-118223609D02*
X167912693Y-118318847D01*
X167912693Y-118318847D02*
X167912693Y-118556942D01*
X167912693Y-118556942D02*
X167865074Y-118652180D01*
X167865074Y-118652180D02*
X167817455Y-118699800D01*
X167817455Y-118699800D02*
X167722217Y-118747419D01*
X167722217Y-118747419D02*
X167436503Y-118747419D01*
X167436503Y-118747419D02*
X167341265Y-118699800D01*
X167341265Y-118699800D02*
X167293646Y-118652180D01*
X168246027Y-117747419D02*
X168865074Y-117747419D01*
X168865074Y-117747419D02*
X168531741Y-118128371D01*
X168531741Y-118128371D02*
X168674598Y-118128371D01*
X168674598Y-118128371D02*
X168769836Y-118175990D01*
X168769836Y-118175990D02*
X168817455Y-118223609D01*
X168817455Y-118223609D02*
X168865074Y-118318847D01*
X168865074Y-118318847D02*
X168865074Y-118556942D01*
X168865074Y-118556942D02*
X168817455Y-118652180D01*
X168817455Y-118652180D02*
X168769836Y-118699800D01*
X168769836Y-118699800D02*
X168674598Y-118747419D01*
X168674598Y-118747419D02*
X168388884Y-118747419D01*
X168388884Y-118747419D02*
X168293646Y-118699800D01*
X168293646Y-118699800D02*
X168246027Y-118652180D01*
X146278619Y-86408915D02*
X145278619Y-86408915D01*
X145278619Y-86408915D02*
X145278619Y-86170820D01*
X145278619Y-86170820D02*
X145326238Y-86027963D01*
X145326238Y-86027963D02*
X145421476Y-85932725D01*
X145421476Y-85932725D02*
X145516714Y-85885106D01*
X145516714Y-85885106D02*
X145707190Y-85837487D01*
X145707190Y-85837487D02*
X145850047Y-85837487D01*
X145850047Y-85837487D02*
X146040523Y-85885106D01*
X146040523Y-85885106D02*
X146135761Y-85932725D01*
X146135761Y-85932725D02*
X146231000Y-86027963D01*
X146231000Y-86027963D02*
X146278619Y-86170820D01*
X146278619Y-86170820D02*
X146278619Y-86408915D01*
X146278619Y-85408915D02*
X145278619Y-85408915D01*
X145278619Y-84742249D02*
X145278619Y-84551773D01*
X145278619Y-84551773D02*
X145326238Y-84456535D01*
X145326238Y-84456535D02*
X145421476Y-84361297D01*
X145421476Y-84361297D02*
X145611952Y-84313678D01*
X145611952Y-84313678D02*
X145945285Y-84313678D01*
X145945285Y-84313678D02*
X146135761Y-84361297D01*
X146135761Y-84361297D02*
X146231000Y-84456535D01*
X146231000Y-84456535D02*
X146278619Y-84551773D01*
X146278619Y-84551773D02*
X146278619Y-84742249D01*
X146278619Y-84742249D02*
X146231000Y-84837487D01*
X146231000Y-84837487D02*
X146135761Y-84932725D01*
X146135761Y-84932725D02*
X145945285Y-84980344D01*
X145945285Y-84980344D02*
X145611952Y-84980344D01*
X145611952Y-84980344D02*
X145421476Y-84932725D01*
X145421476Y-84932725D02*
X145326238Y-84837487D01*
X145326238Y-84837487D02*
X145278619Y-84742249D01*
X140312693Y-119897419D02*
X139741265Y-119897419D01*
X140026979Y-119897419D02*
X140026979Y-118897419D01*
X140026979Y-118897419D02*
X139931741Y-119040276D01*
X139931741Y-119040276D02*
X139836503Y-119135514D01*
X139836503Y-119135514D02*
X139741265Y-119183133D01*
X140884122Y-119325990D02*
X140788884Y-119278371D01*
X140788884Y-119278371D02*
X140741265Y-119230752D01*
X140741265Y-119230752D02*
X140693646Y-119135514D01*
X140693646Y-119135514D02*
X140693646Y-119087895D01*
X140693646Y-119087895D02*
X140741265Y-118992657D01*
X140741265Y-118992657D02*
X140788884Y-118945038D01*
X140788884Y-118945038D02*
X140884122Y-118897419D01*
X140884122Y-118897419D02*
X141074598Y-118897419D01*
X141074598Y-118897419D02*
X141169836Y-118945038D01*
X141169836Y-118945038D02*
X141217455Y-118992657D01*
X141217455Y-118992657D02*
X141265074Y-119087895D01*
X141265074Y-119087895D02*
X141265074Y-119135514D01*
X141265074Y-119135514D02*
X141217455Y-119230752D01*
X141217455Y-119230752D02*
X141169836Y-119278371D01*
X141169836Y-119278371D02*
X141074598Y-119325990D01*
X141074598Y-119325990D02*
X140884122Y-119325990D01*
X140884122Y-119325990D02*
X140788884Y-119373609D01*
X140788884Y-119373609D02*
X140741265Y-119421228D01*
X140741265Y-119421228D02*
X140693646Y-119516466D01*
X140693646Y-119516466D02*
X140693646Y-119706942D01*
X140693646Y-119706942D02*
X140741265Y-119802180D01*
X140741265Y-119802180D02*
X140788884Y-119849800D01*
X140788884Y-119849800D02*
X140884122Y-119897419D01*
X140884122Y-119897419D02*
X141074598Y-119897419D01*
X141074598Y-119897419D02*
X141169836Y-119849800D01*
X141169836Y-119849800D02*
X141217455Y-119802180D01*
X141217455Y-119802180D02*
X141265074Y-119706942D01*
X141265074Y-119706942D02*
X141265074Y-119516466D01*
X141265074Y-119516466D02*
X141217455Y-119421228D01*
X141217455Y-119421228D02*
X141169836Y-119373609D01*
X141169836Y-119373609D02*
X141074598Y-119325990D01*
X121968497Y-107742419D02*
X122301830Y-108742419D01*
X122301830Y-108742419D02*
X122635163Y-107742419D01*
X122968497Y-108742419D02*
X122968497Y-107742419D01*
X123635163Y-107742419D02*
X123825639Y-107742419D01*
X123825639Y-107742419D02*
X123920877Y-107790038D01*
X123920877Y-107790038D02*
X124016115Y-107885276D01*
X124016115Y-107885276D02*
X124063734Y-108075752D01*
X124063734Y-108075752D02*
X124063734Y-108409085D01*
X124063734Y-108409085D02*
X124016115Y-108599561D01*
X124016115Y-108599561D02*
X123920877Y-108694800D01*
X123920877Y-108694800D02*
X123825639Y-108742419D01*
X123825639Y-108742419D02*
X123635163Y-108742419D01*
X123635163Y-108742419D02*
X123539925Y-108694800D01*
X123539925Y-108694800D02*
X123444687Y-108599561D01*
X123444687Y-108599561D02*
X123397068Y-108409085D01*
X123397068Y-108409085D02*
X123397068Y-108075752D01*
X123397068Y-108075752D02*
X123444687Y-107885276D01*
X123444687Y-107885276D02*
X123539925Y-107790038D01*
X123539925Y-107790038D02*
X123635163Y-107742419D01*
X153973619Y-85837487D02*
X153497428Y-86170820D01*
X153973619Y-86408915D02*
X152973619Y-86408915D01*
X152973619Y-86408915D02*
X152973619Y-86027963D01*
X152973619Y-86027963D02*
X153021238Y-85932725D01*
X153021238Y-85932725D02*
X153068857Y-85885106D01*
X153068857Y-85885106D02*
X153164095Y-85837487D01*
X153164095Y-85837487D02*
X153306952Y-85837487D01*
X153306952Y-85837487D02*
X153402190Y-85885106D01*
X153402190Y-85885106D02*
X153449809Y-85932725D01*
X153449809Y-85932725D02*
X153497428Y-86027963D01*
X153497428Y-86027963D02*
X153497428Y-86408915D01*
X153926000Y-85456534D02*
X153973619Y-85313677D01*
X153973619Y-85313677D02*
X153973619Y-85075582D01*
X153973619Y-85075582D02*
X153926000Y-84980344D01*
X153926000Y-84980344D02*
X153878380Y-84932725D01*
X153878380Y-84932725D02*
X153783142Y-84885106D01*
X153783142Y-84885106D02*
X153687904Y-84885106D01*
X153687904Y-84885106D02*
X153592666Y-84932725D01*
X153592666Y-84932725D02*
X153545047Y-84980344D01*
X153545047Y-84980344D02*
X153497428Y-85075582D01*
X153497428Y-85075582D02*
X153449809Y-85266058D01*
X153449809Y-85266058D02*
X153402190Y-85361296D01*
X153402190Y-85361296D02*
X153354571Y-85408915D01*
X153354571Y-85408915D02*
X153259333Y-85456534D01*
X153259333Y-85456534D02*
X153164095Y-85456534D01*
X153164095Y-85456534D02*
X153068857Y-85408915D01*
X153068857Y-85408915D02*
X153021238Y-85361296D01*
X153021238Y-85361296D02*
X152973619Y-85266058D01*
X152973619Y-85266058D02*
X152973619Y-85027963D01*
X152973619Y-85027963D02*
X153021238Y-84885106D01*
X152973619Y-84599391D02*
X152973619Y-84027963D01*
X153973619Y-84313677D02*
X152973619Y-84313677D01*
X140541265Y-94967657D02*
X140588884Y-94920038D01*
X140588884Y-94920038D02*
X140684122Y-94872419D01*
X140684122Y-94872419D02*
X140922217Y-94872419D01*
X140922217Y-94872419D02*
X141017455Y-94920038D01*
X141017455Y-94920038D02*
X141065074Y-94967657D01*
X141065074Y-94967657D02*
X141112693Y-95062895D01*
X141112693Y-95062895D02*
X141112693Y-95158133D01*
X141112693Y-95158133D02*
X141065074Y-95300990D01*
X141065074Y-95300990D02*
X140493646Y-95872419D01*
X140493646Y-95872419D02*
X141112693Y-95872419D01*
X155701238Y-85885106D02*
X155653619Y-85980344D01*
X155653619Y-85980344D02*
X155653619Y-86123201D01*
X155653619Y-86123201D02*
X155701238Y-86266058D01*
X155701238Y-86266058D02*
X155796476Y-86361296D01*
X155796476Y-86361296D02*
X155891714Y-86408915D01*
X155891714Y-86408915D02*
X156082190Y-86456534D01*
X156082190Y-86456534D02*
X156225047Y-86456534D01*
X156225047Y-86456534D02*
X156415523Y-86408915D01*
X156415523Y-86408915D02*
X156510761Y-86361296D01*
X156510761Y-86361296D02*
X156606000Y-86266058D01*
X156606000Y-86266058D02*
X156653619Y-86123201D01*
X156653619Y-86123201D02*
X156653619Y-86027963D01*
X156653619Y-86027963D02*
X156606000Y-85885106D01*
X156606000Y-85885106D02*
X156558380Y-85837487D01*
X156558380Y-85837487D02*
X156225047Y-85837487D01*
X156225047Y-85837487D02*
X156225047Y-86027963D01*
X156653619Y-85408915D02*
X155653619Y-85408915D01*
X155653619Y-85408915D02*
X156653619Y-84837487D01*
X156653619Y-84837487D02*
X155653619Y-84837487D01*
X156653619Y-84361296D02*
X155653619Y-84361296D01*
X155653619Y-84361296D02*
X155653619Y-84123201D01*
X155653619Y-84123201D02*
X155701238Y-83980344D01*
X155701238Y-83980344D02*
X155796476Y-83885106D01*
X155796476Y-83885106D02*
X155891714Y-83837487D01*
X155891714Y-83837487D02*
X156082190Y-83789868D01*
X156082190Y-83789868D02*
X156225047Y-83789868D01*
X156225047Y-83789868D02*
X156415523Y-83837487D01*
X156415523Y-83837487D02*
X156510761Y-83885106D01*
X156510761Y-83885106D02*
X156606000Y-83980344D01*
X156606000Y-83980344D02*
X156653619Y-84123201D01*
X156653619Y-84123201D02*
X156653619Y-84361296D01*
X130988884Y-81627675D02*
X130988884Y-80627675D01*
X131560312Y-81627675D02*
X131131741Y-81056246D01*
X131560312Y-80627675D02*
X130988884Y-81199103D01*
X132512693Y-81627675D02*
X131941265Y-81627675D01*
X132226979Y-81627675D02*
X132226979Y-80627675D01*
X132226979Y-80627675D02*
X132131741Y-80770532D01*
X132131741Y-80770532D02*
X132036503Y-80865770D01*
X132036503Y-80865770D02*
X131941265Y-80913389D01*
X132941265Y-81246722D02*
X133703170Y-81246722D01*
X134607931Y-80627675D02*
X134417455Y-80627675D01*
X134417455Y-80627675D02*
X134322217Y-80675294D01*
X134322217Y-80675294D02*
X134274598Y-80722913D01*
X134274598Y-80722913D02*
X134179360Y-80865770D01*
X134179360Y-80865770D02*
X134131741Y-81056246D01*
X134131741Y-81056246D02*
X134131741Y-81437198D01*
X134131741Y-81437198D02*
X134179360Y-81532436D01*
X134179360Y-81532436D02*
X134226979Y-81580056D01*
X134226979Y-81580056D02*
X134322217Y-81627675D01*
X134322217Y-81627675D02*
X134512693Y-81627675D01*
X134512693Y-81627675D02*
X134607931Y-81580056D01*
X134607931Y-81580056D02*
X134655550Y-81532436D01*
X134655550Y-81532436D02*
X134703169Y-81437198D01*
X134703169Y-81437198D02*
X134703169Y-81199103D01*
X134703169Y-81199103D02*
X134655550Y-81103865D01*
X134655550Y-81103865D02*
X134607931Y-81056246D01*
X134607931Y-81056246D02*
X134512693Y-81008627D01*
X134512693Y-81008627D02*
X134322217Y-81008627D01*
X134322217Y-81008627D02*
X134226979Y-81056246D01*
X134226979Y-81056246D02*
X134179360Y-81103865D01*
X134179360Y-81103865D02*
X134131741Y-81199103D01*
X135560312Y-80961008D02*
X135560312Y-81627675D01*
X135322217Y-80580056D02*
X135084122Y-81294341D01*
X135084122Y-81294341D02*
X135703169Y-81294341D01*
X135846027Y-81722913D02*
X136607931Y-81722913D01*
X136703170Y-80627675D02*
X137036503Y-81627675D01*
X137036503Y-81627675D02*
X137369836Y-80627675D01*
X137893646Y-80627675D02*
X137988884Y-80627675D01*
X137988884Y-80627675D02*
X138084122Y-80675294D01*
X138084122Y-80675294D02*
X138131741Y-80722913D01*
X138131741Y-80722913D02*
X138179360Y-80818151D01*
X138179360Y-80818151D02*
X138226979Y-81008627D01*
X138226979Y-81008627D02*
X138226979Y-81246722D01*
X138226979Y-81246722D02*
X138179360Y-81437198D01*
X138179360Y-81437198D02*
X138131741Y-81532436D01*
X138131741Y-81532436D02*
X138084122Y-81580056D01*
X138084122Y-81580056D02*
X137988884Y-81627675D01*
X137988884Y-81627675D02*
X137893646Y-81627675D01*
X137893646Y-81627675D02*
X137798408Y-81580056D01*
X137798408Y-81580056D02*
X137750789Y-81532436D01*
X137750789Y-81532436D02*
X137703170Y-81437198D01*
X137703170Y-81437198D02*
X137655551Y-81246722D01*
X137655551Y-81246722D02*
X137655551Y-81008627D01*
X137655551Y-81008627D02*
X137703170Y-80818151D01*
X137703170Y-80818151D02*
X137750789Y-80722913D01*
X137750789Y-80722913D02*
X137798408Y-80675294D01*
X137798408Y-80675294D02*
X137893646Y-80627675D01*
X130941265Y-82332857D02*
X130988884Y-82285238D01*
X130988884Y-82285238D02*
X131084122Y-82237619D01*
X131084122Y-82237619D02*
X131322217Y-82237619D01*
X131322217Y-82237619D02*
X131417455Y-82285238D01*
X131417455Y-82285238D02*
X131465074Y-82332857D01*
X131465074Y-82332857D02*
X131512693Y-82428095D01*
X131512693Y-82428095D02*
X131512693Y-82523333D01*
X131512693Y-82523333D02*
X131465074Y-82666190D01*
X131465074Y-82666190D02*
X130893646Y-83237619D01*
X130893646Y-83237619D02*
X131512693Y-83237619D01*
X132131741Y-82237619D02*
X132226979Y-82237619D01*
X132226979Y-82237619D02*
X132322217Y-82285238D01*
X132322217Y-82285238D02*
X132369836Y-82332857D01*
X132369836Y-82332857D02*
X132417455Y-82428095D01*
X132417455Y-82428095D02*
X132465074Y-82618571D01*
X132465074Y-82618571D02*
X132465074Y-82856666D01*
X132465074Y-82856666D02*
X132417455Y-83047142D01*
X132417455Y-83047142D02*
X132369836Y-83142380D01*
X132369836Y-83142380D02*
X132322217Y-83190000D01*
X132322217Y-83190000D02*
X132226979Y-83237619D01*
X132226979Y-83237619D02*
X132131741Y-83237619D01*
X132131741Y-83237619D02*
X132036503Y-83190000D01*
X132036503Y-83190000D02*
X131988884Y-83142380D01*
X131988884Y-83142380D02*
X131941265Y-83047142D01*
X131941265Y-83047142D02*
X131893646Y-82856666D01*
X131893646Y-82856666D02*
X131893646Y-82618571D01*
X131893646Y-82618571D02*
X131941265Y-82428095D01*
X131941265Y-82428095D02*
X131988884Y-82332857D01*
X131988884Y-82332857D02*
X132036503Y-82285238D01*
X132036503Y-82285238D02*
X132131741Y-82237619D01*
X132846027Y-82332857D02*
X132893646Y-82285238D01*
X132893646Y-82285238D02*
X132988884Y-82237619D01*
X132988884Y-82237619D02*
X133226979Y-82237619D01*
X133226979Y-82237619D02*
X133322217Y-82285238D01*
X133322217Y-82285238D02*
X133369836Y-82332857D01*
X133369836Y-82332857D02*
X133417455Y-82428095D01*
X133417455Y-82428095D02*
X133417455Y-82523333D01*
X133417455Y-82523333D02*
X133369836Y-82666190D01*
X133369836Y-82666190D02*
X132798408Y-83237619D01*
X132798408Y-83237619D02*
X133417455Y-83237619D01*
X134274598Y-82570952D02*
X134274598Y-83237619D01*
X134036503Y-82190000D02*
X133798408Y-82904285D01*
X133798408Y-82904285D02*
X134417455Y-82904285D01*
X134798408Y-83142380D02*
X134846027Y-83190000D01*
X134846027Y-83190000D02*
X134798408Y-83237619D01*
X134798408Y-83237619D02*
X134750789Y-83190000D01*
X134750789Y-83190000D02*
X134798408Y-83142380D01*
X134798408Y-83142380D02*
X134798408Y-83237619D01*
X135465074Y-82237619D02*
X135560312Y-82237619D01*
X135560312Y-82237619D02*
X135655550Y-82285238D01*
X135655550Y-82285238D02*
X135703169Y-82332857D01*
X135703169Y-82332857D02*
X135750788Y-82428095D01*
X135750788Y-82428095D02*
X135798407Y-82618571D01*
X135798407Y-82618571D02*
X135798407Y-82856666D01*
X135798407Y-82856666D02*
X135750788Y-83047142D01*
X135750788Y-83047142D02*
X135703169Y-83142380D01*
X135703169Y-83142380D02*
X135655550Y-83190000D01*
X135655550Y-83190000D02*
X135560312Y-83237619D01*
X135560312Y-83237619D02*
X135465074Y-83237619D01*
X135465074Y-83237619D02*
X135369836Y-83190000D01*
X135369836Y-83190000D02*
X135322217Y-83142380D01*
X135322217Y-83142380D02*
X135274598Y-83047142D01*
X135274598Y-83047142D02*
X135226979Y-82856666D01*
X135226979Y-82856666D02*
X135226979Y-82618571D01*
X135226979Y-82618571D02*
X135274598Y-82428095D01*
X135274598Y-82428095D02*
X135322217Y-82332857D01*
X135322217Y-82332857D02*
X135369836Y-82285238D01*
X135369836Y-82285238D02*
X135465074Y-82237619D01*
X136703169Y-82237619D02*
X136226979Y-82237619D01*
X136226979Y-82237619D02*
X136179360Y-82713809D01*
X136179360Y-82713809D02*
X136226979Y-82666190D01*
X136226979Y-82666190D02*
X136322217Y-82618571D01*
X136322217Y-82618571D02*
X136560312Y-82618571D01*
X136560312Y-82618571D02*
X136655550Y-82666190D01*
X136655550Y-82666190D02*
X136703169Y-82713809D01*
X136703169Y-82713809D02*
X136750788Y-82809047D01*
X136750788Y-82809047D02*
X136750788Y-83047142D01*
X136750788Y-83047142D02*
X136703169Y-83142380D01*
X136703169Y-83142380D02*
X136655550Y-83190000D01*
X136655550Y-83190000D02*
X136560312Y-83237619D01*
X136560312Y-83237619D02*
X136322217Y-83237619D01*
X136322217Y-83237619D02*
X136226979Y-83190000D01*
X136226979Y-83190000D02*
X136179360Y-83142380D01*
X137179360Y-83142380D02*
X137226979Y-83190000D01*
X137226979Y-83190000D02*
X137179360Y-83237619D01*
X137179360Y-83237619D02*
X137131741Y-83190000D01*
X137131741Y-83190000D02*
X137179360Y-83142380D01*
X137179360Y-83142380D02*
X137179360Y-83237619D01*
X138179359Y-83237619D02*
X137607931Y-83237619D01*
X137893645Y-83237619D02*
X137893645Y-82237619D01*
X137893645Y-82237619D02*
X137798407Y-82380476D01*
X137798407Y-82380476D02*
X137703169Y-82475714D01*
X137703169Y-82475714D02*
X137607931Y-82523333D01*
X138560312Y-82332857D02*
X138607931Y-82285238D01*
X138607931Y-82285238D02*
X138703169Y-82237619D01*
X138703169Y-82237619D02*
X138941264Y-82237619D01*
X138941264Y-82237619D02*
X139036502Y-82285238D01*
X139036502Y-82285238D02*
X139084121Y-82332857D01*
X139084121Y-82332857D02*
X139131740Y-82428095D01*
X139131740Y-82428095D02*
X139131740Y-82523333D01*
X139131740Y-82523333D02*
X139084121Y-82666190D01*
X139084121Y-82666190D02*
X138512693Y-83237619D01*
X138512693Y-83237619D02*
X139131740Y-83237619D01*
X151376000Y-86456534D02*
X151423619Y-86313677D01*
X151423619Y-86313677D02*
X151423619Y-86075582D01*
X151423619Y-86075582D02*
X151376000Y-85980344D01*
X151376000Y-85980344D02*
X151328380Y-85932725D01*
X151328380Y-85932725D02*
X151233142Y-85885106D01*
X151233142Y-85885106D02*
X151137904Y-85885106D01*
X151137904Y-85885106D02*
X151042666Y-85932725D01*
X151042666Y-85932725D02*
X150995047Y-85980344D01*
X150995047Y-85980344D02*
X150947428Y-86075582D01*
X150947428Y-86075582D02*
X150899809Y-86266058D01*
X150899809Y-86266058D02*
X150852190Y-86361296D01*
X150852190Y-86361296D02*
X150804571Y-86408915D01*
X150804571Y-86408915D02*
X150709333Y-86456534D01*
X150709333Y-86456534D02*
X150614095Y-86456534D01*
X150614095Y-86456534D02*
X150518857Y-86408915D01*
X150518857Y-86408915D02*
X150471238Y-86361296D01*
X150471238Y-86361296D02*
X150423619Y-86266058D01*
X150423619Y-86266058D02*
X150423619Y-86027963D01*
X150423619Y-86027963D02*
X150471238Y-85885106D01*
X150423619Y-85551772D02*
X151423619Y-85313677D01*
X151423619Y-85313677D02*
X150709333Y-85123201D01*
X150709333Y-85123201D02*
X151423619Y-84932725D01*
X151423619Y-84932725D02*
X150423619Y-84694630D01*
X150423619Y-84123201D02*
X150423619Y-83932725D01*
X150423619Y-83932725D02*
X150471238Y-83837487D01*
X150471238Y-83837487D02*
X150566476Y-83742249D01*
X150566476Y-83742249D02*
X150756952Y-83694630D01*
X150756952Y-83694630D02*
X151090285Y-83694630D01*
X151090285Y-83694630D02*
X151280761Y-83742249D01*
X151280761Y-83742249D02*
X151376000Y-83837487D01*
X151376000Y-83837487D02*
X151423619Y-83932725D01*
X151423619Y-83932725D02*
X151423619Y-84123201D01*
X151423619Y-84123201D02*
X151376000Y-84218439D01*
X151376000Y-84218439D02*
X151280761Y-84313677D01*
X151280761Y-84313677D02*
X151090285Y-84361296D01*
X151090285Y-84361296D02*
X150756952Y-84361296D01*
X150756952Y-84361296D02*
X150566476Y-84313677D01*
X150566476Y-84313677D02*
X150471238Y-84218439D01*
X150471238Y-84218439D02*
X150423619Y-84123201D01*
X163940074Y-93977419D02*
X163463884Y-93977419D01*
X163463884Y-93977419D02*
X163416265Y-94453609D01*
X163416265Y-94453609D02*
X163463884Y-94405990D01*
X163463884Y-94405990D02*
X163559122Y-94358371D01*
X163559122Y-94358371D02*
X163797217Y-94358371D01*
X163797217Y-94358371D02*
X163892455Y-94405990D01*
X163892455Y-94405990D02*
X163940074Y-94453609D01*
X163940074Y-94453609D02*
X163987693Y-94548847D01*
X163987693Y-94548847D02*
X163987693Y-94786942D01*
X163987693Y-94786942D02*
X163940074Y-94882180D01*
X163940074Y-94882180D02*
X163892455Y-94929800D01*
X163892455Y-94929800D02*
X163797217Y-94977419D01*
X163797217Y-94977419D02*
X163559122Y-94977419D01*
X163559122Y-94977419D02*
X163463884Y-94929800D01*
X163463884Y-94929800D02*
X163416265Y-94882180D01*
X164606741Y-93977419D02*
X164701979Y-93977419D01*
X164701979Y-93977419D02*
X164797217Y-94025038D01*
X164797217Y-94025038D02*
X164844836Y-94072657D01*
X164844836Y-94072657D02*
X164892455Y-94167895D01*
X164892455Y-94167895D02*
X164940074Y-94358371D01*
X164940074Y-94358371D02*
X164940074Y-94596466D01*
X164940074Y-94596466D02*
X164892455Y-94786942D01*
X164892455Y-94786942D02*
X164844836Y-94882180D01*
X164844836Y-94882180D02*
X164797217Y-94929800D01*
X164797217Y-94929800D02*
X164701979Y-94977419D01*
X164701979Y-94977419D02*
X164606741Y-94977419D01*
X164606741Y-94977419D02*
X164511503Y-94929800D01*
X164511503Y-94929800D02*
X164463884Y-94882180D01*
X164463884Y-94882180D02*
X164416265Y-94786942D01*
X164416265Y-94786942D02*
X164368646Y-94596466D01*
X164368646Y-94596466D02*
X164368646Y-94358371D01*
X164368646Y-94358371D02*
X164416265Y-94167895D01*
X164416265Y-94167895D02*
X164463884Y-94072657D01*
X164463884Y-94072657D02*
X164511503Y-94025038D01*
X164511503Y-94025038D02*
X164606741Y-93977419D01*
X121635163Y-110317419D02*
X122254210Y-110317419D01*
X122254210Y-110317419D02*
X121920877Y-110698371D01*
X121920877Y-110698371D02*
X122063734Y-110698371D01*
X122063734Y-110698371D02*
X122158972Y-110745990D01*
X122158972Y-110745990D02*
X122206591Y-110793609D01*
X122206591Y-110793609D02*
X122254210Y-110888847D01*
X122254210Y-110888847D02*
X122254210Y-111126942D01*
X122254210Y-111126942D02*
X122206591Y-111222180D01*
X122206591Y-111222180D02*
X122158972Y-111269800D01*
X122158972Y-111269800D02*
X122063734Y-111317419D01*
X122063734Y-111317419D02*
X121778020Y-111317419D01*
X121778020Y-111317419D02*
X121682782Y-111269800D01*
X121682782Y-111269800D02*
X121635163Y-111222180D01*
X122539925Y-110317419D02*
X122873258Y-111317419D01*
X122873258Y-111317419D02*
X123206591Y-110317419D01*
X123444687Y-110317419D02*
X124063734Y-110317419D01*
X124063734Y-110317419D02*
X123730401Y-110698371D01*
X123730401Y-110698371D02*
X123873258Y-110698371D01*
X123873258Y-110698371D02*
X123968496Y-110745990D01*
X123968496Y-110745990D02*
X124016115Y-110793609D01*
X124016115Y-110793609D02*
X124063734Y-110888847D01*
X124063734Y-110888847D02*
X124063734Y-111126942D01*
X124063734Y-111126942D02*
X124016115Y-111222180D01*
X124016115Y-111222180D02*
X123968496Y-111269800D01*
X123968496Y-111269800D02*
X123873258Y-111317419D01*
X123873258Y-111317419D02*
X123587544Y-111317419D01*
X123587544Y-111317419D02*
X123492306Y-111269800D01*
X123492306Y-111269800D02*
X123444687Y-111222180D01*
D11*
G36*
X118735854Y-119707896D02*
G01*
X118735854Y-119895474D01*
X118311605Y-119895474D01*
X118353431Y-119925027D01*
X118391867Y-119957614D01*
X118394403Y-119959954D01*
X118431589Y-119995644D01*
X118465844Y-120030998D01*
X118483796Y-120050324D01*
X118584424Y-120160722D01*
X118435680Y-120289682D01*
X118001416Y-119801685D01*
X118435680Y-119313199D01*
X118584424Y-119442648D01*
X118483796Y-119553046D01*
X118448442Y-119590632D01*
X118412622Y-119626467D01*
X118394403Y-119643660D01*
X118356017Y-119676386D01*
X118314244Y-119706206D01*
X118311605Y-119707896D01*
X118735854Y-119707896D01*
G37*
G36*
X119426573Y-119707896D02*
G01*
X119426573Y-119895474D01*
X118706301Y-119895474D01*
X118706301Y-119707896D01*
X119426573Y-119707896D01*
G37*
G36*
X119689134Y-119254581D02*
G01*
X120335157Y-119254581D01*
X120335157Y-119423108D01*
X120129993Y-119423108D01*
X120129993Y-120086472D01*
X120335157Y-120086472D01*
X120335157Y-120255000D01*
X119689134Y-120255000D01*
X119689134Y-120086472D01*
X119894542Y-120086472D01*
X119894542Y-119423108D01*
X119689134Y-119423108D01*
X119689134Y-119254581D01*
G37*
D12*
X126562433Y-92682580D02*
X126514814Y-92730200D01*
X126514814Y-92730200D02*
X126371957Y-92777819D01*
X126371957Y-92777819D02*
X126276719Y-92777819D01*
X126276719Y-92777819D02*
X126133862Y-92730200D01*
X126133862Y-92730200D02*
X126038624Y-92634961D01*
X126038624Y-92634961D02*
X125991005Y-92539723D01*
X125991005Y-92539723D02*
X125943386Y-92349247D01*
X125943386Y-92349247D02*
X125943386Y-92206390D01*
X125943386Y-92206390D02*
X125991005Y-92015914D01*
X125991005Y-92015914D02*
X126038624Y-91920676D01*
X126038624Y-91920676D02*
X126133862Y-91825438D01*
X126133862Y-91825438D02*
X126276719Y-91777819D01*
X126276719Y-91777819D02*
X126371957Y-91777819D01*
X126371957Y-91777819D02*
X126514814Y-91825438D01*
X126514814Y-91825438D02*
X126562433Y-91873057D01*
X127514814Y-92777819D02*
X126943386Y-92777819D01*
X127229100Y-92777819D02*
X127229100Y-91777819D01*
X127229100Y-91777819D02*
X127133862Y-91920676D01*
X127133862Y-91920676D02*
X127038624Y-92015914D01*
X127038624Y-92015914D02*
X126943386Y-92063533D01*
X134889819Y-111841666D02*
X134413628Y-112174999D01*
X134889819Y-112413094D02*
X133889819Y-112413094D01*
X133889819Y-112413094D02*
X133889819Y-112032142D01*
X133889819Y-112032142D02*
X133937438Y-111936904D01*
X133937438Y-111936904D02*
X133985057Y-111889285D01*
X133985057Y-111889285D02*
X134080295Y-111841666D01*
X134080295Y-111841666D02*
X134223152Y-111841666D01*
X134223152Y-111841666D02*
X134318390Y-111889285D01*
X134318390Y-111889285D02*
X134366009Y-111936904D01*
X134366009Y-111936904D02*
X134413628Y-112032142D01*
X134413628Y-112032142D02*
X134413628Y-112413094D01*
X133985057Y-111460713D02*
X133937438Y-111413094D01*
X133937438Y-111413094D02*
X133889819Y-111317856D01*
X133889819Y-111317856D02*
X133889819Y-111079761D01*
X133889819Y-111079761D02*
X133937438Y-110984523D01*
X133937438Y-110984523D02*
X133985057Y-110936904D01*
X133985057Y-110936904D02*
X134080295Y-110889285D01*
X134080295Y-110889285D02*
X134175533Y-110889285D01*
X134175533Y-110889285D02*
X134318390Y-110936904D01*
X134318390Y-110936904D02*
X134889819Y-111508332D01*
X134889819Y-111508332D02*
X134889819Y-110889285D01*
X132839819Y-111816666D02*
X132363628Y-112149999D01*
X132839819Y-112388094D02*
X131839819Y-112388094D01*
X131839819Y-112388094D02*
X131839819Y-112007142D01*
X131839819Y-112007142D02*
X131887438Y-111911904D01*
X131887438Y-111911904D02*
X131935057Y-111864285D01*
X131935057Y-111864285D02*
X132030295Y-111816666D01*
X132030295Y-111816666D02*
X132173152Y-111816666D01*
X132173152Y-111816666D02*
X132268390Y-111864285D01*
X132268390Y-111864285D02*
X132316009Y-111911904D01*
X132316009Y-111911904D02*
X132363628Y-112007142D01*
X132363628Y-112007142D02*
X132363628Y-112388094D01*
X131839819Y-111483332D02*
X131839819Y-110864285D01*
X131839819Y-110864285D02*
X132220771Y-111197618D01*
X132220771Y-111197618D02*
X132220771Y-111054761D01*
X132220771Y-111054761D02*
X132268390Y-110959523D01*
X132268390Y-110959523D02*
X132316009Y-110911904D01*
X132316009Y-110911904D02*
X132411247Y-110864285D01*
X132411247Y-110864285D02*
X132649342Y-110864285D01*
X132649342Y-110864285D02*
X132744580Y-110911904D01*
X132744580Y-110911904D02*
X132792200Y-110959523D01*
X132792200Y-110959523D02*
X132839819Y-111054761D01*
X132839819Y-111054761D02*
X132839819Y-111340475D01*
X132839819Y-111340475D02*
X132792200Y-111435713D01*
X132792200Y-111435713D02*
X132744580Y-111483332D01*
D11*
X133044435Y-89356219D02*
X133282530Y-90356219D01*
X133282530Y-90356219D02*
X133473006Y-89641933D01*
X133473006Y-89641933D02*
X133663482Y-90356219D01*
X133663482Y-90356219D02*
X133901578Y-89356219D01*
X134139673Y-89356219D02*
X134711101Y-89356219D01*
X134425387Y-90356219D02*
X134425387Y-89356219D01*
X135044435Y-90356219D02*
X135044435Y-89356219D01*
X135044435Y-89356219D02*
X135377768Y-90070504D01*
X135377768Y-90070504D02*
X135711101Y-89356219D01*
X135711101Y-89356219D02*
X135711101Y-90356219D01*
X136187292Y-89832409D02*
X136520625Y-89832409D01*
X136663482Y-90356219D02*
X136187292Y-90356219D01*
X136187292Y-90356219D02*
X136187292Y-89356219D01*
X136187292Y-89356219D02*
X136663482Y-89356219D01*
X137663482Y-90260980D02*
X137615863Y-90308600D01*
X137615863Y-90308600D02*
X137473006Y-90356219D01*
X137473006Y-90356219D02*
X137377768Y-90356219D01*
X137377768Y-90356219D02*
X137234911Y-90308600D01*
X137234911Y-90308600D02*
X137139673Y-90213361D01*
X137139673Y-90213361D02*
X137092054Y-90118123D01*
X137092054Y-90118123D02*
X137044435Y-89927647D01*
X137044435Y-89927647D02*
X137044435Y-89784790D01*
X137044435Y-89784790D02*
X137092054Y-89594314D01*
X137092054Y-89594314D02*
X137139673Y-89499076D01*
X137139673Y-89499076D02*
X137234911Y-89403838D01*
X137234911Y-89403838D02*
X137377768Y-89356219D01*
X137377768Y-89356219D02*
X137473006Y-89356219D01*
X137473006Y-89356219D02*
X137615863Y-89403838D01*
X137615863Y-89403838D02*
X137663482Y-89451457D01*
D12*
X166793333Y-91709819D02*
X166460000Y-91233628D01*
X166221905Y-91709819D02*
X166221905Y-90709819D01*
X166221905Y-90709819D02*
X166602857Y-90709819D01*
X166602857Y-90709819D02*
X166698095Y-90757438D01*
X166698095Y-90757438D02*
X166745714Y-90805057D01*
X166745714Y-90805057D02*
X166793333Y-90900295D01*
X166793333Y-90900295D02*
X166793333Y-91043152D01*
X166793333Y-91043152D02*
X166745714Y-91138390D01*
X166745714Y-91138390D02*
X166698095Y-91186009D01*
X166698095Y-91186009D02*
X166602857Y-91233628D01*
X166602857Y-91233628D02*
X166221905Y-91233628D01*
X167745714Y-91709819D02*
X167174286Y-91709819D01*
X167460000Y-91709819D02*
X167460000Y-90709819D01*
X167460000Y-90709819D02*
X167364762Y-90852676D01*
X167364762Y-90852676D02*
X167269524Y-90947914D01*
X167269524Y-90947914D02*
X167174286Y-90995533D01*
X117131895Y-94148419D02*
X117131895Y-94957942D01*
X117131895Y-94957942D02*
X117179514Y-95053180D01*
X117179514Y-95053180D02*
X117227133Y-95100800D01*
X117227133Y-95100800D02*
X117322371Y-95148419D01*
X117322371Y-95148419D02*
X117512847Y-95148419D01*
X117512847Y-95148419D02*
X117608085Y-95100800D01*
X117608085Y-95100800D02*
X117655704Y-95053180D01*
X117655704Y-95053180D02*
X117703323Y-94957942D01*
X117703323Y-94957942D02*
X117703323Y-94148419D01*
X118703323Y-95148419D02*
X118131895Y-95148419D01*
X118417609Y-95148419D02*
X118417609Y-94148419D01*
X118417609Y-94148419D02*
X118322371Y-94291276D01*
X118322371Y-94291276D02*
X118227133Y-94386514D01*
X118227133Y-94386514D02*
X118131895Y-94434133D01*
X151513095Y-98879819D02*
X151513095Y-99689342D01*
X151513095Y-99689342D02*
X151560714Y-99784580D01*
X151560714Y-99784580D02*
X151608333Y-99832200D01*
X151608333Y-99832200D02*
X151703571Y-99879819D01*
X151703571Y-99879819D02*
X151894047Y-99879819D01*
X151894047Y-99879819D02*
X151989285Y-99832200D01*
X151989285Y-99832200D02*
X152036904Y-99784580D01*
X152036904Y-99784580D02*
X152084523Y-99689342D01*
X152084523Y-99689342D02*
X152084523Y-98879819D01*
X152513095Y-98975057D02*
X152560714Y-98927438D01*
X152560714Y-98927438D02*
X152655952Y-98879819D01*
X152655952Y-98879819D02*
X152894047Y-98879819D01*
X152894047Y-98879819D02*
X152989285Y-98927438D01*
X152989285Y-98927438D02*
X153036904Y-98975057D01*
X153036904Y-98975057D02*
X153084523Y-99070295D01*
X153084523Y-99070295D02*
X153084523Y-99165533D01*
X153084523Y-99165533D02*
X153036904Y-99308390D01*
X153036904Y-99308390D02*
X152465476Y-99879819D01*
X152465476Y-99879819D02*
X153084523Y-99879819D01*
D13*
%TO.C,J2*%
X141971200Y-83092800D02*
X141971200Y-81762800D01*
X143301200Y-83092800D02*
X141971200Y-83092800D01*
X144571200Y-80432800D02*
X157331200Y-80432800D01*
X144571200Y-83092800D02*
X144571200Y-80432800D01*
X144571200Y-83092800D02*
X157331200Y-83092800D01*
X157331200Y-83092800D02*
X157331200Y-80432800D01*
%TO.C,C1*%
X125994100Y-94984252D02*
X125994100Y-94461748D01*
X127464100Y-94984252D02*
X127464100Y-94461748D01*
%TO.C,R2*%
X133675000Y-114497936D02*
X133675000Y-114952064D01*
X135145000Y-114497936D02*
X135145000Y-114952064D01*
%TO.C,J3*%
X135915000Y-96605000D02*
X137245000Y-96605000D01*
X135915000Y-97935000D02*
X135915000Y-96605000D01*
X135915000Y-99205000D02*
X135915000Y-117045000D01*
X135915000Y-99205000D02*
X138515000Y-99205000D01*
X135915000Y-117045000D02*
X141115000Y-117045000D01*
X138515000Y-96605000D02*
X141115000Y-96605000D01*
X138515000Y-99205000D02*
X138515000Y-96605000D01*
X141115000Y-96605000D02*
X141115000Y-117045000D01*
%TO.C,R3*%
X131550000Y-114497936D02*
X131550000Y-114952064D01*
X133020000Y-114497936D02*
X133020000Y-114952064D01*
D14*
%TO.C,LOGO1*%
G36*
X135745515Y-83925544D02*
G01*
X135764414Y-83926756D01*
X135776301Y-83928559D01*
X135778993Y-83929825D01*
X135785916Y-83933665D01*
X135799553Y-83937357D01*
X135804563Y-83938263D01*
X135821407Y-83941731D01*
X135834656Y-83945767D01*
X135836631Y-83946644D01*
X135847932Y-83951328D01*
X135864106Y-83956979D01*
X135868333Y-83958325D01*
X135911551Y-83975009D01*
X135959773Y-83999416D01*
X136011183Y-84030494D01*
X136063964Y-84067196D01*
X136086229Y-84084133D01*
X136109440Y-84103426D01*
X136136666Y-84127908D01*
X136165904Y-84155590D01*
X136195149Y-84184484D01*
X136222399Y-84212599D01*
X136245650Y-84237949D01*
X136262898Y-84258544D01*
X136265790Y-84262378D01*
X136273152Y-84271368D01*
X136282181Y-84279735D01*
X136294462Y-84288465D01*
X136311582Y-84298545D01*
X136335126Y-84310960D01*
X136366682Y-84326696D01*
X136378710Y-84332584D01*
X136414527Y-84350475D01*
X136452301Y-84370040D01*
X136488767Y-84389541D01*
X136520658Y-84407242D01*
X136538041Y-84417349D01*
X136566706Y-84434491D01*
X136587790Y-84447151D01*
X136603238Y-84456571D01*
X136614993Y-84463991D01*
X136624999Y-84470651D01*
X136635200Y-84477793D01*
X136647541Y-84486656D01*
X136654489Y-84491666D01*
X136672979Y-84504955D01*
X136689341Y-84516655D01*
X136700302Y-84524424D01*
X136700980Y-84524898D01*
X136708965Y-84531023D01*
X136723858Y-84542952D01*
X136744038Y-84559368D01*
X136767885Y-84578952D01*
X136790555Y-84597712D01*
X136851681Y-84650409D01*
X136912458Y-84706451D01*
X136970023Y-84763091D01*
X137021513Y-84817583D01*
X137032640Y-84830025D01*
X137048620Y-84848667D01*
X137067274Y-84871305D01*
X137087390Y-84896368D01*
X137107758Y-84922284D01*
X137127169Y-84947482D01*
X137144412Y-84970391D01*
X137158277Y-84989440D01*
X137167555Y-85003058D01*
X137171034Y-85009674D01*
X137171036Y-85009722D01*
X137167229Y-85013690D01*
X137158176Y-85011972D01*
X137149326Y-85006503D01*
X137139391Y-84999352D01*
X137122005Y-84988016D01*
X137099360Y-84973836D01*
X137073648Y-84958148D01*
X137047059Y-84942291D01*
X137021785Y-84927604D01*
X137001666Y-84916324D01*
X136976799Y-84903019D01*
X136948282Y-84888229D01*
X136917842Y-84872797D01*
X136887208Y-84857566D01*
X136858108Y-84843381D01*
X136832268Y-84831085D01*
X136811418Y-84821522D01*
X136797285Y-84815536D01*
X136791916Y-84813888D01*
X136781176Y-84810750D01*
X136779166Y-84809337D01*
X136769028Y-84803565D01*
X136750265Y-84795564D01*
X136724970Y-84786035D01*
X136695235Y-84775679D01*
X136663152Y-84765196D01*
X136630815Y-84755289D01*
X136600315Y-84746660D01*
X136573746Y-84740008D01*
X136569502Y-84739066D01*
X136533635Y-84733339D01*
X136492036Y-84729965D01*
X136447903Y-84728920D01*
X136404435Y-84730179D01*
X136364832Y-84733719D01*
X136332292Y-84739515D01*
X136327056Y-84740902D01*
X136280277Y-84759238D01*
X136239082Y-84785494D01*
X136204667Y-84818436D01*
X136178226Y-84856827D01*
X136160955Y-84899433D01*
X136156990Y-84916769D01*
X136153166Y-84932585D01*
X136148699Y-84944035D01*
X136147686Y-84945589D01*
X136144896Y-84954879D01*
X136143028Y-84973046D01*
X136142044Y-84997895D01*
X136141902Y-85027235D01*
X136142562Y-85058872D01*
X136143985Y-85090613D01*
X136146130Y-85120266D01*
X136148958Y-85145637D01*
X136151626Y-85161111D01*
X136161395Y-85204254D01*
X136170336Y-85239496D01*
X136179331Y-85269915D01*
X136189263Y-85298586D01*
X136196211Y-85316666D01*
X136201821Y-85330928D01*
X136209531Y-85350656D01*
X136215762Y-85366666D01*
X136223930Y-85385214D01*
X136236332Y-85410414D01*
X136251447Y-85439413D01*
X136267752Y-85469360D01*
X136283723Y-85497404D01*
X136297838Y-85520692D01*
X136298888Y-85522337D01*
X136310872Y-85539659D01*
X136328137Y-85562888D01*
X136348703Y-85589522D01*
X136370591Y-85617057D01*
X136391820Y-85642990D01*
X136410411Y-85664819D01*
X136420067Y-85675541D01*
X136437124Y-85692877D01*
X136459665Y-85714485D01*
X136484652Y-85737508D01*
X136507173Y-85757470D01*
X136528939Y-85776354D01*
X136548527Y-85793402D01*
X136563946Y-85806878D01*
X136573205Y-85815044D01*
X136573840Y-85815614D01*
X136582818Y-85822609D01*
X136598773Y-85834048D01*
X136619353Y-85848340D01*
X136642206Y-85863895D01*
X136664981Y-85879119D01*
X136685325Y-85892422D01*
X136700887Y-85902213D01*
X136707317Y-85905936D01*
X136717379Y-85911490D01*
X136733831Y-85920784D01*
X136753447Y-85931993D01*
X136757317Y-85934218D01*
X136781862Y-85947555D01*
X136811038Y-85962160D01*
X136842916Y-85977200D01*
X136875568Y-85991844D01*
X136907067Y-86005261D01*
X136935483Y-86016619D01*
X136958889Y-86025086D01*
X136975356Y-86029832D01*
X136980724Y-86030555D01*
X136992302Y-86032790D01*
X136996388Y-86035062D01*
X137003994Y-86038303D01*
X137019516Y-86042914D01*
X137039984Y-86048038D01*
X137046111Y-86049428D01*
X137070994Y-86055034D01*
X137095250Y-86060643D01*
X137114032Y-86065130D01*
X137115555Y-86065507D01*
X137132598Y-86068163D01*
X137157673Y-86070066D01*
X137188340Y-86071229D01*
X137222157Y-86071668D01*
X137256684Y-86071397D01*
X137289480Y-86070433D01*
X137318104Y-86068789D01*
X137340115Y-86066482D01*
X137351666Y-86064055D01*
X137384473Y-86052865D01*
X137408961Y-86043754D01*
X137427427Y-86035518D01*
X137442167Y-86026953D01*
X137455478Y-86016856D01*
X137469655Y-86004022D01*
X137473859Y-86000000D01*
X137499308Y-85972874D01*
X137518982Y-85945170D01*
X137533884Y-85914579D01*
X137545019Y-85878792D01*
X137553390Y-85835499D01*
X137557061Y-85808624D01*
X137560788Y-85757259D01*
X137559567Y-85702571D01*
X137553229Y-85643055D01*
X137541606Y-85577201D01*
X137524528Y-85503503D01*
X137521624Y-85492209D01*
X137515469Y-85469714D01*
X137509670Y-85450534D01*
X137505212Y-85437867D01*
X137504186Y-85435629D01*
X137499606Y-85422681D01*
X137499729Y-85412304D01*
X137504183Y-85408333D01*
X137508029Y-85413065D01*
X137515740Y-85426096D01*
X137526437Y-85445679D01*
X137539237Y-85470067D01*
X137553262Y-85497512D01*
X137567631Y-85526268D01*
X137581462Y-85554586D01*
X137593876Y-85580720D01*
X137603992Y-85602923D01*
X137610930Y-85619446D01*
X137611970Y-85622222D01*
X137634856Y-85686915D01*
X137653547Y-85743266D01*
X137668428Y-85793055D01*
X137679888Y-85838062D01*
X137688311Y-85880066D01*
X137694086Y-85920847D01*
X137697597Y-85962187D01*
X137699233Y-86005863D01*
X137699452Y-86025000D01*
X137698588Y-86080447D01*
X137694997Y-86127911D01*
X137688116Y-86170307D01*
X137677386Y-86210550D01*
X137662243Y-86251553D01*
X137650754Y-86277848D01*
X137639231Y-86299033D01*
X137623002Y-86323663D01*
X137603931Y-86349408D01*
X137583885Y-86373939D01*
X137564728Y-86394923D01*
X137548325Y-86410031D01*
X137540880Y-86415143D01*
X137529418Y-86421985D01*
X137512776Y-86432529D01*
X137498132Y-86442125D01*
X137477305Y-86455506D01*
X137455572Y-86468720D01*
X137443289Y-86475761D01*
X137426356Y-86484146D01*
X137404293Y-86493797D01*
X137379829Y-86503673D01*
X137355697Y-86512733D01*
X137334625Y-86519936D01*
X137319345Y-86524241D01*
X137314148Y-86525000D01*
X137301777Y-86527019D01*
X137292205Y-86530092D01*
X137268541Y-86537048D01*
X137235825Y-86543088D01*
X137196088Y-86548067D01*
X137151363Y-86551839D01*
X137103681Y-86554261D01*
X137055074Y-86555187D01*
X137007575Y-86554473D01*
X136973888Y-86552773D01*
X136915760Y-86547218D01*
X136854845Y-86538590D01*
X136795339Y-86527602D01*
X136741438Y-86514965D01*
X136726666Y-86510865D01*
X136706305Y-86505044D01*
X136687613Y-86499835D01*
X136679444Y-86497634D01*
X136658734Y-86491449D01*
X136631096Y-86482153D01*
X136599848Y-86470937D01*
X136568307Y-86458991D01*
X136540555Y-86447824D01*
X136514232Y-86436412D01*
X136484199Y-86422747D01*
X136452647Y-86407895D01*
X136421765Y-86392922D01*
X136393743Y-86378896D01*
X136370770Y-86366884D01*
X136355036Y-86357952D01*
X136351781Y-86355845D01*
X136337799Y-86346482D01*
X136326313Y-86339222D01*
X136325748Y-86338888D01*
X136316169Y-86333291D01*
X136300535Y-86324170D01*
X136283966Y-86314511D01*
X136254776Y-86296040D01*
X136219769Y-86271540D01*
X136181121Y-86242704D01*
X136141004Y-86211225D01*
X136101592Y-86178794D01*
X136065060Y-86147104D01*
X136043333Y-86127182D01*
X136027179Y-86112031D01*
X136010922Y-86096891D01*
X136007059Y-86093316D01*
X135974330Y-86060850D01*
X135937903Y-86020866D01*
X135899500Y-85975548D01*
X135860842Y-85927078D01*
X135823651Y-85877638D01*
X135789650Y-85829410D01*
X135760560Y-85784577D01*
X135751449Y-85769393D01*
X135743179Y-85756902D01*
X135739114Y-85751610D01*
X135734053Y-85743446D01*
X135725171Y-85727043D01*
X135713362Y-85704222D01*
X135699521Y-85676802D01*
X135684541Y-85646606D01*
X135669317Y-85615454D01*
X135654744Y-85585167D01*
X135641716Y-85557566D01*
X135631126Y-85534473D01*
X135623870Y-85517708D01*
X135622365Y-85513888D01*
X135606812Y-85472467D01*
X135594682Y-85439676D01*
X135585365Y-85413790D01*
X135578254Y-85393086D01*
X135572738Y-85375838D01*
X135568430Y-85361111D01*
X135562648Y-85340826D01*
X135557365Y-85322958D01*
X135554536Y-85313888D01*
X135551526Y-85303097D01*
X135546649Y-85283765D01*
X135540452Y-85258194D01*
X135533481Y-85228691D01*
X135526281Y-85197558D01*
X135519398Y-85167100D01*
X135514780Y-85146116D01*
X135502127Y-85076147D01*
X135493548Y-85008333D01*
X135490486Y-84979631D01*
X135486883Y-84946203D01*
X135483421Y-84914367D01*
X135482760Y-84908333D01*
X135480800Y-84884620D01*
X135479104Y-84852991D01*
X135477797Y-84816639D01*
X135477002Y-84778758D01*
X135476817Y-84754494D01*
X135476408Y-84712073D01*
X135475327Y-84680517D01*
X135473578Y-84659897D01*
X135471166Y-84650283D01*
X135470581Y-84649672D01*
X135465346Y-84648234D01*
X135457356Y-84649757D01*
X135445112Y-84654918D01*
X135427115Y-84664391D01*
X135401866Y-84678854D01*
X135388680Y-84686613D01*
X135350449Y-84714307D01*
X135312440Y-84751444D01*
X135275882Y-84796405D01*
X135242008Y-84847568D01*
X135212048Y-84903311D01*
X135195158Y-84941474D01*
X135189602Y-84955171D01*
X135179800Y-84940211D01*
X135170676Y-84922129D01*
X135162729Y-84896872D01*
X135155386Y-84862570D01*
X135154621Y-84858333D01*
X135150842Y-84837561D01*
X135146350Y-84813459D01*
X135144322Y-84802777D01*
X135137361Y-84762242D01*
X135132338Y-84722387D01*
X135129026Y-84680302D01*
X135127199Y-84633077D01*
X135126629Y-84577803D01*
X135126629Y-84575640D01*
X135127230Y-84520047D01*
X135129203Y-84473501D01*
X135132872Y-84433984D01*
X135138557Y-84399481D01*
X135146581Y-84367977D01*
X135157265Y-84337456D01*
X135169004Y-84310066D01*
X135176181Y-84294002D01*
X135180981Y-84282466D01*
X135182222Y-84278680D01*
X135185585Y-84271019D01*
X135194588Y-84257124D01*
X135207599Y-84239165D01*
X135222986Y-84219309D01*
X135239119Y-84199726D01*
X135254365Y-84182584D01*
X135255123Y-84181778D01*
X135302218Y-84139756D01*
X135356302Y-84106112D01*
X135417717Y-84080649D01*
X135443333Y-84073000D01*
X135464892Y-84068681D01*
X135494780Y-84064786D01*
X135530214Y-84061586D01*
X135568414Y-84059354D01*
X135591078Y-84058602D01*
X135596993Y-84056481D01*
X135603800Y-84049459D01*
X135612425Y-84036142D01*
X135623796Y-84015137D01*
X135635522Y-83991800D01*
X135668333Y-83925267D01*
X135722172Y-83925133D01*
X135745515Y-83925544D01*
G37*
G36*
X134978802Y-84026070D02*
G01*
X134982222Y-84030555D01*
X134978265Y-84035952D01*
X134977035Y-84036111D01*
X134971188Y-84039726D01*
X134959141Y-84049563D01*
X134942667Y-84064105D01*
X134924122Y-84081289D01*
X134874516Y-84134954D01*
X134830220Y-84196402D01*
X134793262Y-84262802D01*
X134791424Y-84266666D01*
X134781332Y-84287913D01*
X134772541Y-84306133D01*
X134766489Y-84318356D01*
X134765236Y-84320757D01*
X134760689Y-84334227D01*
X134760000Y-84340480D01*
X134757640Y-84351957D01*
X134755383Y-84355833D01*
X134751430Y-84364255D01*
X134745568Y-84381984D01*
X134738257Y-84407470D01*
X134729958Y-84439166D01*
X134726576Y-84452777D01*
X134714503Y-84514826D01*
X134706350Y-84585466D01*
X134702234Y-84662849D01*
X134702272Y-84745126D01*
X134704559Y-84800000D01*
X134706590Y-84831825D01*
X134708988Y-84861591D01*
X134712026Y-84891637D01*
X134715978Y-84924302D01*
X134721118Y-84961924D01*
X134727720Y-85006845D01*
X134732164Y-85036111D01*
X134744856Y-85107409D01*
X134761554Y-85183510D01*
X134781157Y-85259996D01*
X134802566Y-85332447D01*
X134815848Y-85372222D01*
X134822874Y-85392901D01*
X134828924Y-85411892D01*
X134831908Y-85422222D01*
X134836791Y-85437060D01*
X134844383Y-85456266D01*
X134848939Y-85466666D01*
X134856944Y-85484484D01*
X134863528Y-85499640D01*
X134865963Y-85505555D01*
X134877476Y-85532484D01*
X134893536Y-85566488D01*
X134912885Y-85605164D01*
X134934265Y-85646115D01*
X134956417Y-85686938D01*
X134978084Y-85725234D01*
X134998008Y-85758603D01*
X135001672Y-85764472D01*
X135036785Y-85818565D01*
X135072658Y-85870265D01*
X135110403Y-85920917D01*
X135151134Y-85971866D01*
X135195961Y-86024456D01*
X135245998Y-86080033D01*
X135302357Y-86139943D01*
X135366151Y-86205528D01*
X135368130Y-86207536D01*
X135439269Y-86278360D01*
X135504683Y-86340725D01*
X135565053Y-86395249D01*
X135621060Y-86442552D01*
X135662777Y-86475305D01*
X135679460Y-86487586D01*
X135700479Y-86502553D01*
X135724026Y-86518978D01*
X135748293Y-86535635D01*
X135771471Y-86551294D01*
X135791753Y-86564730D01*
X135807330Y-86574714D01*
X135816393Y-86580018D01*
X135817815Y-86580555D01*
X135823770Y-86583301D01*
X135836199Y-86590452D01*
X135850169Y-86599056D01*
X135867048Y-86609491D01*
X135881010Y-86617714D01*
X135887777Y-86621326D01*
X135898121Y-86626733D01*
X135911945Y-86634756D01*
X135912948Y-86635365D01*
X135938165Y-86649762D01*
X135971692Y-86667432D01*
X136011562Y-86687431D01*
X136055806Y-86708815D01*
X136102453Y-86730640D01*
X136149537Y-86751961D01*
X136195088Y-86771835D01*
X136215555Y-86780469D01*
X136263811Y-86799579D01*
X136319493Y-86819979D01*
X136379190Y-86840510D01*
X136439491Y-86860013D01*
X136496983Y-86877327D01*
X136518333Y-86883354D01*
X136538627Y-86889071D01*
X136556499Y-86894301D01*
X136565555Y-86897104D01*
X136578726Y-86900660D01*
X136600387Y-86905665D01*
X136628094Y-86911600D01*
X136659402Y-86917945D01*
X136691866Y-86924179D01*
X136698888Y-86925478D01*
X136722565Y-86930027D01*
X136747178Y-86935056D01*
X136756567Y-86937079D01*
X136787764Y-86942513D01*
X136827677Y-86947245D01*
X136873928Y-86951177D01*
X136924138Y-86954211D01*
X136975929Y-86956249D01*
X137026923Y-86957195D01*
X137074741Y-86956949D01*
X137117005Y-86955414D01*
X137146111Y-86953096D01*
X137175248Y-86949780D01*
X137200114Y-86946468D01*
X137223562Y-86942632D01*
X137248444Y-86937744D01*
X137277613Y-86931278D01*
X137313920Y-86922705D01*
X137325277Y-86919971D01*
X137347669Y-86913394D01*
X137376643Y-86903194D01*
X137408811Y-86890651D01*
X137440784Y-86877046D01*
X137450401Y-86872686D01*
X137494206Y-86849508D01*
X137539901Y-86820109D01*
X137584440Y-86786786D01*
X137624779Y-86751835D01*
X137657872Y-86717553D01*
X137661009Y-86713837D01*
X137690917Y-86674417D01*
X137720258Y-86629600D01*
X137746236Y-86583898D01*
X137762816Y-86549511D01*
X137773649Y-86525882D01*
X137781933Y-86511473D01*
X137788035Y-86506610D01*
X137792320Y-86511616D01*
X137795156Y-86526818D01*
X137796907Y-86552540D01*
X137797765Y-86580555D01*
X137797556Y-86640450D01*
X137794071Y-86700584D01*
X137787027Y-86763515D01*
X137776147Y-86831801D01*
X137762833Y-86900000D01*
X137756709Y-86929352D01*
X137750962Y-86956975D01*
X137746210Y-86979894D01*
X137743070Y-86995140D01*
X137742912Y-86995912D01*
X137738551Y-87013358D01*
X137733644Y-87027586D01*
X137732375Y-87030269D01*
X137727807Y-87044431D01*
X137726666Y-87054928D01*
X137724504Y-87071613D01*
X137721487Y-87081683D01*
X137717195Y-87093888D01*
X137711448Y-87112270D01*
X137706933Y-87127777D01*
X137701539Y-87146050D01*
X137693979Y-87170471D01*
X137685063Y-87198555D01*
X137675600Y-87227815D01*
X137666398Y-87255768D01*
X137658267Y-87279926D01*
X137652015Y-87297805D01*
X137649065Y-87305555D01*
X137645140Y-87315059D01*
X137638098Y-87332258D01*
X137629004Y-87354551D01*
X137620683Y-87375000D01*
X137589082Y-87448344D01*
X137552652Y-87525354D01*
X137512896Y-87603200D01*
X137471316Y-87679053D01*
X137429415Y-87750082D01*
X137388694Y-87813460D01*
X137385000Y-87818894D01*
X137372318Y-87837127D01*
X137356127Y-87859928D01*
X137337702Y-87885554D01*
X137318316Y-87912264D01*
X137299243Y-87938316D01*
X137281759Y-87961968D01*
X137267136Y-87981478D01*
X137256650Y-87995104D01*
X137252044Y-88000653D01*
X137245945Y-88007771D01*
X137235103Y-88021066D01*
X137221617Y-88037960D01*
X137218333Y-88042119D01*
X137199183Y-88064841D01*
X137173118Y-88093455D01*
X137141590Y-88126542D01*
X137106051Y-88162684D01*
X137067953Y-88200461D01*
X137028749Y-88238456D01*
X136989890Y-88275250D01*
X136952830Y-88309425D01*
X136919020Y-88339560D01*
X136889912Y-88364239D01*
X136882222Y-88370440D01*
X136841930Y-88401857D01*
X136799544Y-88433876D01*
X136756492Y-88465496D01*
X136714206Y-88495717D01*
X136674115Y-88523541D01*
X136637650Y-88547968D01*
X136606240Y-88567998D01*
X136581315Y-88582631D01*
X136571111Y-88587911D01*
X136562270Y-88592641D01*
X136547170Y-88601172D01*
X136529444Y-88611444D01*
X136509459Y-88622715D01*
X136483701Y-88636626D01*
X136456372Y-88650923D01*
X136443333Y-88657563D01*
X136420281Y-88669250D01*
X136400006Y-88679670D01*
X136385164Y-88687450D01*
X136379444Y-88690583D01*
X136368352Y-88696359D01*
X136351211Y-88704567D01*
X136330614Y-88714049D01*
X136309158Y-88723648D01*
X136289435Y-88732206D01*
X136274041Y-88738566D01*
X136265571Y-88741570D01*
X136264930Y-88741666D01*
X136257686Y-88743783D01*
X136243780Y-88749253D01*
X136230985Y-88754784D01*
X136208586Y-88764691D01*
X136189827Y-88772595D01*
X136171621Y-88779664D01*
X136150876Y-88787066D01*
X136124503Y-88795966D01*
X136104507Y-88802574D01*
X136032808Y-88825590D01*
X135969404Y-88844653D01*
X135912421Y-88860295D01*
X135859986Y-88873045D01*
X135840555Y-88877307D01*
X135804578Y-88884881D01*
X135775988Y-88890663D01*
X135751325Y-88895288D01*
X135727133Y-88899389D01*
X135699954Y-88903602D01*
X135685000Y-88905824D01*
X135658293Y-88909990D01*
X135634031Y-88914186D01*
X135615329Y-88917852D01*
X135606827Y-88919915D01*
X135597638Y-88921042D01*
X135578932Y-88922027D01*
X135551933Y-88922872D01*
X135517868Y-88923576D01*
X135477960Y-88924141D01*
X135433436Y-88924568D01*
X135385520Y-88924857D01*
X135335438Y-88925011D01*
X135284415Y-88925028D01*
X135233677Y-88924911D01*
X135184448Y-88924661D01*
X135137953Y-88924278D01*
X135095419Y-88923763D01*
X135058069Y-88923117D01*
X135027130Y-88922342D01*
X135003827Y-88921437D01*
X134989384Y-88920405D01*
X134985000Y-88919444D01*
X134977666Y-88915797D01*
X134964013Y-88913955D01*
X134961061Y-88913900D01*
X134941880Y-88912566D01*
X134913725Y-88908796D01*
X134878370Y-88902959D01*
X134837592Y-88895424D01*
X134793167Y-88886561D01*
X134746870Y-88876738D01*
X134700478Y-88866326D01*
X134655766Y-88855694D01*
X134614510Y-88845211D01*
X134578486Y-88835246D01*
X134568333Y-88832220D01*
X134546153Y-88825311D01*
X134520631Y-88817123D01*
X134494731Y-88808635D01*
X134471420Y-88800826D01*
X134453663Y-88794674D01*
X134446111Y-88791873D01*
X134433820Y-88787074D01*
X134417158Y-88780685D01*
X134412777Y-88779022D01*
X134255922Y-88713985D01*
X134105805Y-88640220D01*
X133961955Y-88557450D01*
X133823901Y-88465402D01*
X133691173Y-88363801D01*
X133669912Y-88346233D01*
X133597857Y-88282901D01*
X133524020Y-88212084D01*
X133451042Y-88136493D01*
X133381565Y-88058835D01*
X133334761Y-88002626D01*
X133268930Y-87918059D01*
X133210123Y-87836176D01*
X133156430Y-87753973D01*
X133105943Y-87668447D01*
X133056754Y-87576592D01*
X133029530Y-87522222D01*
X132995278Y-87450300D01*
X132965955Y-87384033D01*
X132940112Y-87319974D01*
X132916301Y-87254678D01*
X132912774Y-87244444D01*
X132906440Y-87226249D01*
X132900926Y-87210939D01*
X132898888Y-87205555D01*
X132894853Y-87193753D01*
X132888681Y-87173850D01*
X132881140Y-87148472D01*
X132872997Y-87120244D01*
X132865018Y-87091790D01*
X132857971Y-87065735D01*
X132857485Y-87063888D01*
X132851632Y-87041732D01*
X132846065Y-87020885D01*
X132842664Y-87008333D01*
X132839173Y-86994484D01*
X132834180Y-86973234D01*
X132828489Y-86948053D01*
X132825255Y-86933333D01*
X132822908Y-86922186D01*
X132820880Y-86911328D01*
X132819145Y-86899872D01*
X132817675Y-86886932D01*
X132816442Y-86871622D01*
X132815419Y-86853057D01*
X132814577Y-86830350D01*
X132813891Y-86802616D01*
X132813331Y-86768967D01*
X132812871Y-86728519D01*
X132812482Y-86680386D01*
X132812138Y-86623681D01*
X132811810Y-86557519D01*
X132811518Y-86491868D01*
X132811223Y-86411096D01*
X132811086Y-86341001D01*
X132811113Y-86281150D01*
X132811309Y-86231111D01*
X132811678Y-86190449D01*
X132812227Y-86158733D01*
X132812959Y-86135529D01*
X132813880Y-86120404D01*
X132814996Y-86112926D01*
X132815937Y-86112048D01*
X132819769Y-86120461D01*
X132823675Y-86136300D01*
X132826444Y-86153513D01*
X132832533Y-86189666D01*
X132842629Y-86234303D01*
X132856222Y-86285756D01*
X132872803Y-86342358D01*
X132891863Y-86402440D01*
X132912891Y-86464335D01*
X132935379Y-86526375D01*
X132958817Y-86586892D01*
X132958848Y-86586969D01*
X132968389Y-86610520D01*
X132977455Y-86632264D01*
X132987477Y-86655551D01*
X132999887Y-86683729D01*
X133008362Y-86702777D01*
X133016575Y-86720472D01*
X133028199Y-86744520D01*
X133042398Y-86773290D01*
X133058342Y-86805152D01*
X133075196Y-86838474D01*
X133092128Y-86871627D01*
X133108306Y-86902979D01*
X133122895Y-86930899D01*
X133135064Y-86953757D01*
X133143979Y-86969922D01*
X133148807Y-86977764D01*
X133148818Y-86977777D01*
X133153826Y-86985466D01*
X133162013Y-86999407D01*
X133168578Y-87011111D01*
X133186272Y-87041271D01*
X133209669Y-87078155D01*
X133237466Y-87119863D01*
X133268360Y-87164494D01*
X133301046Y-87210149D01*
X133334222Y-87254926D01*
X133350186Y-87275872D01*
X133368256Y-87299259D01*
X133383591Y-87318793D01*
X133397602Y-87336093D01*
X133411699Y-87352782D01*
X133427291Y-87370480D01*
X133445790Y-87390810D01*
X133468606Y-87415393D01*
X133497148Y-87445850D01*
X133508909Y-87458364D01*
X133582704Y-87533924D01*
X133657485Y-87604315D01*
X133736192Y-87672151D01*
X133821762Y-87740050D01*
X133846111Y-87758497D01*
X133872707Y-87778477D01*
X133892288Y-87793159D01*
X133906743Y-87803893D01*
X133917960Y-87812027D01*
X133927829Y-87818910D01*
X133938239Y-87825891D01*
X133951078Y-87834318D01*
X133965679Y-87843865D01*
X133987717Y-87858334D01*
X134009190Y-87872499D01*
X134026228Y-87883807D01*
X134029444Y-87885956D01*
X134057172Y-87903516D01*
X134092857Y-87924558D01*
X134134355Y-87947943D01*
X134179518Y-87972526D01*
X134226204Y-87997166D01*
X134272265Y-88020721D01*
X134315557Y-88042049D01*
X134353935Y-88060008D01*
X134368333Y-88066384D01*
X134382789Y-88072945D01*
X134401992Y-88082030D01*
X134414679Y-88088191D01*
X134431752Y-88096053D01*
X134445312Y-88101349D01*
X134451135Y-88102777D01*
X134460028Y-88105055D01*
X134474241Y-88110770D01*
X134479936Y-88113418D01*
X134503331Y-88123567D01*
X134535727Y-88135916D01*
X134575376Y-88149862D01*
X134620528Y-88164799D01*
X134669436Y-88180123D01*
X134696111Y-88188145D01*
X134720256Y-88195315D01*
X134742196Y-88201857D01*
X134758446Y-88206731D01*
X134762777Y-88208043D01*
X134776745Y-88211885D01*
X134797060Y-88216990D01*
X134818333Y-88222022D01*
X134841504Y-88227448D01*
X134863603Y-88232831D01*
X134878554Y-88236665D01*
X134903685Y-88242580D01*
X134937514Y-88249303D01*
X134977688Y-88256468D01*
X135021858Y-88263705D01*
X135067671Y-88270646D01*
X135112776Y-88276924D01*
X135154822Y-88282168D01*
X135191458Y-88286011D01*
X135196111Y-88286424D01*
X135249812Y-88290222D01*
X135309662Y-88293015D01*
X135372989Y-88294782D01*
X135437119Y-88295503D01*
X135499380Y-88295158D01*
X135557098Y-88293726D01*
X135607601Y-88291186D01*
X135626666Y-88289728D01*
X135667482Y-88286026D01*
X135698191Y-88282809D01*
X135719776Y-88279887D01*
X135733220Y-88277076D01*
X135739507Y-88274187D01*
X135739620Y-88271033D01*
X135736854Y-88268756D01*
X135726123Y-88265311D01*
X135712777Y-88264020D01*
X135698540Y-88262761D01*
X135678318Y-88259525D01*
X135660000Y-88255780D01*
X135634242Y-88250129D01*
X135606552Y-88244351D01*
X135590555Y-88241177D01*
X135554700Y-88233719D01*
X135512153Y-88223952D01*
X135466850Y-88212815D01*
X135422725Y-88201249D01*
X135418333Y-88200052D01*
X135376824Y-88188642D01*
X135344518Y-88179637D01*
X135319883Y-88172576D01*
X135301385Y-88166999D01*
X135287492Y-88162446D01*
X135276672Y-88158455D01*
X135268333Y-88154981D01*
X135255338Y-88149979D01*
X135235355Y-88143065D01*
X135212044Y-88135490D01*
X135204444Y-88133120D01*
X135182687Y-88126039D01*
X135164910Y-88119561D01*
X135153882Y-88114725D01*
X135151944Y-88113447D01*
X135142171Y-88108959D01*
X135136818Y-88108333D01*
X135126545Y-88106091D01*
X135110441Y-88100312D01*
X135097651Y-88094808D01*
X135078866Y-88086447D01*
X135054099Y-88075835D01*
X135027696Y-88064824D01*
X135018333Y-88061000D01*
X134991458Y-88049494D01*
X134957359Y-88033981D01*
X134918301Y-88015576D01*
X134876551Y-87995394D01*
X134834374Y-87974552D01*
X134794038Y-87954166D01*
X134757807Y-87935350D01*
X134727948Y-87919221D01*
X134712777Y-87910557D01*
X134609243Y-87847719D01*
X134515806Y-87787611D01*
X134431901Y-87729842D01*
X134356961Y-87674025D01*
X134291004Y-87620269D01*
X134256130Y-87590243D01*
X134227422Y-87565070D01*
X134202484Y-87542521D01*
X134178917Y-87520372D01*
X134154324Y-87496394D01*
X134126308Y-87468361D01*
X134113727Y-87455637D01*
X134059037Y-87399534D01*
X134010991Y-87348582D01*
X133967832Y-87300659D01*
X133927803Y-87253645D01*
X133889146Y-87205418D01*
X133850104Y-87153859D01*
X133808919Y-87096845D01*
X133768411Y-87038888D01*
X133742750Y-86999876D01*
X133714393Y-86953578D01*
X133684772Y-86902593D01*
X133655319Y-86849521D01*
X133627467Y-86796960D01*
X133602646Y-86747510D01*
X133582291Y-86703768D01*
X133577065Y-86691666D01*
X133567947Y-86670224D01*
X133558776Y-86648929D01*
X133554393Y-86638888D01*
X133540892Y-86606714D01*
X133525883Y-86568467D01*
X133511118Y-86528695D01*
X133502957Y-86505555D01*
X133495209Y-86483151D01*
X133487870Y-86462092D01*
X133482629Y-86447222D01*
X133475967Y-86426639D01*
X133467533Y-86397732D01*
X133457977Y-86363022D01*
X133447950Y-86325029D01*
X133438102Y-86286272D01*
X133429081Y-86249273D01*
X133421539Y-86216551D01*
X133416125Y-86190627D01*
X133415288Y-86186111D01*
X133408166Y-86146148D01*
X133402418Y-86113109D01*
X133397667Y-86084426D01*
X133393534Y-86057531D01*
X133389642Y-86029859D01*
X133385614Y-85998840D01*
X133381072Y-85961909D01*
X133375659Y-85916666D01*
X133373762Y-85894442D01*
X133372197Y-85863571D01*
X133370961Y-85825708D01*
X133370053Y-85782509D01*
X133369471Y-85735631D01*
X133369213Y-85686731D01*
X133369278Y-85637464D01*
X133369663Y-85589487D01*
X133370367Y-85544456D01*
X133371388Y-85504027D01*
X133372724Y-85469858D01*
X133374374Y-85443603D01*
X133376182Y-85427777D01*
X133380644Y-85400177D01*
X133385151Y-85369644D01*
X133387797Y-85350000D01*
X133391252Y-85325771D01*
X133395289Y-85301891D01*
X133398474Y-85286111D01*
X133403110Y-85265352D01*
X133408290Y-85241265D01*
X133410526Y-85230555D01*
X133420849Y-85186606D01*
X133435737Y-85132779D01*
X133455127Y-85069295D01*
X133461296Y-85050000D01*
X133468852Y-85027658D01*
X133475732Y-85009241D01*
X133480911Y-84997403D01*
X133482600Y-84994722D01*
X133487109Y-84984984D01*
X133487777Y-84979369D01*
X133490453Y-84965780D01*
X133493095Y-84959646D01*
X133497247Y-84951500D01*
X133505251Y-84935284D01*
X133516153Y-84912951D01*
X133529000Y-84886448D01*
X133537203Y-84869444D01*
X133556718Y-84829314D01*
X133573252Y-84796517D01*
X133588395Y-84768257D01*
X133603738Y-84741743D01*
X133620873Y-84714178D01*
X133641391Y-84682769D01*
X133655857Y-84661111D01*
X133685755Y-84617681D01*
X133713921Y-84579466D01*
X133742518Y-84543860D01*
X133773709Y-84508257D01*
X133809656Y-84470051D01*
X133840555Y-84438608D01*
X133872029Y-84407798D01*
X133902850Y-84379095D01*
X133931939Y-84353373D01*
X133958221Y-84331510D01*
X133980615Y-84314382D01*
X133998046Y-84302865D01*
X134009434Y-84297835D01*
X134013019Y-84298390D01*
X134011061Y-84303610D01*
X134003608Y-84315146D01*
X133992175Y-84330691D01*
X133989781Y-84333776D01*
X133966610Y-84364553D01*
X133945842Y-84394974D01*
X133926260Y-84427165D01*
X133906649Y-84463254D01*
X133885793Y-84505367D01*
X133862478Y-84555632D01*
X133860452Y-84560109D01*
X133852119Y-84579539D01*
X133846028Y-84595623D01*
X133843366Y-84605200D01*
X133843333Y-84605754D01*
X133841238Y-84615869D01*
X133836128Y-84630192D01*
X133835465Y-84631755D01*
X133827635Y-84652882D01*
X133818683Y-84681815D01*
X133809488Y-84715432D01*
X133800925Y-84750609D01*
X133796813Y-84769444D01*
X133777214Y-84880047D01*
X133764779Y-84990313D01*
X133759460Y-85102168D01*
X133761206Y-85217537D01*
X133769969Y-85338348D01*
X133779964Y-85425000D01*
X133784934Y-85462348D01*
X133789333Y-85493687D01*
X133793626Y-85521716D01*
X133798275Y-85549134D01*
X133803744Y-85578643D01*
X133810496Y-85612940D01*
X133818996Y-85654728D01*
X133821449Y-85666666D01*
X133826812Y-85691097D01*
X133833994Y-85721472D01*
X133842475Y-85755813D01*
X133851734Y-85792142D01*
X133861248Y-85828482D01*
X133870498Y-85862854D01*
X133878962Y-85893282D01*
X133886120Y-85917786D01*
X133891449Y-85934390D01*
X133893169Y-85938888D01*
X133898607Y-85953714D01*
X133900765Y-85961111D01*
X133905333Y-85976214D01*
X133913187Y-85999129D01*
X133923410Y-86027380D01*
X133935085Y-86058494D01*
X133947293Y-86089998D01*
X133959117Y-86119416D01*
X133962583Y-86127777D01*
X133969338Y-86143807D01*
X133975524Y-86158073D01*
X133982182Y-86172834D01*
X133990352Y-86190347D01*
X134001075Y-86212870D01*
X134015393Y-86242660D01*
X134018929Y-86250000D01*
X134036720Y-86286446D01*
X134052621Y-86317729D01*
X134068157Y-86346566D01*
X134084853Y-86375673D01*
X134104235Y-86407765D01*
X134127826Y-86445558D01*
X134135901Y-86458333D01*
X134170809Y-86510355D01*
X134212412Y-86567219D01*
X134258853Y-86626676D01*
X134308272Y-86686476D01*
X134358812Y-86744370D01*
X134408616Y-86798109D01*
X134455063Y-86844714D01*
X134517223Y-86901999D01*
X134586937Y-86961753D01*
X134664945Y-87024581D01*
X134751991Y-87091091D01*
X134796116Y-87123706D01*
X134803717Y-87129334D01*
X134816339Y-87138730D01*
X134822134Y-87143055D01*
X134834867Y-87152163D01*
X134843547Y-87157629D01*
X134845300Y-87158333D01*
X134850875Y-87161080D01*
X134863689Y-87168472D01*
X134881574Y-87179240D01*
X134894282Y-87187068D01*
X134929143Y-87207626D01*
X134971228Y-87230726D01*
X135017435Y-87254795D01*
X135064665Y-87278261D01*
X135109820Y-87299552D01*
X135149799Y-87317096D01*
X135154444Y-87319016D01*
X135191110Y-87334054D01*
X135219071Y-87345567D01*
X135239917Y-87354212D01*
X135255237Y-87360649D01*
X135262777Y-87363871D01*
X135278800Y-87370233D01*
X135300620Y-87378235D01*
X135324032Y-87386404D01*
X135344831Y-87393269D01*
X135357222Y-87396952D01*
X135371256Y-87400998D01*
X135391194Y-87407161D01*
X135410000Y-87413219D01*
X135477405Y-87434010D01*
X135523888Y-87446619D01*
X135542560Y-87451435D01*
X135565190Y-87457386D01*
X135576666Y-87460446D01*
X135599412Y-87466320D01*
X135622588Y-87471959D01*
X135632222Y-87474164D01*
X135651560Y-87478486D01*
X135675623Y-87483935D01*
X135693333Y-87487984D01*
X135718439Y-87493269D01*
X135747662Y-87498722D01*
X135771111Y-87502600D01*
X135798736Y-87506912D01*
X135830235Y-87512010D01*
X135857222Y-87516527D01*
X135929856Y-87527080D01*
X136010727Y-87535519D01*
X136097144Y-87541749D01*
X136186418Y-87545675D01*
X136275858Y-87547202D01*
X136362775Y-87546237D01*
X136444480Y-87542685D01*
X136493968Y-87538902D01*
X136530577Y-87535062D01*
X136558168Y-87531152D01*
X136576319Y-87527290D01*
X136584611Y-87523595D01*
X136582622Y-87520184D01*
X136570948Y-87517334D01*
X136551797Y-87514598D01*
X136531099Y-87512071D01*
X136529444Y-87511892D01*
X136513699Y-87509749D01*
X136491123Y-87506105D01*
X136465780Y-87501627D01*
X136457222Y-87500027D01*
X136431356Y-87495131D01*
X136406399Y-87490439D01*
X136386672Y-87486761D01*
X136382222Y-87485940D01*
X136356777Y-87480668D01*
X136324097Y-87472993D01*
X136287580Y-87463728D01*
X136271111Y-87459340D01*
X136229381Y-87447940D01*
X136195215Y-87438296D01*
X136165409Y-87429436D01*
X136136754Y-87420389D01*
X136106044Y-87410185D01*
X136085162Y-87403057D01*
X136036111Y-87386048D01*
X135994681Y-87371238D01*
X135958348Y-87357579D01*
X135924584Y-87344022D01*
X135890863Y-87329520D01*
X135854658Y-87313025D01*
X135813443Y-87293489D01*
X135768333Y-87271638D01*
X135715495Y-87245637D01*
X135670273Y-87222715D01*
X135630128Y-87201440D01*
X135592521Y-87180385D01*
X135554911Y-87158118D01*
X135514760Y-87133211D01*
X135469528Y-87104234D01*
X135460000Y-87098052D01*
X135402601Y-87058943D01*
X135340701Y-87013536D01*
X135277022Y-86963976D01*
X135214284Y-86912406D01*
X135155208Y-86860973D01*
X135129948Y-86837891D01*
X135106035Y-86815063D01*
X135078396Y-86787704D01*
X135048539Y-86757400D01*
X135017969Y-86725739D01*
X134988193Y-86694305D01*
X134960718Y-86664687D01*
X134937051Y-86638470D01*
X134918696Y-86617241D01*
X134909330Y-86605555D01*
X134898411Y-86591953D01*
X134883811Y-86574878D01*
X134874005Y-86563888D01*
X134853002Y-86539135D01*
X134827617Y-86506453D01*
X134799012Y-86467544D01*
X134768351Y-86424108D01*
X134736794Y-86377845D01*
X134705505Y-86330458D01*
X134675645Y-86283646D01*
X134648377Y-86239110D01*
X134627236Y-86202777D01*
X134617832Y-86185371D01*
X134604770Y-86160188D01*
X134589174Y-86129482D01*
X134572168Y-86095508D01*
X134554876Y-86060517D01*
X134538420Y-86026765D01*
X134523925Y-85996504D01*
X134516448Y-85980555D01*
X134506628Y-85958005D01*
X134494396Y-85927894D01*
X134480883Y-85893195D01*
X134467218Y-85856880D01*
X134454529Y-85821920D01*
X134443948Y-85791287D01*
X134440444Y-85780555D01*
X134434309Y-85761651D01*
X134428940Y-85745690D01*
X134426521Y-85738888D01*
X134422954Y-85727873D01*
X134417792Y-85710142D01*
X134412728Y-85691666D01*
X134406387Y-85668180D01*
X134399921Y-85644757D01*
X134395899Y-85630555D01*
X134390339Y-85609795D01*
X134384487Y-85585705D01*
X134382087Y-85575000D01*
X134376935Y-85551281D01*
X134371093Y-85524615D01*
X134368114Y-85511111D01*
X134363254Y-85486969D01*
X134358294Y-85458887D01*
X134355184Y-85438888D01*
X134351318Y-85412091D01*
X134346862Y-85381624D01*
X134343412Y-85358333D01*
X134338903Y-85321079D01*
X134335050Y-85275360D01*
X134331963Y-85223808D01*
X134329752Y-85169057D01*
X134328527Y-85113738D01*
X134328399Y-85060484D01*
X134329214Y-85019444D01*
X134332105Y-84956902D01*
X134336737Y-84900977D01*
X134343592Y-84847243D01*
X134353152Y-84791278D01*
X134355211Y-84780555D01*
X134369562Y-84719110D01*
X134388853Y-84654835D01*
X134411947Y-84590723D01*
X134437705Y-84529769D01*
X134464991Y-84474965D01*
X134483143Y-84443844D01*
X134493585Y-84426738D01*
X134501180Y-84413397D01*
X134504418Y-84406487D01*
X134504444Y-84406265D01*
X134507653Y-84400391D01*
X134516071Y-84388471D01*
X134527885Y-84373068D01*
X134528055Y-84372854D01*
X134543893Y-84352850D01*
X134562506Y-84329288D01*
X134579444Y-84307802D01*
X134613041Y-84269015D01*
X134653734Y-84228231D01*
X134698528Y-84188104D01*
X134744430Y-84151291D01*
X134788445Y-84120445D01*
X134796307Y-84115503D01*
X134827268Y-84097065D01*
X134860396Y-84078365D01*
X134891616Y-84061657D01*
X134912777Y-84051098D01*
X134931523Y-84042124D01*
X134947266Y-84034439D01*
X134955757Y-84030144D01*
X134968761Y-84025605D01*
X134978802Y-84026070D01*
G37*
D13*
%TO.C,JP2*%
X116640000Y-120670000D02*
X116640000Y-123330000D01*
X119240000Y-120670000D02*
X116640000Y-120670000D01*
X119240000Y-120670000D02*
X119240000Y-123330000D01*
X119240000Y-123330000D02*
X116640000Y-123330000D01*
X120510000Y-120670000D02*
X121840000Y-120670000D01*
X121840000Y-120670000D02*
X121840000Y-122000000D01*
%TO.C,J4*%
X142055000Y-90465000D02*
X142055000Y-95665000D01*
X159895000Y-90465000D02*
X142055000Y-90465000D01*
X159895000Y-90465000D02*
X159895000Y-93065000D01*
X159895000Y-93065000D02*
X162495000Y-93065000D01*
X161165000Y-90465000D02*
X162495000Y-90465000D01*
X162495000Y-90465000D02*
X162495000Y-91795000D01*
X162495000Y-93065000D02*
X162495000Y-95665000D01*
X162495000Y-95665000D02*
X142055000Y-95665000D01*
%TO.C,JP1*%
X124940000Y-104465000D02*
X126270000Y-104465000D01*
X124940000Y-105795000D02*
X124940000Y-104465000D01*
X124940000Y-107065000D02*
X124940000Y-112205000D01*
X124940000Y-107065000D02*
X127600000Y-107065000D01*
X124940000Y-112205000D02*
X127600000Y-112205000D01*
X127600000Y-107065000D02*
X127600000Y-112205000D01*
%TO.C,J1*%
X118254100Y-83473000D02*
X118254100Y-85173000D01*
X127594100Y-83473000D02*
X127594100Y-85173000D01*
%TO.C,JP3*%
X116640000Y-116270000D02*
X116640000Y-118930000D01*
X119240000Y-116270000D02*
X116640000Y-116270000D01*
X119240000Y-116270000D02*
X119240000Y-118930000D01*
X119240000Y-118930000D02*
X116640000Y-118930000D01*
X120510000Y-116270000D02*
X121840000Y-116270000D01*
X121840000Y-116270000D02*
X121840000Y-117600000D01*
%TO.C,J5*%
X142055000Y-117985000D02*
X162495000Y-117985000D01*
X142055000Y-120585000D02*
X142055000Y-117985000D01*
X142055000Y-123185000D02*
X142055000Y-121855000D01*
X143385000Y-123185000D02*
X142055000Y-123185000D01*
X144655000Y-120585000D02*
X142055000Y-120585000D01*
X144655000Y-123185000D02*
X144655000Y-120585000D01*
X144655000Y-123185000D02*
X162495000Y-123185000D01*
X162495000Y-123185000D02*
X162495000Y-117985000D01*
%TO.C,SW1*%
X162150000Y-82185000D02*
X162150000Y-86685000D01*
X164650000Y-87935000D02*
X166150000Y-87935000D01*
X166150000Y-80935000D02*
X164650000Y-80935000D01*
X168650000Y-86685000D02*
X168650000Y-82185000D01*
%TO.C,R1*%
X167187064Y-92100000D02*
X166732936Y-92100000D01*
X167187064Y-93570000D02*
X166732936Y-93570000D01*
%TO.C,U1*%
X119089100Y-94623000D02*
X119089100Y-92673000D01*
X119089100Y-94623000D02*
X119089100Y-96573000D01*
X124209100Y-94623000D02*
X124209100Y-92673000D01*
X124209100Y-94623000D02*
X124209100Y-96573000D01*
X124444100Y-92163000D02*
X124114100Y-91923000D01*
X124444100Y-91683000D01*
X124444100Y-92163000D01*
G36*
X124444100Y-92163000D02*
G01*
X124114100Y-91923000D01*
X124444100Y-91683000D01*
X124444100Y-92163000D01*
G37*
%TO.C,Y1*%
X136445000Y-117825000D02*
X130045000Y-117825000D01*
X136445000Y-122875000D02*
X130045000Y-122875000D01*
X130045000Y-122875000D02*
G75*
G02*
X130045000Y-117825000I0J2525000D01*
G01*
X136445000Y-117825000D02*
G75*
G02*
X136445000Y-122875000I0J-2525000D01*
G01*
%TO.C,U2*%
X147165000Y-101715000D02*
X147165000Y-102665000D01*
X147165000Y-111935000D02*
X147165000Y-110985000D01*
X148115000Y-101715000D02*
X147165000Y-101715000D01*
X148115000Y-111935000D02*
X147165000Y-111935000D01*
X156435000Y-101715000D02*
X157385000Y-101715000D01*
X156435000Y-111935000D02*
X157385000Y-111935000D01*
X157385000Y-101715000D02*
X157385000Y-102665000D01*
X157385000Y-111935000D02*
X157385000Y-110985000D01*
X146550000Y-102665000D02*
X146210000Y-102195000D01*
X146890000Y-102195000D01*
X146550000Y-102665000D01*
G36*
X146550000Y-102665000D02*
G01*
X146210000Y-102195000D01*
X146890000Y-102195000D01*
X146550000Y-102665000D01*
G37*
%TO.C,J6*%
X163435000Y-117045000D02*
X163435000Y-96605000D01*
X166035000Y-114445000D02*
X166035000Y-117045000D01*
X166035000Y-117045000D02*
X163435000Y-117045000D01*
X168635000Y-96605000D02*
X163435000Y-96605000D01*
X168635000Y-114445000D02*
X166035000Y-114445000D01*
X168635000Y-114445000D02*
X168635000Y-96605000D01*
X168635000Y-115715000D02*
X168635000Y-117045000D01*
X168635000Y-117045000D02*
X167305000Y-117045000D01*
%TD*%
%LPC*%
D15*
%TO.C,J2*%
X143301200Y-81762800D03*
D16*
X145841200Y-81762800D03*
X148381200Y-81762800D03*
X150921200Y-81762800D03*
X153461200Y-81762800D03*
X156001200Y-81762800D03*
%TD*%
D17*
%TO.C,C1*%
X126729100Y-95673000D03*
X126729100Y-93773000D03*
%TD*%
D18*
%TO.C,R2*%
X134410000Y-113812500D03*
X134410000Y-115637500D03*
%TD*%
D15*
%TO.C,J3*%
X137245000Y-97935000D03*
D16*
X139785000Y-97935000D03*
X137245000Y-100475000D03*
X139785000Y-100475000D03*
X137245000Y-103015000D03*
X139785000Y-103015000D03*
X137245000Y-105555000D03*
X139785000Y-105555000D03*
X137245000Y-108095000D03*
X139785000Y-108095000D03*
X137245000Y-110635000D03*
X139785000Y-110635000D03*
X137245000Y-113175000D03*
X139785000Y-113175000D03*
X137245000Y-115715000D03*
X139785000Y-115715000D03*
%TD*%
D18*
%TO.C,R3*%
X132285000Y-113812500D03*
X132285000Y-115637500D03*
%TD*%
D15*
%TO.C,JP2*%
X120510000Y-122000000D03*
D16*
X117970000Y-122000000D03*
%TD*%
D15*
%TO.C,J4*%
X161165000Y-91795000D03*
D16*
X161165000Y-94335000D03*
X158625000Y-91795000D03*
X158625000Y-94335000D03*
X156085000Y-91795000D03*
X156085000Y-94335000D03*
X153545000Y-91795000D03*
X153545000Y-94335000D03*
X151005000Y-91795000D03*
X151005000Y-94335000D03*
X148465000Y-91795000D03*
X148465000Y-94335000D03*
X145925000Y-91795000D03*
X145925000Y-94335000D03*
X143385000Y-91795000D03*
X143385000Y-94335000D03*
%TD*%
D19*
%TO.C,H1*%
X119210000Y-113300000D03*
%TD*%
D15*
%TO.C,JP1*%
X126270000Y-105795000D03*
D16*
X126270000Y-108335000D03*
X126270000Y-110875000D03*
%TD*%
D20*
%TO.C,J1*%
X125814100Y-85978000D03*
X120034100Y-85978000D03*
D21*
X126124100Y-87053000D03*
X125324100Y-87053000D03*
D22*
X124174100Y-87053000D03*
X123174100Y-87053000D03*
X122674100Y-87053000D03*
X121674100Y-87053000D03*
D21*
X120524100Y-87053000D03*
X119724100Y-87053000D03*
X119724100Y-87053000D03*
X120524100Y-87053000D03*
D22*
X121174100Y-87053000D03*
X122174100Y-87053000D03*
X123674100Y-87053000D03*
X124674100Y-87053000D03*
D21*
X125324100Y-87053000D03*
X126124100Y-87053000D03*
D23*
X127244100Y-86478000D03*
D24*
X127244100Y-82298000D03*
D23*
X118604100Y-86478000D03*
D24*
X118604100Y-82298000D03*
%TD*%
D15*
%TO.C,JP3*%
X120510000Y-117600000D03*
D16*
X117970000Y-117600000D03*
%TD*%
D15*
%TO.C,J5*%
X143385000Y-121855000D03*
D16*
X143385000Y-119315000D03*
X145925000Y-121855000D03*
X145925000Y-119315000D03*
X148465000Y-121855000D03*
X148465000Y-119315000D03*
X151005000Y-121855000D03*
X151005000Y-119315000D03*
X153545000Y-121855000D03*
X153545000Y-119315000D03*
X156085000Y-121855000D03*
X156085000Y-119315000D03*
X158625000Y-121855000D03*
X158625000Y-119315000D03*
X161165000Y-121855000D03*
X161165000Y-119315000D03*
%TD*%
D25*
%TO.C,SW1*%
X163150000Y-87685000D03*
X163150000Y-81185000D03*
X167650000Y-87685000D03*
X167650000Y-81185000D03*
%TD*%
D19*
%TO.C,H3*%
X165985000Y-120800000D03*
%TD*%
D26*
%TO.C,R1*%
X167872500Y-92835000D03*
X166047500Y-92835000D03*
%TD*%
D27*
%TO.C,U1*%
X123554100Y-91998000D03*
X122284100Y-91998000D03*
X121014100Y-91998000D03*
X119744100Y-91998000D03*
X119744100Y-97248000D03*
X121014100Y-97248000D03*
X122284100Y-97248000D03*
X123554100Y-97248000D03*
%TD*%
D28*
%TO.C,Y1*%
X135685000Y-120350000D03*
X130805000Y-120350000D03*
%TD*%
D19*
%TO.C,H2*%
X138535000Y-93025000D03*
%TD*%
D29*
%TO.C,U2*%
X146600000Y-103075000D03*
X146600000Y-103575000D03*
X146600000Y-104075000D03*
X146600000Y-104575000D03*
X146600000Y-105075000D03*
X146600000Y-105575000D03*
X146600000Y-106075000D03*
X146600000Y-106575000D03*
X146600000Y-107075000D03*
X146600000Y-107575000D03*
X146600000Y-108075000D03*
X146600000Y-108575000D03*
X146600000Y-109075000D03*
X146600000Y-109575000D03*
X146600000Y-110075000D03*
X146600000Y-110575000D03*
D30*
X148525000Y-112500000D03*
X149025000Y-112500000D03*
X149525000Y-112500000D03*
X150025000Y-112500000D03*
X150525000Y-112500000D03*
X151025000Y-112500000D03*
X151525000Y-112500000D03*
X152025000Y-112500000D03*
X152525000Y-112500000D03*
X153025000Y-112500000D03*
X153525000Y-112500000D03*
X154025000Y-112500000D03*
X154525000Y-112500000D03*
X155025000Y-112500000D03*
X155525000Y-112500000D03*
X156025000Y-112500000D03*
D29*
X157950000Y-110575000D03*
X157950000Y-110075000D03*
X157950000Y-109575000D03*
X157950000Y-109075000D03*
X157950000Y-108575000D03*
X157950000Y-108075000D03*
X157950000Y-107575000D03*
X157950000Y-107075000D03*
X157950000Y-106575000D03*
X157950000Y-106075000D03*
X157950000Y-105575000D03*
X157950000Y-105075000D03*
X157950000Y-104575000D03*
X157950000Y-104075000D03*
X157950000Y-103575000D03*
X157950000Y-103075000D03*
D30*
X156025000Y-101150000D03*
X155525000Y-101150000D03*
X155025000Y-101150000D03*
X154525000Y-101150000D03*
X154025000Y-101150000D03*
X153525000Y-101150000D03*
X153025000Y-101150000D03*
X152525000Y-101150000D03*
X152025000Y-101150000D03*
X151525000Y-101150000D03*
X151025000Y-101150000D03*
X150525000Y-101150000D03*
X150025000Y-101150000D03*
X149525000Y-101150000D03*
X149025000Y-101150000D03*
X148525000Y-101150000D03*
%TD*%
D15*
%TO.C,J6*%
X167305000Y-115715000D03*
D16*
X164765000Y-115715000D03*
X167305000Y-113175000D03*
X164765000Y-113175000D03*
X167305000Y-110635000D03*
X164765000Y-110635000D03*
X167305000Y-108095000D03*
X164765000Y-108095000D03*
X167305000Y-105555000D03*
X164765000Y-105555000D03*
X167305000Y-103015000D03*
X164765000Y-103015000D03*
X167305000Y-100475000D03*
X164765000Y-100475000D03*
X167305000Y-97935000D03*
X164765000Y-97935000D03*
%TD*%
%LPD*%
M02*
