%TF.GenerationSoftware,KiCad,Pcbnew,9.0.0*%
%TF.CreationDate,2025-03-02T16:29:17+08:00*%
%TF.ProjectId,Mini-K1-64,4d696e69-2d4b-4312-9d36-342e6b696361,rev?*%
%TF.SameCoordinates,Original*%
%TF.FileFunction,Soldermask,Top*%
%TF.FilePolarity,Negative*%
%FSLAX46Y46*%
G04 Gerber Fmt 4.6, Leading zero omitted, Abs format (unit mm)*
G04 Created by KiCad (PCBNEW 9.0.0) date 2025-03-02 16:29:17*
%MOMM*%
%LPD*%
G01*
G04 APERTURE LIST*
G04 Aperture macros list*
%AMRoundRect*
0 Rectangle with rounded corners*
0 $1 Rounding radius*
0 $2 $3 $4 $5 $6 $7 $8 $9 X,Y pos of 4 corners*
0 Add a 4 corners polygon primitive as box body*
4,1,4,$2,$3,$4,$5,$6,$7,$8,$9,$2,$3,0*
0 Add four circle primitives for the rounded corners*
1,1,$1+$1,$2,$3*
1,1,$1+$1,$4,$5*
1,1,$1+$1,$6,$7*
1,1,$1+$1,$8,$9*
0 Add four rect primitives between the rounded corners*
20,1,$1+$1,$2,$3,$4,$5,0*
20,1,$1+$1,$4,$5,$6,$7,0*
20,1,$1+$1,$6,$7,$8,$9,0*
20,1,$1+$1,$8,$9,$2,$3,0*%
G04 Aperture macros list end*
%ADD10R,1.000000X1.000000*%
%ADD11O,1.000000X1.000000*%
%ADD12RoundRect,0.250000X0.475000X-0.250000X0.475000X0.250000X-0.475000X0.250000X-0.475000X-0.250000X0*%
%ADD13RoundRect,0.250000X-0.450000X0.262500X-0.450000X-0.262500X0.450000X-0.262500X0.450000X0.262500X0*%
%ADD14R,1.700000X1.700000*%
%ADD15O,1.700000X1.700000*%
%ADD16C,3.500000*%
%ADD17RoundRect,0.250000X-0.262500X-0.450000X0.262500X-0.450000X0.262500X0.450000X-0.262500X0.450000X0*%
%ADD18C,0.650000*%
%ADD19RoundRect,0.150000X0.150000X0.425000X-0.150000X0.425000X-0.150000X-0.425000X0.150000X-0.425000X0*%
%ADD20RoundRect,0.075000X0.075000X0.500000X-0.075000X0.500000X-0.075000X-0.500000X0.075000X-0.500000X0*%
%ADD21O,1.000000X2.100000*%
%ADD22O,1.000000X1.800000*%
%ADD23C,2.000000*%
%ADD24RoundRect,0.150000X-0.150000X0.675000X-0.150000X-0.675000X0.150000X-0.675000X0.150000X0.675000X0*%
%ADD25C,1.500000*%
%ADD26RoundRect,0.075000X-0.700000X-0.075000X0.700000X-0.075000X0.700000X0.075000X-0.700000X0.075000X0*%
%ADD27RoundRect,0.075000X-0.075000X-0.700000X0.075000X-0.700000X0.075000X0.700000X-0.075000X0.700000X0*%
%ADD28RoundRect,0.250000X0.262500X0.450000X-0.262500X0.450000X-0.262500X-0.450000X0.262500X-0.450000X0*%
G04 APERTURE END LIST*
D10*
%TO.C,J2*%
X152310000Y-83785000D03*
D11*
X152310000Y-85055000D03*
X151040000Y-83785000D03*
X151040000Y-85055000D03*
X149770000Y-83785000D03*
X149770000Y-85055000D03*
X148500000Y-83785000D03*
X148500000Y-85055000D03*
X147230000Y-83785000D03*
X147230000Y-85055000D03*
%TD*%
D12*
%TO.C,C1*%
X126729100Y-95673000D03*
X126729100Y-93773000D03*
%TD*%
D13*
%TO.C,R3*%
X134410000Y-113812500D03*
X134410000Y-115637500D03*
%TD*%
D14*
%TO.C,J3*%
X137245000Y-96455000D03*
D15*
X139785000Y-96455000D03*
X137245000Y-98995000D03*
X139785000Y-98995000D03*
X137245000Y-101535000D03*
X139785000Y-101535000D03*
X137245000Y-104075000D03*
X139785000Y-104075000D03*
X137245000Y-106615000D03*
X139785000Y-106615000D03*
X137245000Y-109155000D03*
X139785000Y-109155000D03*
X137245000Y-111695000D03*
X139785000Y-111695000D03*
X137245000Y-114235000D03*
X139785000Y-114235000D03*
%TD*%
D13*
%TO.C,R4*%
X132285000Y-113812500D03*
X132285000Y-115637500D03*
%TD*%
D14*
%TO.C,JP2*%
X120510000Y-122000000D03*
D15*
X117970000Y-122000000D03*
%TD*%
D14*
%TO.C,J4*%
X162645000Y-91375000D03*
D15*
X162645000Y-93915000D03*
X160105000Y-91375000D03*
X160105000Y-93915000D03*
X157565000Y-91375000D03*
X157565000Y-93915000D03*
X155025000Y-91375000D03*
X155025000Y-93915000D03*
X152485000Y-91375000D03*
X152485000Y-93915000D03*
X149945000Y-91375000D03*
X149945000Y-93915000D03*
X147405000Y-91375000D03*
X147405000Y-93915000D03*
X144865000Y-91375000D03*
X144865000Y-93915000D03*
%TD*%
D16*
%TO.C,H1*%
X119210000Y-113300000D03*
%TD*%
D17*
%TO.C,R1*%
X153580000Y-88445000D03*
X155405000Y-88445000D03*
%TD*%
D14*
%TO.C,JP1*%
X126270000Y-104436000D03*
D15*
X126270000Y-106976000D03*
X126270000Y-109516000D03*
%TD*%
D18*
%TO.C,J1*%
X125814100Y-85978000D03*
X120034100Y-85978000D03*
D19*
X126124100Y-87053000D03*
X125324100Y-87053000D03*
D20*
X124174100Y-87053000D03*
X123174100Y-87053000D03*
X122674100Y-87053000D03*
X121674100Y-87053000D03*
D19*
X120524100Y-87053000D03*
X119724100Y-87053000D03*
X119724100Y-87053000D03*
X120524100Y-87053000D03*
D20*
X121174100Y-87053000D03*
X122174100Y-87053000D03*
X123674100Y-87053000D03*
X124674100Y-87053000D03*
D19*
X125324100Y-87053000D03*
X126124100Y-87053000D03*
D21*
X127244100Y-86478000D03*
D22*
X127244100Y-82298000D03*
D21*
X118604100Y-86478000D03*
D22*
X118604100Y-82298000D03*
%TD*%
D14*
%TO.C,JP3*%
X120510000Y-117600000D03*
D15*
X117970000Y-117600000D03*
%TD*%
D14*
%TO.C,J5*%
X142325000Y-121855000D03*
D15*
X142325000Y-119315000D03*
X144865000Y-121855000D03*
X144865000Y-119315000D03*
X147405000Y-121855000D03*
X147405000Y-119315000D03*
X149945000Y-121855000D03*
X149945000Y-119315000D03*
X152485000Y-121855000D03*
X152485000Y-119315000D03*
X155025000Y-121855000D03*
X155025000Y-119315000D03*
X157565000Y-121855000D03*
X157565000Y-119315000D03*
X160105000Y-121855000D03*
X160105000Y-119315000D03*
%TD*%
D23*
%TO.C,SW1*%
X163150000Y-87685000D03*
X163150000Y-81185000D03*
X167650000Y-87685000D03*
X167650000Y-81185000D03*
%TD*%
D16*
%TO.C,H3*%
X164727800Y-121067600D03*
%TD*%
D24*
%TO.C,U1*%
X123554100Y-91998000D03*
X122284100Y-91998000D03*
X121014100Y-91998000D03*
X119744100Y-91998000D03*
X119744100Y-97248000D03*
X121014100Y-97248000D03*
X122284100Y-97248000D03*
X123554100Y-97248000D03*
%TD*%
D25*
%TO.C,Y1*%
X135685000Y-120350000D03*
X130805000Y-120350000D03*
%TD*%
D16*
%TO.C,H2*%
X139988200Y-91298800D03*
%TD*%
D26*
%TO.C,U2*%
X146810000Y-102865000D03*
X146810000Y-103365000D03*
X146810000Y-103865000D03*
X146810000Y-104365000D03*
X146810000Y-104865000D03*
X146810000Y-105365000D03*
X146810000Y-105865000D03*
X146810000Y-106365000D03*
X146810000Y-106865000D03*
X146810000Y-107365000D03*
X146810000Y-107865000D03*
X146810000Y-108365000D03*
X146810000Y-108865000D03*
X146810000Y-109365000D03*
X146810000Y-109865000D03*
X146810000Y-110365000D03*
D27*
X148735000Y-112290000D03*
X149235000Y-112290000D03*
X149735000Y-112290000D03*
X150235000Y-112290000D03*
X150735000Y-112290000D03*
X151235000Y-112290000D03*
X151735000Y-112290000D03*
X152235000Y-112290000D03*
X152735000Y-112290000D03*
X153235000Y-112290000D03*
X153735000Y-112290000D03*
X154235000Y-112290000D03*
X154735000Y-112290000D03*
X155235000Y-112290000D03*
X155735000Y-112290000D03*
X156235000Y-112290000D03*
D26*
X158160000Y-110365000D03*
X158160000Y-109865000D03*
X158160000Y-109365000D03*
X158160000Y-108865000D03*
X158160000Y-108365000D03*
X158160000Y-107865000D03*
X158160000Y-107365000D03*
X158160000Y-106865000D03*
X158160000Y-106365000D03*
X158160000Y-105865000D03*
X158160000Y-105365000D03*
X158160000Y-104865000D03*
X158160000Y-104365000D03*
X158160000Y-103865000D03*
X158160000Y-103365000D03*
X158160000Y-102865000D03*
D27*
X156235000Y-100940000D03*
X155735000Y-100940000D03*
X155235000Y-100940000D03*
X154735000Y-100940000D03*
X154235000Y-100940000D03*
X153735000Y-100940000D03*
X153235000Y-100940000D03*
X152735000Y-100940000D03*
X152235000Y-100940000D03*
X151735000Y-100940000D03*
X151235000Y-100940000D03*
X150735000Y-100940000D03*
X150235000Y-100940000D03*
X149735000Y-100940000D03*
X149235000Y-100940000D03*
X148735000Y-100940000D03*
%TD*%
D14*
%TO.C,J6*%
X167725000Y-116775000D03*
D15*
X165185000Y-116775000D03*
X167725000Y-114235000D03*
X165185000Y-114235000D03*
X167725000Y-111695000D03*
X165185000Y-111695000D03*
X167725000Y-109155000D03*
X165185000Y-109155000D03*
X167725000Y-106615000D03*
X165185000Y-106615000D03*
X167725000Y-104075000D03*
X165185000Y-104075000D03*
X167725000Y-101535000D03*
X165185000Y-101535000D03*
X167725000Y-98995000D03*
X165185000Y-98995000D03*
%TD*%
D28*
%TO.C,R2*%
X151600000Y-88425000D03*
X149775000Y-88425000D03*
%TD*%
M02*
